<?xml version="1.0" encoding="UTF-8" standalone="no"?>
<!DOCTYPE svg PUBLIC "-//W3C//DTD SVG 1.1//EN"
 "http://www.w3.org/Graphics/SVG/1.1/DTD/svg11.dtd">
<!-- Generated by graphviz version 2.43.0 (0)
 -->
<!-- Title: cart.models.CartItem Pages: 1 -->
<svg width="122pt" height="262pt"
 viewBox="0.00 0.00 122.00 262.00" xmlns="http://www.w3.org/2000/svg" xmlns:xlink="http://www.w3.org/1999/xlink">
<g id="graph0" class="graph" transform="scale(1 1) rotate(0) translate(4 258)">
<title>cart.models.CartItem</title>
<!-- Node1 -->
<g id="Node000001" class="node">
<title>Node1</title>
<g id="a_Node000001"><a xlink:title=" ">
<polygon fill="#999999" stroke="transparent" points="114,-169 0,-169 0,0 114,0 114,-169"/>
<text text-anchor="start" x="5" y="-156.5" font-family="Helvetica,sans-Serif" font-size="10.00">cart.models.CartItem</text>
<text text-anchor="start" x="9" y="-141.5" font-family="Helvetica,sans-Serif" font-size="10.00">+</text>
<text text-anchor="start" x="27" y="-141.5" font-family="Helvetica,sans-Serif" font-size="10.00">id</text>
<text text-anchor="start" x="9" y="-126.5" font-family="Helvetica,sans-Serif" font-size="10.00">+</text>
<text text-anchor="start" x="27" y="-126.5" font-family="Helvetica,sans-Serif" font-size="10.00">objects</text>
<text text-anchor="start" x="9" y="-111.5" font-family="Helvetica,sans-Serif" font-size="10.00">+</text>
<text text-anchor="start" x="27" y="-111.5" font-family="Helvetica,sans-Serif" font-size="10.00">user</text>
<text text-anchor="start" x="9" y="-96.5" font-family="Helvetica,sans-Serif" font-size="10.00">+</text>
<text text-anchor="start" x="27" y="-96.5" font-family="Helvetica,sans-Serif" font-size="10.00">item</text>
<text text-anchor="start" x="9" y="-81.5" font-family="Helvetica,sans-Serif" font-size="10.00">+</text>
<text text-anchor="start" x="27" y="-81.5" font-family="Helvetica,sans-Serif" font-size="10.00">quantity</text>
<text text-anchor="start" x="9" y="-66.5" font-family="Helvetica,sans-Serif" font-size="10.00">+</text>
<text text-anchor="start" x="27" y="-66.5" font-family="Helvetica,sans-Serif" font-size="10.00">created</text>
<text text-anchor="start" x="9" y="-51.5" font-family="Helvetica,sans-Serif" font-size="10.00">+</text>
<text text-anchor="start" x="27" y="-51.5" font-family="Helvetica,sans-Serif" font-size="10.00">purchased</text>
<text text-anchor="start" x="9" y="-36.5" font-family="Helvetica,sans-Serif" font-size="10.00">+</text>
<text text-anchor="start" x="27" y="-36.5" font-family="Helvetica,sans-Serif" font-size="10.00">__str__()</text>
<text text-anchor="start" x="9" y="-21.5" font-family="Helvetica,sans-Serif" font-size="10.00">+</text>
<text text-anchor="start" x="27" y="-21.5" font-family="Helvetica,sans-Serif" font-size="10.00">total_amount()</text>
<text text-anchor="start" x="9" y="-6.5" font-family="Helvetica,sans-Serif" font-size="10.00">+</text>
<text text-anchor="start" x="27" y="-6.5" font-family="Helvetica,sans-Serif" font-size="10.00">as_json()</text>
<polygon fill="#666666" stroke="#666666" points="0,-151.5 0,-151.5 114,-151.5 114,-151.5 0,-151.5"/>
<polygon fill="#666666" stroke="#666666" points="0,-46.5 0,-46.5 25,-46.5 25,-46.5 0,-46.5"/>
<polygon fill="#666666" stroke="#666666" points="25,-46.5 25,-46.5 114,-46.5 114,-46.5 25,-46.5"/>
<polygon fill="none" stroke="#666666" points="0,0 0,-169 114,-169 114,0 0,0"/>
</a>
</g>
</g>
<!-- Node2 -->
<g id="Node000002" class="node">
<title>Node2</title>
<g id="a_Node000002"><a xlink:title=" ">
<polygon fill="white" stroke="transparent" points="97,-254 17,-254 17,-205 97,-205 97,-254"/>
<text text-anchor="start" x="22" y="-241.5" font-family="Helvetica,sans-Serif" font-size="10.00">models.Model</text>
<text text-anchor="start" x="55" y="-226.5" font-family="Helvetica,sans-Serif" font-size="10.00"> </text>
<text text-anchor="start" x="55" y="-211.5" font-family="Helvetica,sans-Serif" font-size="10.00"> </text>
<polygon fill="#666666" stroke="#666666" points="17,-236.5 17,-236.5 97,-236.5 97,-236.5 17,-236.5"/>
<polygon fill="#666666" stroke="#666666" points="17,-221.5 17,-221.5 97,-221.5 97,-221.5 17,-221.5"/>
<polygon fill="none" stroke="#666666" points="17,-205 17,-254 97,-254 97,-205 17,-205"/>
</a>
</g>
</g>
<!-- Node2&#45;&gt;Node1 -->
<g id="edge2_Node000001_Node000002" class="edge">
<title>Node2&#45;&gt;Node1</title>
<g id="a_edge2_Node000001_Node000002"><a xlink:title=" ">
<path fill="none" stroke="#63b8ff" d="M57,-194.72C57,-186.84 57,-178.1 57,-169.1"/>
<polygon fill="none" stroke="#63b8ff" points="53.5,-194.89 57,-204.89 60.5,-194.89 53.5,-194.89"/>
</a>
</g>
</g>
</g>
</svg>
