<?xml version="1.0" encoding="UTF-8" standalone="no"?>
<!DOCTYPE svg PUBLIC "-//W3C//DTD SVG 1.1//EN"
 "http://www.w3.org/Graphics/SVG/1.1/DTD/svg11.dtd">
<!-- Generated by graphviz version 2.43.0 (0)
 -->
<!-- Title: cart.models.Order.order_total Pages: 1 -->
<svg width="382pt" height="172pt"
 viewBox="0.00 0.00 382.00 172.00" xmlns="http://www.w3.org/2000/svg" xmlns:xlink="http://www.w3.org/1999/xlink">
<g id="graph0" class="graph" transform="scale(1 1) rotate(0) translate(4 168)">
<title>cart.models.Order.order_total</title>
<!-- Node1 -->
<g id="Node000001" class="node">
<title>Node1</title>
<g id="a_Node000001"><a xlink:title=" ">
<polygon fill="#999999" stroke="#666666" points="132,-94 0,-94 0,-64 132,-64 132,-94"/>
<text text-anchor="start" x="8" y="-82" font-family="Helvetica,sans-Serif" font-size="10.00">cart.models.Order.order</text>
<text text-anchor="middle" x="66" y="-71" font-family="Helvetica,sans-Serif" font-size="10.00">_total</text>
</a>
</g>
</g>
<!-- Node2 -->
<g id="Node000002" class="node">
<title>Node2</title>
<g id="a_Node000002"><a xlink:href="$classaccounts_1_1sitemaps_1_1AccountSiteMap.html#a62730699fc75f9fb9c2e2c5847a2243f" xlink:title=" ">
<polygon fill="white" stroke="#666666" points="346,-164 196,-164 196,-134 346,-134 346,-164"/>
<text text-anchor="start" x="204" y="-152" font-family="Helvetica,sans-Serif" font-size="10.00">accounts.sitemaps.Account</text>
<text text-anchor="middle" x="271" y="-141" font-family="Helvetica,sans-Serif" font-size="10.00">SiteMap.items</text>
</a>
</g>
</g>
<!-- Node1&#45;&gt;Node2 -->
<g id="edge5_Node000001_Node000002" class="edge">
<title>Node1&#45;&gt;Node2</title>
<g id="a_edge5_Node000001_Node000002"><a xlink:title=" ">
<path fill="none" stroke="#63b8ff" d="M95.99,-94.05C115.85,-103.89 143.02,-116.47 168,-125 174.48,-127.21 181.25,-129.29 188.1,-131.23"/>
<polygon fill="#63b8ff" stroke="#63b8ff" points="187.59,-134.72 198.16,-133.97 189.43,-127.97 187.59,-134.72"/>
</a>
</g>
</g>
<!-- Node3 -->
<g id="Node000003" class="node">
<title>Node3</title>
<g id="a_Node000003"><a xlink:href="$classaccounts_1_1sitemaps_1_1AllAuthSitemap.html#af9bb58614780826c03188c8b0202c8b2" xlink:title=" ">
<polygon fill="white" stroke="#666666" points="344,-116 198,-116 198,-86 344,-86 344,-116"/>
<text text-anchor="start" x="206" y="-104" font-family="Helvetica,sans-Serif" font-size="10.00">accounts.sitemaps.AllAuth</text>
<text text-anchor="middle" x="271" y="-93" font-family="Helvetica,sans-Serif" font-size="10.00">Sitemap.items</text>
</a>
</g>
</g>
<!-- Node1&#45;&gt;Node3 -->
<g id="edge6_Node000001_Node000003" class="edge">
<title>Node1&#45;&gt;Node3</title>
<g id="a_edge6_Node000001_Node000003"><a xlink:title=" ">
<path fill="none" stroke="#63b8ff" d="M132.07,-86.05C149.78,-87.97 169.2,-90.08 187.73,-92.08"/>
<polygon fill="#63b8ff" stroke="#63b8ff" points="187.59,-95.59 197.91,-93.19 188.35,-88.63 187.59,-95.59"/>
</a>
</g>
</g>
<!-- Node4 -->
<g id="Node000004" class="node">
<title>Node4</title>
<g id="a_Node000004"><a xlink:href="$classmedical_1_1sitemaps_1_1StaticSitemap.html#a2f154156ebe0d87a7e18bf952f28f501" xlink:title=" ">
<polygon fill="white" stroke="#666666" points="374,-67.5 168,-67.5 168,-48.5 374,-48.5 374,-67.5"/>
<text text-anchor="middle" x="271" y="-55.5" font-family="Helvetica,sans-Serif" font-size="10.00">medical.sitemaps.StaticSitemap.items</text>
</a>
</g>
</g>
<!-- Node1&#45;&gt;Node4 -->
<g id="edge7_Node000001_Node000004" class="edge">
<title>Node1&#45;&gt;Node4</title>
<g id="a_edge7_Node000001_Node000004"><a xlink:title=" ">
<path fill="none" stroke="#63b8ff" d="M132.07,-72.27C143.48,-71.09 155.61,-69.83 167.75,-68.58"/>
<polygon fill="#63b8ff" stroke="#63b8ff" points="168.35,-72.03 177.93,-67.52 167.63,-65.07 168.35,-72.03"/>
</a>
</g>
</g>
<!-- Node5 -->
<g id="Node000005" class="node">
<title>Node5</title>
<g id="a_Node000005"><a xlink:href="$classmedicines_1_1sitemaps_1_1MedSiteMap.html#ac52d12ec32b8be8b3648e473426eda59" xlink:title=" ">
<polygon fill="white" stroke="#666666" points="350,-30 192,-30 192,0 350,0 350,-30"/>
<text text-anchor="start" x="200" y="-18" font-family="Helvetica,sans-Serif" font-size="10.00">medicines.sitemaps.MedSite</text>
<text text-anchor="middle" x="271" y="-7" font-family="Helvetica,sans-Serif" font-size="10.00">Map.items</text>
</a>
</g>
</g>
<!-- Node1&#45;&gt;Node5 -->
<g id="edge8_Node000001_Node000005" class="edge">
<title>Node1&#45;&gt;Node5</title>
<g id="a_edge8_Node000001_Node000005"><a xlink:title=" ">
<path fill="none" stroke="#63b8ff" d="M102.6,-63.97C121.77,-56.2 145.94,-46.93 168,-40 176.21,-37.42 184.87,-34.94 193.52,-32.61"/>
<polygon fill="#63b8ff" stroke="#63b8ff" points="194.49,-35.98 203.27,-30.05 192.71,-29.21 194.49,-35.98"/>
</a>
</g>
</g>
</g>
</svg>
