<?xml version="1.0" encoding="UTF-8" standalone="no"?>
<!DOCTYPE svg PUBLIC "-//W3C//DTD SVG 1.1//EN"
 "http://www.w3.org/Graphics/SVG/1.1/DTD/svg11.dtd">
<!-- Generated by graphviz version 2.43.0 (0)
 -->
<!-- Title: accounts.forms.ProfileForm Pages: 1 -->
<svg width="152pt" height="142pt"
 viewBox="0.00 0.00 152.00 142.00" xmlns="http://www.w3.org/2000/svg" xmlns:xlink="http://www.w3.org/1999/xlink">
<g id="graph0" class="graph" transform="scale(1 1) rotate(0) translate(4 138)">
<title>accounts.forms.ProfileForm</title>
<!-- Node1 -->
<g id="Node000001" class="node">
<title>Node1</title>
<g id="a_Node000001"><a xlink:title=" ">
<polygon fill="#999999" stroke="transparent" points="144,-49 0,-49 0,0 144,0 144,-49"/>
<text text-anchor="start" x="5" y="-36.5" font-family="Helvetica,sans-Serif" font-size="10.00">accounts.forms.ProfileForm</text>
<text text-anchor="start" x="70" y="-21.5" font-family="Helvetica,sans-Serif" font-size="10.00"> </text>
<text text-anchor="start" x="70" y="-6.5" font-family="Helvetica,sans-Serif" font-size="10.00"> </text>
<polygon fill="#666666" stroke="#666666" points="0,-31.5 0,-31.5 144,-31.5 144,-31.5 0,-31.5"/>
<polygon fill="#666666" stroke="#666666" points="0,-16.5 0,-16.5 144,-16.5 144,-16.5 0,-16.5"/>
<polygon fill="none" stroke="#666666" points="0,0 0,-49 144,-49 144,0 0,0"/>
</a>
</g>
</g>
<!-- Node2 -->
<g id="Node000002" class="node">
<title>Node2</title>
<g id="a_Node000002"><a xlink:title=" ">
<polygon fill="white" stroke="transparent" points="104.5,-134 39.5,-134 39.5,-85 104.5,-85 104.5,-134"/>
<text text-anchor="start" x="45" y="-121.5" font-family="Helvetica,sans-Serif" font-size="10.00">ModelForm</text>
<text text-anchor="start" x="70.5" y="-106.5" font-family="Helvetica,sans-Serif" font-size="10.00"> </text>
<text text-anchor="start" x="70.5" y="-91.5" font-family="Helvetica,sans-Serif" font-size="10.00"> </text>
<polygon fill="#666666" stroke="#666666" points="40,-116.5 40,-116.5 105,-116.5 105,-116.5 40,-116.5"/>
<polygon fill="#666666" stroke="#666666" points="40,-101.5 40,-101.5 105,-101.5 105,-101.5 40,-101.5"/>
<polygon fill="none" stroke="#666666" points="39.5,-85 39.5,-134 104.5,-134 104.5,-85 39.5,-85"/>
</a>
</g>
</g>
<!-- Node2&#45;&gt;Node1 -->
<g id="edge2_Node000001_Node000002" class="edge">
<title>Node2&#45;&gt;Node1</title>
<g id="a_edge2_Node000001_Node000002"><a xlink:title=" ">
<path fill="none" stroke="#63b8ff" d="M72,-74.77C72,-66.17 72,-57.1 72,-49.12"/>
<polygon fill="none" stroke="#63b8ff" points="68.5,-74.94 72,-84.94 75.5,-74.94 68.5,-74.94"/>
</a>
</g>
</g>
</g>
</svg>
