<?xml version="1.0" encoding="UTF-8" standalone="no"?>
<!DOCTYPE svg PUBLIC "-//W3C//DTD SVG 1.1//EN"
 "http://www.w3.org/Graphics/SVG/1.1/DTD/svg11.dtd">
<!-- Generated by graphviz version 2.43.0 (0)
 -->
<!-- Title: medicines.filters.ProductFilter.Meta Pages: 1 -->
<svg width="139pt" height="164pt"
 viewBox="0.00 0.00 139.00 164.00" xmlns="http://www.w3.org/2000/svg" xmlns:xlink="http://www.w3.org/1999/xlink">
<g id="graph0" class="graph" transform="scale(1 1) rotate(0) translate(4 160)">
<title>medicines.filters.ProductFilter.Meta</title>
<!-- Node1 -->
<g id="Node000001" class="node">
<title>Node1</title>
<g id="a_Node000001"><a xlink:title=" ">
<polygon fill="#999999" stroke="transparent" points="131,-60 0,-60 0,0 131,0 131,-60"/>
<text text-anchor="start" x="5.5" y="-48" font-family="Helvetica,sans-Serif" font-size="10.00">medicines.filters.Product</text>
<text text-anchor="start" x="40" y="-37" font-family="Helvetica,sans-Serif" font-size="10.00">Filter.Meta</text>
<text text-anchor="start" x="24" y="-22" font-family="Helvetica,sans-Serif" font-size="10.00">+</text>
<text text-anchor="start" x="56.5" y="-22" font-family="Helvetica,sans-Serif" font-size="10.00">model</text>
<text text-anchor="start" x="64" y="-7" font-family="Helvetica,sans-Serif" font-size="10.00"> </text>
<polygon fill="#666666" stroke="#666666" points="0.5,-32 0.5,-32 131.5,-32 131.5,-32 0.5,-32"/>
<polygon fill="#666666" stroke="#666666" points="0.5,-17 0.5,-17 54.5,-17 54.5,-17 0.5,-17"/>
<polygon fill="#666666" stroke="#666666" points="54.5,-17 54.5,-17 131.5,-17 131.5,-17 54.5,-17"/>
<polygon fill="none" stroke="#666666" points="0,0 0,-60 131,-60 131,0 0,0"/>
</a>
</g>
</g>
<!-- Node2 -->
<g id="Node000002" class="node">
<title>Node2</title>
<g id="a_Node000002"><a xlink:title=" ">
<polygon fill="white" stroke="transparent" points="78.5,-156 52.5,-156 52.5,-107 78.5,-107 78.5,-156"/>
<text text-anchor="start" x="57.5" y="-143.5" font-family="Helvetica,sans-Serif" font-size="10.00">list</text>
<text text-anchor="start" x="63.5" y="-128.5" font-family="Helvetica,sans-Serif" font-size="10.00"> </text>
<text text-anchor="start" x="63.5" y="-113.5" font-family="Helvetica,sans-Serif" font-size="10.00"> </text>
<polygon fill="#666666" stroke="#666666" points="52.5,-138.5 52.5,-138.5 78.5,-138.5 78.5,-138.5 52.5,-138.5"/>
<polygon fill="#666666" stroke="#666666" points="52.5,-123.5 52.5,-123.5 78.5,-123.5 78.5,-123.5 52.5,-123.5"/>
<polygon fill="none" stroke="#666666" points="52.5,-107 52.5,-156 78.5,-156 78.5,-107 52.5,-107"/>
</a>
</g>
</g>
<!-- Node2&#45;&gt;Node1 -->
<g id="edge2_Node000001_Node000002" class="edge">
<title>Node2&#45;&gt;Node1</title>
<g id="a_edge2_Node000001_Node000002"><a xlink:title=" ">
<path fill="none" stroke="#63b8ff" d="M65.5,-106.92C65.5,-96.51 65.5,-83.97 65.5,-72.1"/>
<polygon fill="none" stroke="#63b8ff" points="65.5,-72.1 61.5,-66.1 65.5,-60.1 69.5,-66.1 65.5,-72.1"/>
</a>
</g>
<text text-anchor="middle" x="84.5" y="-81" font-family="Helvetica,sans-Serif" font-size="10.00" fill="grey"> +fields</text>
</g>
</g>
</svg>
