<?xml version="1.0" encoding="UTF-8" standalone="no"?>
<!DOCTYPE svg PUBLIC "-//W3C//DTD SVG 1.1//EN"
 "http://www.w3.org/Graphics/SVG/1.1/DTD/svg11.dtd">
<!-- Generated by graphviz version 2.43.0 (0)
 -->
<!-- Title: accounts.apps.AccountsConfig Pages: 1 -->
<svg width="166pt" height="153pt"
 viewBox="0.00 0.00 166.00 153.00" xmlns="http://www.w3.org/2000/svg" xmlns:xlink="http://www.w3.org/1999/xlink">
<g id="graph0" class="graph" transform="scale(1 1) rotate(0) translate(4 149)">
<title>accounts.apps.AccountsConfig</title>
<!-- Node1 -->
<g id="Node000001" class="node">
<title>Node1</title>
<g id="a_Node000001"><a xlink:title=" ">
<polygon fill="#999999" stroke="transparent" points="158,-49 0,-49 0,0 158,0 158,-49"/>
<text text-anchor="start" x="5" y="-36.5" font-family="Helvetica,sans-Serif" font-size="10.00">accounts.apps.AccountsConfig</text>
<text text-anchor="start" x="77" y="-21.5" font-family="Helvetica,sans-Serif" font-size="10.00"> </text>
<text text-anchor="start" x="77" y="-6.5" font-family="Helvetica,sans-Serif" font-size="10.00"> </text>
<polygon fill="#666666" stroke="#666666" points="0,-31.5 0,-31.5 158,-31.5 158,-31.5 0,-31.5"/>
<polygon fill="#666666" stroke="#666666" points="0,-16.5 0,-16.5 158,-16.5 158,-16.5 0,-16.5"/>
<polygon fill="none" stroke="#666666" points="0,0 0,-49 158,-49 158,0 0,0"/>
</a>
</g>
</g>
<!-- Node2 -->
<g id="Node000002" class="node">
<title>Node2</title>
<g id="a_Node000002"><a xlink:title=" ">
<polygon fill="white" stroke="transparent" points="79,-145 19,-145 19,-96 79,-96 79,-145"/>
<text text-anchor="start" x="24" y="-132.5" font-family="Helvetica,sans-Serif" font-size="10.00">AppConfig</text>
<text text-anchor="start" x="47" y="-117.5" font-family="Helvetica,sans-Serif" font-size="10.00"> </text>
<text text-anchor="start" x="47" y="-102.5" font-family="Helvetica,sans-Serif" font-size="10.00"> </text>
<polygon fill="#666666" stroke="#666666" points="19,-127.5 19,-127.5 79,-127.5 79,-127.5 19,-127.5"/>
<polygon fill="#666666" stroke="#666666" points="19,-112.5 19,-112.5 79,-112.5 79,-112.5 19,-112.5"/>
<polygon fill="none" stroke="#666666" points="19,-96 19,-145 79,-145 79,-96 19,-96"/>
</a>
</g>
</g>
<!-- Node2&#45;&gt;Node1 -->
<g id="edge3_Node000001_Node000002" class="edge">
<title>Node2&#45;&gt;Node1</title>
<g id="a_edge3_Node000001_Node000002"><a xlink:title=" ">
<path fill="none" stroke="#63b8ff" d="M59.7,-85.96C63.58,-73.81 67.88,-60.34 71.43,-49.21"/>
<polygon fill="none" stroke="#63b8ff" points="56.28,-85.19 56.57,-95.78 62.95,-87.32 56.28,-85.19"/>
</a>
</g>
</g>
<!-- Node3 -->
<g id="Node000003" class="node">
<title>Node3</title>
<g id="a_Node000003"><a xlink:title=" ">
<polygon fill="white" stroke="transparent" points="120.5,-145 97.5,-145 97.5,-96 120.5,-96 120.5,-145"/>
<text text-anchor="start" x="103" y="-132.5" font-family="Helvetica,sans-Serif" font-size="10.00">str</text>
<text text-anchor="start" x="107.5" y="-117.5" font-family="Helvetica,sans-Serif" font-size="10.00"> </text>
<text text-anchor="start" x="107.5" y="-102.5" font-family="Helvetica,sans-Serif" font-size="10.00"> </text>
<polygon fill="#666666" stroke="#666666" points="98,-127.5 98,-127.5 121,-127.5 121,-127.5 98,-127.5"/>
<polygon fill="#666666" stroke="#666666" points="98,-112.5 98,-112.5 121,-112.5 121,-112.5 98,-112.5"/>
<polygon fill="none" stroke="#666666" points="97.5,-96 97.5,-145 120.5,-145 120.5,-96 97.5,-96"/>
</a>
</g>
</g>
<!-- Node3&#45;&gt;Node1 -->
<g id="edge4_Node000001_Node000003" class="edge">
<title>Node3&#45;&gt;Node1</title>
<g id="a_edge4_Node000001_Node000003"><a xlink:title=" ">
<path fill="none" stroke="#63b8ff" d="M101.43,-95.78C98.05,-85.2 94.01,-72.52 90.29,-60.86"/>
<polygon fill="none" stroke="#63b8ff" points="90.22,-60.64 84.58,-56.14 86.57,-49.21 92.2,-53.71 90.22,-60.64"/>
</a>
</g>
<text text-anchor="middle" x="114" y="-70" font-family="Helvetica,sans-Serif" font-size="10.00" fill="grey"> +name</text>
</g>
</g>
</svg>
