<?xml version="1.0" encoding="UTF-8" standalone="no"?>
<!DOCTYPE svg PUBLIC "-//W3C//DTD SVG 1.1//EN"
 "http://www.w3.org/Graphics/SVG/1.1/DTD/svg11.dtd">
<!-- Generated by graphviz version 2.43.0 (0)
 -->
<!-- Title: medicines.apps.MedicinesConfig Pages: 1 -->
<svg width="148pt" height="153pt"
 viewBox="0.00 0.00 148.00 153.00" xmlns="http://www.w3.org/2000/svg" xmlns:xlink="http://www.w3.org/1999/xlink">
<g id="graph0" class="graph" transform="scale(1 1) rotate(0) translate(4 149)">
<title>medicines.apps.MedicinesConfig</title>
<!-- Node1 -->
<g id="Node000001" class="node">
<title>Node1</title>
<g id="a_Node000001"><a xlink:title=" ">
<polygon fill="#999999" stroke="transparent" points="140,-60 0,-60 0,0 140,0 140,-60"/>
<text text-anchor="start" x="5" y="-48" font-family="Helvetica,sans-Serif" font-size="10.00">medicines.apps.Medicines</text>
<text text-anchor="start" x="54.5" y="-37" font-family="Helvetica,sans-Serif" font-size="10.00">Config</text>
<text text-anchor="start" x="26.5" y="-22" font-family="Helvetica,sans-Serif" font-size="10.00">+</text>
<text text-anchor="start" x="62" y="-22" font-family="Helvetica,sans-Serif" font-size="10.00">name</text>
<text text-anchor="start" x="68" y="-7" font-family="Helvetica,sans-Serif" font-size="10.00"> </text>
<polygon fill="#666666" stroke="#666666" points="0,-32 0,-32 140,-32 140,-32 0,-32"/>
<polygon fill="#666666" stroke="#666666" points="0,-17 0,-17 60,-17 60,-17 0,-17"/>
<polygon fill="#666666" stroke="#666666" points="60,-17 60,-17 140,-17 140,-17 60,-17"/>
<polygon fill="none" stroke="#666666" points="0,0 0,-60 140,-60 140,0 0,0"/>
</a>
</g>
</g>
<!-- Node2 -->
<g id="Node000002" class="node">
<title>Node2</title>
<g id="a_Node000002"><a xlink:title=" ">
<polygon fill="white" stroke="transparent" points="100,-145 40,-145 40,-96 100,-96 100,-145"/>
<text text-anchor="start" x="45" y="-132.5" font-family="Helvetica,sans-Serif" font-size="10.00">AppConfig</text>
<text text-anchor="start" x="68" y="-117.5" font-family="Helvetica,sans-Serif" font-size="10.00"> </text>
<text text-anchor="start" x="68" y="-102.5" font-family="Helvetica,sans-Serif" font-size="10.00"> </text>
<polygon fill="#666666" stroke="#666666" points="40,-127.5 40,-127.5 100,-127.5 100,-127.5 40,-127.5"/>
<polygon fill="#666666" stroke="#666666" points="40,-112.5 40,-112.5 100,-112.5 100,-112.5 40,-112.5"/>
<polygon fill="none" stroke="#666666" points="40,-96 40,-145 100,-145 100,-96 40,-96"/>
</a>
</g>
</g>
<!-- Node2&#45;&gt;Node1 -->
<g id="edge2_Node000001_Node000002" class="edge">
<title>Node2&#45;&gt;Node1</title>
<g id="a_edge2_Node000001_Node000002"><a xlink:title=" ">
<path fill="none" stroke="#63b8ff" d="M70,-85.55C70,-77.18 70,-68.28 70,-60.16"/>
<polygon fill="none" stroke="#63b8ff" points="66.5,-85.78 70,-95.78 73.5,-85.78 66.5,-85.78"/>
</a>
</g>
</g>
</g>
</svg>
