<?xml version="1.0" encoding="UTF-8" standalone="no"?>
<!DOCTYPE svg PUBLIC "-//W3C//DTD SVG 1.1//EN"
 "http://www.w3.org/Graphics/SVG/1.1/DTD/svg11.dtd">
<!-- Generated by graphviz version 2.43.0 (0)
 -->
<!-- Title: accounts.forms.ProfileForm.Meta Pages: 1 -->
<svg width="180pt" height="153pt"
 viewBox="0.00 0.00 180.00 153.00" xmlns="http://www.w3.org/2000/svg" xmlns:xlink="http://www.w3.org/1999/xlink">
<g id="graph0" class="graph" transform="scale(1 1) rotate(0) translate(4 149)">
<title>accounts.forms.ProfileForm.Meta</title>
<!-- Node1 -->
<g id="Node000001" class="node">
<title>Node1</title>
<g id="a_Node000001"><a xlink:title=" ">
<polygon fill="#999999" stroke="transparent" points="172,-49 0,-49 0,0 172,0 172,-49"/>
<text text-anchor="start" x="5" y="-36.5" font-family="Helvetica,sans-Serif" font-size="10.00">accounts.forms.ProfileForm.Meta</text>
<text text-anchor="start" x="34" y="-21.5" font-family="Helvetica,sans-Serif" font-size="10.00">+</text>
<text text-anchor="start" x="77" y="-21.5" font-family="Helvetica,sans-Serif" font-size="10.00">model</text>
<text text-anchor="start" x="84" y="-6.5" font-family="Helvetica,sans-Serif" font-size="10.00"> </text>
<polygon fill="#666666" stroke="#666666" points="0,-31.5 0,-31.5 172,-31.5 172,-31.5 0,-31.5"/>
<polygon fill="#666666" stroke="#666666" points="0,-16.5 0,-16.5 75,-16.5 75,-16.5 0,-16.5"/>
<polygon fill="#666666" stroke="#666666" points="75,-16.5 75,-16.5 172,-16.5 172,-16.5 75,-16.5"/>
<polygon fill="none" stroke="#666666" points="0,0 0,-49 172,-49 172,0 0,0"/>
</a>
</g>
</g>
<!-- Node2 -->
<g id="Node000002" class="node">
<title>Node2</title>
<g id="a_Node000002"><a xlink:title=" ">
<polygon fill="white" stroke="transparent" points="103.5,-145 68.5,-145 68.5,-96 103.5,-96 103.5,-145"/>
<text text-anchor="start" x="74" y="-132.5" font-family="Helvetica,sans-Serif" font-size="10.00">tuple</text>
<text text-anchor="start" x="84.5" y="-117.5" font-family="Helvetica,sans-Serif" font-size="10.00"> </text>
<text text-anchor="start" x="84.5" y="-102.5" font-family="Helvetica,sans-Serif" font-size="10.00"> </text>
<polygon fill="#666666" stroke="#666666" points="69,-127.5 69,-127.5 104,-127.5 104,-127.5 69,-127.5"/>
<polygon fill="#666666" stroke="#666666" points="69,-112.5 69,-112.5 104,-112.5 104,-112.5 69,-112.5"/>
<polygon fill="none" stroke="#666666" points="68.5,-96 68.5,-145 103.5,-145 103.5,-96 68.5,-96"/>
</a>
</g>
</g>
<!-- Node2&#45;&gt;Node1 -->
<g id="edge2_Node000001_Node000002" class="edge">
<title>Node2&#45;&gt;Node1</title>
<g id="a_edge2_Node000001_Node000002"><a xlink:title=" ">
<path fill="none" stroke="#63b8ff" d="M86,-95.78C86,-85.32 86,-72.79 86,-61.23"/>
<polygon fill="none" stroke="#63b8ff" points="86,-61.21 82,-55.21 86,-49.21 90,-55.21 86,-61.21"/>
</a>
</g>
<text text-anchor="middle" x="111" y="-70" font-family="Helvetica,sans-Serif" font-size="10.00" fill="grey"> +exclude</text>
</g>
</g>
</svg>
