<?xml version="1.0" encoding="UTF-8" standalone="no"?>
<!DOCTYPE svg PUBLIC "-//W3C//DTD SVG 1.1//EN"
 "http://www.w3.org/Graphics/SVG/1.1/DTD/svg11.dtd">
<!-- Generated by graphviz version 2.43.0 (0)
 -->
<!-- Title: medical.sitemaps.StaticSitemap Pages: 1 -->
<svg width="259pt" height="168pt"
 viewBox="0.00 0.00 258.50 168.00" xmlns="http://www.w3.org/2000/svg" xmlns:xlink="http://www.w3.org/1999/xlink">
<g id="graph0" class="graph" transform="scale(1 1) rotate(0) translate(4 164)">
<title>medical.sitemaps.StaticSitemap</title>
<!-- Node1 -->
<g id="Node000001" class="node">
<title>Node1</title>
<g id="a_Node000001"><a xlink:title=" ">
<polygon fill="#999999" stroke="transparent" points="213,-64 44,-64 44,0 213,0 213,-64"/>
<text text-anchor="start" x="49.5" y="-52" font-family="Helvetica,sans-Serif" font-size="10.00">medical.sitemaps.StaticSitemap</text>
<text text-anchor="start" x="127" y="-37" font-family="Helvetica,sans-Serif" font-size="10.00"> </text>
<text text-anchor="start" x="73.5" y="-22" font-family="Helvetica,sans-Serif" font-size="10.00">+</text>
<text text-anchor="start" x="111.5" y="-22" font-family="Helvetica,sans-Serif" font-size="10.00">items()</text>
<text text-anchor="start" x="73.5" y="-7" font-family="Helvetica,sans-Serif" font-size="10.00">+</text>
<text text-anchor="start" x="111.5" y="-7" font-family="Helvetica,sans-Serif" font-size="10.00">location()</text>
<polygon fill="#666666" stroke="#666666" points="44.5,-47 44.5,-47 213.5,-47 213.5,-47 44.5,-47"/>
<polygon fill="#666666" stroke="#666666" points="44.5,-32 44.5,-32 213.5,-32 213.5,-32 44.5,-32"/>
<polygon fill="none" stroke="#666666" points="44,0 44,-64 213,-64 213,0 44,0"/>
</a>
</g>
</g>
<!-- Node2 -->
<g id="Node000002" class="node">
<title>Node2</title>
<g id="a_Node000002"><a xlink:title=" ">
<polygon fill="white" stroke="transparent" points="99,-160 0,-160 0,-111 99,-111 99,-160"/>
<text text-anchor="start" x="5.5" y="-147.5" font-family="Helvetica,sans-Serif" font-size="10.00">sitemaps.Sitemap</text>
<text text-anchor="start" x="48" y="-132.5" font-family="Helvetica,sans-Serif" font-size="10.00"> </text>
<text text-anchor="start" x="48" y="-117.5" font-family="Helvetica,sans-Serif" font-size="10.00"> </text>
<polygon fill="#666666" stroke="#666666" points="0.5,-142.5 0.5,-142.5 99.5,-142.5 99.5,-142.5 0.5,-142.5"/>
<polygon fill="#666666" stroke="#666666" points="0.5,-127.5 0.5,-127.5 99.5,-127.5 99.5,-127.5 0.5,-127.5"/>
<polygon fill="none" stroke="#666666" points="0,-111 0,-160 99,-160 99,-111 0,-111"/>
</a>
</g>
</g>
<!-- Node2&#45;&gt;Node1 -->
<g id="edge4_Node000001_Node000002" class="edge">
<title>Node2&#45;&gt;Node1</title>
<g id="a_edge4_Node000001_Node000002"><a xlink:title=" ">
<path fill="none" stroke="#63b8ff" d="M74.21,-102.75C83.8,-90.43 94.75,-76.37 104.29,-64.11"/>
<polygon fill="none" stroke="#63b8ff" points="71.2,-100.92 67.82,-110.96 76.73,-105.22 71.2,-100.92"/>
</a>
</g>
</g>
<!-- Node3 -->
<g id="Node000003" class="node">
<title>Node3</title>
<g id="a_Node000003"><a xlink:title=" ">
<polygon fill="white" stroke="transparent" points="140,-160 117,-160 117,-111 140,-111 140,-160"/>
<text text-anchor="start" x="122.5" y="-147.5" font-family="Helvetica,sans-Serif" font-size="10.00">str</text>
<text text-anchor="start" x="127" y="-132.5" font-family="Helvetica,sans-Serif" font-size="10.00"> </text>
<text text-anchor="start" x="127" y="-117.5" font-family="Helvetica,sans-Serif" font-size="10.00"> </text>
<polygon fill="#666666" stroke="#666666" points="117.5,-142.5 117.5,-142.5 140.5,-142.5 140.5,-142.5 117.5,-142.5"/>
<polygon fill="#666666" stroke="#666666" points="117.5,-127.5 117.5,-127.5 140.5,-127.5 140.5,-127.5 117.5,-127.5"/>
<polygon fill="none" stroke="#666666" points="117,-111 117,-160 140,-160 140,-111 117,-111"/>
</a>
</g>
</g>
<!-- Node3&#45;&gt;Node1 -->
<g id="edge5_Node000001_Node000003" class="edge">
<title>Node3&#45;&gt;Node1</title>
<g id="a_edge5_Node000001_Node000003"><a xlink:title=" ">
<path fill="none" stroke="#63b8ff" d="M128.5,-110.96C128.5,-100.61 128.5,-88.13 128.5,-76.21"/>
<polygon fill="none" stroke="#63b8ff" points="128.5,-76.11 124.5,-70.11 128.5,-64.11 132.5,-70.11 128.5,-76.11"/>
</a>
</g>
<text text-anchor="middle" x="162.5" y="-85" font-family="Helvetica,sans-Serif" font-size="10.00" fill="grey"> +changeFreq</text>
</g>
<!-- Node4 -->
<g id="Node000004" class="node">
<title>Node4</title>
<g id="a_Node000004"><a xlink:title=" ">
<polygon fill="white" stroke="transparent" points="231,-160 208,-160 208,-111 231,-111 231,-160"/>
<text text-anchor="start" x="213.5" y="-147.5" font-family="Helvetica,sans-Serif" font-size="10.00">int</text>
<text text-anchor="start" x="218" y="-132.5" font-family="Helvetica,sans-Serif" font-size="10.00"> </text>
<text text-anchor="start" x="218" y="-117.5" font-family="Helvetica,sans-Serif" font-size="10.00"> </text>
<polygon fill="#666666" stroke="#666666" points="208.5,-142.5 208.5,-142.5 231.5,-142.5 231.5,-142.5 208.5,-142.5"/>
<polygon fill="#666666" stroke="#666666" points="208.5,-127.5 208.5,-127.5 231.5,-127.5 231.5,-127.5 208.5,-127.5"/>
<polygon fill="none" stroke="#666666" points="208,-111 208,-160 231,-160 231,-111 208,-111"/>
</a>
</g>
</g>
<!-- Node4&#45;&gt;Node1 -->
<g id="edge6_Node000001_Node000004" class="edge">
<title>Node4&#45;&gt;Node1</title>
<g id="a_edge6_Node000001_Node000004"><a xlink:title=" ">
<path fill="none" stroke="#63b8ff" d="M212.73,-110.77C209.22,-101.18 204.23,-90.41 197.5,-82 194.85,-78.69 191.92,-75.5 188.8,-72.45"/>
<polygon fill="none" stroke="#63b8ff" points="188.56,-72.24 181.43,-71.21 179.62,-64.23 186.76,-65.25 188.56,-72.24"/>
</a>
</g>
<text text-anchor="middle" x="227" y="-85" font-family="Helvetica,sans-Serif" font-size="10.00" fill="grey"> +priority</text>
</g>
</g>
</svg>
