<?xml version="1.0" encoding="UTF-8" standalone="no"?>
<!DOCTYPE svg PUBLIC "-//W3C//DTD SVG 1.1//EN"
 "http://www.w3.org/Graphics/SVG/1.1/DTD/svg11.dtd">
<!-- Generated by graphviz version 2.43.0 (0)
 -->
<!-- Title: api.apps.ApiConfig Pages: 1 -->
<svg width="123pt" height="153pt"
 viewBox="0.00 0.00 123.00 153.00" xmlns="http://www.w3.org/2000/svg" xmlns:xlink="http://www.w3.org/1999/xlink">
<g id="graph0" class="graph" transform="scale(1 1) rotate(0) translate(4 149)">
<title>api.apps.ApiConfig</title>
<!-- Node1 -->
<g id="Node000001" class="node">
<title>Node1</title>
<g id="a_Node000001"><a xlink:title=" ">
<polygon fill="#999999" stroke="transparent" points="110.5,-49 9.5,-49 9.5,0 110.5,0 110.5,-49"/>
<text text-anchor="start" x="15" y="-36.5" font-family="Helvetica,sans-Serif" font-size="10.00">api.apps.ApiConfig</text>
<text text-anchor="start" x="58.5" y="-21.5" font-family="Helvetica,sans-Serif" font-size="10.00"> </text>
<text text-anchor="start" x="58.5" y="-6.5" font-family="Helvetica,sans-Serif" font-size="10.00"> </text>
<polygon fill="#666666" stroke="#666666" points="10,-31.5 10,-31.5 111,-31.5 111,-31.5 10,-31.5"/>
<polygon fill="#666666" stroke="#666666" points="10,-16.5 10,-16.5 111,-16.5 111,-16.5 10,-16.5"/>
<polygon fill="none" stroke="#666666" points="9.5,0 9.5,-49 110.5,-49 110.5,0 9.5,0"/>
</a>
</g>
</g>
<!-- Node2 -->
<g id="Node000002" class="node">
<title>Node2</title>
<g id="a_Node000002"><a xlink:title=" ">
<polygon fill="white" stroke="transparent" points="60,-145 0,-145 0,-96 60,-96 60,-145"/>
<text text-anchor="start" x="5" y="-132.5" font-family="Helvetica,sans-Serif" font-size="10.00">AppConfig</text>
<text text-anchor="start" x="28" y="-117.5" font-family="Helvetica,sans-Serif" font-size="10.00"> </text>
<text text-anchor="start" x="28" y="-102.5" font-family="Helvetica,sans-Serif" font-size="10.00"> </text>
<polygon fill="#666666" stroke="#666666" points="0,-127.5 0,-127.5 60,-127.5 60,-127.5 0,-127.5"/>
<polygon fill="#666666" stroke="#666666" points="0,-112.5 0,-112.5 60,-112.5 60,-112.5 0,-112.5"/>
<polygon fill="none" stroke="#666666" points="0,-96 0,-145 60,-145 60,-96 0,-96"/>
</a>
</g>
</g>
<!-- Node2&#45;&gt;Node1 -->
<g id="edge3_Node000001_Node000002" class="edge">
<title>Node2&#45;&gt;Node1</title>
<g id="a_edge3_Node000001_Node000002"><a xlink:title=" ">
<path fill="none" stroke="#63b8ff" d="M40.7,-85.96C44.58,-73.81 48.88,-60.34 52.43,-49.21"/>
<polygon fill="none" stroke="#63b8ff" points="37.28,-85.19 37.57,-95.78 43.95,-87.32 37.28,-85.19"/>
</a>
</g>
</g>
<!-- Node3 -->
<g id="Node000003" class="node">
<title>Node3</title>
<g id="a_Node000003"><a xlink:title=" ">
<polygon fill="white" stroke="transparent" points="101.5,-145 78.5,-145 78.5,-96 101.5,-96 101.5,-145"/>
<text text-anchor="start" x="84" y="-132.5" font-family="Helvetica,sans-Serif" font-size="10.00">str</text>
<text text-anchor="start" x="88.5" y="-117.5" font-family="Helvetica,sans-Serif" font-size="10.00"> </text>
<text text-anchor="start" x="88.5" y="-102.5" font-family="Helvetica,sans-Serif" font-size="10.00"> </text>
<polygon fill="#666666" stroke="#666666" points="79,-127.5 79,-127.5 102,-127.5 102,-127.5 79,-127.5"/>
<polygon fill="#666666" stroke="#666666" points="79,-112.5 79,-112.5 102,-112.5 102,-112.5 79,-112.5"/>
<polygon fill="none" stroke="#666666" points="78.5,-96 78.5,-145 101.5,-145 101.5,-96 78.5,-96"/>
</a>
</g>
</g>
<!-- Node3&#45;&gt;Node1 -->
<g id="edge4_Node000001_Node000003" class="edge">
<title>Node3&#45;&gt;Node1</title>
<g id="a_edge4_Node000001_Node000003"><a xlink:title=" ">
<path fill="none" stroke="#63b8ff" d="M82.43,-95.78C79.05,-85.2 75.01,-72.52 71.29,-60.86"/>
<polygon fill="none" stroke="#63b8ff" points="71.22,-60.64 65.58,-56.14 67.57,-49.21 73.2,-53.71 71.22,-60.64"/>
</a>
</g>
<text text-anchor="middle" x="95" y="-70" font-family="Helvetica,sans-Serif" font-size="10.00" fill="grey"> +name</text>
</g>
</g>
</svg>
