<?xml version="1.0" encoding="UTF-8" standalone="no"?>
<!DOCTYPE svg PUBLIC "-//W3C//DTD SVG 1.1//EN"
 "http://www.w3.org/Graphics/SVG/1.1/DTD/svg11.dtd">
<!-- Generated by graphviz version 2.43.0 (0)
 -->
<!-- Title: medicines.views.MedListView Pages: 1 -->
<svg width="269pt" height="239pt"
 viewBox="0.00 0.00 268.50 239.00" xmlns="http://www.w3.org/2000/svg" xmlns:xlink="http://www.w3.org/1999/xlink">
<g id="graph0" class="graph" transform="scale(1 1) rotate(0) translate(4 235)">
<title>medicines.views.MedListView</title>
<!-- Node1 -->
<g id="Node000001" class="node">
<title>Node1</title>
<g id="a_Node000001"><a xlink:title=" ">
<polygon fill="#999999" stroke="transparent" points="220.5,-49 62.5,-49 62.5,0 220.5,0 220.5,-49"/>
<text text-anchor="start" x="67.5" y="-36.5" font-family="Helvetica,sans-Serif" font-size="10.00">medicines.views.MedListView</text>
<text text-anchor="start" x="77.5" y="-21.5" font-family="Helvetica,sans-Serif" font-size="10.00">+</text>
<text text-anchor="start" x="101.5" y="-21.5" font-family="Helvetica,sans-Serif" font-size="10.00">model</text>
<text text-anchor="start" x="77.5" y="-6.5" font-family="Helvetica,sans-Serif" font-size="10.00">+</text>
<text text-anchor="start" x="101.5" y="-6.5" font-family="Helvetica,sans-Serif" font-size="10.00">get_context_data()</text>
<polygon fill="#666666" stroke="#666666" points="62.5,-31.5 62.5,-31.5 220.5,-31.5 220.5,-31.5 62.5,-31.5"/>
<polygon fill="#666666" stroke="#666666" points="62.5,-16.5 62.5,-16.5 99.5,-16.5 99.5,-16.5 62.5,-16.5"/>
<polygon fill="#666666" stroke="#666666" points="99.5,-16.5 99.5,-16.5 220.5,-16.5 220.5,-16.5 99.5,-16.5"/>
<polygon fill="none" stroke="#666666" points="62.5,0 62.5,-49 220.5,-49 220.5,0 62.5,0"/>
</a>
</g>
</g>
<!-- Node2 -->
<g id="Node000002" class="node">
<title>Node2</title>
<g id="a_Node000002"><a xlink:href="$classmedicines_1_1owner_1_1OwnerListView.html" xlink:title=" ">
<polygon fill="white" stroke="transparent" points="169,-145 0,-145 0,-96 169,-96 169,-145"/>
<text text-anchor="start" x="5.5" y="-132.5" font-family="Helvetica,sans-Serif" font-size="10.00">medicines.owner.OwnerListView</text>
<text text-anchor="start" x="83" y="-117.5" font-family="Helvetica,sans-Serif" font-size="10.00"> </text>
<text text-anchor="start" x="83" y="-102.5" font-family="Helvetica,sans-Serif" font-size="10.00"> </text>
<polygon fill="#666666" stroke="#666666" points="0.5,-127.5 0.5,-127.5 169.5,-127.5 169.5,-127.5 0.5,-127.5"/>
<polygon fill="#666666" stroke="#666666" points="0.5,-112.5 0.5,-112.5 169.5,-112.5 169.5,-112.5 0.5,-112.5"/>
<polygon fill="none" stroke="#666666" points="0,-96 0,-145 169,-145 169,-96 0,-96"/>
</a>
</g>
</g>
<!-- Node2&#45;&gt;Node1 -->
<g id="edge4_Node000001_Node000002" class="edge">
<title>Node2&#45;&gt;Node1</title>
<g id="a_edge4_Node000001_Node000002"><a xlink:title=" ">
<path fill="none" stroke="#63b8ff" d="M104.18,-87.05C111.72,-74.62 120.17,-60.68 127.12,-49.21"/>
<polygon fill="none" stroke="#63b8ff" points="101.08,-85.41 98.88,-95.78 107.06,-89.04 101.08,-85.41"/>
</a>
</g>
</g>
<!-- Node3 -->
<g id="Node000003" class="node">
<title>Node3</title>
<g id="a_Node000003"><a xlink:title=" ">
<polygon fill="white" stroke="transparent" points="131.5,-231 37.5,-231 37.5,-182 131.5,-182 131.5,-231"/>
<text text-anchor="start" x="42.5" y="-218.5" font-family="Helvetica,sans-Serif" font-size="10.00">generic::ListView</text>
<text text-anchor="start" x="82.5" y="-203.5" font-family="Helvetica,sans-Serif" font-size="10.00"> </text>
<text text-anchor="start" x="82.5" y="-188.5" font-family="Helvetica,sans-Serif" font-size="10.00"> </text>
<polygon fill="#666666" stroke="#666666" points="37.5,-213.5 37.5,-213.5 131.5,-213.5 131.5,-213.5 37.5,-213.5"/>
<polygon fill="#666666" stroke="#666666" points="37.5,-198.5 37.5,-198.5 131.5,-198.5 131.5,-198.5 37.5,-198.5"/>
<polygon fill="none" stroke="#666666" points="37.5,-182 37.5,-231 131.5,-231 131.5,-182 37.5,-182"/>
</a>
</g>
</g>
<!-- Node3&#45;&gt;Node2 -->
<g id="edge5_Node000002_Node000003" class="edge">
<title>Node3&#45;&gt;Node2</title>
<g id="a_edge5_Node000002_Node000003"><a xlink:title=" ">
<path fill="none" stroke="#63b8ff" d="M84.5,-171.57C84.5,-162.69 84.5,-153.32 84.5,-145.12"/>
<polygon fill="none" stroke="#63b8ff" points="81,-171.65 84.5,-181.65 88,-171.65 81,-171.65"/>
</a>
</g>
</g>
<!-- Node4 -->
<g id="Node000004" class="node">
<title>Node4</title>
<g id="a_Node000004"><a xlink:title=" ">
<polygon fill="white" stroke="transparent" points="210,-145 187,-145 187,-96 210,-96 210,-145"/>
<text text-anchor="start" x="192.5" y="-132.5" font-family="Helvetica,sans-Serif" font-size="10.00">str</text>
<text text-anchor="start" x="197" y="-117.5" font-family="Helvetica,sans-Serif" font-size="10.00"> </text>
<text text-anchor="start" x="197" y="-102.5" font-family="Helvetica,sans-Serif" font-size="10.00"> </text>
<polygon fill="#666666" stroke="#666666" points="187.5,-127.5 187.5,-127.5 210.5,-127.5 210.5,-127.5 187.5,-127.5"/>
<polygon fill="#666666" stroke="#666666" points="187.5,-112.5 187.5,-112.5 210.5,-112.5 210.5,-112.5 187.5,-112.5"/>
<polygon fill="none" stroke="#666666" points="187,-96 187,-145 210,-145 210,-96 187,-96"/>
</a>
</g>
</g>
<!-- Node4&#45;&gt;Node1 -->
<g id="edge6_Node000001_Node000004" class="edge">
<title>Node4&#45;&gt;Node1</title>
<g id="a_edge6_Node000001_Node000004"><a xlink:title=" ">
<path fill="none" stroke="#63b8ff" d="M186.97,-100.48C179.88,-88.79 170.6,-73.48 162.27,-59.75"/>
<polygon fill="none" stroke="#63b8ff" points="162.07,-59.43 155.54,-56.37 155.85,-49.17 162.38,-52.22 162.07,-59.43"/>
</a>
</g>
<text text-anchor="middle" x="216" y="-70" font-family="Helvetica,sans-Serif" font-size="10.00" fill="grey"> +template_name</text>
</g>
</g>
</svg>
