<?xml version="1.0" encoding="UTF-8" standalone="no"?>
<!DOCTYPE svg PUBLIC "-//W3C//DTD SVG 1.1//EN"
 "http://www.w3.org/Graphics/SVG/1.1/DTD/svg11.dtd">
<!-- Generated by graphviz version 2.43.0 (0)
 -->
<!-- Title: api.views.medicine.APIDetailView.get_med Pages: 1 -->
<svg width="362pt" height="86pt"
 viewBox="0.00 0.00 362.00 86.00" xmlns="http://www.w3.org/2000/svg" xmlns:xlink="http://www.w3.org/1999/xlink">
<g id="graph0" class="graph" transform="scale(1 1) rotate(0) translate(4 82)">
<title>api.views.medicine.APIDetailView.get_med</title>
<!-- Node1 -->
<g id="Node000001" class="node">
<title>Node1</title>
<g id="a_Node000001"><a xlink:title=" ">
<polygon fill="#999999" stroke="#666666" points="354,-54 195,-54 195,-24 354,-24 354,-54"/>
<text text-anchor="start" x="203" y="-42" font-family="Helvetica,sans-Serif" font-size="10.00">api.views.medicine.APIDetail</text>
<text text-anchor="middle" x="274.5" y="-31" font-family="Helvetica,sans-Serif" font-size="10.00">View.get_med</text>
</a>
</g>
</g>
<!-- Node2 -->
<g id="Node000002" class="node">
<title>Node2</title>
<g id="a_Node000002"><a xlink:href="$classapi_1_1views_1_1medicine_1_1APIDetailView.html#aa978b0f9744a9530dd83c473bc21cff6" xlink:title=" ">
<polygon fill="white" stroke="#666666" points="159,-78 0,-78 0,-48 159,-48 159,-78"/>
<text text-anchor="start" x="8" y="-66" font-family="Helvetica,sans-Serif" font-size="10.00">api.views.medicine.APIDetail</text>
<text text-anchor="middle" x="79.5" y="-55" font-family="Helvetica,sans-Serif" font-size="10.00">View.get</text>
</a>
</g>
</g>
<!-- Node1&#45;&gt;Node2 -->
<g id="edge3_Node000001_Node000002" class="edge">
<title>Node1&#45;&gt;Node2</title>
<g id="a_edge3_Node000001_Node000002"><a xlink:title=" ">
<path fill="none" stroke="#63b8ff" d="M184.98,-50.01C176.39,-51.08 167.72,-52.15 159.24,-53.21"/>
<polygon fill="#63b8ff" stroke="#63b8ff" points="185.51,-53.47 195,-48.76 184.64,-46.52 185.51,-53.47"/>
</a>
</g>
</g>
<!-- Node3 -->
<g id="Node000003" class="node">
<title>Node3</title>
<g id="a_Node000003"><a xlink:href="$classapi_1_1views_1_1medicine_1_1APIDetailView.html#a92cc172431e928128789c50d0ef533cd" xlink:title=" ">
<polygon fill="white" stroke="#666666" points="159,-30 0,-30 0,0 159,0 159,-30"/>
<text text-anchor="start" x="8" y="-18" font-family="Helvetica,sans-Serif" font-size="10.00">api.views.medicine.APIDetail</text>
<text text-anchor="middle" x="79.5" y="-7" font-family="Helvetica,sans-Serif" font-size="10.00">View.post</text>
</a>
</g>
</g>
<!-- Node1&#45;&gt;Node3 -->
<g id="edge4_Node000001_Node000003" class="edge">
<title>Node1&#45;&gt;Node3</title>
<g id="a_edge4_Node000001_Node000003"><a xlink:title=" ">
<path fill="none" stroke="#63b8ff" d="M184.98,-27.99C176.39,-26.92 167.72,-25.85 159.24,-24.79"/>
<polygon fill="#63b8ff" stroke="#63b8ff" points="184.64,-31.48 195,-29.24 185.51,-24.53 184.64,-31.48"/>
</a>
</g>
</g>
</g>
</svg>
