<?xml version="1.0" encoding="UTF-8" standalone="no"?>
<!DOCTYPE svg PUBLIC "-//W3C//DTD SVG 1.1//EN"
 "http://www.w3.org/Graphics/SVG/1.1/DTD/svg11.dtd">
<!-- Generated by graphviz version 2.43.0 (0)
 -->
<!-- Title: medicines.models.MedCat.Meta Pages: 1 -->
<svg width="176pt" height="153pt"
 viewBox="0.00 0.00 176.00 153.00" xmlns="http://www.w3.org/2000/svg" xmlns:xlink="http://www.w3.org/1999/xlink">
<g id="graph0" class="graph" transform="scale(1 1) rotate(0) translate(4 149)">
<title>medicines.models.MedCat.Meta</title>
<!-- Node1 -->
<g id="Node000001" class="node">
<title>Node1</title>
<g id="a_Node000001"><a xlink:title=" ">
<polygon fill="#999999" stroke="transparent" points="168,-49 0,-49 0,0 168,0 168,-49"/>
<text text-anchor="start" x="5" y="-36.5" font-family="Helvetica,sans-Serif" font-size="10.00">medicines.models.MedCat.Meta</text>
<text text-anchor="start" x="82" y="-21.5" font-family="Helvetica,sans-Serif" font-size="10.00"> </text>
<text text-anchor="start" x="82" y="-6.5" font-family="Helvetica,sans-Serif" font-size="10.00"> </text>
<polygon fill="#666666" stroke="#666666" points="0,-31.5 0,-31.5 168,-31.5 168,-31.5 0,-31.5"/>
<polygon fill="#666666" stroke="#666666" points="0,-16.5 0,-16.5 168,-16.5 168,-16.5 0,-16.5"/>
<polygon fill="none" stroke="#666666" points="0,0 0,-49 168,-49 168,0 0,0"/>
</a>
</g>
</g>
<!-- Node2 -->
<g id="Node000002" class="node">
<title>Node2</title>
<g id="a_Node000002"><a xlink:title=" ">
<polygon fill="white" stroke="transparent" points="95.5,-145 72.5,-145 72.5,-96 95.5,-96 95.5,-145"/>
<text text-anchor="start" x="78" y="-132.5" font-family="Helvetica,sans-Serif" font-size="10.00">str</text>
<text text-anchor="start" x="82.5" y="-117.5" font-family="Helvetica,sans-Serif" font-size="10.00"> </text>
<text text-anchor="start" x="82.5" y="-102.5" font-family="Helvetica,sans-Serif" font-size="10.00"> </text>
<polygon fill="#666666" stroke="#666666" points="73,-127.5 73,-127.5 96,-127.5 96,-127.5 73,-127.5"/>
<polygon fill="#666666" stroke="#666666" points="73,-112.5 73,-112.5 96,-112.5 96,-112.5 73,-112.5"/>
<polygon fill="none" stroke="#666666" points="72.5,-96 72.5,-145 95.5,-145 95.5,-96 72.5,-96"/>
</a>
</g>
</g>
<!-- Node2&#45;&gt;Node1 -->
<g id="edge2_Node000001_Node000002" class="edge">
<title>Node2&#45;&gt;Node1</title>
<g id="a_edge2_Node000001_Node000002"><a xlink:title=" ">
<path fill="none" stroke="#63b8ff" d="M84,-95.78C84,-85.32 84,-72.79 84,-61.23"/>
<polygon fill="none" stroke="#63b8ff" points="84,-61.21 80,-55.21 84,-49.21 88,-55.21 84,-61.21"/>
</a>
</g>
<text text-anchor="middle" x="126" y="-70" font-family="Helvetica,sans-Serif" font-size="10.00" fill="grey"> +verbose_name</text>
</g>
</g>
</svg>
