<?xml version="1.0" encoding="UTF-8" standalone="no"?>
<!DOCTYPE svg PUBLIC "-//W3C//DTD SVG 1.1//EN"
 "http://www.w3.org/Graphics/SVG/1.1/DTD/svg11.dtd">
<!-- Generated by graphviz version 2.43.0 (0)
 -->
<!-- Title: accounts.sitemaps.AccountSiteMap Pages: 1 -->
<svg width="262pt" height="179pt"
 viewBox="0.00 0.00 262.00 179.00" xmlns="http://www.w3.org/2000/svg" xmlns:xlink="http://www.w3.org/1999/xlink">
<g id="graph0" class="graph" transform="scale(1 1) rotate(0) translate(4 175)">
<title>accounts.sitemaps.AccountSiteMap</title>
<!-- Node1 -->
<g id="Node000001" class="node">
<title>Node1</title>
<g id="a_Node000001"><a xlink:title=" ">
<polygon fill="#999999" stroke="transparent" points="204,-75 60,-75 60,0 204,0 204,-75"/>
<text text-anchor="start" x="65" y="-62.5" font-family="Helvetica,sans-Serif" font-size="10.00">accounts.sitemaps.Account</text>
<text text-anchor="start" x="112" y="-51.5" font-family="Helvetica,sans-Serif" font-size="10.00">SiteMap</text>
<text text-anchor="start" x="130" y="-36.5" font-family="Helvetica,sans-Serif" font-size="10.00"> </text>
<text text-anchor="start" x="83" y="-21.5" font-family="Helvetica,sans-Serif" font-size="10.00">+</text>
<text text-anchor="start" x="115" y="-21.5" font-family="Helvetica,sans-Serif" font-size="10.00">items()</text>
<text text-anchor="start" x="83" y="-6.5" font-family="Helvetica,sans-Serif" font-size="10.00">+</text>
<text text-anchor="start" x="115" y="-6.5" font-family="Helvetica,sans-Serif" font-size="10.00">location()</text>
<polygon fill="#666666" stroke="#666666" points="60,-46.5 60,-46.5 204,-46.5 204,-46.5 60,-46.5"/>
<polygon fill="#666666" stroke="#666666" points="60,-31.5 60,-31.5 204,-31.5 204,-31.5 60,-31.5"/>
<polygon fill="none" stroke="#666666" points="60,0 60,-75 204,-75 204,0 60,0"/>
</a>
</g>
</g>
<!-- Node2 -->
<g id="Node000002" class="node">
<title>Node2</title>
<g id="a_Node000002"><a xlink:title=" ">
<polygon fill="white" stroke="transparent" points="102,-171 0,-171 0,-122 102,-122 102,-171"/>
<text text-anchor="start" x="5" y="-158.5" font-family="Helvetica,sans-Serif" font-size="10.00">sitemaps::Sitemap</text>
<text text-anchor="start" x="49" y="-143.5" font-family="Helvetica,sans-Serif" font-size="10.00"> </text>
<text text-anchor="start" x="49" y="-128.5" font-family="Helvetica,sans-Serif" font-size="10.00"> </text>
<polygon fill="#666666" stroke="#666666" points="0,-153.5 0,-153.5 102,-153.5 102,-153.5 0,-153.5"/>
<polygon fill="#666666" stroke="#666666" points="0,-138.5 0,-138.5 102,-138.5 102,-138.5 0,-138.5"/>
<polygon fill="none" stroke="#666666" points="0,-122 0,-171 102,-171 102,-122 0,-122"/>
</a>
</g>
</g>
<!-- Node2&#45;&gt;Node1 -->
<g id="edge4_Node000001_Node000002" class="edge">
<title>Node2&#45;&gt;Node1</title>
<g id="a_edge4_Node000001_Node000002"><a xlink:title=" ">
<path fill="none" stroke="#63b8ff" d="M75.07,-113.7C84.23,-101.61 94.73,-87.73 104.21,-75.22"/>
<polygon fill="none" stroke="#63b8ff" points="72.22,-111.67 68.98,-121.75 77.8,-115.89 72.22,-111.67"/>
</a>
</g>
</g>
<!-- Node3 -->
<g id="Node000003" class="node">
<title>Node3</title>
<g id="a_Node000003"><a xlink:title=" ">
<polygon fill="white" stroke="transparent" points="143.5,-171 120.5,-171 120.5,-122 143.5,-122 143.5,-171"/>
<text text-anchor="start" x="126" y="-158.5" font-family="Helvetica,sans-Serif" font-size="10.00">int</text>
<text text-anchor="start" x="130.5" y="-143.5" font-family="Helvetica,sans-Serif" font-size="10.00"> </text>
<text text-anchor="start" x="130.5" y="-128.5" font-family="Helvetica,sans-Serif" font-size="10.00"> </text>
<polygon fill="#666666" stroke="#666666" points="121,-153.5 121,-153.5 144,-153.5 144,-153.5 121,-153.5"/>
<polygon fill="#666666" stroke="#666666" points="121,-138.5 121,-138.5 144,-138.5 144,-138.5 121,-138.5"/>
<polygon fill="none" stroke="#666666" points="120.5,-122 120.5,-171 143.5,-171 143.5,-122 120.5,-122"/>
</a>
</g>
</g>
<!-- Node3&#45;&gt;Node1 -->
<g id="edge5_Node000001_Node000003" class="edge">
<title>Node3&#45;&gt;Node1</title>
<g id="a_edge5_Node000001_Node000003"><a xlink:title=" ">
<path fill="none" stroke="#63b8ff" d="M132,-121.75C132,-111.61 132,-99.37 132,-87.44"/>
<polygon fill="none" stroke="#63b8ff" points="132,-87.22 128,-81.22 132,-75.22 136,-81.22 132,-87.22"/>
</a>
</g>
<text text-anchor="middle" x="155.5" y="-96" font-family="Helvetica,sans-Serif" font-size="10.00" fill="grey"> +priority</text>
</g>
<!-- Node4 -->
<g id="Node000004" class="node">
<title>Node4</title>
<g id="a_Node000004"><a xlink:title=" ">
<polygon fill="white" stroke="transparent" points="213.5,-171 190.5,-171 190.5,-122 213.5,-122 213.5,-171"/>
<text text-anchor="start" x="196" y="-158.5" font-family="Helvetica,sans-Serif" font-size="10.00">str</text>
<text text-anchor="start" x="200.5" y="-143.5" font-family="Helvetica,sans-Serif" font-size="10.00"> </text>
<text text-anchor="start" x="200.5" y="-128.5" font-family="Helvetica,sans-Serif" font-size="10.00"> </text>
<polygon fill="#666666" stroke="#666666" points="191,-153.5 191,-153.5 214,-153.5 214,-153.5 191,-153.5"/>
<polygon fill="#666666" stroke="#666666" points="191,-138.5 191,-138.5 214,-138.5 214,-138.5 191,-138.5"/>
<polygon fill="none" stroke="#666666" points="190.5,-122 190.5,-171 213.5,-171 213.5,-122 190.5,-122"/>
</a>
</g>
</g>
<!-- Node4&#45;&gt;Node1 -->
<g id="edge6_Node000001_Node000004" class="edge">
<title>Node4&#45;&gt;Node1</title>
<g id="a_edge6_Node000001_Node000004"><a xlink:title=" ">
<path fill="none" stroke="#63b8ff" d="M194.02,-121.96C190.38,-112.6 185.61,-101.96 180,-93 178.27,-90.24 176.4,-87.48 174.44,-84.75"/>
<polygon fill="none" stroke="#63b8ff" points="174.31,-84.58 167.48,-82.25 167.01,-75.06 173.83,-77.38 174.31,-84.58"/>
</a>
</g>
<text text-anchor="middle" x="220" y="-96" font-family="Helvetica,sans-Serif" font-size="10.00" fill="grey"> +changeFreq</text>
</g>
</g>
</svg>
