<?xml version="1.0" encoding="UTF-8" standalone="no"?>
<!DOCTYPE svg PUBLIC "-//W3C//DTD SVG 1.1//EN"
 "http://www.w3.org/Graphics/SVG/1.1/DTD/svg11.dtd">
<!-- Generated by graphviz version 2.43.0 (0)
 -->
<!-- Title: api.views.auth.SellerView Pages: 1 -->
<svg width="174pt" height="157pt"
 viewBox="0.00 0.00 174.00 157.00" xmlns="http://www.w3.org/2000/svg" xmlns:xlink="http://www.w3.org/1999/xlink">
<g id="graph0" class="graph" transform="scale(1 1) rotate(0) translate(4 153)">
<title>api.views.auth.SellerView</title>
<!-- Node1 -->
<g id="Node000001" class="node">
<title>Node1</title>
<g id="a_Node000001"><a xlink:title=" ">
<polygon fill="#999999" stroke="transparent" points="166,-64 29,-64 29,0 166,0 166,-64"/>
<text text-anchor="start" x="34.5" y="-52" font-family="Helvetica,sans-Serif" font-size="10.00">api.views.auth.SellerView</text>
<text text-anchor="start" x="96" y="-37" font-family="Helvetica,sans-Serif" font-size="10.00"> </text>
<text text-anchor="start" x="55" y="-22" font-family="Helvetica,sans-Serif" font-size="10.00">+</text>
<text text-anchor="start" x="89.5" y="-22" font-family="Helvetica,sans-Serif" font-size="10.00">get()</text>
<text text-anchor="start" x="55" y="-7" font-family="Helvetica,sans-Serif" font-size="10.00">+</text>
<text text-anchor="start" x="89.5" y="-7" font-family="Helvetica,sans-Serif" font-size="10.00">post()</text>
<polygon fill="#666666" stroke="#666666" points="29.5,-47 29.5,-47 166.5,-47 166.5,-47 29.5,-47"/>
<polygon fill="#666666" stroke="#666666" points="29.5,-32 29.5,-32 166.5,-32 166.5,-32 29.5,-32"/>
<polygon fill="none" stroke="#666666" points="29,0 29,-64 166,-64 166,0 29,0"/>
</a>
</g>
</g>
<!-- Node2 -->
<g id="Node000002" class="node">
<title>Node2</title>
<g id="a_Node000002"><a xlink:title=" ">
<polygon fill="white" stroke="transparent" points="107,-149 0,-149 0,-100 107,-100 107,-149"/>
<text text-anchor="start" x="5.5" y="-136.5" font-family="Helvetica,sans-Serif" font-size="10.00">LoginRequiredMixin</text>
<text text-anchor="start" x="52" y="-121.5" font-family="Helvetica,sans-Serif" font-size="10.00"> </text>
<text text-anchor="start" x="52" y="-106.5" font-family="Helvetica,sans-Serif" font-size="10.00"> </text>
<polygon fill="#666666" stroke="#666666" points="0.5,-131.5 0.5,-131.5 107.5,-131.5 107.5,-131.5 0.5,-131.5"/>
<polygon fill="#666666" stroke="#666666" points="0.5,-116.5 0.5,-116.5 107.5,-116.5 107.5,-116.5 0.5,-116.5"/>
<polygon fill="none" stroke="#666666" points="0,-100 0,-149 107,-149 107,-100 0,-100"/>
</a>
</g>
</g>
<!-- Node2&#45;&gt;Node1 -->
<g id="edge3_Node000001_Node000002" class="edge">
<title>Node2&#45;&gt;Node1</title>
<g id="a_edge3_Node000001_Node000002"><a xlink:title=" ">
<path fill="none" stroke="#63b8ff" d="M69.47,-90.65C73.68,-81.99 78.21,-72.68 82.37,-64.11"/>
<polygon fill="none" stroke="#63b8ff" points="66.29,-89.2 65.06,-99.72 72.58,-92.26 66.29,-89.2"/>
</a>
</g>
</g>
<!-- Node3 -->
<g id="Node000003" class="node">
<title>Node3</title>
<g id="a_Node000003"><a xlink:title=" ">
<polygon fill="white" stroke="transparent" points="160,-149 125,-149 125,-100 160,-100 160,-149"/>
<text text-anchor="start" x="130.5" y="-136.5" font-family="Helvetica,sans-Serif" font-size="10.00">View</text>
<text text-anchor="start" x="141" y="-121.5" font-family="Helvetica,sans-Serif" font-size="10.00"> </text>
<text text-anchor="start" x="141" y="-106.5" font-family="Helvetica,sans-Serif" font-size="10.00"> </text>
<polygon fill="#666666" stroke="#666666" points="125.5,-131.5 125.5,-131.5 160.5,-131.5 160.5,-131.5 125.5,-131.5"/>
<polygon fill="#666666" stroke="#666666" points="125.5,-116.5 125.5,-116.5 160.5,-116.5 160.5,-116.5 125.5,-116.5"/>
<polygon fill="none" stroke="#666666" points="125,-100 125,-149 160,-149 160,-100 125,-100"/>
</a>
</g>
</g>
<!-- Node3&#45;&gt;Node1 -->
<g id="edge4_Node000001_Node000003" class="edge">
<title>Node3&#45;&gt;Node1</title>
<g id="a_edge4_Node000001_Node000003"><a xlink:title=" ">
<path fill="none" stroke="#63b8ff" d="M126.17,-90.65C121.86,-81.99 117.23,-72.68 112.97,-64.11"/>
<polygon fill="none" stroke="#63b8ff" points="123.09,-92.33 130.68,-99.72 129.36,-89.21 123.09,-92.33"/>
</a>
</g>
</g>
</g>
</svg>
