<?xml version="1.0" encoding="UTF-8" standalone="no"?>
<!DOCTYPE svg PUBLIC "-//W3C//DTD SVG 1.1//EN"
 "http://www.w3.org/Graphics/SVG/1.1/DTD/svg11.dtd">
<!-- Generated by graphviz version 2.43.0 (0)
 -->
<!-- Title: accounts.sitemaps.AllAuthSitemap Pages: 1 -->
<svg width="259pt" height="179pt"
 viewBox="0.00 0.00 258.50 179.00" xmlns="http://www.w3.org/2000/svg" xmlns:xlink="http://www.w3.org/1999/xlink">
<g id="graph0" class="graph" transform="scale(1 1) rotate(0) translate(4 175)">
<title>accounts.sitemaps.AllAuthSitemap</title>
<!-- Node1 -->
<g id="Node000001" class="node">
<title>Node1</title>
<g id="a_Node000001"><a xlink:title=" ">
<polygon fill="#999999" stroke="transparent" points="198.5,-75 58.5,-75 58.5,0 198.5,0 198.5,-75"/>
<text text-anchor="start" x="63.5" y="-62.5" font-family="Helvetica,sans-Serif" font-size="10.00">accounts.sitemaps.AllAuth</text>
<text text-anchor="start" x="108" y="-51.5" font-family="Helvetica,sans-Serif" font-size="10.00">Sitemap</text>
<text text-anchor="start" x="126.5" y="-36.5" font-family="Helvetica,sans-Serif" font-size="10.00"> </text>
<text text-anchor="start" x="80.5" y="-21.5" font-family="Helvetica,sans-Serif" font-size="10.00">+</text>
<text text-anchor="start" x="111.5" y="-21.5" font-family="Helvetica,sans-Serif" font-size="10.00">items()</text>
<text text-anchor="start" x="80.5" y="-6.5" font-family="Helvetica,sans-Serif" font-size="10.00">+</text>
<text text-anchor="start" x="111.5" y="-6.5" font-family="Helvetica,sans-Serif" font-size="10.00">location()</text>
<polygon fill="#666666" stroke="#666666" points="58.5,-46.5 58.5,-46.5 198.5,-46.5 198.5,-46.5 58.5,-46.5"/>
<polygon fill="#666666" stroke="#666666" points="58.5,-31.5 58.5,-31.5 198.5,-31.5 198.5,-31.5 58.5,-31.5"/>
<polygon fill="none" stroke="#666666" points="58.5,0 58.5,-75 198.5,-75 198.5,0 58.5,0"/>
</a>
</g>
</g>
<!-- Node2 -->
<g id="Node000002" class="node">
<title>Node2</title>
<g id="a_Node000002"><a xlink:title=" ">
<polygon fill="white" stroke="transparent" points="99,-171 0,-171 0,-122 99,-122 99,-171"/>
<text text-anchor="start" x="5.5" y="-158.5" font-family="Helvetica,sans-Serif" font-size="10.00">sitemaps.Sitemap</text>
<text text-anchor="start" x="48" y="-143.5" font-family="Helvetica,sans-Serif" font-size="10.00"> </text>
<text text-anchor="start" x="48" y="-128.5" font-family="Helvetica,sans-Serif" font-size="10.00"> </text>
<polygon fill="#666666" stroke="#666666" points="0.5,-153.5 0.5,-153.5 99.5,-153.5 99.5,-153.5 0.5,-153.5"/>
<polygon fill="#666666" stroke="#666666" points="0.5,-138.5 0.5,-138.5 99.5,-138.5 99.5,-138.5 0.5,-138.5"/>
<polygon fill="none" stroke="#666666" points="0,-122 0,-171 99,-171 99,-122 0,-122"/>
</a>
</g>
</g>
<!-- Node2&#45;&gt;Node1 -->
<g id="edge4_Node000001_Node000002" class="edge">
<title>Node2&#45;&gt;Node1</title>
<g id="a_edge4_Node000001_Node000002"><a xlink:title=" ">
<path fill="none" stroke="#63b8ff" d="M72.98,-113.7C81.91,-101.61 92.15,-87.73 101.39,-75.22"/>
<polygon fill="none" stroke="#63b8ff" points="70.16,-111.63 67.03,-121.75 75.79,-115.79 70.16,-111.63"/>
</a>
</g>
</g>
<!-- Node3 -->
<g id="Node000003" class="node">
<title>Node3</title>
<g id="a_Node000003"><a xlink:title=" ">
<polygon fill="white" stroke="transparent" points="140,-171 117,-171 117,-122 140,-122 140,-171"/>
<text text-anchor="start" x="122.5" y="-158.5" font-family="Helvetica,sans-Serif" font-size="10.00">int</text>
<text text-anchor="start" x="127" y="-143.5" font-family="Helvetica,sans-Serif" font-size="10.00"> </text>
<text text-anchor="start" x="127" y="-128.5" font-family="Helvetica,sans-Serif" font-size="10.00"> </text>
<polygon fill="#666666" stroke="#666666" points="117.5,-153.5 117.5,-153.5 140.5,-153.5 140.5,-153.5 117.5,-153.5"/>
<polygon fill="#666666" stroke="#666666" points="117.5,-138.5 117.5,-138.5 140.5,-138.5 140.5,-138.5 117.5,-138.5"/>
<polygon fill="none" stroke="#666666" points="117,-122 117,-171 140,-171 140,-122 117,-122"/>
</a>
</g>
</g>
<!-- Node3&#45;&gt;Node1 -->
<g id="edge5_Node000001_Node000003" class="edge">
<title>Node3&#45;&gt;Node1</title>
<g id="a_edge5_Node000001_Node000003"><a xlink:title=" ">
<path fill="none" stroke="#63b8ff" d="M128.5,-121.75C128.5,-111.61 128.5,-99.37 128.5,-87.44"/>
<polygon fill="none" stroke="#63b8ff" points="128.5,-87.22 124.5,-81.22 128.5,-75.22 132.5,-81.22 128.5,-87.22"/>
</a>
</g>
<text text-anchor="middle" x="152" y="-96" font-family="Helvetica,sans-Serif" font-size="10.00" fill="grey"> +priority</text>
</g>
<!-- Node4 -->
<g id="Node000004" class="node">
<title>Node4</title>
<g id="a_Node000004"><a xlink:title=" ">
<polygon fill="white" stroke="transparent" points="210,-171 187,-171 187,-122 210,-122 210,-171"/>
<text text-anchor="start" x="192.5" y="-158.5" font-family="Helvetica,sans-Serif" font-size="10.00">str</text>
<text text-anchor="start" x="197" y="-143.5" font-family="Helvetica,sans-Serif" font-size="10.00"> </text>
<text text-anchor="start" x="197" y="-128.5" font-family="Helvetica,sans-Serif" font-size="10.00"> </text>
<polygon fill="#666666" stroke="#666666" points="187.5,-153.5 187.5,-153.5 210.5,-153.5 210.5,-153.5 187.5,-153.5"/>
<polygon fill="#666666" stroke="#666666" points="187.5,-138.5 187.5,-138.5 210.5,-138.5 210.5,-138.5 187.5,-138.5"/>
<polygon fill="none" stroke="#666666" points="187,-122 187,-171 210,-171 210,-122 187,-122"/>
</a>
</g>
</g>
<!-- Node4&#45;&gt;Node1 -->
<g id="edge6_Node000001_Node000004" class="edge">
<title>Node4&#45;&gt;Node1</title>
<g id="a_edge6_Node000001_Node000004"><a xlink:title=" ">
<path fill="none" stroke="#63b8ff" d="M190.52,-121.96C186.88,-112.6 182.11,-101.96 176.5,-93 174.77,-90.24 172.9,-87.48 170.94,-84.75"/>
<polygon fill="none" stroke="#63b8ff" points="170.81,-84.58 163.98,-82.25 163.51,-75.06 170.33,-77.38 170.81,-84.58"/>
</a>
</g>
<text text-anchor="middle" x="216.5" y="-96" font-family="Helvetica,sans-Serif" font-size="10.00" fill="grey"> +changeFreq</text>
</g>
</g>
</svg>
