<?xml version="1.0" encoding="UTF-8" standalone="no"?>
<!DOCTYPE svg PUBLIC "-//W3C//DTD SVG 1.1//EN"
 "http://www.w3.org/Graphics/SVG/1.1/DTD/svg11.dtd">
<!-- Generated by graphviz version 2.43.0 (0)
 -->
<!-- Title: medicines.models.Medicine.Meta Pages: 1 -->
<svg width="183pt" height="153pt"
 viewBox="0.00 0.00 183.00 153.00" xmlns="http://www.w3.org/2000/svg" xmlns:xlink="http://www.w3.org/1999/xlink">
<g id="graph0" class="graph" transform="scale(1 1) rotate(0) translate(4 149)">
<title>medicines.models.Medicine.Meta</title>
<!-- Node1 -->
<g id="Node000001" class="node">
<title>Node1</title>
<g id="a_Node000001"><a xlink:title=" ">
<polygon fill="#999999" stroke="transparent" points="175,-49 0,-49 0,0 175,0 175,-49"/>
<text text-anchor="start" x="5.5" y="-36.5" font-family="Helvetica,sans-Serif" font-size="10.00">medicines.models.Medicine.Meta</text>
<text text-anchor="start" x="86" y="-21.5" font-family="Helvetica,sans-Serif" font-size="10.00"> </text>
<text text-anchor="start" x="86" y="-6.5" font-family="Helvetica,sans-Serif" font-size="10.00"> </text>
<polygon fill="#666666" stroke="#666666" points="0.5,-31.5 0.5,-31.5 175.5,-31.5 175.5,-31.5 0.5,-31.5"/>
<polygon fill="#666666" stroke="#666666" points="0.5,-16.5 0.5,-16.5 175.5,-16.5 175.5,-16.5 0.5,-16.5"/>
<polygon fill="none" stroke="#666666" points="0,0 0,-49 175,-49 175,0 0,0"/>
</a>
</g>
</g>
<!-- Node2 -->
<g id="Node000002" class="node">
<title>Node2</title>
<g id="a_Node000002"><a xlink:title=" ">
<polygon fill="white" stroke="transparent" points="100.5,-145 74.5,-145 74.5,-96 100.5,-96 100.5,-145"/>
<text text-anchor="start" x="79.5" y="-132.5" font-family="Helvetica,sans-Serif" font-size="10.00">list</text>
<text text-anchor="start" x="85.5" y="-117.5" font-family="Helvetica,sans-Serif" font-size="10.00"> </text>
<text text-anchor="start" x="85.5" y="-102.5" font-family="Helvetica,sans-Serif" font-size="10.00"> </text>
<polygon fill="#666666" stroke="#666666" points="74.5,-127.5 74.5,-127.5 100.5,-127.5 100.5,-127.5 74.5,-127.5"/>
<polygon fill="#666666" stroke="#666666" points="74.5,-112.5 74.5,-112.5 100.5,-112.5 100.5,-112.5 74.5,-112.5"/>
<polygon fill="none" stroke="#666666" points="74.5,-96 74.5,-145 100.5,-145 100.5,-96 74.5,-96"/>
</a>
</g>
</g>
<!-- Node2&#45;&gt;Node1 -->
<g id="edge2_Node000001_Node000002" class="edge">
<title>Node2&#45;&gt;Node1</title>
<g id="a_edge2_Node000001_Node000002"><a xlink:title=" ">
<path fill="none" stroke="#63b8ff" d="M87.5,-95.78C87.5,-85.32 87.5,-72.79 87.5,-61.23"/>
<polygon fill="none" stroke="#63b8ff" points="87.5,-61.21 83.5,-55.21 87.5,-49.21 91.5,-55.21 87.5,-61.21"/>
</a>
</g>
<text text-anchor="middle" x="113.5" y="-70" font-family="Helvetica,sans-Serif" font-size="10.00" fill="grey"> +ordering</text>
</g>
</g>
</svg>
