<?xml version="1.0" encoding="UTF-8" standalone="no"?>
<!DOCTYPE svg PUBLIC "-//W3C//DTD SVG 1.1//EN"
 "http://www.w3.org/Graphics/SVG/1.1/DTD/svg11.dtd">
<!-- Generated by graphviz version 2.43.0 (0)
 -->
<!-- Title: medicines.forms.CreateForm.save Pages: 1 -->
<svg width="387pt" height="45pt"
 viewBox="0.00 0.00 387.00 45.00" xmlns="http://www.w3.org/2000/svg" xmlns:xlink="http://www.w3.org/1999/xlink">
<g id="graph0" class="graph" transform="scale(1 1) rotate(0) translate(4 41)">
<title>medicines.forms.CreateForm.save</title>
<!-- Node1 -->
<g id="Node000001" class="node">
<title>Node1</title>
<g id="a_Node000001"><a xlink:title=" ">
<polygon fill="#999999" stroke="#666666" points="379,-19 194,-19 194,0 379,0 379,-19"/>
<text text-anchor="middle" x="286.5" y="-7" font-family="Helvetica,sans-Serif" font-size="10.00">medicines.forms.CreateForm.save</text>
</a>
</g>
</g>
<!-- Node1&#45;&gt;Node1 -->
<g id="edge4_Node000001_Node000001" class="edge">
<title>Node1&#45;&gt;Node1</title>
<g id="a_edge4_Node000001_Node000001"><a xlink:title=" ">
<path fill="none" stroke="#63b8ff" d="M325.12,-26.69C325.12,-32.42 312.24,-37 286.5,-37 249.89,-37 239.3,-27.73 254.75,-19.08"/>
<polygon fill="#63b8ff" stroke="#63b8ff" points="327.55,-24.16 318.25,-19.08 322.36,-28.85 327.55,-24.16"/>
</a>
</g>
</g>
<!-- Node2 -->
<g id="Node000002" class="node">
<title>Node2</title>
<g id="a_Node000002"><a xlink:href="$classcart_1_1models_1_1Order.html#a3e3e284681b6f87aa2a69b7b627b1ac0" xlink:title=" ">
<polygon fill="white" stroke="#666666" points="158,-19 0,-19 0,0 158,0 158,-19"/>
<text text-anchor="middle" x="79" y="-7" font-family="Helvetica,sans-Serif" font-size="10.00">cart.models.Order.order_now</text>
</a>
</g>
</g>
<!-- Node1&#45;&gt;Node2 -->
<g id="edge3_Node000001_Node000002" class="edge">
<title>Node1&#45;&gt;Node2</title>
<g id="a_edge3_Node000001_Node000002"><a xlink:title=" ">
<path fill="none" stroke="#63b8ff" d="M183.81,-9.5C175.23,-9.5 166.63,-9.5 158.27,-9.5"/>
<polygon fill="#63b8ff" stroke="#63b8ff" points="183.87,-13 193.87,-9.5 183.87,-6 183.87,-13"/>
</a>
</g>
</g>
</g>
</svg>
