<?xml version="1.0" encoding="UTF-8" standalone="no"?>
<!DOCTYPE svg PUBLIC "-//W3C//DTD SVG 1.1//EN"
 "http://www.w3.org/Graphics/SVG/1.1/DTD/svg11.dtd">
<!-- Generated by graphviz version 2.43.0 (0)
 -->
<!-- Title: api.views.auth.APILoginView Pages: 1 -->
<svg width="159pt" height="157pt"
 viewBox="0.00 0.00 159.00 157.00" xmlns="http://www.w3.org/2000/svg" xmlns:xlink="http://www.w3.org/1999/xlink">
<g id="graph0" class="graph" transform="scale(1 1) rotate(0) translate(4 153)">
<title>api.views.auth.APILoginView</title>
<!-- Node1 -->
<g id="Node000001" class="node">
<title>Node1</title>
<g id="a_Node000001"><a xlink:title=" ">
<polygon fill="#999999" stroke="transparent" points="151,-64 0,-64 0,0 151,0 151,-64"/>
<text text-anchor="start" x="5.5" y="-52" font-family="Helvetica,sans-Serif" font-size="10.00">api.views.auth.APILoginView</text>
<text text-anchor="start" x="74" y="-37" font-family="Helvetica,sans-Serif" font-size="10.00"> </text>
<text text-anchor="start" x="29.5" y="-22" font-family="Helvetica,sans-Serif" font-size="10.00">+</text>
<text text-anchor="start" x="67.5" y="-22" font-family="Helvetica,sans-Serif" font-size="10.00">get()</text>
<text text-anchor="start" x="29.5" y="-7" font-family="Helvetica,sans-Serif" font-size="10.00">+</text>
<text text-anchor="start" x="67.5" y="-7" font-family="Helvetica,sans-Serif" font-size="10.00">post()</text>
<polygon fill="#666666" stroke="#666666" points="0.5,-47 0.5,-47 151.5,-47 151.5,-47 0.5,-47"/>
<polygon fill="#666666" stroke="#666666" points="0.5,-32 0.5,-32 151.5,-32 151.5,-32 0.5,-32"/>
<polygon fill="none" stroke="#666666" points="0,0 0,-64 151,-64 151,0 0,0"/>
</a>
</g>
</g>
<!-- Node2 -->
<g id="Node000002" class="node">
<title>Node2</title>
<g id="a_Node000002"><a xlink:title=" ">
<polygon fill="white" stroke="transparent" points="93,-149 58,-149 58,-100 93,-100 93,-149"/>
<text text-anchor="start" x="63.5" y="-136.5" font-family="Helvetica,sans-Serif" font-size="10.00">View</text>
<text text-anchor="start" x="74" y="-121.5" font-family="Helvetica,sans-Serif" font-size="10.00"> </text>
<text text-anchor="start" x="74" y="-106.5" font-family="Helvetica,sans-Serif" font-size="10.00"> </text>
<polygon fill="#666666" stroke="#666666" points="58.5,-131.5 58.5,-131.5 93.5,-131.5 93.5,-131.5 58.5,-131.5"/>
<polygon fill="#666666" stroke="#666666" points="58.5,-116.5 58.5,-116.5 93.5,-116.5 93.5,-116.5 58.5,-116.5"/>
<polygon fill="none" stroke="#666666" points="58,-100 58,-149 93,-149 93,-100 58,-100"/>
</a>
</g>
</g>
<!-- Node2&#45;&gt;Node1 -->
<g id="edge1_Node000001_Node000002" class="edge">
<title>Node2&#45;&gt;Node1</title>
<g id="a_edge1_Node000001_Node000002"><a xlink:title=" ">
<path fill="none" stroke="#63b8ff" d="M75.5,-89.54C75.5,-81.2 75.5,-72.31 75.5,-64.11"/>
<polygon fill="none" stroke="#63b8ff" points="72,-89.72 75.5,-99.72 79,-89.72 72,-89.72"/>
</a>
</g>
</g>
</g>
</svg>
