<?xml version="1.0" encoding="UTF-8" standalone="no"?>
<!DOCTYPE svg PUBLIC "-//W3C//DTD SVG 1.1//EN"
 "http://www.w3.org/Graphics/SVG/1.1/DTD/svg11.dtd">
<!-- Generated by graphviz version 2.43.0 (0)
 -->
<!-- Title: accounts.migrations.0001_initial.Migration Pages: 1 -->
<svg width="288pt" height="175pt"
 viewBox="0.00 0.00 288.00 175.00" xmlns="http://www.w3.org/2000/svg" xmlns:xlink="http://www.w3.org/1999/xlink">

<svg id="main" version="1.1" xmlns="http://www.w3.org/2000/svg" xmlns:xlink="http://www.w3.org/1999/xlink" xml:space="preserve" onload="init(evt)">
<style type="text/css"><![CDATA[
.node, .edge {opacity: 0.7;}
.node.selected, .edge.selected {opacity: 1;}
.edge:hover path { stroke: red; }
.edge:hover polygon { stroke: red; fill: red; }
]]></style>
<script type="application/ecmascript" xlink:href="svg.min.js"/>
<svg id="graph" class="graph">
<g id="graph0" class="graph" transform="scale(1 1) rotate(0) translate(4 171)">
<title>accounts.migrations.0001_initial.Migration</title>
<!-- Node1 -->
<g id="Node000001" class="node">
<title>Node1</title>
<g id="a_Node000001"><a xlink:title=" ">
<polygon fill="#999999" stroke="transparent" points="218.5,-60 81.5,-60 81.5,0 218.5,0 218.5,-60"/>
<text text-anchor="start" x="87" y="-48" font-family="Helvetica,sans-Serif" font-size="10.00">accounts.migrations.0001</text>
<text text-anchor="start" x="109" y="-37" font-family="Helvetica,sans-Serif" font-size="10.00">_initial.Migration</text>
<text text-anchor="start" x="148.5" y="-22" font-family="Helvetica,sans-Serif" font-size="10.00"> </text>
<text text-anchor="start" x="148.5" y="-7" font-family="Helvetica,sans-Serif" font-size="10.00"> </text>
<polygon fill="#666666" stroke="#666666" points="82,-32 82,-32 219,-32 219,-32 82,-32"/>
<polygon fill="#666666" stroke="#666666" points="82,-17 82,-17 219,-17 219,-17 82,-17"/>
<polygon fill="none" stroke="#666666" points="81.5,0 81.5,-60 218.5,-60 218.5,0 81.5,0"/>
</a>
</g>
</g>
<!-- Node2 -->
<g id="Node000002" class="node">
<title>Node2</title>
<g id="a_Node000002"><a xlink:title=" ">
<polygon fill="white" stroke="transparent" points="116,-167 0,-167 0,-118 116,-118 116,-167"/>
<text text-anchor="start" x="5" y="-154.5" font-family="Helvetica,sans-Serif" font-size="10.00">migrations::Migration</text>
<text text-anchor="start" x="56" y="-139.5" font-family="Helvetica,sans-Serif" font-size="10.00"> </text>
<text text-anchor="start" x="56" y="-124.5" font-family="Helvetica,sans-Serif" font-size="10.00"> </text>
<polygon fill="#666666" stroke="#666666" points="0,-149.5 0,-149.5 116,-149.5 116,-149.5 0,-149.5"/>
<polygon fill="#666666" stroke="#666666" points="0,-134.5 0,-134.5 116,-134.5 116,-134.5 0,-134.5"/>
<polygon fill="none" stroke="#666666" points="0,-118 0,-167 116,-167 116,-118 0,-118"/>
</a>
</g>
</g>
<!-- Node2&#45;&gt;Node1 -->
<g id="edge1_Node000001_Node000002" class="edge">
<title>Node2&#45;&gt;Node1</title>
<g id="a_edge1_Node000001_Node000002"><a xlink:title=" ">
<path fill="none" stroke="#63b8ff" d="M84.29,-109.93C97.32,-94.27 112.96,-75.49 125.71,-60.17"/>
<polygon fill="none" stroke="#63b8ff" points="81.44,-107.87 77.74,-117.79 86.82,-112.35 81.44,-107.87"/>
</a>
</g>
</g>
<!-- Node3 -->
<g id="Node000003" class="node">
<title>Node3</title>
<g id="a_Node000003"><a xlink:title=" ">
<polygon fill="white" stroke="transparent" points="166,-167 134,-167 134,-118 166,-118 166,-167"/>
<text text-anchor="start" x="139" y="-154.5" font-family="Helvetica,sans-Serif" font-size="10.00">bool</text>
<text text-anchor="start" x="148" y="-139.5" font-family="Helvetica,sans-Serif" font-size="10.00"> </text>
<text text-anchor="start" x="148" y="-124.5" font-family="Helvetica,sans-Serif" font-size="10.00"> </text>
<polygon fill="#666666" stroke="#666666" points="134,-149.5 134,-149.5 166,-149.5 166,-149.5 134,-149.5"/>
<polygon fill="#666666" stroke="#666666" points="134,-134.5 134,-134.5 166,-134.5 166,-134.5 134,-134.5"/>
<polygon fill="none" stroke="#666666" points="134,-118 134,-167 166,-167 166,-118 134,-118"/>
</a>
</g>
</g>
<!-- Node3&#45;&gt;Node1 -->
<g id="edge2_Node000001_Node000003" class="edge">
<title>Node3&#45;&gt;Node1</title>
<g id="a_edge2_Node000001_Node000003"><a xlink:title=" ">
<path fill="none" stroke="#63b8ff" d="M150,-117.79C150,-104.62 150,-87.84 150,-72.55"/>
<polygon fill="none" stroke="#63b8ff" points="150,-72.17 146,-66.17 150,-60.17 154,-66.17 150,-72.17"/>
</a>
</g>
<text text-anchor="middle" x="170" y="-86.5" font-family="Helvetica,sans-Serif" font-size="10.00" fill="grey"> +initial</text>
</g>
<!-- Node4 -->
<g id="Node000004" class="node">
<title>Node4</title>
<g id="a_Node000004"><a xlink:title=" ">
<polygon fill="white" stroke="transparent" points="226,-167 200,-167 200,-118 226,-118 226,-167"/>
<text text-anchor="start" x="205" y="-154.5" font-family="Helvetica,sans-Serif" font-size="10.00">list</text>
<text text-anchor="start" x="211" y="-139.5" font-family="Helvetica,sans-Serif" font-size="10.00"> </text>
<text text-anchor="start" x="211" y="-124.5" font-family="Helvetica,sans-Serif" font-size="10.00"> </text>
<polygon fill="#666666" stroke="#666666" points="200,-149.5 200,-149.5 226,-149.5 226,-149.5 200,-149.5"/>
<polygon fill="#666666" stroke="#666666" points="200,-134.5 200,-134.5 226,-134.5 226,-134.5 200,-134.5"/>
<polygon fill="none" stroke="#666666" points="200,-118 200,-167 226,-167 226,-118 200,-118"/>
</a>
</g>
</g>
<!-- Node4&#45;&gt;Node1 -->
<g id="edge3_Node000001_Node000004" class="edge">
<title>Node4&#45;&gt;Node1</title>
<g id="a_edge3_Node000001_Node000004"><a xlink:title=" ">
<path fill="none" stroke="#63b8ff" d="M207.18,-117.94C203.56,-105.56 198.2,-90.41 191,-78 189.38,-75.2 187.57,-72.41 185.65,-69.67"/>
<polygon fill="none" stroke="#63b8ff" points="185.58,-69.57 178.76,-67.22 178.31,-60.02 185.12,-62.37 185.58,-69.57"/>
</a>
</g>
<text text-anchor="middle" x="240.5" y="-92" font-family="Helvetica,sans-Serif" font-size="10.00" fill="grey"> +dependencies</text>
<text text-anchor="middle" x="240.5" y="-81" font-family="Helvetica,sans-Serif" font-size="10.00" fill="grey">+operations</text>
</g>
</g>
</svg>
</svg>

<style type='text/css'>
<![CDATA[
[data-mouse-over-selected='false'] { opacity: 0.7; }
[data-mouse-over-selected='true']  { opacity: 1.0; }
]]>
</style>
<script type="application/ecmascript"><![CDATA[
document.addEventListener('DOMContentLoaded', (event) => {
  highlightEdges();
  highlightAdjacentNodes();
});
]]></script>
</svg>
