<?xml version="1.0" encoding="UTF-8" standalone="no"?>
<!DOCTYPE svg PUBLIC "-//W3C//DTD SVG 1.1//EN"
 "http://www.w3.org/Graphics/SVG/1.1/DTD/svg11.dtd">
<!-- Generated by graphviz version 2.43.0 (0)
 -->
<!-- Title: accounts.forms.UserForm.Meta Pages: 1 -->
<svg width="172pt" height="153pt"
 viewBox="0.00 0.00 172.00 153.00" xmlns="http://www.w3.org/2000/svg" xmlns:xlink="http://www.w3.org/1999/xlink">
<g id="graph0" class="graph" transform="scale(1 1) rotate(0) translate(4 149)">
<title>accounts.forms.UserForm.Meta</title>
<!-- Node1 -->
<g id="Node000001" class="node">
<title>Node1</title>
<g id="a_Node000001"><a xlink:title=" ">
<polygon fill="#999999" stroke="transparent" points="164,-49 0,-49 0,0 164,0 164,-49"/>
<text text-anchor="start" x="5" y="-36.5" font-family="Helvetica,sans-Serif" font-size="10.00">accounts.forms.UserForm.Meta</text>
<text text-anchor="start" x="32" y="-21.5" font-family="Helvetica,sans-Serif" font-size="10.00">+</text>
<text text-anchor="start" x="73" y="-21.5" font-family="Helvetica,sans-Serif" font-size="10.00">model</text>
<text text-anchor="start" x="80" y="-6.5" font-family="Helvetica,sans-Serif" font-size="10.00"> </text>
<polygon fill="#666666" stroke="#666666" points="0,-31.5 0,-31.5 164,-31.5 164,-31.5 0,-31.5"/>
<polygon fill="#666666" stroke="#666666" points="0,-16.5 0,-16.5 71,-16.5 71,-16.5 0,-16.5"/>
<polygon fill="#666666" stroke="#666666" points="71,-16.5 71,-16.5 164,-16.5 164,-16.5 71,-16.5"/>
<polygon fill="none" stroke="#666666" points="0,0 0,-49 164,-49 164,0 0,0"/>
</a>
</g>
</g>
<!-- Node2 -->
<g id="Node000002" class="node">
<title>Node2</title>
<g id="a_Node000002"><a xlink:title=" ">
<polygon fill="white" stroke="transparent" points="99.5,-145 64.5,-145 64.5,-96 99.5,-96 99.5,-145"/>
<text text-anchor="start" x="70" y="-132.5" font-family="Helvetica,sans-Serif" font-size="10.00">tuple</text>
<text text-anchor="start" x="80.5" y="-117.5" font-family="Helvetica,sans-Serif" font-size="10.00"> </text>
<text text-anchor="start" x="80.5" y="-102.5" font-family="Helvetica,sans-Serif" font-size="10.00"> </text>
<polygon fill="#666666" stroke="#666666" points="65,-127.5 65,-127.5 100,-127.5 100,-127.5 65,-127.5"/>
<polygon fill="#666666" stroke="#666666" points="65,-112.5 65,-112.5 100,-112.5 100,-112.5 65,-112.5"/>
<polygon fill="none" stroke="#666666" points="64.5,-96 64.5,-145 99.5,-145 99.5,-96 64.5,-96"/>
</a>
</g>
</g>
<!-- Node2&#45;&gt;Node1 -->
<g id="edge1_Node000001_Node000002" class="edge">
<title>Node2&#45;&gt;Node1</title>
<g id="a_edge1_Node000001_Node000002"><a xlink:title=" ">
<path fill="none" stroke="#63b8ff" d="M82,-95.78C82,-85.32 82,-72.79 82,-61.23"/>
<polygon fill="none" stroke="#63b8ff" points="82,-61.21 78,-55.21 82,-49.21 86,-55.21 82,-61.21"/>
</a>
</g>
<text text-anchor="middle" x="101" y="-70" font-family="Helvetica,sans-Serif" font-size="10.00" fill="grey"> +fields</text>
</g>
</g>
</svg>
