<?xml version="1.0" encoding="UTF-8" standalone="no"?>
<!DOCTYPE svg PUBLIC "-//W3C//DTD SVG 1.1//EN"
 "http://www.w3.org/Graphics/SVG/1.1/DTD/svg11.dtd">
<!-- Generated by graphviz version 2.43.0 (0)
 -->
<!-- Title: cart.migrations.0003_cartitem_purchased.Migration Pages: 1 -->
<svg width="170pt" height="168pt"
 viewBox="0.00 0.00 170.00 168.00" xmlns="http://www.w3.org/2000/svg" xmlns:xlink="http://www.w3.org/1999/xlink">
<g id="graph0" class="graph" transform="scale(1 1) rotate(0) translate(4 164)">
<title>cart.migrations.0003_cartitem_purchased.Migration</title>
<!-- Node1 -->
<g id="Node000001" class="node">
<title>Node1</title>
<g id="a_Node000001"><a xlink:title=" ">
<polygon fill="#999999" stroke="transparent" points="162,-75 0,-75 0,0 162,0 162,-75"/>
<text text-anchor="start" x="5" y="-62.5" font-family="Helvetica,sans-Serif" font-size="10.00">cart.migrations.0003</text>
<text text-anchor="start" x="5" y="-51.5" font-family="Helvetica,sans-Serif" font-size="10.00">_cartitem_purchased.Migration</text>
<text text-anchor="start" x="22" y="-36.5" font-family="Helvetica,sans-Serif" font-size="10.00">+</text>
<text text-anchor="start" x="53" y="-36.5" font-family="Helvetica,sans-Serif" font-size="10.00">dependencies</text>
<text text-anchor="start" x="22" y="-21.5" font-family="Helvetica,sans-Serif" font-size="10.00">+</text>
<text text-anchor="start" x="53" y="-21.5" font-family="Helvetica,sans-Serif" font-size="10.00">operations</text>
<text text-anchor="start" x="79" y="-6.5" font-family="Helvetica,sans-Serif" font-size="10.00"> </text>
<polygon fill="#666666" stroke="#666666" points="0,-46.5 0,-46.5 162,-46.5 162,-46.5 0,-46.5"/>
<polygon fill="#666666" stroke="#666666" points="0,-16.5 0,-16.5 51,-16.5 51,-16.5 0,-16.5"/>
<polygon fill="#666666" stroke="#666666" points="51,-16.5 51,-16.5 162,-16.5 162,-16.5 51,-16.5"/>
<polygon fill="none" stroke="#666666" points="0,0 0,-75 162,-75 162,0 0,0"/>
</a>
</g>
</g>
<!-- Node2 -->
<g id="Node000002" class="node">
<title>Node2</title>
<g id="a_Node000002"><a xlink:title=" ">
<polygon fill="white" stroke="transparent" points="137.5,-160 24.5,-160 24.5,-111 137.5,-111 137.5,-160"/>
<text text-anchor="start" x="30" y="-147.5" font-family="Helvetica,sans-Serif" font-size="10.00">migrations.Migration</text>
<text text-anchor="start" x="79.5" y="-132.5" font-family="Helvetica,sans-Serif" font-size="10.00"> </text>
<text text-anchor="start" x="79.5" y="-117.5" font-family="Helvetica,sans-Serif" font-size="10.00"> </text>
<polygon fill="#666666" stroke="#666666" points="25,-142.5 25,-142.5 138,-142.5 138,-142.5 25,-142.5"/>
<polygon fill="#666666" stroke="#666666" points="25,-127.5 25,-127.5 138,-127.5 138,-127.5 25,-127.5"/>
<polygon fill="none" stroke="#666666" points="24.5,-111 24.5,-160 137.5,-160 137.5,-111 24.5,-111"/>
</a>
</g>
</g>
<!-- Node2&#45;&gt;Node1 -->
<g id="edge1_Node000001_Node000002" class="edge">
<title>Node2&#45;&gt;Node1</title>
<g id="a_edge1_Node000001_Node000002"><a xlink:title=" ">
<path fill="none" stroke="#63b8ff" d="M81,-100.68C81,-92.38 81,-83.46 81,-75.04"/>
<polygon fill="none" stroke="#63b8ff" points="77.5,-100.77 81,-110.77 84.5,-100.77 77.5,-100.77"/>
</a>
</g>
</g>
</g>
</svg>
