<?xml version="1.0" encoding="UTF-8" standalone="no"?>
<!DOCTYPE svg PUBLIC "-//W3C//DTD SVG 1.1//EN"
 "http://www.w3.org/Graphics/SVG/1.1/DTD/svg11.dtd">
<!-- Generated by graphviz version 2.43.0 (0)
 -->
<!-- Title: medicines.forms.CreateForm Pages: 1 -->
<svg width="347pt" height="183pt"
 viewBox="0.00 0.00 346.50 183.00" xmlns="http://www.w3.org/2000/svg" xmlns:xlink="http://www.w3.org/1999/xlink">

<svg id="main" version="1.1" xmlns="http://www.w3.org/2000/svg" xmlns:xlink="http://www.w3.org/1999/xlink" xml:space="preserve" onload="init(evt)">
<style type="text/css"><![CDATA[
.node, .edge {opacity: 0.7;}
.node.selected, .edge.selected {opacity: 1;}
.edge:hover path { stroke: red; }
.edge:hover polygon { stroke: red; fill: red; }
]]></style>
<script type="application/ecmascript" xlink:href="svg.min.js"/>
<svg id="graph" class="graph">
<g id="graph0" class="graph" transform="scale(1 1) rotate(0) translate(4 179)">
<title>medicines.forms.CreateForm</title>
<!-- Node1 -->
<g id="Node000001" class="node">
<title>Node1</title>
<g id="a_Node000001"><a xlink:title=" ">
<polygon fill="#999999" stroke="transparent" points="202.5,-79 50.5,-79 50.5,0 202.5,0 202.5,-79"/>
<text text-anchor="start" x="55.5" y="-66.5" font-family="Helvetica,sans-Serif" font-size="10.00">medicines.forms.CreateForm</text>
<text text-anchor="start" x="59" y="-51.5" font-family="Helvetica,sans-Serif" font-size="10.00">+</text>
<text text-anchor="start" x="76.5" y="-51.5" font-family="Helvetica,sans-Serif" font-size="10.00">max_upload_limit_text</text>
<text text-anchor="start" x="59" y="-36.5" font-family="Helvetica,sans-Serif" font-size="10.00">+</text>
<text text-anchor="start" x="76.5" y="-36.5" font-family="Helvetica,sans-Serif" font-size="10.00">thumbnail</text>
<text text-anchor="start" x="59" y="-21.5" font-family="Helvetica,sans-Serif" font-size="10.00">+</text>
<text text-anchor="start" x="76.5" y="-21.5" font-family="Helvetica,sans-Serif" font-size="10.00">clean()</text>
<text text-anchor="start" x="59" y="-6.5" font-family="Helvetica,sans-Serif" font-size="10.00">+</text>
<text text-anchor="start" x="76.5" y="-6.5" font-family="Helvetica,sans-Serif" font-size="10.00">save()</text>
<polygon fill="#666666" stroke="#666666" points="50.5,-61.5 50.5,-61.5 202.5,-61.5 202.5,-61.5 50.5,-61.5"/>
<polygon fill="#666666" stroke="#666666" points="50.5,-31.5 50.5,-31.5 74.5,-31.5 74.5,-31.5 50.5,-31.5"/>
<polygon fill="#666666" stroke="#666666" points="74.5,-31.5 74.5,-31.5 202.5,-31.5 202.5,-31.5 74.5,-31.5"/>
<polygon fill="none" stroke="#666666" points="50.5,0 50.5,-79 202.5,-79 202.5,0 50.5,0"/>
</a>
</g>
</g>
<!-- Node2 -->
<g id="Node000002" class="node">
<title>Node2</title>
<g id="a_Node000002"><a xlink:title=" ">
<polygon fill="white" stroke="transparent" points="97,-175 0,-175 0,-126 97,-126 97,-175"/>
<text text-anchor="start" x="5.5" y="-162.5" font-family="Helvetica,sans-Serif" font-size="10.00">forms.ModelForm</text>
<text text-anchor="start" x="47" y="-147.5" font-family="Helvetica,sans-Serif" font-size="10.00"> </text>
<text text-anchor="start" x="47" y="-132.5" font-family="Helvetica,sans-Serif" font-size="10.00"> </text>
<polygon fill="#666666" stroke="#666666" points="0.5,-157.5 0.5,-157.5 97.5,-157.5 97.5,-157.5 0.5,-157.5"/>
<polygon fill="#666666" stroke="#666666" points="0.5,-142.5 0.5,-142.5 97.5,-142.5 97.5,-142.5 0.5,-142.5"/>
<polygon fill="none" stroke="#666666" points="0,-126 0,-175 97,-175 97,-126 0,-126"/>
</a>
</g>
</g>
<!-- Node2&#45;&gt;Node1 -->
<g id="edge1_Node000001_Node000002" class="edge">
<title>Node2&#45;&gt;Node1</title>
<g id="a_edge1_Node000001_Node000002"><a xlink:title=" ">
<path fill="none" stroke="#63b8ff" d="M71.43,-117.45C80.03,-105.44 89.89,-91.65 98.87,-79.1"/>
<polygon fill="none" stroke="#63b8ff" points="68.4,-115.68 65.42,-125.85 74.09,-119.75 68.4,-115.68"/>
</a>
</g>
</g>
<!-- Node3 -->
<g id="Node000003" class="node">
<title>Node3</title>
<g id="a_Node000003"><a xlink:title=" ">
<polygon fill="white" stroke="transparent" points="138,-175 115,-175 115,-126 138,-126 138,-175"/>
<text text-anchor="start" x="120.5" y="-162.5" font-family="Helvetica,sans-Serif" font-size="10.00">int</text>
<text text-anchor="start" x="125" y="-147.5" font-family="Helvetica,sans-Serif" font-size="10.00"> </text>
<text text-anchor="start" x="125" y="-132.5" font-family="Helvetica,sans-Serif" font-size="10.00"> </text>
<polygon fill="#666666" stroke="#666666" points="115.5,-157.5 115.5,-157.5 138.5,-157.5 138.5,-157.5 115.5,-157.5"/>
<polygon fill="#666666" stroke="#666666" points="115.5,-142.5 115.5,-142.5 138.5,-142.5 138.5,-142.5 115.5,-142.5"/>
<polygon fill="none" stroke="#666666" points="115,-126 115,-175 138,-175 138,-126 115,-126"/>
</a>
</g>
</g>
<!-- Node3&#45;&gt;Node1 -->
<g id="edge2_Node000001_Node000003" class="edge">
<title>Node3&#45;&gt;Node1</title>
<g id="a_edge2_Node000001_Node000003"><a xlink:title=" ">
<path fill="none" stroke="#63b8ff" d="M126.5,-125.85C126.5,-115.72 126.5,-103.47 126.5,-91.45"/>
<polygon fill="none" stroke="#63b8ff" points="126.5,-91.1 122.5,-85.1 126.5,-79.1 130.5,-85.1 126.5,-91.1"/>
</a>
</g>
<text text-anchor="middle" x="176.5" y="-100" font-family="Helvetica,sans-Serif" font-size="10.00" fill="grey"> +max_upload_limit</text>
</g>
<!-- Node4 -->
<g id="Node000004" class="node">
<title>Node4</title>
<g id="a_Node000004"><a xlink:title=" ">
<polygon fill="white" stroke="transparent" points="261,-175 238,-175 238,-126 261,-126 261,-175"/>
<text text-anchor="start" x="243.5" y="-162.5" font-family="Helvetica,sans-Serif" font-size="10.00">str</text>
<text text-anchor="start" x="248" y="-147.5" font-family="Helvetica,sans-Serif" font-size="10.00"> </text>
<text text-anchor="start" x="248" y="-132.5" font-family="Helvetica,sans-Serif" font-size="10.00"> </text>
<polygon fill="#666666" stroke="#666666" points="238.5,-157.5 238.5,-157.5 261.5,-157.5 261.5,-157.5 238.5,-157.5"/>
<polygon fill="#666666" stroke="#666666" points="238.5,-142.5 238.5,-142.5 261.5,-142.5 261.5,-142.5 238.5,-142.5"/>
<polygon fill="none" stroke="#666666" points="238,-126 238,-175 261,-175 261,-126 238,-126"/>
</a>
</g>
</g>
<!-- Node4&#45;&gt;Node1 -->
<g id="edge3_Node000001_Node000004" class="edge">
<title>Node4&#45;&gt;Node1</title>
<g id="a_edge3_Node000001_Node000004"><a xlink:title=" ">
<path fill="none" stroke="#63b8ff" d="M243.35,-125.93C239.91,-116.14 234.81,-105.18 227.5,-97 223.03,-91.99 218,-87.32 212.64,-83"/>
<polygon fill="none" stroke="#63b8ff" points="212.3,-82.74 205.1,-82.37 202.67,-75.58 209.87,-75.95 212.3,-82.74"/>
</a>
</g>
<text text-anchor="middle" x="286.5" y="-100" font-family="Helvetica,sans-Serif" font-size="10.00" fill="grey"> +upload_field_name</text>
</g>
</g>
</svg>
</svg>

<style type='text/css'>
<![CDATA[
[data-mouse-over-selected='false'] { opacity: 0.7; }
[data-mouse-over-selected='true']  { opacity: 1.0; }
]]>
</style>
<script type="application/ecmascript"><![CDATA[
document.addEventListener('DOMContentLoaded', (event) => {
  highlightEdges();
  highlightAdjacentNodes();
});
]]></script>
</svg>
