<?xml version="1.0" encoding="UTF-8" standalone="no"?>
<!DOCTYPE svg PUBLIC "-//W3C//DTD SVG 1.1//EN"
 "http://www.w3.org/Graphics/SVG/1.1/DTD/svg11.dtd">
<!-- Generated by graphviz version 2.43.0 (0)
 -->
<!-- Title: home.apps.HomeConfig Pages: 1 -->
<svg width="136pt" height="142pt"
 viewBox="0.00 0.00 136.00 142.00" xmlns="http://www.w3.org/2000/svg" xmlns:xlink="http://www.w3.org/1999/xlink">
<g id="graph0" class="graph" transform="scale(1 1) rotate(0) translate(4 138)">
<title>home.apps.HomeConfig</title>
<!-- Node1 -->
<g id="Node000001" class="node">
<title>Node1</title>
<g id="a_Node000001"><a xlink:title=" ">
<polygon fill="#999999" stroke="transparent" points="128,-49 0,-49 0,0 128,0 128,-49"/>
<text text-anchor="start" x="5" y="-36.5" font-family="Helvetica,sans-Serif" font-size="10.00">home.apps.HomeConfig</text>
<text text-anchor="start" x="23.5" y="-21.5" font-family="Helvetica,sans-Serif" font-size="10.00">+</text>
<text text-anchor="start" x="56" y="-21.5" font-family="Helvetica,sans-Serif" font-size="10.00">name</text>
<text text-anchor="start" x="62" y="-6.5" font-family="Helvetica,sans-Serif" font-size="10.00"> </text>
<polygon fill="#666666" stroke="#666666" points="0,-31.5 0,-31.5 128,-31.5 128,-31.5 0,-31.5"/>
<polygon fill="#666666" stroke="#666666" points="0,-16.5 0,-16.5 54,-16.5 54,-16.5 0,-16.5"/>
<polygon fill="#666666" stroke="#666666" points="54,-16.5 54,-16.5 128,-16.5 128,-16.5 54,-16.5"/>
<polygon fill="none" stroke="#666666" points="0,0 0,-49 128,-49 128,0 0,0"/>
</a>
</g>
</g>
<!-- Node2 -->
<g id="Node000002" class="node">
<title>Node2</title>
<g id="a_Node000002"><a xlink:title=" ">
<polygon fill="white" stroke="transparent" points="94,-134 34,-134 34,-85 94,-85 94,-134"/>
<text text-anchor="start" x="39" y="-121.5" font-family="Helvetica,sans-Serif" font-size="10.00">AppConfig</text>
<text text-anchor="start" x="62" y="-106.5" font-family="Helvetica,sans-Serif" font-size="10.00"> </text>
<text text-anchor="start" x="62" y="-91.5" font-family="Helvetica,sans-Serif" font-size="10.00"> </text>
<polygon fill="#666666" stroke="#666666" points="34,-116.5 34,-116.5 94,-116.5 94,-116.5 34,-116.5"/>
<polygon fill="#666666" stroke="#666666" points="34,-101.5 34,-101.5 94,-101.5 94,-101.5 34,-101.5"/>
<polygon fill="none" stroke="#666666" points="34,-85 34,-134 94,-134 94,-85 34,-85"/>
</a>
</g>
</g>
<!-- Node2&#45;&gt;Node1 -->
<g id="edge1_Node000001_Node000002" class="edge">
<title>Node2&#45;&gt;Node1</title>
<g id="a_edge1_Node000001_Node000002"><a xlink:title=" ">
<path fill="none" stroke="#63b8ff" d="M64,-74.77C64,-66.17 64,-57.1 64,-49.12"/>
<polygon fill="none" stroke="#63b8ff" points="60.5,-74.94 64,-84.94 67.5,-74.94 60.5,-74.94"/>
</a>
</g>
</g>
</g>
</svg>
