<?xml version="1.0" encoding="UTF-8" standalone="no"?>
<!DOCTYPE svg PUBLIC "-//W3C//DTD SVG 1.1//EN"
 "http://www.w3.org/Graphics/SVG/1.1/DTD/svg11.dtd">
<!-- Generated by graphviz version 2.43.0 (0)
 -->
<!-- Title: medicines.views.MedDeleteView Pages: 1 -->
<svg width="307pt" height="239pt"
 viewBox="0.00 0.00 306.50 239.00" xmlns="http://www.w3.org/2000/svg" xmlns:xlink="http://www.w3.org/1999/xlink">

<svg id="main" version="1.1" xmlns="http://www.w3.org/2000/svg" xmlns:xlink="http://www.w3.org/1999/xlink" xml:space="preserve" onload="init(evt)">
<style type="text/css"><![CDATA[
.node, .edge {opacity: 0.7;}
.node.selected, .edge.selected {opacity: 1;}
.edge:hover path { stroke: red; }
.edge:hover polygon { stroke: red; fill: red; }
]]></style>
<script type="application/ecmascript" xlink:href="svg.min.js"/>
<svg id="graph" class="graph">
<g id="graph0" class="graph" transform="scale(1 1) rotate(0) translate(4 235)">
<title>medicines.views.MedDeleteView</title>
<!-- Node1 -->
<g id="Node000001" class="node">
<title>Node1</title>
<g id="a_Node000001"><a xlink:title=" ">
<polygon fill="#999999" stroke="transparent" points="264,-49 91,-49 91,0 264,0 264,-49"/>
<text text-anchor="start" x="96.5" y="-36.5" font-family="Helvetica,sans-Serif" font-size="10.00">medicines.views.MedDeleteView</text>
<text text-anchor="start" x="125.5" y="-21.5" font-family="Helvetica,sans-Serif" font-size="10.00">+</text>
<text text-anchor="start" x="168.5" y="-21.5" font-family="Helvetica,sans-Serif" font-size="10.00">model</text>
<text text-anchor="start" x="176" y="-6.5" font-family="Helvetica,sans-Serif" font-size="10.00"> </text>
<polygon fill="#666666" stroke="#666666" points="91.5,-31.5 91.5,-31.5 264.5,-31.5 264.5,-31.5 91.5,-31.5"/>
<polygon fill="#666666" stroke="#666666" points="91.5,-16.5 91.5,-16.5 166.5,-16.5 166.5,-16.5 91.5,-16.5"/>
<polygon fill="#666666" stroke="#666666" points="166.5,-16.5 166.5,-16.5 264.5,-16.5 264.5,-16.5 166.5,-16.5"/>
<polygon fill="none" stroke="#666666" points="91,0 91,-49 264,-49 264,0 91,0"/>
</a>
</g>
</g>
<!-- Node2 -->
<g id="Node000002" class="node">
<title>Node2</title>
<g id="a_Node000002"><a xlink:href="classmedicines_1_1owner_1_1OwnerDeleteView.html" target="_top" xlink:title=" ">
<polygon fill="white" stroke="transparent" points="208.5,-145 24.5,-145 24.5,-96 208.5,-96 208.5,-145"/>
<text text-anchor="start" x="29.5" y="-132.5" font-family="Helvetica,sans-Serif" font-size="10.00">medicines.owner.OwnerDeleteView</text>
<text text-anchor="start" x="114.5" y="-117.5" font-family="Helvetica,sans-Serif" font-size="10.00"> </text>
<text text-anchor="start" x="51" y="-102.5" font-family="Helvetica,sans-Serif" font-size="10.00">+</text>
<text text-anchor="start" x="86.5" y="-102.5" font-family="Helvetica,sans-Serif" font-size="10.00">get_queryset()</text>
<polygon fill="#666666" stroke="#666666" points="24.5,-127.5 24.5,-127.5 208.5,-127.5 208.5,-127.5 24.5,-127.5"/>
<polygon fill="#666666" stroke="#666666" points="24.5,-112.5 24.5,-112.5 208.5,-112.5 208.5,-112.5 24.5,-112.5"/>
<polygon fill="none" stroke="#666666" points="24.5,-96 24.5,-145 208.5,-145 208.5,-96 24.5,-96"/>
</a>
</g>
</g>
<!-- Node2&#45;&gt;Node1 -->
<g id="edge1_Node000001_Node000002" class="edge">
<title>Node2&#45;&gt;Node1</title>
<g id="a_edge1_Node000001_Node000002"><a xlink:title=" ">
<path fill="none" stroke="#63b8ff" d="M137.56,-87.05C145.63,-74.62 154.67,-60.68 162.11,-49.21"/>
<polygon fill="none" stroke="#63b8ff" points="134.4,-85.49 131.89,-95.78 140.27,-89.3 134.4,-85.49"/>
</a>
</g>
</g>
<!-- Node3 -->
<g id="Node000003" class="node">
<title>Node3</title>
<g id="a_Node000003"><a xlink:title=" ">
<polygon fill="white" stroke="transparent" points="107,-231 0,-231 0,-182 107,-182 107,-231"/>
<text text-anchor="start" x="5.5" y="-218.5" font-family="Helvetica,sans-Serif" font-size="10.00">LoginRequiredMixin</text>
<text text-anchor="start" x="52" y="-203.5" font-family="Helvetica,sans-Serif" font-size="10.00"> </text>
<text text-anchor="start" x="52" y="-188.5" font-family="Helvetica,sans-Serif" font-size="10.00"> </text>
<polygon fill="#666666" stroke="#666666" points="0.5,-213.5 0.5,-213.5 107.5,-213.5 107.5,-213.5 0.5,-213.5"/>
<polygon fill="#666666" stroke="#666666" points="0.5,-198.5 0.5,-198.5 107.5,-198.5 107.5,-198.5 0.5,-198.5"/>
<polygon fill="none" stroke="#666666" points="0,-182 0,-231 107,-231 107,-182 0,-182"/>
</a>
</g>
</g>
<!-- Node3&#45;&gt;Node2 -->
<g id="edge2_Node000002_Node000003" class="edge">
<title>Node3&#45;&gt;Node2</title>
<g id="a_edge2_Node000002_Node000003"><a xlink:title=" ">
<path fill="none" stroke="#63b8ff" d="M77.44,-173.58C84.53,-164.13 92.17,-153.95 98.79,-145.12"/>
<polygon fill="none" stroke="#63b8ff" points="74.58,-171.55 71.38,-181.65 80.18,-175.75 74.58,-171.55"/>
</a>
</g>
</g>
<!-- Node4 -->
<g id="Node000004" class="node">
<title>Node4</title>
<g id="a_Node000004"><a xlink:title=" ">
<polygon fill="white" stroke="transparent" points="234,-231 125,-231 125,-182 234,-182 234,-231"/>
<text text-anchor="start" x="130.5" y="-218.5" font-family="Helvetica,sans-Serif" font-size="10.00">generic::DeleteView</text>
<text text-anchor="start" x="178" y="-203.5" font-family="Helvetica,sans-Serif" font-size="10.00"> </text>
<text text-anchor="start" x="178" y="-188.5" font-family="Helvetica,sans-Serif" font-size="10.00"> </text>
<polygon fill="#666666" stroke="#666666" points="125.5,-213.5 125.5,-213.5 234.5,-213.5 234.5,-213.5 125.5,-213.5"/>
<polygon fill="#666666" stroke="#666666" points="125.5,-198.5 125.5,-198.5 234.5,-198.5 234.5,-198.5 125.5,-198.5"/>
<polygon fill="none" stroke="#666666" points="125,-182 125,-231 234,-231 234,-182 125,-182"/>
</a>
</g>
</g>
<!-- Node4&#45;&gt;Node2 -->
<g id="edge3_Node000002_Node000004" class="edge">
<title>Node4&#45;&gt;Node2</title>
<g id="a_edge3_Node000002_Node000004"><a xlink:title=" ">
<path fill="none" stroke="#63b8ff" d="M155.56,-173.58C148.47,-164.13 140.83,-153.95 134.21,-145.12"/>
<polygon fill="none" stroke="#63b8ff" points="152.82,-175.75 161.62,-181.65 158.42,-171.55 152.82,-175.75"/>
</a>
</g>
</g>
<!-- Node5 -->
<g id="Node000005" class="node">
<title>Node5</title>
<g id="a_Node000005"><a xlink:title=" ">
<polygon fill="white" stroke="transparent" points="250,-145 227,-145 227,-96 250,-96 250,-145"/>
<text text-anchor="start" x="232.5" y="-132.5" font-family="Helvetica,sans-Serif" font-size="10.00">str</text>
<text text-anchor="start" x="237" y="-117.5" font-family="Helvetica,sans-Serif" font-size="10.00"> </text>
<text text-anchor="start" x="237" y="-102.5" font-family="Helvetica,sans-Serif" font-size="10.00"> </text>
<polygon fill="#666666" stroke="#666666" points="227.5,-127.5 227.5,-127.5 250.5,-127.5 250.5,-127.5 227.5,-127.5"/>
<polygon fill="#666666" stroke="#666666" points="227.5,-112.5 227.5,-112.5 250.5,-112.5 250.5,-112.5 227.5,-112.5"/>
<polygon fill="none" stroke="#666666" points="227,-96 227,-145 250,-145 250,-96 227,-96"/>
</a>
</g>
</g>
<!-- Node5&#45;&gt;Node1 -->
<g id="edge4_Node000001_Node000005" class="edge">
<title>Node5&#45;&gt;Node1</title>
<g id="a_edge4_Node000001_Node000005"><a xlink:title=" ">
<path fill="none" stroke="#63b8ff" d="M226.74,-101.38C219.07,-89.56 208.82,-73.76 199.66,-59.64"/>
<polygon fill="none" stroke="#63b8ff" points="199.45,-59.33 192.83,-56.48 192.92,-49.27 199.54,-52.12 199.45,-59.33"/>
</a>
</g>
<text text-anchor="middle" x="254" y="-70" font-family="Helvetica,sans-Serif" font-size="10.00" fill="grey"> +template_name</text>
</g>
</g>
</svg>
</svg>

<style type='text/css'>
<![CDATA[
[data-mouse-over-selected='false'] { opacity: 0.7; }
[data-mouse-over-selected='true']  { opacity: 1.0; }
]]>
</style>
<script type="application/ecmascript"><![CDATA[
document.addEventListener('DOMContentLoaded', (event) => {
  highlightEdges();
  highlightAdjacentNodes();
});
]]></script>
</svg>
