<?xml version="1.0" encoding="UTF-8" standalone="no"?>
<!DOCTYPE svg PUBLIC "-//W3C//DTD SVG 1.1//EN"
 "http://www.w3.org/Graphics/SVG/1.1/DTD/svg11.dtd">
<!-- Generated by graphviz version 2.43.0 (0)
 -->
<!-- Title: cart.models.Order.as_json Pages: 1 -->
<svg width="393pt" height="172pt"
 viewBox="0.00 0.00 393.00 172.00" xmlns="http://www.w3.org/2000/svg" xmlns:xlink="http://www.w3.org/1999/xlink">

<svg id="main" version="1.1" xmlns="http://www.w3.org/2000/svg" xmlns:xlink="http://www.w3.org/1999/xlink" xml:space="preserve" onload="init(evt)">
<style type="text/css"><![CDATA[
.node, .edge {opacity: 0.7;}
.node.selected, .edge.selected {opacity: 1;}
.edge:hover path { stroke: red; }
.edge:hover polygon { stroke: red; fill: red; }
]]></style>
<script type="application/ecmascript" xlink:href="svg.min.js"/>
<svg id="graph" class="graph">
<g id="graph0" class="graph" transform="scale(1 1) rotate(0) translate(4 168)">
<title>cart.models.Order.as_json</title>
<!-- Node1 -->
<g id="Node000001" class="node">
<title>Node1</title>
<g id="a_Node000001"><a xlink:title=" ">
<polygon fill="#999999" stroke="#666666" points="143,-88.5 0,-88.5 0,-69.5 143,-69.5 143,-88.5"/>
<text text-anchor="middle" x="71.5" y="-76.5" font-family="Helvetica,sans-Serif" font-size="10.00">cart.models.Order.as_json</text>
</a>
</g>
</g>
<!-- Node2 -->
<g id="Node000002" class="node">
<title>Node2</title>
<g id="a_Node000002"><a xlink:href="classaccounts_1_1sitemaps_1_1AccountSiteMap.html#a62730699fc75f9fb9c2e2c5847a2243f" target="_top" xlink:title=" ">
<polygon fill="white" stroke="#666666" points="357,-164 207,-164 207,-134 357,-134 357,-164"/>
<text text-anchor="start" x="215" y="-152" font-family="Helvetica,sans-Serif" font-size="10.00">accounts.sitemaps.Account</text>
<text text-anchor="middle" x="282" y="-141" font-family="Helvetica,sans-Serif" font-size="10.00">SiteMap.items</text>
</a>
</g>
</g>
<!-- Node1&#45;&gt;Node2 -->
<g id="edge1_Node000001_Node000002" class="edge">
<title>Node1&#45;&gt;Node2</title>
<g id="a_edge1_Node000001_Node000002"><a xlink:title=" ">
<path fill="none" stroke="#63b8ff" d="M91.73,-88.53C112.75,-98.67 147.64,-114.63 179,-125 185.77,-127.24 192.85,-129.35 200,-131.33"/>
<polygon fill="#63b8ff" stroke="#63b8ff" points="199.2,-134.74 209.77,-133.94 201.01,-127.98 199.2,-134.74"/>
</a>
</g>
</g>
<!-- Node3 -->
<g id="Node000003" class="node">
<title>Node3</title>
<g id="a_Node000003"><a xlink:href="classaccounts_1_1sitemaps_1_1AllAuthSitemap.html#af9bb58614780826c03188c8b0202c8b2" target="_top" xlink:title=" ">
<polygon fill="white" stroke="#666666" points="355,-116 209,-116 209,-86 355,-86 355,-116"/>
<text text-anchor="start" x="217" y="-104" font-family="Helvetica,sans-Serif" font-size="10.00">accounts.sitemaps.AllAuth</text>
<text text-anchor="middle" x="282" y="-93" font-family="Helvetica,sans-Serif" font-size="10.00">Sitemap.items</text>
</a>
</g>
</g>
<!-- Node1&#45;&gt;Node3 -->
<g id="edge2_Node000001_Node000003" class="edge">
<title>Node1&#45;&gt;Node3</title>
<g id="a_edge2_Node000001_Node000003"><a xlink:title=" ">
<path fill="none" stroke="#63b8ff" d="M143.09,-86.45C160.93,-88.33 180.25,-90.37 198.62,-92.31"/>
<polygon fill="#63b8ff" stroke="#63b8ff" points="198.4,-95.8 208.71,-93.37 199.13,-88.84 198.4,-95.8"/>
</a>
</g>
</g>
<!-- Node4 -->
<g id="Node000004" class="node">
<title>Node4</title>
<g id="a_Node000004"><a xlink:href="classmedical_1_1sitemaps_1_1StaticSitemap.html#a2f154156ebe0d87a7e18bf952f28f501" target="_top" xlink:title=" ">
<polygon fill="white" stroke="#666666" points="385,-67.5 179,-67.5 179,-48.5 385,-48.5 385,-67.5"/>
<text text-anchor="middle" x="282" y="-55.5" font-family="Helvetica,sans-Serif" font-size="10.00">medical.sitemaps.StaticSitemap.items</text>
</a>
</g>
</g>
<!-- Node1&#45;&gt;Node4 -->
<g id="edge3_Node000001_Node000004" class="edge">
<title>Node1&#45;&gt;Node4</title>
<g id="a_edge3_Node000001_Node000004"><a xlink:title=" ">
<path fill="none" stroke="#63b8ff" d="M143.09,-71.89C153.76,-70.82 164.96,-69.69 176.17,-68.56"/>
<polygon fill="#63b8ff" stroke="#63b8ff" points="176.85,-72.01 186.45,-67.52 176.15,-65.04 176.85,-72.01"/>
</a>
</g>
</g>
<!-- Node5 -->
<g id="Node000005" class="node">
<title>Node5</title>
<g id="a_Node000005"><a xlink:href="classmedicines_1_1sitemaps_1_1MedSiteMap.html#ac52d12ec32b8be8b3648e473426eda59" target="_top" xlink:title=" ">
<polygon fill="white" stroke="#666666" points="361,-30 203,-30 203,0 361,0 361,-30"/>
<text text-anchor="start" x="211" y="-18" font-family="Helvetica,sans-Serif" font-size="10.00">medicines.sitemaps.MedSite</text>
<text text-anchor="middle" x="282" y="-7" font-family="Helvetica,sans-Serif" font-size="10.00">Map.items</text>
</a>
</g>
</g>
<!-- Node1&#45;&gt;Node5 -->
<g id="edge4_Node000001_Node000005" class="edge">
<title>Node1&#45;&gt;Node5</title>
<g id="a_edge4_Node000001_Node000005"><a xlink:title=" ">
<path fill="none" stroke="#63b8ff" d="M96.35,-69.4C117.77,-60.99 150.18,-48.78 179,-40 187.52,-37.41 196.5,-34.89 205.45,-32.52"/>
<polygon fill="#63b8ff" stroke="#63b8ff" points="206.34,-35.91 215.14,-30.01 204.58,-29.13 206.34,-35.91"/>
</a>
</g>
</g>
</g>
</svg>
</svg>

<style type='text/css'>
<![CDATA[
[data-mouse-over-selected='false'] { opacity: 0.7; }
[data-mouse-over-selected='true']  { opacity: 1.0; }
]]>
</style>
<script type="application/ecmascript"><![CDATA[
document.addEventListener('DOMContentLoaded', (event) => {
  highlightEdges();
  highlightAdjacentNodes();
});
]]></script>
</svg>
