<?xml version="1.0" encoding="UTF-8" standalone="no"?>
<!DOCTYPE svg PUBLIC "-//W3C//DTD SVG 1.1//EN"
 "http://www.w3.org/Graphics/SVG/1.1/DTD/svg11.dtd">
<!-- Generated by graphviz version 2.43.0 (0)
 -->
<!-- Title: medicines.filters.ProductFilter Pages: 1 -->
<svg width="139pt" height="168pt"
 viewBox="0.00 0.00 139.00 168.00" xmlns="http://www.w3.org/2000/svg" xmlns:xlink="http://www.w3.org/1999/xlink">
<g id="graph0" class="graph" transform="scale(1 1) rotate(0) translate(4 164)">
<title>medicines.filters.ProductFilter</title>
<!-- Node1 -->
<g id="Node000001" class="node">
<title>Node1</title>
<g id="a_Node000001"><a xlink:title=" ">
<polygon fill="#999999" stroke="transparent" points="131,-75 0,-75 0,0 131,0 131,-75"/>
<text text-anchor="start" x="5.5" y="-62.5" font-family="Helvetica,sans-Serif" font-size="10.00">medicines.filters.Product</text>
<text text-anchor="start" x="53.5" y="-51.5" font-family="Helvetica,sans-Serif" font-size="10.00">Filter</text>
<text text-anchor="start" x="25" y="-36.5" font-family="Helvetica,sans-Serif" font-size="10.00">+</text>
<text text-anchor="start" x="58.5" y="-36.5" font-family="Helvetica,sans-Serif" font-size="10.00">name</text>
<text text-anchor="start" x="25" y="-21.5" font-family="Helvetica,sans-Serif" font-size="10.00">+</text>
<text text-anchor="start" x="58.5" y="-21.5" font-family="Helvetica,sans-Serif" font-size="10.00">price</text>
<text text-anchor="start" x="64" y="-6.5" font-family="Helvetica,sans-Serif" font-size="10.00"> </text>
<polygon fill="#666666" stroke="#666666" points="0.5,-46.5 0.5,-46.5 131.5,-46.5 131.5,-46.5 0.5,-46.5"/>
<polygon fill="#666666" stroke="#666666" points="0.5,-16.5 0.5,-16.5 56.5,-16.5 56.5,-16.5 0.5,-16.5"/>
<polygon fill="#666666" stroke="#666666" points="56.5,-16.5 56.5,-16.5 131.5,-16.5 131.5,-16.5 56.5,-16.5"/>
<polygon fill="none" stroke="#666666" points="0,0 0,-75 131,-75 131,0 0,0"/>
</a>
</g>
</g>
<!-- Node2 -->
<g id="Node000002" class="node">
<title>Node2</title>
<g id="a_Node000002"><a xlink:title=" ">
<polygon fill="white" stroke="transparent" points="127,-160 4,-160 4,-111 127,-111 127,-160"/>
<text text-anchor="start" x="9.5" y="-147.5" font-family="Helvetica,sans-Serif" font-size="10.00">django_filters::FilterSet</text>
<text text-anchor="start" x="64" y="-132.5" font-family="Helvetica,sans-Serif" font-size="10.00"> </text>
<text text-anchor="start" x="64" y="-117.5" font-family="Helvetica,sans-Serif" font-size="10.00"> </text>
<polygon fill="#666666" stroke="#666666" points="4.5,-142.5 4.5,-142.5 127.5,-142.5 127.5,-142.5 4.5,-142.5"/>
<polygon fill="#666666" stroke="#666666" points="4.5,-127.5 4.5,-127.5 127.5,-127.5 127.5,-127.5 4.5,-127.5"/>
<polygon fill="none" stroke="#666666" points="4,-111 4,-160 127,-160 127,-111 4,-111"/>
</a>
</g>
</g>
<!-- Node2&#45;&gt;Node1 -->
<g id="edge1_Node000001_Node000002" class="edge">
<title>Node2&#45;&gt;Node1</title>
<g id="a_edge1_Node000001_Node000002"><a xlink:title=" ">
<path fill="none" stroke="#63b8ff" d="M65.5,-100.68C65.5,-92.38 65.5,-83.46 65.5,-75.04"/>
<polygon fill="none" stroke="#63b8ff" points="62,-100.77 65.5,-110.77 69,-100.77 62,-100.77"/>
</a>
</g>
</g>
</g>
</svg>
