<?xml version="1.0" encoding="UTF-8" standalone="no"?>
<!DOCTYPE svg PUBLIC "-//W3C//DTD SVG 1.1//EN"
 "http://www.w3.org/Graphics/SVG/1.1/DTD/svg11.dtd">
<!-- Generated by graphviz version 2.43.0 (0)
 -->
<!-- Title: checkout.migrations.0001_initial.Migration Pages: 1 -->
<svg width="145pt" height="183pt"
 viewBox="0.00 0.00 145.00 183.00" xmlns="http://www.w3.org/2000/svg" xmlns:xlink="http://www.w3.org/1999/xlink">
<g id="graph0" class="graph" transform="scale(1 1) rotate(0) translate(4 179)">
<title>checkout.migrations.0001_initial.Migration</title>
<!-- Node1 -->
<g id="Node000001" class="node">
<title>Node1</title>
<g id="a_Node000001"><a xlink:title=" ">
<polygon fill="#999999" stroke="transparent" points="137,-90 0,-90 0,0 137,0 137,-90"/>
<text text-anchor="start" x="5.5" y="-78" font-family="Helvetica,sans-Serif" font-size="10.00">checkout.migrations.0001</text>
<text text-anchor="start" x="27.5" y="-67" font-family="Helvetica,sans-Serif" font-size="10.00">_initial.Migration</text>
<text text-anchor="start" x="16.5" y="-52" font-family="Helvetica,sans-Serif" font-size="10.00">+</text>
<text text-anchor="start" x="41.5" y="-52" font-family="Helvetica,sans-Serif" font-size="10.00">initial</text>
<text text-anchor="start" x="16.5" y="-37" font-family="Helvetica,sans-Serif" font-size="10.00">+</text>
<text text-anchor="start" x="41.5" y="-37" font-family="Helvetica,sans-Serif" font-size="10.00">dependencies</text>
<text text-anchor="start" x="16.5" y="-22" font-family="Helvetica,sans-Serif" font-size="10.00">+</text>
<text text-anchor="start" x="41.5" y="-22" font-family="Helvetica,sans-Serif" font-size="10.00">operations</text>
<text text-anchor="start" x="67" y="-7" font-family="Helvetica,sans-Serif" font-size="10.00"> </text>
<polygon fill="#666666" stroke="#666666" points="0.5,-62 0.5,-62 137.5,-62 137.5,-62 0.5,-62"/>
<polygon fill="#666666" stroke="#666666" points="0.5,-17 0.5,-17 39.5,-17 39.5,-17 0.5,-17"/>
<polygon fill="#666666" stroke="#666666" points="39.5,-17 39.5,-17 137.5,-17 137.5,-17 39.5,-17"/>
<polygon fill="none" stroke="#666666" points="0,0 0,-90 137,-90 137,0 0,0"/>
</a>
</g>
</g>
<!-- Node2 -->
<g id="Node000002" class="node">
<title>Node2</title>
<g id="a_Node000002"><a xlink:title=" ">
<polygon fill="white" stroke="transparent" points="125,-175 12,-175 12,-126 125,-126 125,-175"/>
<text text-anchor="start" x="17.5" y="-162.5" font-family="Helvetica,sans-Serif" font-size="10.00">migrations.Migration</text>
<text text-anchor="start" x="67" y="-147.5" font-family="Helvetica,sans-Serif" font-size="10.00"> </text>
<text text-anchor="start" x="67" y="-132.5" font-family="Helvetica,sans-Serif" font-size="10.00"> </text>
<polygon fill="#666666" stroke="#666666" points="12.5,-157.5 12.5,-157.5 125.5,-157.5 125.5,-157.5 12.5,-157.5"/>
<polygon fill="#666666" stroke="#666666" points="12.5,-142.5 12.5,-142.5 125.5,-142.5 125.5,-142.5 12.5,-142.5"/>
<polygon fill="none" stroke="#666666" points="12,-126 12,-175 125,-175 125,-126 12,-126"/>
</a>
</g>
</g>
<!-- Node2&#45;&gt;Node1 -->
<g id="edge1_Node000001_Node000002" class="edge">
<title>Node2&#45;&gt;Node1</title>
<g id="a_edge1_Node000001_Node000002"><a xlink:title=" ">
<path fill="none" stroke="#63b8ff" d="M68.5,-115.62C68.5,-107.56 68.5,-98.84 68.5,-90.39"/>
<polygon fill="none" stroke="#63b8ff" points="65,-115.75 68.5,-125.76 72,-115.76 65,-115.75"/>
</a>
</g>
</g>
</g>
</svg>
