<?xml version="1.0" encoding="UTF-8" standalone="no"?>
<!DOCTYPE svg PUBLIC "-//W3C//DTD SVG 1.1//EN"
 "http://www.w3.org/Graphics/SVG/1.1/DTD/svg11.dtd">
<!-- Generated by graphviz version 2.43.0 (0)
 -->
<!-- Title: cart.migrations.0002_order_orderdate.Migration Pages: 1 -->
<svg width="151pt" height="168pt"
 viewBox="0.00 0.00 151.00 168.00" xmlns="http://www.w3.org/2000/svg" xmlns:xlink="http://www.w3.org/1999/xlink">
<g id="graph0" class="graph" transform="scale(1 1) rotate(0) translate(4 164)">
<title>cart.migrations.0002_order_orderdate.Migration</title>
<!-- Node1 -->
<g id="Node000001" class="node">
<title>Node1</title>
<g id="a_Node000001"><a xlink:title=" ">
<polygon fill="#999999" stroke="transparent" points="143,-75 0,-75 0,0 143,0 143,-75"/>
<text text-anchor="start" x="5.5" y="-62.5" font-family="Helvetica,sans-Serif" font-size="10.00">cart.migrations.0002</text>
<text text-anchor="start" x="5.5" y="-51.5" font-family="Helvetica,sans-Serif" font-size="10.00">_order_orderdate.Migration</text>
<text text-anchor="start" x="18" y="-36.5" font-family="Helvetica,sans-Serif" font-size="10.00">+</text>
<text text-anchor="start" x="44.5" y="-36.5" font-family="Helvetica,sans-Serif" font-size="10.00">dependencies</text>
<text text-anchor="start" x="18" y="-21.5" font-family="Helvetica,sans-Serif" font-size="10.00">+</text>
<text text-anchor="start" x="44.5" y="-21.5" font-family="Helvetica,sans-Serif" font-size="10.00">operations</text>
<text text-anchor="start" x="70" y="-6.5" font-family="Helvetica,sans-Serif" font-size="10.00"> </text>
<polygon fill="#666666" stroke="#666666" points="0.5,-46.5 0.5,-46.5 143.5,-46.5 143.5,-46.5 0.5,-46.5"/>
<polygon fill="#666666" stroke="#666666" points="0.5,-16.5 0.5,-16.5 42.5,-16.5 42.5,-16.5 0.5,-16.5"/>
<polygon fill="#666666" stroke="#666666" points="42.5,-16.5 42.5,-16.5 143.5,-16.5 143.5,-16.5 42.5,-16.5"/>
<polygon fill="none" stroke="#666666" points="0,0 0,-75 143,-75 143,0 0,0"/>
</a>
</g>
</g>
<!-- Node2 -->
<g id="Node000002" class="node">
<title>Node2</title>
<g id="a_Node000002"><a xlink:title=" ">
<polygon fill="white" stroke="transparent" points="128,-160 15,-160 15,-111 128,-111 128,-160"/>
<text text-anchor="start" x="20.5" y="-147.5" font-family="Helvetica,sans-Serif" font-size="10.00">migrations.Migration</text>
<text text-anchor="start" x="70" y="-132.5" font-family="Helvetica,sans-Serif" font-size="10.00"> </text>
<text text-anchor="start" x="70" y="-117.5" font-family="Helvetica,sans-Serif" font-size="10.00"> </text>
<polygon fill="#666666" stroke="#666666" points="15.5,-142.5 15.5,-142.5 128.5,-142.5 128.5,-142.5 15.5,-142.5"/>
<polygon fill="#666666" stroke="#666666" points="15.5,-127.5 15.5,-127.5 128.5,-127.5 128.5,-127.5 15.5,-127.5"/>
<polygon fill="none" stroke="#666666" points="15,-111 15,-160 128,-160 128,-111 15,-111"/>
</a>
</g>
</g>
<!-- Node2&#45;&gt;Node1 -->
<g id="edge1_Node000001_Node000002" class="edge">
<title>Node2&#45;&gt;Node1</title>
<g id="a_edge1_Node000001_Node000002"><a xlink:title=" ">
<path fill="none" stroke="#63b8ff" d="M71.5,-100.68C71.5,-92.38 71.5,-83.46 71.5,-75.04"/>
<polygon fill="none" stroke="#63b8ff" points="68,-100.77 71.5,-110.77 75,-100.77 68,-100.77"/>
</a>
</g>
</g>
</g>
</svg>
