<?xml version="1.0" encoding="UTF-8" standalone="no"?>
<!DOCTYPE svg PUBLIC "-//W3C//DTD SVG 1.1//EN"
 "http://www.w3.org/Graphics/SVG/1.1/DTD/svg11.dtd">
<!-- Generated by graphviz version 2.43.0 (0)
 -->
<!-- Title: medicines.views.MedDetailView Pages: 1 -->
<svg width="293pt" height="239pt"
 viewBox="0.00 0.00 292.50 239.00" xmlns="http://www.w3.org/2000/svg" xmlns:xlink="http://www.w3.org/1999/xlink">

<svg id="main" version="1.1" xmlns="http://www.w3.org/2000/svg" xmlns:xlink="http://www.w3.org/1999/xlink" xml:space="preserve" onload="init(evt)">
<style type="text/css"><![CDATA[
.node, .edge {opacity: 0.7;}
.node.selected, .edge.selected {opacity: 1;}
.edge:hover path { stroke: red; }
.edge:hover polygon { stroke: red; fill: red; }
]]></style>
<script type="application/ecmascript" xlink:href="svg.min.js"/>
<svg id="graph" class="graph">
<g id="graph0" class="graph" transform="scale(1 1) rotate(0) translate(4 235)">
<title>medicines.views.MedDetailView</title>
<!-- Node1 -->
<g id="Node000001" class="node">
<title>Node1</title>
<g id="a_Node000001"><a xlink:title=" ">
<polygon fill="#999999" stroke="transparent" points="265.5,-49 95.5,-49 95.5,0 265.5,0 265.5,-49"/>
<text text-anchor="start" x="100.5" y="-36.5" font-family="Helvetica,sans-Serif" font-size="10.00">medicines.views.MedDetailView</text>
<text text-anchor="start" x="129" y="-21.5" font-family="Helvetica,sans-Serif" font-size="10.00">+</text>
<text text-anchor="start" x="171.5" y="-21.5" font-family="Helvetica,sans-Serif" font-size="10.00">model</text>
<text text-anchor="start" x="178.5" y="-6.5" font-family="Helvetica,sans-Serif" font-size="10.00"> </text>
<polygon fill="#666666" stroke="#666666" points="95.5,-31.5 95.5,-31.5 265.5,-31.5 265.5,-31.5 95.5,-31.5"/>
<polygon fill="#666666" stroke="#666666" points="95.5,-16.5 95.5,-16.5 169.5,-16.5 169.5,-16.5 95.5,-16.5"/>
<polygon fill="#666666" stroke="#666666" points="169.5,-16.5 169.5,-16.5 265.5,-16.5 265.5,-16.5 169.5,-16.5"/>
<polygon fill="none" stroke="#666666" points="95.5,0 95.5,-49 265.5,-49 265.5,0 95.5,0"/>
</a>
</g>
</g>
<!-- Node2 -->
<g id="Node000002" class="node">
<title>Node2</title>
<g id="a_Node000002"><a xlink:href="classmedicines_1_1owner_1_1OwnerDetailView.html" target="_top" xlink:title=" ">
<polygon fill="white" stroke="transparent" points="181,-145 0,-145 0,-96 181,-96 181,-145"/>
<text text-anchor="start" x="5.5" y="-132.5" font-family="Helvetica,sans-Serif" font-size="10.00">medicines.owner.OwnerDetailView</text>
<text text-anchor="start" x="89" y="-117.5" font-family="Helvetica,sans-Serif" font-size="10.00"> </text>
<text text-anchor="start" x="89" y="-102.5" font-family="Helvetica,sans-Serif" font-size="10.00"> </text>
<polygon fill="#666666" stroke="#666666" points="0.5,-127.5 0.5,-127.5 181.5,-127.5 181.5,-127.5 0.5,-127.5"/>
<polygon fill="#666666" stroke="#666666" points="0.5,-112.5 0.5,-112.5 181.5,-112.5 181.5,-112.5 0.5,-112.5"/>
<polygon fill="none" stroke="#666666" points="0,-96 0,-145 181,-145 181,-96 0,-96"/>
</a>
</g>
</g>
<!-- Node2&#45;&gt;Node1 -->
<g id="edge1_Node000001_Node000002" class="edge">
<title>Node2&#45;&gt;Node1</title>
<g id="a_edge1_Node000001_Node000002"><a xlink:title=" ">
<path fill="none" stroke="#63b8ff" d="M120.19,-88.49C132.43,-75.7 146.39,-61.12 157.8,-49.21"/>
<polygon fill="none" stroke="#63b8ff" points="117.6,-86.14 113.21,-95.78 122.65,-90.98 117.6,-86.14"/>
</a>
</g>
</g>
<!-- Node3 -->
<g id="Node000003" class="node">
<title>Node3</title>
<g id="a_Node000003"><a xlink:title=" ">
<polygon fill="white" stroke="transparent" points="143.5,-231 37.5,-231 37.5,-182 143.5,-182 143.5,-231"/>
<text text-anchor="start" x="42.5" y="-218.5" font-family="Helvetica,sans-Serif" font-size="10.00">generic::DetailView</text>
<text text-anchor="start" x="88.5" y="-203.5" font-family="Helvetica,sans-Serif" font-size="10.00"> </text>
<text text-anchor="start" x="88.5" y="-188.5" font-family="Helvetica,sans-Serif" font-size="10.00"> </text>
<polygon fill="#666666" stroke="#666666" points="37.5,-213.5 37.5,-213.5 143.5,-213.5 143.5,-213.5 37.5,-213.5"/>
<polygon fill="#666666" stroke="#666666" points="37.5,-198.5 37.5,-198.5 143.5,-198.5 143.5,-198.5 37.5,-198.5"/>
<polygon fill="none" stroke="#666666" points="37.5,-182 37.5,-231 143.5,-231 143.5,-182 37.5,-182"/>
</a>
</g>
</g>
<!-- Node3&#45;&gt;Node2 -->
<g id="edge2_Node000002_Node000003" class="edge">
<title>Node3&#45;&gt;Node2</title>
<g id="a_edge2_Node000002_Node000003"><a xlink:title=" ">
<path fill="none" stroke="#63b8ff" d="M90.5,-171.57C90.5,-162.69 90.5,-153.32 90.5,-145.12"/>
<polygon fill="none" stroke="#63b8ff" points="87,-171.65 90.5,-181.65 94,-171.65 87,-171.65"/>
</a>
</g>
</g>
<!-- Node4 -->
<g id="Node000004" class="node">
<title>Node4</title>
<g id="a_Node000004"><a xlink:title=" ">
<polygon fill="white" stroke="transparent" points="222,-145 199,-145 199,-96 222,-96 222,-145"/>
<text text-anchor="start" x="204.5" y="-132.5" font-family="Helvetica,sans-Serif" font-size="10.00">str</text>
<text text-anchor="start" x="209" y="-117.5" font-family="Helvetica,sans-Serif" font-size="10.00"> </text>
<text text-anchor="start" x="209" y="-102.5" font-family="Helvetica,sans-Serif" font-size="10.00"> </text>
<polygon fill="#666666" stroke="#666666" points="199.5,-127.5 199.5,-127.5 222.5,-127.5 222.5,-127.5 199.5,-127.5"/>
<polygon fill="#666666" stroke="#666666" points="199.5,-112.5 199.5,-112.5 222.5,-112.5 222.5,-112.5 199.5,-112.5"/>
<polygon fill="none" stroke="#666666" points="199,-96 199,-145 222,-145 222,-96 199,-96"/>
</a>
</g>
</g>
<!-- Node4&#45;&gt;Node1 -->
<g id="edge3_Node000001_Node000004" class="edge">
<title>Node4&#45;&gt;Node1</title>
<g id="a_edge3_Node000001_Node000004"><a xlink:title=" ">
<path fill="none" stroke="#63b8ff" d="M202.93,-95.78C199.55,-85.2 195.51,-72.52 191.79,-60.86"/>
<polygon fill="none" stroke="#63b8ff" points="191.72,-60.64 186.08,-56.14 188.07,-49.21 193.7,-53.71 191.72,-60.64"/>
</a>
</g>
<text text-anchor="middle" x="240" y="-70" font-family="Helvetica,sans-Serif" font-size="10.00" fill="grey"> +template_name</text>
</g>
</g>
</svg>
</svg>

<style type='text/css'>
<![CDATA[
[data-mouse-over-selected='false'] { opacity: 0.7; }
[data-mouse-over-selected='true']  { opacity: 1.0; }
]]>
</style>
<script type="application/ecmascript"><![CDATA[
document.addEventListener('DOMContentLoaded', (event) => {
  highlightEdges();
  highlightAdjacentNodes();
});
]]></script>
</svg>
