<?xml version="1.0" encoding="UTF-8" standalone="no"?>
<!DOCTYPE svg PUBLIC "-//W3C//DTD SVG 1.1//EN"
 "http://www.w3.org/Graphics/SVG/1.1/DTD/svg11.dtd">
<!-- Generated by graphviz version 2.43.0 (0)
 -->
<!-- Title: medicines.views.MedListView.get_context_data Pages: 1 -->
<svg width="395pt" height="170pt"
 viewBox="0.00 0.00 395.00 170.00" xmlns="http://www.w3.org/2000/svg" xmlns:xlink="http://www.w3.org/1999/xlink">
<g id="graph0" class="graph" transform="scale(1 1) rotate(0) translate(4 166)">
<title>medicines.views.MedListView.get_context_data</title>
<!-- Node1 -->
<g id="Node000001" class="node">
<title>Node1</title>
<g id="a_Node000001"><a xlink:title=" ">
<polygon fill="#999999" stroke="#666666" points="182,-96 0,-96 0,-66 182,-66 182,-96"/>
<text text-anchor="start" x="8" y="-84" font-family="Helvetica,sans-Serif" font-size="10.00">medicines.views.MedListView.get</text>
<text text-anchor="middle" x="91" y="-73" font-family="Helvetica,sans-Serif" font-size="10.00">_context_data</text>
</a>
</g>
</g>
<!-- Node1&#45;&gt;Node1 -->
<g id="edge1_Node000001_Node000001" class="edge">
<title>Node1&#45;&gt;Node1</title>
<g id="a_edge1_Node000001_Node000001"><a xlink:title=" ">
<path fill="none" stroke="#63b8ff" d="M54.09,-96.28C45.88,-105.41 58.19,-114 91,-114 110.48,-114 122.74,-110.97 127.76,-106.6"/>
<polygon fill="#63b8ff" stroke="#63b8ff" points="131.26,-106.33 127.91,-96.28 124.26,-106.22 131.26,-106.33"/>
</a>
</g>
</g>
<!-- Node2 -->
<g id="Node000002" class="node">
<title>Node2</title>
<g id="a_Node000002"><a xlink:href="classapi_1_1views_1_1medicine_1_1MedicineView.html#a246b3300c14ea5fc459ab4a06dec1ad1" target="_top" xlink:title=" ">
<polygon fill="white" stroke="#666666" points="381.5,-162 223.5,-162 223.5,-132 381.5,-132 381.5,-162"/>
<text text-anchor="start" x="231.5" y="-150" font-family="Helvetica,sans-Serif" font-size="10.00">api.views.medicine.Medicine</text>
<text text-anchor="middle" x="302.5" y="-139" font-family="Helvetica,sans-Serif" font-size="10.00">View.get_queryset</text>
</a>
</g>
</g>
<!-- Node1&#45;&gt;Node2 -->
<g id="edge2_Node000001_Node000002" class="edge">
<title>Node1&#45;&gt;Node2</title>
<g id="a_edge2_Node000001_Node000002"><a xlink:title=" ">
<path fill="none" stroke="#63b8ff" d="M135.59,-96.03C159.79,-104.25 190.47,-114.46 218,-123 224.49,-125.01 231.27,-127.06 238.05,-129.06"/>
<polygon fill="#63b8ff" stroke="#63b8ff" points="237.37,-132.51 247.95,-131.97 239.34,-125.79 237.37,-132.51"/>
</a>
</g>
</g>
<!-- Node3 -->
<g id="Node000003" class="node">
<title>Node3</title>
<g id="a_Node000003"><a xlink:href="classmedicines_1_1owner_1_1OwnerUpdateView.html#afcdeb7526e1d7dc2a7c316c7cd0ab5ab" target="_top" xlink:title=" ">
<polygon fill="white" stroke="#666666" points="387,-96 218,-96 218,-66 387,-66 387,-96"/>
<text text-anchor="start" x="226" y="-84" font-family="Helvetica,sans-Serif" font-size="10.00">medicines.owner.OwnerUpdate</text>
<text text-anchor="middle" x="302.5" y="-73" font-family="Helvetica,sans-Serif" font-size="10.00">View.get_queryset</text>
</a>
</g>
</g>
<!-- Node1&#45;&gt;Node3 -->
<g id="edge3_Node000001_Node000003" class="edge">
<title>Node1&#45;&gt;Node3</title>
<g id="a_edge3_Node000001_Node000003"><a xlink:title=" ">
<path fill="none" stroke="#63b8ff" d="M182.06,-81C190.5,-81 199.07,-81 207.54,-81"/>
<polygon fill="#63b8ff" stroke="#63b8ff" points="207.81,-84.5 217.81,-81 207.81,-77.5 207.81,-84.5"/>
</a>
</g>
</g>
<!-- Node4 -->
<g id="Node000004" class="node">
<title>Node4</title>
<g id="a_Node000004"><a xlink:href="classmedicines_1_1owner_1_1OwnerDeleteView.html#adccdfbc96ef006ef1681aa5c30e96944" target="_top" xlink:title=" ">
<polygon fill="white" stroke="#666666" points="385.5,-30 219.5,-30 219.5,0 385.5,0 385.5,-30"/>
<text text-anchor="start" x="227.5" y="-18" font-family="Helvetica,sans-Serif" font-size="10.00">medicines.owner.OwnerDelete</text>
<text text-anchor="middle" x="302.5" y="-7" font-family="Helvetica,sans-Serif" font-size="10.00">View.get_queryset</text>
</a>
</g>
</g>
<!-- Node1&#45;&gt;Node4 -->
<g id="edge5_Node000001_Node000004" class="edge">
<title>Node1&#45;&gt;Node4</title>
<g id="a_edge5_Node000001_Node000004"><a xlink:title=" ">
<path fill="none" stroke="#63b8ff" d="M139.8,-65.94C170.66,-56.22 211,-43.51 243.67,-33.22"/>
<polygon fill="#63b8ff" stroke="#63b8ff" points="245.06,-36.45 253.54,-30.11 242.95,-29.78 245.06,-36.45"/>
</a>
</g>
</g>
<!-- Node3&#45;&gt;Node3 -->
<g id="edge4_Node000003_Node000003" class="edge">
<title>Node3&#45;&gt;Node3</title>
<g id="a_edge4_Node000003_Node000003"><a xlink:title=" ">
<path fill="none" stroke="#63b8ff" d="M265.59,-96.28C257.38,-105.41 269.69,-114 302.5,-114 321.98,-114 334.24,-110.97 339.26,-106.6"/>
<polygon fill="#63b8ff" stroke="#63b8ff" points="342.76,-106.33 339.41,-96.28 335.76,-106.22 342.76,-106.33"/>
</a>
</g>
</g>
<!-- Node4&#45;&gt;Node4 -->
<g id="edge6_Node000004_Node000004" class="edge">
<title>Node4&#45;&gt;Node4</title>
<g id="a_edge6_Node000004_Node000004"><a xlink:title=" ">
<path fill="none" stroke="#63b8ff" d="M265.59,-30.28C257.38,-39.41 269.69,-48 302.5,-48 321.98,-48 334.24,-44.97 339.26,-40.6"/>
<polygon fill="#63b8ff" stroke="#63b8ff" points="342.76,-40.33 339.41,-30.28 335.76,-40.22 342.76,-40.33"/>
</a>
</g>
</g>
</g>
</svg>
