<?xml version="1.0" encoding="UTF-8" standalone="no"?>
<!DOCTYPE svg PUBLIC "-//W3C//DTD SVG 1.1//EN"
 "http://www.w3.org/Graphics/SVG/1.1/DTD/svg11.dtd">
<!-- Generated by graphviz version 2.43.0 (0)
 -->
<!-- Title: medicines.views.MedUpdateView Pages: 1 -->
<svg width="194pt" height="217pt"
 viewBox="0.00 0.00 193.50 217.00" xmlns="http://www.w3.org/2000/svg" xmlns:xlink="http://www.w3.org/1999/xlink">
<g id="graph0" class="graph" transform="scale(1 1) rotate(0) translate(4 213)">
<title>medicines.views.MedUpdateView</title>
<!-- Node1 -->
<g id="Node000001" class="node">
<title>Node1</title>
<g id="a_Node000001"><a xlink:title=" ">
<polygon fill="#999999" stroke="transparent" points="185.5,-124 9.5,-124 9.5,0 185.5,0 185.5,-124"/>
<text text-anchor="start" x="14.5" y="-112" font-family="Helvetica,sans-Serif" font-size="10.00">medicines.views.MedUpdateView</text>
<text text-anchor="start" x="32.5" y="-97" font-family="Helvetica,sans-Serif" font-size="10.00">+</text>
<text text-anchor="start" x="64.5" y="-97" font-family="Helvetica,sans-Serif" font-size="10.00">template_name</text>
<text text-anchor="start" x="32.5" y="-82" font-family="Helvetica,sans-Serif" font-size="10.00">+</text>
<text text-anchor="start" x="64.5" y="-82" font-family="Helvetica,sans-Serif" font-size="10.00">success_url</text>
<text text-anchor="start" x="32.5" y="-67" font-family="Helvetica,sans-Serif" font-size="10.00">+</text>
<text text-anchor="start" x="64.5" y="-67" font-family="Helvetica,sans-Serif" font-size="10.00">model</text>
<text text-anchor="start" x="32.5" y="-52" font-family="Helvetica,sans-Serif" font-size="10.00">+</text>
<text text-anchor="start" x="64.5" y="-52" font-family="Helvetica,sans-Serif" font-size="10.00">success_url</text>
<text text-anchor="start" x="32.5" y="-37" font-family="Helvetica,sans-Serif" font-size="10.00">+</text>
<text text-anchor="start" x="64.5" y="-37" font-family="Helvetica,sans-Serif" font-size="10.00">template_name</text>
<text text-anchor="start" x="32.5" y="-22" font-family="Helvetica,sans-Serif" font-size="10.00">+</text>
<text text-anchor="start" x="64.5" y="-22" font-family="Helvetica,sans-Serif" font-size="10.00">get()</text>
<text text-anchor="start" x="32.5" y="-7" font-family="Helvetica,sans-Serif" font-size="10.00">+</text>
<text text-anchor="start" x="64.5" y="-7" font-family="Helvetica,sans-Serif" font-size="10.00">post()</text>
<polygon fill="#666666" stroke="#666666" points="9.5,-107 9.5,-107 185.5,-107 185.5,-107 9.5,-107"/>
<polygon fill="#666666" stroke="#666666" points="9.5,-32 9.5,-32 62.5,-32 62.5,-32 9.5,-32"/>
<polygon fill="#666666" stroke="#666666" points="62.5,-32 62.5,-32 185.5,-32 185.5,-32 62.5,-32"/>
<polygon fill="none" stroke="#666666" points="9.5,0 9.5,-124 185.5,-124 185.5,0 9.5,0"/>
</a>
</g>
</g>
<!-- Node2 -->
<g id="Node000002" class="node">
<title>Node2</title>
<g id="a_Node000002"><a xlink:title=" ">
<polygon fill="white" stroke="transparent" points="107,-209 0,-209 0,-160 107,-160 107,-209"/>
<text text-anchor="start" x="5.5" y="-196.5" font-family="Helvetica,sans-Serif" font-size="10.00">LoginRequiredMixin</text>
<text text-anchor="start" x="52" y="-181.5" font-family="Helvetica,sans-Serif" font-size="10.00"> </text>
<text text-anchor="start" x="52" y="-166.5" font-family="Helvetica,sans-Serif" font-size="10.00"> </text>
<polygon fill="#666666" stroke="#666666" points="0.5,-191.5 0.5,-191.5 107.5,-191.5 107.5,-191.5 0.5,-191.5"/>
<polygon fill="#666666" stroke="#666666" points="0.5,-176.5 0.5,-176.5 107.5,-176.5 107.5,-176.5 0.5,-176.5"/>
<polygon fill="none" stroke="#666666" points="0,-160 0,-209 107,-209 107,-160 0,-160"/>
</a>
</g>
</g>
<!-- Node2&#45;&gt;Node1 -->
<g id="edge1_Node000001_Node000002" class="edge">
<title>Node2&#45;&gt;Node1</title>
<g id="a_edge1_Node000001_Node000002"><a xlink:title=" ">
<path fill="none" stroke="#63b8ff" d="M65.56,-150.48C68.54,-142.3 71.84,-133.28 75.14,-124.23"/>
<polygon fill="none" stroke="#63b8ff" points="62.23,-149.39 62.09,-159.98 68.81,-151.79 62.23,-149.39"/>
</a>
</g>
</g>
<!-- Node3 -->
<g id="Node000003" class="node">
<title>Node3</title>
<g id="a_Node000003"><a xlink:title=" ">
<polygon fill="white" stroke="transparent" points="160,-209 125,-209 125,-160 160,-160 160,-209"/>
<text text-anchor="start" x="130.5" y="-196.5" font-family="Helvetica,sans-Serif" font-size="10.00">View</text>
<text text-anchor="start" x="141" y="-181.5" font-family="Helvetica,sans-Serif" font-size="10.00"> </text>
<text text-anchor="start" x="141" y="-166.5" font-family="Helvetica,sans-Serif" font-size="10.00"> </text>
<polygon fill="#666666" stroke="#666666" points="125.5,-191.5 125.5,-191.5 160.5,-191.5 160.5,-191.5 125.5,-191.5"/>
<polygon fill="#666666" stroke="#666666" points="125.5,-176.5 125.5,-176.5 160.5,-176.5 160.5,-176.5 125.5,-176.5"/>
<polygon fill="none" stroke="#666666" points="125,-160 125,-209 160,-209 160,-160 125,-160"/>
</a>
</g>
</g>
<!-- Node3&#45;&gt;Node1 -->
<g id="edge2_Node000001_Node000003" class="edge">
<title>Node3&#45;&gt;Node1</title>
<g id="a_edge2_Node000001_Node000003"><a xlink:title=" ">
<path fill="none" stroke="#63b8ff" d="M130.17,-150.48C127.12,-142.3 123.75,-133.28 120.36,-124.23"/>
<polygon fill="none" stroke="#63b8ff" points="126.94,-151.84 133.72,-159.98 133.5,-149.39 126.94,-151.84"/>
</a>
</g>
</g>
</g>
</svg>
