<?xml version="1.0" encoding="UTF-8" standalone="no"?>
<!DOCTYPE svg PUBLIC "-//W3C//DTD SVG 1.1//EN"
 "http://www.w3.org/Graphics/SVG/1.1/DTD/svg11.dtd">
<!-- Generated by graphviz version 2.43.0 (0)
 -->
<!-- Title: medicines.owner.OwnerDeleteView.get_queryset Pages: 1 -->
<svg width="392pt" height="104pt"
 viewBox="0.00 0.00 392.00 104.00" xmlns="http://www.w3.org/2000/svg" xmlns:xlink="http://www.w3.org/1999/xlink">
<g id="graph0" class="graph" transform="scale(1 1) rotate(0) translate(4 100)">
<title>medicines.owner.OwnerDeleteView.get_queryset</title>
<!-- Node1 -->
<g id="Node000001" class="node">
<title>Node1</title>
<g id="a_Node000001"><a xlink:title=" ">
<polygon fill="#999999" stroke="#666666" points="384,-63 218,-63 218,-33 384,-33 384,-63"/>
<text text-anchor="start" x="226" y="-51" font-family="Helvetica,sans-Serif" font-size="10.00">medicines.owner.OwnerDelete</text>
<text text-anchor="middle" x="301" y="-40" font-family="Helvetica,sans-Serif" font-size="10.00">View.get_queryset</text>
</a>
</g>
</g>
<!-- Node1&#45;&gt;Node1 -->
<g id="edge4_Node000001_Node000001" class="edge">
<title>Node1&#45;&gt;Node1</title>
<g id="a_edge4_Node000001_Node000001"><a xlink:title=" ">
<path fill="none" stroke="#63b8ff" d="M337.76,-73.6C332.74,-77.97 320.48,-81 301,-81 268.19,-81 255.88,-72.41 264.09,-63.28"/>
<polygon fill="#63b8ff" stroke="#63b8ff" points="341.26,-73.33 337.91,-63.28 334.26,-73.22 341.26,-73.33"/>
</a>
</g>
</g>
<!-- Node2 -->
<g id="Node000002" class="node">
<title>Node2</title>
<g id="a_Node000002"><a xlink:href="classapi_1_1views_1_1medicine_1_1MedicineView.html#a6a92fa916b3ccf8671ec552755883093" target="_top" xlink:title=" ">
<polygon fill="white" stroke="#666666" points="170,-96 12,-96 12,-66 170,-66 170,-96"/>
<text text-anchor="start" x="20" y="-84" font-family="Helvetica,sans-Serif" font-size="10.00">api.views.medicine.Medicine</text>
<text text-anchor="middle" x="91" y="-73" font-family="Helvetica,sans-Serif" font-size="10.00">View.get</text>
</a>
</g>
</g>
<!-- Node1&#45;&gt;Node2 -->
<g id="edge1_Node000001_Node000002" class="edge">
<title>Node1&#45;&gt;Node2</title>
<g id="a_edge1_Node000001_Node000002"><a xlink:title=" ">
<path fill="none" stroke="#63b8ff" d="M207.8,-62.63C195.26,-64.62 182.48,-66.64 170.22,-68.59"/>
<polygon fill="#63b8ff" stroke="#63b8ff" points="208.46,-66.07 217.79,-61.04 207.37,-59.15 208.46,-66.07"/>
</a>
</g>
</g>
<!-- Node3 -->
<g id="Node000003" class="node">
<title>Node3</title>
<g id="a_Node000003"><a xlink:href="classmedicines_1_1views_1_1MedListView.html#a32882e4ccbe86c8d90013dadc073524b" target="_top" xlink:title=" ">
<polygon fill="white" stroke="#666666" points="182,-30 0,-30 0,0 182,0 182,-30"/>
<text text-anchor="start" x="8" y="-18" font-family="Helvetica,sans-Serif" font-size="10.00">medicines.views.MedListView.get</text>
<text text-anchor="middle" x="91" y="-7" font-family="Helvetica,sans-Serif" font-size="10.00">_context_data</text>
</a>
</g>
</g>
<!-- Node1&#45;&gt;Node3 -->
<g id="edge2_Node000001_Node000003" class="edge">
<title>Node1&#45;&gt;Node3</title>
<g id="a_edge2_Node000001_Node000003"><a xlink:title=" ">
<path fill="none" stroke="#63b8ff" d="M207.85,-33.38C199.32,-32.03 190.69,-30.66 182.18,-29.31"/>
<polygon fill="#63b8ff" stroke="#63b8ff" points="207.37,-36.85 217.79,-34.96 208.46,-29.93 207.37,-36.85"/>
</a>
</g>
</g>
<!-- Node3&#45;&gt;Node3 -->
<g id="edge3_Node000003_Node000003" class="edge">
<title>Node3&#45;&gt;Node3</title>
<g id="a_edge3_Node000003_Node000003"><a xlink:title=" ">
<path fill="none" stroke="#63b8ff" d="M127.76,-40.6C122.74,-44.97 110.48,-48 91,-48 58.19,-48 45.88,-39.41 54.09,-30.28"/>
<polygon fill="#63b8ff" stroke="#63b8ff" points="131.26,-40.33 127.91,-30.28 124.26,-40.22 131.26,-40.33"/>
</a>
</g>
</g>
</g>
</svg>
