<?xml version="1.0" encoding="UTF-8" standalone="no"?>
<!DOCTYPE svg PUBLIC "-//W3C//DTD SVG 1.1//EN"
 "http://www.w3.org/Graphics/SVG/1.1/DTD/svg11.dtd">
<!-- Generated by graphviz version 2.43.0 (0)
 -->
<!-- Title: medicines.views.MedUpdateView Pages: 1 -->
<svg width="266pt" height="179pt"
 viewBox="0.00 0.00 265.50 179.00" xmlns="http://www.w3.org/2000/svg" xmlns:xlink="http://www.w3.org/1999/xlink">

<svg id="main" version="1.1" xmlns="http://www.w3.org/2000/svg" xmlns:xlink="http://www.w3.org/1999/xlink" xml:space="preserve" onload="init(evt)">
<style type="text/css"><![CDATA[
.node, .edge {opacity: 0.7;}
.node.selected, .edge.selected {opacity: 1;}
.edge:hover path { stroke: red; }
.edge:hover polygon { stroke: red; fill: red; }
]]></style>
<script type="application/ecmascript" xlink:href="svg.min.js"/>
<svg id="graph" class="graph">
<g id="graph0" class="graph" transform="scale(1 1) rotate(0) translate(4 175)">
<title>medicines.views.MedUpdateView</title>
<!-- Node1 -->
<g id="Node000001" class="node">
<title>Node1</title>
<g id="a_Node000001"><a xlink:title=" ">
<polygon fill="#999999" stroke="transparent" points="230.5,-64 54.5,-64 54.5,0 230.5,0 230.5,-64"/>
<text text-anchor="start" x="59.5" y="-52" font-family="Helvetica,sans-Serif" font-size="10.00">medicines.views.MedUpdateView</text>
<text text-anchor="start" x="89.5" y="-37" font-family="Helvetica,sans-Serif" font-size="10.00">+</text>
<text text-anchor="start" x="133.5" y="-37" font-family="Helvetica,sans-Serif" font-size="10.00">model</text>
<text text-anchor="start" x="89.5" y="-22" font-family="Helvetica,sans-Serif" font-size="10.00">+</text>
<text text-anchor="start" x="133.5" y="-22" font-family="Helvetica,sans-Serif" font-size="10.00">get()</text>
<text text-anchor="start" x="89.5" y="-7" font-family="Helvetica,sans-Serif" font-size="10.00">+</text>
<text text-anchor="start" x="133.5" y="-7" font-family="Helvetica,sans-Serif" font-size="10.00">post()</text>
<polygon fill="#666666" stroke="#666666" points="54.5,-47 54.5,-47 230.5,-47 230.5,-47 54.5,-47"/>
<polygon fill="#666666" stroke="#666666" points="54.5,-32 54.5,-32 131.5,-32 131.5,-32 54.5,-32"/>
<polygon fill="#666666" stroke="#666666" points="131.5,-32 131.5,-32 230.5,-32 230.5,-32 131.5,-32"/>
<polygon fill="none" stroke="#666666" points="54.5,0 54.5,-64 230.5,-64 230.5,0 54.5,0"/>
</a>
</g>
</g>
<!-- Node2 -->
<g id="Node000002" class="node">
<title>Node2</title>
<g id="a_Node000002"><a xlink:title=" ">
<polygon fill="white" stroke="transparent" points="107,-171 0,-171 0,-122 107,-122 107,-171"/>
<text text-anchor="start" x="5.5" y="-158.5" font-family="Helvetica,sans-Serif" font-size="10.00">LoginRequiredMixin</text>
<text text-anchor="start" x="52" y="-143.5" font-family="Helvetica,sans-Serif" font-size="10.00"> </text>
<text text-anchor="start" x="52" y="-128.5" font-family="Helvetica,sans-Serif" font-size="10.00"> </text>
<polygon fill="#666666" stroke="#666666" points="0.5,-153.5 0.5,-153.5 107.5,-153.5 107.5,-153.5 0.5,-153.5"/>
<polygon fill="#666666" stroke="#666666" points="0.5,-138.5 0.5,-138.5 107.5,-138.5 107.5,-138.5 0.5,-138.5"/>
<polygon fill="none" stroke="#666666" points="0,-122 0,-171 107,-171 107,-122 0,-122"/>
</a>
</g>
</g>
<!-- Node2&#45;&gt;Node1 -->
<g id="edge1_Node000001_Node000002" class="edge">
<title>Node2&#45;&gt;Node1</title>
<g id="a_edge1_Node000001_Node000002"><a xlink:title=" ">
<path fill="none" stroke="#63b8ff" d="M78.68,-113.67C90.93,-98.19 105.6,-79.64 117.78,-64.24"/>
<polygon fill="none" stroke="#63b8ff" points="75.62,-111.9 72.16,-121.92 81.11,-116.25 75.62,-111.9"/>
</a>
</g>
</g>
<!-- Node3 -->
<g id="Node000003" class="node">
<title>Node3</title>
<g id="a_Node000003"><a xlink:title=" ">
<polygon fill="white" stroke="transparent" points="160,-171 125,-171 125,-122 160,-122 160,-171"/>
<text text-anchor="start" x="130.5" y="-158.5" font-family="Helvetica,sans-Serif" font-size="10.00">View</text>
<text text-anchor="start" x="141" y="-143.5" font-family="Helvetica,sans-Serif" font-size="10.00"> </text>
<text text-anchor="start" x="141" y="-128.5" font-family="Helvetica,sans-Serif" font-size="10.00"> </text>
<polygon fill="#666666" stroke="#666666" points="125.5,-153.5 125.5,-153.5 160.5,-153.5 160.5,-153.5 125.5,-153.5"/>
<polygon fill="#666666" stroke="#666666" points="125.5,-138.5 125.5,-138.5 160.5,-138.5 160.5,-138.5 125.5,-138.5"/>
<polygon fill="none" stroke="#666666" points="125,-122 125,-171 160,-171 160,-122 125,-122"/>
</a>
</g>
</g>
<!-- Node3&#45;&gt;Node1 -->
<g id="edge2_Node000001_Node000003" class="edge">
<title>Node3&#45;&gt;Node1</title>
<g id="a_edge2_Node000001_Node000003"><a xlink:title=" ">
<path fill="none" stroke="#63b8ff" d="M142.5,-111.5C142.5,-96.48 142.5,-78.93 142.5,-64.24"/>
<polygon fill="none" stroke="#63b8ff" points="139,-111.92 142.5,-121.92 146,-111.92 139,-111.92"/>
</a>
</g>
</g>
<!-- Node4 -->
<g id="Node000004" class="node">
<title>Node4</title>
<g id="a_Node000004"><a xlink:title=" ">
<polygon fill="white" stroke="transparent" points="201,-171 178,-171 178,-122 201,-122 201,-171"/>
<text text-anchor="start" x="183.5" y="-158.5" font-family="Helvetica,sans-Serif" font-size="10.00">str</text>
<text text-anchor="start" x="188" y="-143.5" font-family="Helvetica,sans-Serif" font-size="10.00"> </text>
<text text-anchor="start" x="188" y="-128.5" font-family="Helvetica,sans-Serif" font-size="10.00"> </text>
<polygon fill="#666666" stroke="#666666" points="178.5,-153.5 178.5,-153.5 201.5,-153.5 201.5,-153.5 178.5,-153.5"/>
<polygon fill="#666666" stroke="#666666" points="178.5,-138.5 178.5,-138.5 201.5,-138.5 201.5,-138.5 178.5,-138.5"/>
<polygon fill="none" stroke="#666666" points="178,-122 178,-171 201,-171 201,-122 178,-122"/>
</a>
</g>
</g>
<!-- Node4&#45;&gt;Node1 -->
<g id="edge3_Node000001_Node000004" class="edge">
<title>Node4&#45;&gt;Node1</title>
<g id="a_edge3_Node000001_Node000004"><a xlink:title=" ">
<path fill="none" stroke="#63b8ff" d="M179.65,-121.92C174.02,-108.44 166.78,-91.13 160.2,-75.37"/>
<polygon fill="none" stroke="#63b8ff" points="160.18,-75.31 154.17,-71.32 155.55,-64.24 161.56,-68.24 160.18,-75.31"/>
</a>
</g>
<text text-anchor="middle" x="214.5" y="-96" font-family="Helvetica,sans-Serif" font-size="10.00" fill="grey"> +success_url</text>
<text text-anchor="middle" x="214.5" y="-85" font-family="Helvetica,sans-Serif" font-size="10.00" fill="grey">+template_name</text>
</g>
</g>
</svg>
</svg>

<style type='text/css'>
<![CDATA[
[data-mouse-over-selected='false'] { opacity: 0.7; }
[data-mouse-over-selected='true']  { opacity: 1.0; }
]]>
</style>
<script type="application/ecmascript"><![CDATA[
document.addEventListener('DOMContentLoaded', (event) => {
  highlightEdges();
  highlightAdjacentNodes();
});
]]></script>
</svg>
