<?xml version="1.0" encoding="UTF-8" standalone="no"?>
<!DOCTYPE svg PUBLIC "-//W3C//DTD SVG 1.1//EN"
 "http://www.w3.org/Graphics/SVG/1.1/DTD/svg11.dtd">
<!-- Generated by graphviz version 2.43.0 (0)
 -->
<!-- Title: medicines.forms.CreateForm.Meta Pages: 1 -->
<svg width="188pt" height="153pt"
 viewBox="0.00 0.00 188.00 153.00" xmlns="http://www.w3.org/2000/svg" xmlns:xlink="http://www.w3.org/1999/xlink">
<g id="graph0" class="graph" transform="scale(1 1) rotate(0) translate(4 149)">
<title>medicines.forms.CreateForm.Meta</title>
<!-- Node1 -->
<g id="Node000001" class="node">
<title>Node1</title>
<g id="a_Node000001"><a xlink:title=" ">
<polygon fill="#999999" stroke="transparent" points="180,-49 0,-49 0,0 180,0 180,-49"/>
<text text-anchor="start" x="5" y="-36.5" font-family="Helvetica,sans-Serif" font-size="10.00">medicines.forms.CreateForm.Meta</text>
<text text-anchor="start" x="36" y="-21.5" font-family="Helvetica,sans-Serif" font-size="10.00">+</text>
<text text-anchor="start" x="81" y="-21.5" font-family="Helvetica,sans-Serif" font-size="10.00">model</text>
<text text-anchor="start" x="88" y="-6.5" font-family="Helvetica,sans-Serif" font-size="10.00"> </text>
<polygon fill="#666666" stroke="#666666" points="0,-31.5 0,-31.5 180,-31.5 180,-31.5 0,-31.5"/>
<polygon fill="#666666" stroke="#666666" points="0,-16.5 0,-16.5 79,-16.5 79,-16.5 0,-16.5"/>
<polygon fill="#666666" stroke="#666666" points="79,-16.5 79,-16.5 180,-16.5 180,-16.5 79,-16.5"/>
<polygon fill="none" stroke="#666666" points="0,0 0,-49 180,-49 180,0 0,0"/>
</a>
</g>
</g>
<!-- Node2 -->
<g id="Node000002" class="node">
<title>Node2</title>
<g id="a_Node000002"><a xlink:title=" ">
<polygon fill="white" stroke="transparent" points="103,-145 77,-145 77,-96 103,-96 103,-145"/>
<text text-anchor="start" x="82" y="-132.5" font-family="Helvetica,sans-Serif" font-size="10.00">list</text>
<text text-anchor="start" x="88" y="-117.5" font-family="Helvetica,sans-Serif" font-size="10.00"> </text>
<text text-anchor="start" x="88" y="-102.5" font-family="Helvetica,sans-Serif" font-size="10.00"> </text>
<polygon fill="#666666" stroke="#666666" points="77,-127.5 77,-127.5 103,-127.5 103,-127.5 77,-127.5"/>
<polygon fill="#666666" stroke="#666666" points="77,-112.5 77,-112.5 103,-112.5 103,-112.5 77,-112.5"/>
<polygon fill="none" stroke="#666666" points="77,-96 77,-145 103,-145 103,-96 77,-96"/>
</a>
</g>
</g>
<!-- Node2&#45;&gt;Node1 -->
<g id="edge1_Node000001_Node000002" class="edge">
<title>Node2&#45;&gt;Node1</title>
<g id="a_edge1_Node000001_Node000002"><a xlink:title=" ">
<path fill="none" stroke="#63b8ff" d="M90,-95.78C90,-85.32 90,-72.79 90,-61.23"/>
<polygon fill="none" stroke="#63b8ff" points="90,-61.21 86,-55.21 90,-49.21 94,-55.21 90,-61.21"/>
</a>
</g>
<text text-anchor="middle" x="109" y="-70" font-family="Helvetica,sans-Serif" font-size="10.00" fill="grey"> +fields</text>
</g>
</g>
</svg>
