<?xml version="1.0" encoding="UTF-8" standalone="no"?>
<!DOCTYPE svg PUBLIC "-//W3C//DTD SVG 1.1//EN"
 "http://www.w3.org/Graphics/SVG/1.1/DTD/svg11.dtd">
<!-- Generated by graphviz version 2.43.0 (0)
 -->
<!-- Title: checkout.migrations.0001_initial.Migration Pages: 1 -->
<svg width="286pt" height="175pt"
 viewBox="0.00 0.00 285.50 175.00" xmlns="http://www.w3.org/2000/svg" xmlns:xlink="http://www.w3.org/1999/xlink">

<svg id="main" version="1.1" xmlns="http://www.w3.org/2000/svg" xmlns:xlink="http://www.w3.org/1999/xlink" xml:space="preserve" onload="init(evt)">
<style type="text/css"><![CDATA[
.node, .edge {opacity: 0.7;}
.node.selected, .edge.selected {opacity: 1;}
.edge:hover path { stroke: red; }
.edge:hover polygon { stroke: red; fill: red; }
]]></style>
<script type="application/ecmascript" xlink:href="svg.min.js"/>
<svg id="graph" class="graph">
<g id="graph0" class="graph" transform="scale(1 1) rotate(0) translate(4 171)">
<title>checkout.migrations.0001_initial.Migration</title>
<!-- Node1 -->
<g id="Node000001" class="node">
<title>Node1</title>
<g id="a_Node000001"><a xlink:title=" ">
<polygon fill="#999999" stroke="transparent" points="216,-60 79,-60 79,0 216,0 216,-60"/>
<text text-anchor="start" x="84.5" y="-48" font-family="Helvetica,sans-Serif" font-size="10.00">checkout.migrations.0001</text>
<text text-anchor="start" x="106.5" y="-37" font-family="Helvetica,sans-Serif" font-size="10.00">_initial.Migration</text>
<text text-anchor="start" x="146" y="-22" font-family="Helvetica,sans-Serif" font-size="10.00"> </text>
<text text-anchor="start" x="146" y="-7" font-family="Helvetica,sans-Serif" font-size="10.00"> </text>
<polygon fill="#666666" stroke="#666666" points="79.5,-32 79.5,-32 216.5,-32 216.5,-32 79.5,-32"/>
<polygon fill="#666666" stroke="#666666" points="79.5,-17 79.5,-17 216.5,-17 216.5,-17 79.5,-17"/>
<polygon fill="none" stroke="#666666" points="79,0 79,-60 216,-60 216,0 79,0"/>
</a>
</g>
</g>
<!-- Node2 -->
<g id="Node000002" class="node">
<title>Node2</title>
<g id="a_Node000002"><a xlink:title=" ">
<polygon fill="white" stroke="transparent" points="113,-167 0,-167 0,-118 113,-118 113,-167"/>
<text text-anchor="start" x="5.5" y="-154.5" font-family="Helvetica,sans-Serif" font-size="10.00">migrations.Migration</text>
<text text-anchor="start" x="55" y="-139.5" font-family="Helvetica,sans-Serif" font-size="10.00"> </text>
<text text-anchor="start" x="55" y="-124.5" font-family="Helvetica,sans-Serif" font-size="10.00"> </text>
<polygon fill="#666666" stroke="#666666" points="0.5,-149.5 0.5,-149.5 113.5,-149.5 113.5,-149.5 0.5,-149.5"/>
<polygon fill="#666666" stroke="#666666" points="0.5,-134.5 0.5,-134.5 113.5,-134.5 113.5,-134.5 0.5,-134.5"/>
<polygon fill="none" stroke="#666666" points="0,-118 0,-167 113,-167 113,-118 0,-118"/>
</a>
</g>
</g>
<!-- Node2&#45;&gt;Node1 -->
<g id="edge1_Node000001_Node000002" class="edge">
<title>Node2&#45;&gt;Node1</title>
<g id="a_edge1_Node000001_Node000002"><a xlink:title=" ">
<path fill="none" stroke="#63b8ff" d="M82.5,-109.93C95.39,-94.27 110.86,-75.49 123.47,-60.17"/>
<polygon fill="none" stroke="#63b8ff" points="79.68,-107.85 76.02,-117.79 85.08,-112.3 79.68,-107.85"/>
</a>
</g>
</g>
<!-- Node3 -->
<g id="Node000003" class="node">
<title>Node3</title>
<g id="a_Node000003"><a xlink:title=" ">
<polygon fill="white" stroke="transparent" points="163.5,-167 131.5,-167 131.5,-118 163.5,-118 163.5,-167"/>
<text text-anchor="start" x="136.5" y="-154.5" font-family="Helvetica,sans-Serif" font-size="10.00">bool</text>
<text text-anchor="start" x="145.5" y="-139.5" font-family="Helvetica,sans-Serif" font-size="10.00"> </text>
<text text-anchor="start" x="145.5" y="-124.5" font-family="Helvetica,sans-Serif" font-size="10.00"> </text>
<polygon fill="#666666" stroke="#666666" points="131.5,-149.5 131.5,-149.5 163.5,-149.5 163.5,-149.5 131.5,-149.5"/>
<polygon fill="#666666" stroke="#666666" points="131.5,-134.5 131.5,-134.5 163.5,-134.5 163.5,-134.5 131.5,-134.5"/>
<polygon fill="none" stroke="#666666" points="131.5,-118 131.5,-167 163.5,-167 163.5,-118 131.5,-118"/>
</a>
</g>
</g>
<!-- Node3&#45;&gt;Node1 -->
<g id="edge2_Node000001_Node000003" class="edge">
<title>Node3&#45;&gt;Node1</title>
<g id="a_edge2_Node000001_Node000003"><a xlink:title=" ">
<path fill="none" stroke="#63b8ff" d="M147.5,-117.79C147.5,-104.62 147.5,-87.84 147.5,-72.55"/>
<polygon fill="none" stroke="#63b8ff" points="147.5,-72.17 143.5,-66.17 147.5,-60.17 151.5,-66.17 147.5,-72.17"/>
</a>
</g>
<text text-anchor="middle" x="167.5" y="-86.5" font-family="Helvetica,sans-Serif" font-size="10.00" fill="grey"> +initial</text>
</g>
<!-- Node4 -->
<g id="Node000004" class="node">
<title>Node4</title>
<g id="a_Node000004"><a xlink:title=" ">
<polygon fill="white" stroke="transparent" points="223.5,-167 197.5,-167 197.5,-118 223.5,-118 223.5,-167"/>
<text text-anchor="start" x="202.5" y="-154.5" font-family="Helvetica,sans-Serif" font-size="10.00">list</text>
<text text-anchor="start" x="208.5" y="-139.5" font-family="Helvetica,sans-Serif" font-size="10.00"> </text>
<text text-anchor="start" x="208.5" y="-124.5" font-family="Helvetica,sans-Serif" font-size="10.00"> </text>
<polygon fill="#666666" stroke="#666666" points="197.5,-149.5 197.5,-149.5 223.5,-149.5 223.5,-149.5 197.5,-149.5"/>
<polygon fill="#666666" stroke="#666666" points="197.5,-134.5 197.5,-134.5 223.5,-134.5 223.5,-134.5 197.5,-134.5"/>
<polygon fill="none" stroke="#666666" points="197.5,-118 197.5,-167 223.5,-167 223.5,-118 197.5,-118"/>
</a>
</g>
</g>
<!-- Node4&#45;&gt;Node1 -->
<g id="edge3_Node000001_Node000004" class="edge">
<title>Node4&#45;&gt;Node1</title>
<g id="a_edge3_Node000001_Node000004"><a xlink:title=" ">
<path fill="none" stroke="#63b8ff" d="M204.68,-117.94C201.06,-105.56 195.7,-90.41 188.5,-78 186.88,-75.2 185.07,-72.41 183.15,-69.67"/>
<polygon fill="none" stroke="#63b8ff" points="183.08,-69.57 176.26,-67.22 175.81,-60.02 182.62,-62.37 183.08,-69.57"/>
</a>
</g>
<text text-anchor="middle" x="238" y="-92" font-family="Helvetica,sans-Serif" font-size="10.00" fill="grey"> +dependencies</text>
<text text-anchor="middle" x="238" y="-81" font-family="Helvetica,sans-Serif" font-size="10.00" fill="grey">+operations</text>
</g>
</g>
</svg>
</svg>

<style type='text/css'>
<![CDATA[
[data-mouse-over-selected='false'] { opacity: 0.7; }
[data-mouse-over-selected='true']  { opacity: 1.0; }
]]>
</style>
<script type="application/ecmascript"><![CDATA[
document.addEventListener('DOMContentLoaded', (event) => {
  highlightEdges();
  highlightAdjacentNodes();
});
]]></script>
</svg>
