<?xml version="1.0" encoding="UTF-8" standalone="no"?>
<!DOCTYPE svg PUBLIC "-//W3C//DTD SVG 1.1//EN"
 "http://www.w3.org/Graphics/SVG/1.1/DTD/svg11.dtd">
<!-- Generated by graphviz version 2.43.0 (0)
 -->
<!-- Title: medicines.views.MedCreateView Pages: 1 -->
<svg width="321pt" height="232pt"
 viewBox="0.00 0.00 321.00 232.00" xmlns="http://www.w3.org/2000/svg" xmlns:xlink="http://www.w3.org/1999/xlink">

<svg id="main" version="1.1" xmlns="http://www.w3.org/2000/svg" xmlns:xlink="http://www.w3.org/1999/xlink" xml:space="preserve" onload="init(evt)">
<style type="text/css"><![CDATA[
.node, .edge {opacity: 0.7;}
.node.selected, .edge.selected {opacity: 1;}
.edge:hover path { stroke: red; }
.edge:hover polygon { stroke: red; fill: red; }
]]></style>
<script type="application/ecmascript" xlink:href="svg.min.js"/>
<svg id="graph" class="graph">
<g id="graph0" class="graph" transform="scale(1 1) rotate(0) translate(4 228)">
<title>medicines.views.MedCreateView</title>
<!-- Node1 -->
<g id="Node000001" class="node">
<title>Node1</title>
<g id="a_Node000001"><a xlink:title=" ">
<polygon fill="#999999" stroke="transparent" points="279,-139 106,-139 106,0 279,0 279,-139"/>
<text text-anchor="start" x="111.5" y="-126.5" font-family="Helvetica,sans-Serif" font-size="10.00">medicines.views.MedCreateView</text>
<text text-anchor="start" x="113" y="-111.5" font-family="Helvetica,sans-Serif" font-size="10.00">+</text>
<text text-anchor="start" x="128.5" y="-111.5" font-family="Helvetica,sans-Serif" font-size="10.00">template_name</text>
<text text-anchor="start" x="113" y="-96.5" font-family="Helvetica,sans-Serif" font-size="10.00">+</text>
<text text-anchor="start" x="128.5" y="-96.5" font-family="Helvetica,sans-Serif" font-size="10.00">model</text>
<text text-anchor="start" x="113" y="-81.5" font-family="Helvetica,sans-Serif" font-size="10.00">+</text>
<text text-anchor="start" x="128.5" y="-81.5" font-family="Helvetica,sans-Serif" font-size="10.00">permission_required</text>
<text text-anchor="start" x="113" y="-66.5" font-family="Helvetica,sans-Serif" font-size="10.00">+</text>
<text text-anchor="start" x="128.5" y="-66.5" font-family="Helvetica,sans-Serif" font-size="10.00">permission_denied_message</text>
<text text-anchor="start" x="113" y="-51.5" font-family="Helvetica,sans-Serif" font-size="10.00">+</text>
<text text-anchor="start" x="128.5" y="-51.5" font-family="Helvetica,sans-Serif" font-size="10.00">success_url</text>
<text text-anchor="start" x="113" y="-36.5" font-family="Helvetica,sans-Serif" font-size="10.00">+</text>
<text text-anchor="start" x="128.5" y="-36.5" font-family="Helvetica,sans-Serif" font-size="10.00">template_name</text>
<text text-anchor="start" x="113" y="-21.5" font-family="Helvetica,sans-Serif" font-size="10.00">+</text>
<text text-anchor="start" x="128.5" y="-21.5" font-family="Helvetica,sans-Serif" font-size="10.00">get()</text>
<text text-anchor="start" x="113" y="-6.5" font-family="Helvetica,sans-Serif" font-size="10.00">+</text>
<text text-anchor="start" x="128.5" y="-6.5" font-family="Helvetica,sans-Serif" font-size="10.00">post()</text>
<polygon fill="#666666" stroke="#666666" points="106.5,-121.5 106.5,-121.5 279.5,-121.5 279.5,-121.5 106.5,-121.5"/>
<polygon fill="#666666" stroke="#666666" points="106.5,-31.5 106.5,-31.5 126.5,-31.5 126.5,-31.5 106.5,-31.5"/>
<polygon fill="#666666" stroke="#666666" points="126.5,-31.5 126.5,-31.5 279.5,-31.5 279.5,-31.5 126.5,-31.5"/>
<polygon fill="none" stroke="#666666" points="106,0 106,-139 279,-139 279,0 106,0"/>
</a>
</g>
</g>
<!-- Node2 -->
<g id="Node000002" class="node">
<title>Node2</title>
<g id="a_Node000002"><a xlink:title=" ">
<polygon fill="white" stroke="transparent" points="107,-224 0,-224 0,-175 107,-175 107,-224"/>
<text text-anchor="start" x="5.5" y="-211.5" font-family="Helvetica,sans-Serif" font-size="10.00">LoginRequiredMixin</text>
<text text-anchor="start" x="52" y="-196.5" font-family="Helvetica,sans-Serif" font-size="10.00"> </text>
<text text-anchor="start" x="52" y="-181.5" font-family="Helvetica,sans-Serif" font-size="10.00"> </text>
<polygon fill="#666666" stroke="#666666" points="0.5,-206.5 0.5,-206.5 107.5,-206.5 107.5,-206.5 0.5,-206.5"/>
<polygon fill="#666666" stroke="#666666" points="0.5,-191.5 0.5,-191.5 107.5,-191.5 107.5,-191.5 0.5,-191.5"/>
<polygon fill="none" stroke="#666666" points="0,-175 0,-224 107,-224 107,-175 0,-175"/>
</a>
</g>
</g>
<!-- Node2&#45;&gt;Node1 -->
<g id="edge1_Node000001_Node000002" class="edge">
<title>Node2&#45;&gt;Node1</title>
<g id="a_edge1_Node000001_Node000002"><a xlink:title=" ">
<path fill="none" stroke="#63b8ff" d="M86.69,-167.94C96.25,-159.14 107.08,-149.16 118.07,-139.04"/>
<polygon fill="none" stroke="#63b8ff" points="84.3,-165.38 79.32,-174.72 89.05,-170.52 84.3,-165.38"/>
</a>
</g>
</g>
<!-- Node3 -->
<g id="Node000003" class="node">
<title>Node3</title>
<g id="a_Node000003"><a xlink:title=" ">
<polygon fill="white" stroke="transparent" points="260,-224 125,-224 125,-175 260,-175 260,-224"/>
<text text-anchor="start" x="130.5" y="-211.5" font-family="Helvetica,sans-Serif" font-size="10.00">PermissionRequiredMixin</text>
<text text-anchor="start" x="191" y="-196.5" font-family="Helvetica,sans-Serif" font-size="10.00"> </text>
<text text-anchor="start" x="191" y="-181.5" font-family="Helvetica,sans-Serif" font-size="10.00"> </text>
<polygon fill="#666666" stroke="#666666" points="125.5,-206.5 125.5,-206.5 260.5,-206.5 260.5,-206.5 125.5,-206.5"/>
<polygon fill="#666666" stroke="#666666" points="125.5,-191.5 125.5,-191.5 260.5,-191.5 260.5,-191.5 125.5,-191.5"/>
<polygon fill="none" stroke="#666666" points="125,-175 125,-224 260,-224 260,-175 125,-175"/>
</a>
</g>
</g>
<!-- Node3&#45;&gt;Node1 -->
<g id="edge2_Node000001_Node000003" class="edge">
<title>Node3&#45;&gt;Node1</title>
<g id="a_edge2_Node000001_Node000003"><a xlink:title=" ">
<path fill="none" stroke="#63b8ff" d="M192.5,-164.48C192.5,-156.57 192.5,-147.86 192.5,-139.04"/>
<polygon fill="none" stroke="#63b8ff" points="189,-164.72 192.5,-174.72 196,-164.72 189,-164.72"/>
</a>
</g>
</g>
<!-- Node4 -->
<g id="Node000004" class="node">
<title>Node4</title>
<g id="a_Node000004"><a xlink:title=" ">
<polygon fill="white" stroke="transparent" points="313,-224 278,-224 278,-175 313,-175 313,-224"/>
<text text-anchor="start" x="283.5" y="-211.5" font-family="Helvetica,sans-Serif" font-size="10.00">View</text>
<text text-anchor="start" x="294" y="-196.5" font-family="Helvetica,sans-Serif" font-size="10.00"> </text>
<text text-anchor="start" x="294" y="-181.5" font-family="Helvetica,sans-Serif" font-size="10.00"> </text>
<polygon fill="#666666" stroke="#666666" points="278.5,-206.5 278.5,-206.5 313.5,-206.5 313.5,-206.5 278.5,-206.5"/>
<polygon fill="#666666" stroke="#666666" points="278.5,-191.5 278.5,-191.5 313.5,-191.5 313.5,-191.5 278.5,-191.5"/>
<polygon fill="none" stroke="#666666" points="278,-175 278,-224 313,-224 313,-175 278,-175"/>
</a>
</g>
</g>
<!-- Node4&#45;&gt;Node1 -->
<g id="edge3_Node000001_Node000004" class="edge">
<title>Node4&#45;&gt;Node1</title>
<g id="a_edge3_Node000001_Node000004"><a xlink:title=" ">
<path fill="none" stroke="#63b8ff" d="M271.47,-168.64C264.24,-159.66 256,-149.41 247.63,-139.01"/>
<polygon fill="none" stroke="#63b8ff" points="268.8,-170.9 277.79,-176.5 274.25,-166.51 268.8,-170.9"/>
</a>
</g>
</g>
</g>
</svg>
</svg>

<style type='text/css'>
<![CDATA[
[data-mouse-over-selected='false'] { opacity: 0.7; }
[data-mouse-over-selected='true']  { opacity: 1.0; }
]]>
</style>
<script type="application/ecmascript"><![CDATA[
document.addEventListener('DOMContentLoaded', (event) => {
  highlightEdges();
  highlightAdjacentNodes();
});
]]></script>
</svg>
