<?xml version="1.0" encoding="UTF-8" standalone="no"?>
<!DOCTYPE svg PUBLIC "-//W3C//DTD SVG 1.1//EN"
 "http://www.w3.org/Graphics/SVG/1.1/DTD/svg11.dtd">
<!-- Generated by graphviz version 2.43.0 (0)
 -->
<!-- Title: medicines.owner.OwnerUpdateView.get_queryset Pages: 1 -->
<svg width="395pt" height="104pt"
 viewBox="0.00 0.00 395.00 104.00" xmlns="http://www.w3.org/2000/svg" xmlns:xlink="http://www.w3.org/1999/xlink">

<svg id="main" version="1.1" xmlns="http://www.w3.org/2000/svg" xmlns:xlink="http://www.w3.org/1999/xlink" xml:space="preserve" onload="init(evt)">
<style type="text/css"><![CDATA[
.node, .edge {opacity: 0.7;}
.node.selected, .edge.selected {opacity: 1;}
.edge:hover path { stroke: red; }
.edge:hover polygon { stroke: red; fill: red; }
]]></style>
<script type="application/ecmascript" xlink:href="svg.min.js"/>
<svg id="graph" class="graph">
<g id="graph0" class="graph" transform="scale(1 1) rotate(0) translate(4 100)">
<title>medicines.owner.OwnerUpdateView.get_queryset</title>
<!-- Node1 -->
<g id="Node000001" class="node">
<title>Node1</title>
<g id="a_Node000001"><a xlink:title=" ">
<polygon fill="#999999" stroke="#666666" points="387,-63 218,-63 218,-33 387,-33 387,-63"/>
<text text-anchor="start" x="226" y="-51" font-family="Helvetica,sans-Serif" font-size="10.00">medicines.owner.OwnerUpdate</text>
<text text-anchor="middle" x="302.5" y="-40" font-family="Helvetica,sans-Serif" font-size="10.00">View.get_queryset</text>
</a>
</g>
</g>
<!-- Node1&#45;&gt;Node1 -->
<g id="edge4_Node000001_Node000001" class="edge">
<title>Node1&#45;&gt;Node1</title>
<g id="a_edge4_Node000001_Node000001"><a xlink:title=" ">
<path fill="none" stroke="#63b8ff" d="M339.26,-73.6C334.24,-77.97 321.98,-81 302.5,-81 269.69,-81 257.38,-72.41 265.59,-63.28"/>
<polygon fill="#63b8ff" stroke="#63b8ff" points="342.76,-73.33 339.41,-63.28 335.76,-73.22 342.76,-73.33"/>
</a>
</g>
</g>
<!-- Node2 -->
<g id="Node000002" class="node">
<title>Node2</title>
<g id="a_Node000002"><a xlink:href="classapi_1_1views_1_1medicine_1_1MedicineView.html#a6a92fa916b3ccf8671ec552755883093" target="_top" xlink:title=" ">
<polygon fill="white" stroke="#666666" points="170,-96 12,-96 12,-66 170,-66 170,-96"/>
<text text-anchor="start" x="20" y="-84" font-family="Helvetica,sans-Serif" font-size="10.00">api.views.medicine.Medicine</text>
<text text-anchor="middle" x="91" y="-73" font-family="Helvetica,sans-Serif" font-size="10.00">View.get</text>
</a>
</g>
</g>
<!-- Node1&#45;&gt;Node2 -->
<g id="edge1_Node000001_Node000002" class="edge">
<title>Node1&#45;&gt;Node2</title>
<g id="a_edge1_Node000001_Node000002"><a xlink:title=" ">
<path fill="none" stroke="#63b8ff" d="M207.77,-62.76C195.19,-64.75 182.4,-66.76 170.13,-68.69"/>
<polygon fill="#63b8ff" stroke="#63b8ff" points="208.46,-66.2 217.8,-61.18 207.37,-59.28 208.46,-66.2"/>
</a>
</g>
</g>
<!-- Node3 -->
<g id="Node000003" class="node">
<title>Node3</title>
<g id="a_Node000003"><a xlink:href="classmedicines_1_1views_1_1MedListView.html#a32882e4ccbe86c8d90013dadc073524b" target="_top" xlink:title=" ">
<polygon fill="white" stroke="#666666" points="182,-30 0,-30 0,0 182,0 182,-30"/>
<text text-anchor="start" x="8" y="-18" font-family="Helvetica,sans-Serif" font-size="10.00">medicines.views.MedListView.get</text>
<text text-anchor="middle" x="91" y="-7" font-family="Helvetica,sans-Serif" font-size="10.00">_context_data</text>
</a>
</g>
</g>
<!-- Node1&#45;&gt;Node3 -->
<g id="edge2_Node000001_Node000003" class="edge">
<title>Node1&#45;&gt;Node3</title>
<g id="a_edge2_Node000001_Node000003"><a xlink:title=" ">
<path fill="none" stroke="#63b8ff" d="M207.82,-33.24C199.27,-31.9 190.62,-30.53 182.1,-29.19"/>
<polygon fill="#63b8ff" stroke="#63b8ff" points="207.37,-36.72 217.8,-34.82 208.46,-29.8 207.37,-36.72"/>
</a>
</g>
</g>
<!-- Node3&#45;&gt;Node3 -->
<g id="edge3_Node000003_Node000003" class="edge">
<title>Node3&#45;&gt;Node3</title>
<g id="a_edge3_Node000003_Node000003"><a xlink:title=" ">
<path fill="none" stroke="#63b8ff" d="M127.76,-40.6C122.74,-44.97 110.48,-48 91,-48 58.19,-48 45.88,-39.41 54.09,-30.28"/>
<polygon fill="#63b8ff" stroke="#63b8ff" points="131.26,-40.33 127.91,-30.28 124.26,-40.22 131.26,-40.33"/>
</a>
</g>
</g>
</g>
</svg>
</svg>

<style type='text/css'>
<![CDATA[
[data-mouse-over-selected='false'] { opacity: 0.7; }
[data-mouse-over-selected='true']  { opacity: 1.0; }
]]>
</style>
<script type="application/ecmascript"><![CDATA[
document.addEventListener('DOMContentLoaded', (event) => {
  highlightEdges();
  highlightAdjacentNodes();
});
]]></script>
</svg>
