<?xml version="1.0" encoding="UTF-8" standalone="no"?>
<!DOCTYPE svg PUBLIC "-//W3C//DTD SVG 1.1//EN"
 "http://www.w3.org/Graphics/SVG/1.1/DTD/svg11.dtd">
<!-- Generated by graphviz version 2.43.0 (0)
 -->
<!-- Title: medicines.sitemaps.MedSiteMap Pages: 1 -->
<svg width="216pt" height="168pt"
 viewBox="0.00 0.00 215.50 168.00" xmlns="http://www.w3.org/2000/svg" xmlns:xlink="http://www.w3.org/1999/xlink">
<g id="graph0" class="graph" transform="scale(1 1) rotate(0) translate(4 164)">
<title>medicines.sitemaps.MedSiteMap</title>
<!-- Node1 -->
<g id="Node000001" class="node">
<title>Node1</title>
<g id="a_Node000001"><a xlink:title=" ">
<polygon fill="#999999" stroke="transparent" points="173,-64 0,-64 0,0 173,0 173,-64"/>
<text text-anchor="start" x="5.5" y="-52" font-family="Helvetica,sans-Serif" font-size="10.00">medicines.sitemaps.MedSiteMap</text>
<text text-anchor="start" x="85" y="-37" font-family="Helvetica,sans-Serif" font-size="10.00"> </text>
<text text-anchor="start" x="30.5" y="-22" font-family="Helvetica,sans-Serif" font-size="10.00">+</text>
<text text-anchor="start" x="69.5" y="-22" font-family="Helvetica,sans-Serif" font-size="10.00">items()</text>
<text text-anchor="start" x="30.5" y="-7" font-family="Helvetica,sans-Serif" font-size="10.00">+</text>
<text text-anchor="start" x="69.5" y="-7" font-family="Helvetica,sans-Serif" font-size="10.00">location()</text>
<polygon fill="#666666" stroke="#666666" points="0.5,-47 0.5,-47 173.5,-47 173.5,-47 0.5,-47"/>
<polygon fill="#666666" stroke="#666666" points="0.5,-32 0.5,-32 173.5,-32 173.5,-32 0.5,-32"/>
<polygon fill="none" stroke="#666666" points="0,0 0,-64 173,-64 173,0 0,0"/>
</a>
</g>
</g>
<!-- Node2 -->
<g id="Node000002" class="node">
<title>Node2</title>
<g id="a_Node000002"><a xlink:title=" ">
<polygon fill="white" stroke="transparent" points="52,-160 1,-160 1,-111 52,-111 52,-160"/>
<text text-anchor="start" x="6.5" y="-147.5" font-family="Helvetica,sans-Serif" font-size="10.00">Sitemap</text>
<text text-anchor="start" x="25" y="-132.5" font-family="Helvetica,sans-Serif" font-size="10.00"> </text>
<text text-anchor="start" x="25" y="-117.5" font-family="Helvetica,sans-Serif" font-size="10.00"> </text>
<polygon fill="#666666" stroke="#666666" points="1.5,-142.5 1.5,-142.5 52.5,-142.5 52.5,-142.5 1.5,-142.5"/>
<polygon fill="#666666" stroke="#666666" points="1.5,-127.5 1.5,-127.5 52.5,-127.5 52.5,-127.5 1.5,-127.5"/>
<polygon fill="none" stroke="#666666" points="1,-111 1,-160 52,-160 52,-111 1,-111"/>
</a>
</g>
</g>
<!-- Node2&#45;&gt;Node1 -->
<g id="edge1_Node000001_Node000002" class="edge">
<title>Node2&#45;&gt;Node1</title>
<g id="a_edge1_Node000001_Node000002"><a xlink:title=" ">
<path fill="none" stroke="#63b8ff" d="M45.69,-102.04C52.87,-89.89 61,-76.13 68.11,-64.11"/>
<polygon fill="none" stroke="#63b8ff" points="42.49,-100.57 40.42,-110.96 48.52,-104.13 42.49,-100.57"/>
</a>
</g>
</g>
<!-- Node3 -->
<g id="Node000003" class="node">
<title>Node3</title>
<g id="a_Node000003"><a xlink:title=" ">
<polygon fill="white" stroke="transparent" points="102.5,-160 70.5,-160 70.5,-111 102.5,-111 102.5,-160"/>
<text text-anchor="start" x="75.5" y="-147.5" font-family="Helvetica,sans-Serif" font-size="10.00">float</text>
<text text-anchor="start" x="84.5" y="-132.5" font-family="Helvetica,sans-Serif" font-size="10.00"> </text>
<text text-anchor="start" x="84.5" y="-117.5" font-family="Helvetica,sans-Serif" font-size="10.00"> </text>
<polygon fill="#666666" stroke="#666666" points="70.5,-142.5 70.5,-142.5 102.5,-142.5 102.5,-142.5 70.5,-142.5"/>
<polygon fill="#666666" stroke="#666666" points="70.5,-127.5 70.5,-127.5 102.5,-127.5 102.5,-127.5 70.5,-127.5"/>
<polygon fill="none" stroke="#666666" points="70.5,-111 70.5,-160 102.5,-160 102.5,-111 70.5,-111"/>
</a>
</g>
</g>
<!-- Node3&#45;&gt;Node1 -->
<g id="edge2_Node000001_Node000003" class="edge">
<title>Node3&#45;&gt;Node1</title>
<g id="a_edge2_Node000001_Node000003"><a xlink:title=" ">
<path fill="none" stroke="#63b8ff" d="M86.5,-110.96C86.5,-100.61 86.5,-88.13 86.5,-76.21"/>
<polygon fill="none" stroke="#63b8ff" points="86.5,-76.11 82.5,-70.11 86.5,-64.11 90.5,-70.11 86.5,-76.11"/>
</a>
</g>
<text text-anchor="middle" x="110" y="-85" font-family="Helvetica,sans-Serif" font-size="10.00" fill="grey"> +priority</text>
</g>
<!-- Node4 -->
<g id="Node000004" class="node">
<title>Node4</title>
<g id="a_Node000004"><a xlink:title=" ">
<polygon fill="white" stroke="transparent" points="168,-160 145,-160 145,-111 168,-111 168,-160"/>
<text text-anchor="start" x="150.5" y="-147.5" font-family="Helvetica,sans-Serif" font-size="10.00">str</text>
<text text-anchor="start" x="155" y="-132.5" font-family="Helvetica,sans-Serif" font-size="10.00"> </text>
<text text-anchor="start" x="155" y="-117.5" font-family="Helvetica,sans-Serif" font-size="10.00"> </text>
<polygon fill="#666666" stroke="#666666" points="145.5,-142.5 145.5,-142.5 168.5,-142.5 168.5,-142.5 145.5,-142.5"/>
<polygon fill="#666666" stroke="#666666" points="145.5,-127.5 145.5,-127.5 168.5,-127.5 168.5,-127.5 145.5,-127.5"/>
<polygon fill="none" stroke="#666666" points="145,-111 145,-160 168,-160 168,-111 145,-111"/>
</a>
</g>
</g>
<!-- Node4&#45;&gt;Node1 -->
<g id="edge3_Node000001_Node000004" class="edge">
<title>Node4&#45;&gt;Node1</title>
<g id="a_edge3_Node000001_Node000004"><a xlink:title=" ">
<path fill="none" stroke="#63b8ff" d="M148.76,-110.8C145.15,-101.43 140.35,-90.81 134.5,-82 132.59,-79.12 130.49,-76.26 128.27,-73.45"/>
<polygon fill="none" stroke="#63b8ff" points="128.16,-73.31 121.22,-71.33 120.38,-64.17 127.32,-66.15 128.16,-73.31"/>
</a>
</g>
<text text-anchor="middle" x="174" y="-85" font-family="Helvetica,sans-Serif" font-size="10.00" fill="grey"> +changefreq</text>
</g>
</g>
</svg>
