<?xml version="1.0" encoding="UTF-8" standalone="no"?>
<!DOCTYPE svg PUBLIC "-//W3C//DTD SVG 1.1//EN"
 "http://www.w3.org/Graphics/SVG/1.1/DTD/svg11.dtd">
<!-- Generated by graphviz version 2.43.0 (0)
 -->
<!-- Title: medicines.owner.OwnerDeleteView Pages: 1 -->
<svg width="242pt" height="242pt"
 viewBox="0.00 0.00 242.00 242.00" xmlns="http://www.w3.org/2000/svg" xmlns:xlink="http://www.w3.org/1999/xlink">
<g id="graph0" class="graph" transform="scale(1 1) rotate(0) translate(4 238)">
<title>medicines.owner.OwnerDeleteView</title>
<!-- Node1 -->
<g id="Node000001" class="node">
<title>Node1</title>
<g id="a_Node000001"><a xlink:title=" ">
<polygon fill="#999999" stroke="transparent" points="208.5,-149 24.5,-149 24.5,-100 208.5,-100 208.5,-149"/>
<text text-anchor="start" x="29.5" y="-136.5" font-family="Helvetica,sans-Serif" font-size="10.00">medicines.owner.OwnerDeleteView</text>
<text text-anchor="start" x="114.5" y="-121.5" font-family="Helvetica,sans-Serif" font-size="10.00"> </text>
<text text-anchor="start" x="51" y="-106.5" font-family="Helvetica,sans-Serif" font-size="10.00">+</text>
<text text-anchor="start" x="86.5" y="-106.5" font-family="Helvetica,sans-Serif" font-size="10.00">get_queryset()</text>
<polygon fill="#666666" stroke="#666666" points="24.5,-131.5 24.5,-131.5 208.5,-131.5 208.5,-131.5 24.5,-131.5"/>
<polygon fill="#666666" stroke="#666666" points="24.5,-116.5 24.5,-116.5 208.5,-116.5 208.5,-116.5 24.5,-116.5"/>
<polygon fill="none" stroke="#666666" points="24.5,-100 24.5,-149 208.5,-149 208.5,-100 24.5,-100"/>
</a>
</g>
</g>
<!-- Node4 -->
<g id="Node000004" class="node">
<title>Node4</title>
<g id="a_Node000004"><a xlink:href="classmedicines_1_1views_1_1MedDeleteView.html" target="_top" xlink:title=" ">
<polygon fill="white" stroke="transparent" points="203,-64 30,-64 30,0 203,0 203,-64"/>
<text text-anchor="start" x="35.5" y="-52" font-family="Helvetica,sans-Serif" font-size="10.00">medicines.views.MedDeleteView</text>
<text text-anchor="start" x="53" y="-37" font-family="Helvetica,sans-Serif" font-size="10.00">+</text>
<text text-anchor="start" x="84.5" y="-37" font-family="Helvetica,sans-Serif" font-size="10.00">model</text>
<text text-anchor="start" x="53" y="-22" font-family="Helvetica,sans-Serif" font-size="10.00">+</text>
<text text-anchor="start" x="84.5" y="-22" font-family="Helvetica,sans-Serif" font-size="10.00">template_name</text>
<text text-anchor="start" x="115" y="-7" font-family="Helvetica,sans-Serif" font-size="10.00"> </text>
<polygon fill="#666666" stroke="#666666" points="30.5,-47 30.5,-47 203.5,-47 203.5,-47 30.5,-47"/>
<polygon fill="#666666" stroke="#666666" points="30.5,-17 30.5,-17 82.5,-17 82.5,-17 30.5,-17"/>
<polygon fill="#666666" stroke="#666666" points="82.5,-17 82.5,-17 203.5,-17 203.5,-17 82.5,-17"/>
<polygon fill="none" stroke="#666666" points="30,0 30,-64 203,-64 203,0 30,0"/>
</a>
</g>
</g>
<!-- Node1&#45;&gt;Node4 -->
<g id="edge3_Node000001_Node000004" class="edge">
<title>Node1&#45;&gt;Node4</title>
<g id="a_edge3_Node000001_Node000004"><a xlink:title=" ">
<path fill="none" stroke="#63b8ff" d="M116.5,-89.54C116.5,-81.2 116.5,-72.31 116.5,-64.11"/>
<polygon fill="none" stroke="#63b8ff" points="113,-89.72 116.5,-99.72 120,-89.72 113,-89.72"/>
</a>
</g>
</g>
<!-- Node2 -->
<g id="Node000002" class="node">
<title>Node2</title>
<g id="a_Node000002"><a xlink:title=" ">
<polygon fill="white" stroke="transparent" points="107,-234 0,-234 0,-185 107,-185 107,-234"/>
<text text-anchor="start" x="5.5" y="-221.5" font-family="Helvetica,sans-Serif" font-size="10.00">LoginRequiredMixin</text>
<text text-anchor="start" x="52" y="-206.5" font-family="Helvetica,sans-Serif" font-size="10.00"> </text>
<text text-anchor="start" x="52" y="-191.5" font-family="Helvetica,sans-Serif" font-size="10.00"> </text>
<polygon fill="#666666" stroke="#666666" points="0.5,-216.5 0.5,-216.5 107.5,-216.5 107.5,-216.5 0.5,-216.5"/>
<polygon fill="#666666" stroke="#666666" points="0.5,-201.5 0.5,-201.5 107.5,-201.5 107.5,-201.5 0.5,-201.5"/>
<polygon fill="none" stroke="#666666" points="0,-185 0,-234 107,-234 107,-185 0,-185"/>
</a>
</g>
</g>
<!-- Node2&#45;&gt;Node1 -->
<g id="edge1_Node000001_Node000002" class="edge">
<title>Node2&#45;&gt;Node1</title>
<g id="a_edge1_Node000001_Node000002"><a xlink:title=" ">
<path fill="none" stroke="#63b8ff" d="M77.6,-176.75C84.57,-167.57 92.05,-157.71 98.57,-149.12"/>
<polygon fill="none" stroke="#63b8ff" points="74.64,-174.86 71.38,-184.94 80.22,-179.09 74.64,-174.86"/>
</a>
</g>
</g>
<!-- Node3 -->
<g id="Node000003" class="node">
<title>Node3</title>
<g id="a_Node000003"><a xlink:title=" ">
<polygon fill="white" stroke="transparent" points="234,-234 125,-234 125,-185 234,-185 234,-234"/>
<text text-anchor="start" x="130.5" y="-221.5" font-family="Helvetica,sans-Serif" font-size="10.00">generic::DeleteView</text>
<text text-anchor="start" x="178" y="-206.5" font-family="Helvetica,sans-Serif" font-size="10.00"> </text>
<text text-anchor="start" x="178" y="-191.5" font-family="Helvetica,sans-Serif" font-size="10.00"> </text>
<polygon fill="#666666" stroke="#666666" points="125.5,-216.5 125.5,-216.5 234.5,-216.5 234.5,-216.5 125.5,-216.5"/>
<polygon fill="#666666" stroke="#666666" points="125.5,-201.5 125.5,-201.5 234.5,-201.5 234.5,-201.5 125.5,-201.5"/>
<polygon fill="none" stroke="#666666" points="125,-185 125,-234 234,-234 234,-185 125,-185"/>
</a>
</g>
</g>
<!-- Node3&#45;&gt;Node1 -->
<g id="edge2_Node000001_Node000003" class="edge">
<title>Node3&#45;&gt;Node1</title>
<g id="a_edge2_Node000001_Node000003"><a xlink:title=" ">
<path fill="none" stroke="#63b8ff" d="M155.4,-176.75C148.43,-167.57 140.95,-157.71 134.43,-149.12"/>
<polygon fill="none" stroke="#63b8ff" points="152.78,-179.09 161.62,-184.94 158.36,-174.86 152.78,-179.09"/>
</a>
</g>
</g>
</g>
</svg>
