<?xml version="1.0" encoding="UTF-8" standalone="no"?>
<!DOCTYPE svg PUBLIC "-//W3C//DTD SVG 1.1//EN"
 "http://www.w3.org/Graphics/SVG/1.1/DTD/svg11.dtd">
<!-- Generated by graphviz version 2.43.0 (0)
 -->
<!-- Title: api.views.medicine.MedicineView.get Pages: 1 -->
<svg width="371pt" height="170pt"
 viewBox="0.00 0.00 371.00 170.00" xmlns="http://www.w3.org/2000/svg" xmlns:xlink="http://www.w3.org/1999/xlink">

<svg id="main" version="1.1" xmlns="http://www.w3.org/2000/svg" xmlns:xlink="http://www.w3.org/1999/xlink" xml:space="preserve" onload="init(evt)">
<style type="text/css"><![CDATA[
.node, .edge {opacity: 0.7;}
.node.selected, .edge.selected {opacity: 1;}
.edge:hover path { stroke: red; }
.edge:hover polygon { stroke: red; fill: red; }
]]></style>
<script type="application/ecmascript" xlink:href="svg.min.js"/>
<svg id="graph" class="graph">
<g id="graph0" class="graph" transform="scale(1 1) rotate(0) translate(4 166)">
<title>api.views.medicine.MedicineView.get</title>
<!-- Node1 -->
<g id="Node000001" class="node">
<title>Node1</title>
<g id="a_Node000001"><a xlink:title=" ">
<polygon fill="#999999" stroke="#666666" points="158,-96 0,-96 0,-66 158,-66 158,-96"/>
<text text-anchor="start" x="8" y="-84" font-family="Helvetica,sans-Serif" font-size="10.00">api.views.medicine.Medicine</text>
<text text-anchor="middle" x="79" y="-73" font-family="Helvetica,sans-Serif" font-size="10.00">View.get</text>
</a>
</g>
</g>
<!-- Node2 -->
<g id="Node000002" class="node">
<title>Node2</title>
<g id="a_Node000002"><a xlink:href="classapi_1_1views_1_1medicine_1_1MedicineView.html#a246b3300c14ea5fc459ab4a06dec1ad1" target="_top" xlink:title=" ">
<polygon fill="white" stroke="#666666" points="357.5,-162 199.5,-162 199.5,-132 357.5,-132 357.5,-162"/>
<text text-anchor="start" x="207.5" y="-150" font-family="Helvetica,sans-Serif" font-size="10.00">api.views.medicine.Medicine</text>
<text text-anchor="middle" x="278.5" y="-139" font-family="Helvetica,sans-Serif" font-size="10.00">View.get_queryset</text>
</a>
</g>
</g>
<!-- Node1&#45;&gt;Node2 -->
<g id="edge1_Node000001_Node000002" class="edge">
<title>Node1&#45;&gt;Node2</title>
<g id="a_edge1_Node000001_Node000002"><a xlink:title=" ">
<path fill="none" stroke="#63b8ff" d="M118.8,-96.09C140.73,-104.43 168.74,-114.73 194,-123 200.26,-125.05 206.81,-127.1 213.38,-129.09"/>
<polygon fill="#63b8ff" stroke="#63b8ff" points="212.39,-132.44 222.98,-131.95 214.39,-125.74 212.39,-132.44"/>
</a>
</g>
</g>
<!-- Node3 -->
<g id="Node000003" class="node">
<title>Node3</title>
<g id="a_Node000003"><a xlink:href="classmedicines_1_1owner_1_1OwnerUpdateView.html#afcdeb7526e1d7dc2a7c316c7cd0ab5ab" target="_top" xlink:title=" ">
<polygon fill="white" stroke="#666666" points="363,-96 194,-96 194,-66 363,-66 363,-96"/>
<text text-anchor="start" x="202" y="-84" font-family="Helvetica,sans-Serif" font-size="10.00">medicines.owner.OwnerUpdate</text>
<text text-anchor="middle" x="278.5" y="-73" font-family="Helvetica,sans-Serif" font-size="10.00">View.get_queryset</text>
</a>
</g>
</g>
<!-- Node1&#45;&gt;Node3 -->
<g id="edge2_Node000001_Node000003" class="edge">
<title>Node1&#45;&gt;Node3</title>
<g id="a_edge2_Node000001_Node000003"><a xlink:title=" ">
<path fill="none" stroke="#63b8ff" d="M158.06,-81C166.5,-81 175.16,-81 183.77,-81"/>
<polygon fill="#63b8ff" stroke="#63b8ff" points="183.84,-84.5 193.84,-81 183.84,-77.5 183.84,-84.5"/>
</a>
</g>
</g>
<!-- Node4 -->
<g id="Node000004" class="node">
<title>Node4</title>
<g id="a_Node000004"><a xlink:href="classmedicines_1_1owner_1_1OwnerDeleteView.html#adccdfbc96ef006ef1681aa5c30e96944" target="_top" xlink:title=" ">
<polygon fill="white" stroke="#666666" points="361.5,-30 195.5,-30 195.5,0 361.5,0 361.5,-30"/>
<text text-anchor="start" x="203.5" y="-18" font-family="Helvetica,sans-Serif" font-size="10.00">medicines.owner.OwnerDelete</text>
<text text-anchor="middle" x="278.5" y="-7" font-family="Helvetica,sans-Serif" font-size="10.00">View.get_queryset</text>
</a>
</g>
</g>
<!-- Node1&#45;&gt;Node4 -->
<g id="edge4_Node000001_Node000004" class="edge">
<title>Node1&#45;&gt;Node4</title>
<g id="a_edge4_Node000001_Node000004"><a xlink:title=" ">
<path fill="none" stroke="#63b8ff" d="M125.31,-65.86C154.29,-56.17 192.06,-43.55 222.72,-33.31"/>
<polygon fill="#63b8ff" stroke="#63b8ff" points="224.03,-36.56 232.4,-30.07 221.81,-29.92 224.03,-36.56"/>
</a>
</g>
</g>
<!-- Node3&#45;&gt;Node3 -->
<g id="edge3_Node000003_Node000003" class="edge">
<title>Node3&#45;&gt;Node3</title>
<g id="a_edge3_Node000003_Node000003"><a xlink:title=" ">
<path fill="none" stroke="#63b8ff" d="M243.7,-96.28C235.96,-105.41 247.56,-114 278.5,-114 296.87,-114 308.42,-110.97 313.16,-106.6"/>
<polygon fill="#63b8ff" stroke="#63b8ff" points="316.66,-106.32 313.3,-96.28 309.66,-106.22 316.66,-106.32"/>
</a>
</g>
</g>
<!-- Node4&#45;&gt;Node4 -->
<g id="edge5_Node000004_Node000004" class="edge">
<title>Node4&#45;&gt;Node4</title>
<g id="a_edge5_Node000004_Node000004"><a xlink:title=" ">
<path fill="none" stroke="#63b8ff" d="M243.7,-30.28C235.96,-39.41 247.56,-48 278.5,-48 296.87,-48 308.42,-44.97 313.16,-40.6"/>
<polygon fill="#63b8ff" stroke="#63b8ff" points="316.66,-40.32 313.3,-30.28 309.66,-40.22 316.66,-40.32"/>
</a>
</g>
</g>
</g>
</svg>
</svg>

<style type='text/css'>
<![CDATA[
[data-mouse-over-selected='false'] { opacity: 0.7; }
[data-mouse-over-selected='true']  { opacity: 1.0; }
]]>
</style>
<script type="application/ecmascript"><![CDATA[
document.addEventListener('DOMContentLoaded', (event) => {
  highlightEdges();
  highlightAdjacentNodes();
});
]]></script>
</svg>
