<?xml version="1.0" encoding="UTF-8" standalone="no"?>
<!DOCTYPE svg PUBLIC "-//W3C//DTD SVG 1.1//EN"
 "http://www.w3.org/Graphics/SVG/1.1/DTD/svg11.dtd">
<!-- Generated by graphviz version 2.43.0 (0)
 -->
<!-- Title: api.views.auth.APISignupView Pages: 1 -->
<svg width="166pt" height="187pt"
 viewBox="0.00 0.00 166.00 187.00" xmlns="http://www.w3.org/2000/svg" xmlns:xlink="http://www.w3.org/1999/xlink">
<g id="graph0" class="graph" transform="scale(1 1) rotate(0) translate(4 183)">
<title>api.views.auth.APISignupView</title>
<!-- Node1 -->
<g id="Node000001" class="node">
<title>Node1</title>
<g id="a_Node000001"><a xlink:title=" ">
<polygon fill="#999999" stroke="transparent" points="158,-94 0,-94 0,0 158,0 158,-94"/>
<text text-anchor="start" x="5" y="-82" font-family="Helvetica,sans-Serif" font-size="10.00">api.views.auth.APISignupView</text>
<text text-anchor="start" x="27" y="-67" font-family="Helvetica,sans-Serif" font-size="10.00">+</text>
<text text-anchor="start" x="63" y="-67" font-family="Helvetica,sans-Serif" font-size="10.00">form</text>
<text text-anchor="start" x="27" y="-52" font-family="Helvetica,sans-Serif" font-size="10.00">+</text>
<text text-anchor="start" x="63" y="-52" font-family="Helvetica,sans-Serif" font-size="10.00">user</text>
<text text-anchor="start" x="27" y="-37" font-family="Helvetica,sans-Serif" font-size="10.00">+</text>
<text text-anchor="start" x="63" y="-37" font-family="Helvetica,sans-Serif" font-size="10.00">__init__()</text>
<text text-anchor="start" x="27" y="-22" font-family="Helvetica,sans-Serif" font-size="10.00">+</text>
<text text-anchor="start" x="63" y="-22" font-family="Helvetica,sans-Serif" font-size="10.00">get()</text>
<text text-anchor="start" x="27" y="-7" font-family="Helvetica,sans-Serif" font-size="10.00">+</text>
<text text-anchor="start" x="63" y="-7" font-family="Helvetica,sans-Serif" font-size="10.00">post()</text>
<polygon fill="#666666" stroke="#666666" points="0,-77 0,-77 158,-77 158,-77 0,-77"/>
<polygon fill="#666666" stroke="#666666" points="0,-47 0,-47 61,-47 61,-47 0,-47"/>
<polygon fill="#666666" stroke="#666666" points="61,-47 61,-47 158,-47 158,-47 61,-47"/>
<polygon fill="none" stroke="#666666" points="0,0 0,-94 158,-94 158,0 0,0"/>
</a>
</g>
</g>
<!-- Node2 -->
<g id="Node000002" class="node">
<title>Node2</title>
<g id="a_Node000002"><a xlink:title=" ">
<polygon fill="white" stroke="transparent" points="96.5,-179 61.5,-179 61.5,-130 96.5,-130 96.5,-179"/>
<text text-anchor="start" x="67" y="-166.5" font-family="Helvetica,sans-Serif" font-size="10.00">View</text>
<text text-anchor="start" x="77.5" y="-151.5" font-family="Helvetica,sans-Serif" font-size="10.00"> </text>
<text text-anchor="start" x="77.5" y="-136.5" font-family="Helvetica,sans-Serif" font-size="10.00"> </text>
<polygon fill="#666666" stroke="#666666" points="62,-161.5 62,-161.5 97,-161.5 97,-161.5 62,-161.5"/>
<polygon fill="#666666" stroke="#666666" points="62,-146.5 62,-146.5 97,-146.5 97,-146.5 62,-146.5"/>
<polygon fill="none" stroke="#666666" points="61.5,-130 61.5,-179 96.5,-179 96.5,-130 61.5,-130"/>
</a>
</g>
</g>
<!-- Node2&#45;&gt;Node1 -->
<g id="edge1_Node000001_Node000002" class="edge">
<title>Node2&#45;&gt;Node1</title>
<g id="a_edge1_Node000001_Node000002"><a xlink:title=" ">
<path fill="none" stroke="#63b8ff" d="M79,-119.61C79,-111.48 79,-102.66 79,-94.08"/>
<polygon fill="none" stroke="#63b8ff" points="75.5,-119.82 79,-129.82 82.5,-119.82 75.5,-119.82"/>
</a>
</g>
</g>
</g>
</svg>
