<?xml version="1.0" encoding="UTF-8" standalone="no"?>
<!DOCTYPE svg PUBLIC "-//W3C//DTD SVG 1.1//EN"
 "http://www.w3.org/Graphics/SVG/1.1/DTD/svg11.dtd">
<!-- Generated by graphviz version 2.43.0 (0)
 -->
<!-- Title: medicines.owner.OwnerDetailView Pages: 1 -->
<svg width="189pt" height="242pt"
 viewBox="0.00 0.00 189.00 242.00" xmlns="http://www.w3.org/2000/svg" xmlns:xlink="http://www.w3.org/1999/xlink">
<g id="graph0" class="graph" transform="scale(1 1) rotate(0) translate(4 238)">
<title>medicines.owner.OwnerDetailView</title>
<!-- Node1 -->
<g id="Node000001" class="node">
<title>Node1</title>
<g id="a_Node000001"><a xlink:title=" ">
<polygon fill="#999999" stroke="transparent" points="181,-149 0,-149 0,-100 181,-100 181,-149"/>
<text text-anchor="start" x="5.5" y="-136.5" font-family="Helvetica,sans-Serif" font-size="10.00">medicines.owner.OwnerDetailView</text>
<text text-anchor="start" x="89" y="-121.5" font-family="Helvetica,sans-Serif" font-size="10.00"> </text>
<text text-anchor="start" x="89" y="-106.5" font-family="Helvetica,sans-Serif" font-size="10.00"> </text>
<polygon fill="#666666" stroke="#666666" points="0.5,-131.5 0.5,-131.5 181.5,-131.5 181.5,-131.5 0.5,-131.5"/>
<polygon fill="#666666" stroke="#666666" points="0.5,-116.5 0.5,-116.5 181.5,-116.5 181.5,-116.5 0.5,-116.5"/>
<polygon fill="none" stroke="#666666" points="0,-100 0,-149 181,-149 181,-100 0,-100"/>
</a>
</g>
</g>
<!-- Node3 -->
<g id="Node000003" class="node">
<title>Node3</title>
<g id="a_Node000003"><a xlink:href="classmedicines_1_1views_1_1MedDetailView.html" target="_top" xlink:title=" ">
<polygon fill="white" stroke="transparent" points="175.5,-64 5.5,-64 5.5,0 175.5,0 175.5,-64"/>
<text text-anchor="start" x="10.5" y="-52" font-family="Helvetica,sans-Serif" font-size="10.00">medicines.views.MedDetailView</text>
<text text-anchor="start" x="27" y="-37" font-family="Helvetica,sans-Serif" font-size="10.00">+</text>
<text text-anchor="start" x="57.5" y="-37" font-family="Helvetica,sans-Serif" font-size="10.00">model</text>
<text text-anchor="start" x="27" y="-22" font-family="Helvetica,sans-Serif" font-size="10.00">+</text>
<text text-anchor="start" x="57.5" y="-22" font-family="Helvetica,sans-Serif" font-size="10.00">template_name</text>
<text text-anchor="start" x="88.5" y="-7" font-family="Helvetica,sans-Serif" font-size="10.00"> </text>
<polygon fill="#666666" stroke="#666666" points="5.5,-47 5.5,-47 175.5,-47 175.5,-47 5.5,-47"/>
<polygon fill="#666666" stroke="#666666" points="5.5,-17 5.5,-17 55.5,-17 55.5,-17 5.5,-17"/>
<polygon fill="#666666" stroke="#666666" points="55.5,-17 55.5,-17 175.5,-17 175.5,-17 55.5,-17"/>
<polygon fill="none" stroke="#666666" points="5.5,0 5.5,-64 175.5,-64 175.5,0 5.5,0"/>
</a>
</g>
</g>
<!-- Node1&#45;&gt;Node3 -->
<g id="edge2_Node000001_Node000003" class="edge">
<title>Node1&#45;&gt;Node3</title>
<g id="a_edge2_Node000001_Node000003"><a xlink:title=" ">
<path fill="none" stroke="#63b8ff" d="M90.5,-89.54C90.5,-81.2 90.5,-72.31 90.5,-64.11"/>
<polygon fill="none" stroke="#63b8ff" points="87,-89.72 90.5,-99.72 94,-89.72 87,-89.72"/>
</a>
</g>
</g>
<!-- Node2 -->
<g id="Node000002" class="node">
<title>Node2</title>
<g id="a_Node000002"><a xlink:title=" ">
<polygon fill="white" stroke="transparent" points="143.5,-234 37.5,-234 37.5,-185 143.5,-185 143.5,-234"/>
<text text-anchor="start" x="42.5" y="-221.5" font-family="Helvetica,sans-Serif" font-size="10.00">generic::DetailView</text>
<text text-anchor="start" x="88.5" y="-206.5" font-family="Helvetica,sans-Serif" font-size="10.00"> </text>
<text text-anchor="start" x="88.5" y="-191.5" font-family="Helvetica,sans-Serif" font-size="10.00"> </text>
<polygon fill="#666666" stroke="#666666" points="37.5,-216.5 37.5,-216.5 143.5,-216.5 143.5,-216.5 37.5,-216.5"/>
<polygon fill="#666666" stroke="#666666" points="37.5,-201.5 37.5,-201.5 143.5,-201.5 143.5,-201.5 37.5,-201.5"/>
<polygon fill="none" stroke="#666666" points="37.5,-185 37.5,-234 143.5,-234 143.5,-185 37.5,-185"/>
</a>
</g>
</g>
<!-- Node2&#45;&gt;Node1 -->
<g id="edge1_Node000001_Node000002" class="edge">
<title>Node2&#45;&gt;Node1</title>
<g id="a_edge1_Node000001_Node000002"><a xlink:title=" ">
<path fill="none" stroke="#63b8ff" d="M90.5,-174.77C90.5,-166.17 90.5,-157.1 90.5,-149.12"/>
<polygon fill="none" stroke="#63b8ff" points="87,-174.94 90.5,-184.94 94,-174.94 87,-174.94"/>
</a>
</g>
</g>
</g>
</svg>
