<?xml version="1.0" encoding="UTF-8" standalone="no"?>
<!DOCTYPE svg PUBLIC "-//W3C//DTD SVG 1.1//EN"
 "http://www.w3.org/Graphics/SVG/1.1/DTD/svg11.dtd">
<!-- Generated by graphviz version 2.43.0 (0)
 -->
<!-- Title: Graphical Class Hierarchy Pages: 1 -->
<svg width="324pt" height="124pt"
 viewBox="0.00 0.00 324.00 123.50" xmlns="http://www.w3.org/2000/svg" xmlns:xlink="http://www.w3.org/1999/xlink">
<g id="graph0" class="graph" transform="scale(1 1) rotate(0) translate(4 119.5)">
<title>Graphical Class Hierarchy</title>
<!-- Node0 -->
<g id="Node000000" class="node">
<title>Node0</title>
<g id="a_Node000000"><a xlink:title=" ">
<polygon fill="#e0e0e0" stroke="#999999" points="105,-62 0,-62 0,-43 105,-43 105,-62"/>
<text text-anchor="middle" x="52.5" y="-50" font-family="Helvetica,sans-Serif" font-size="10.00">sitemaps.Sitemap</text>
</a>
</g>
</g>
<!-- Node1 -->
<g id="Node000001" class="node">
<title>Node1</title>
<g id="a_Node000001"><a xlink:href="classaccounts_1_1sitemaps_1_1AccountSiteMap.html" target="_top" xlink:title=" ">
<polygon fill="white" stroke="#666666" points="303.5,-115.5 153.5,-115.5 153.5,-85.5 303.5,-85.5 303.5,-115.5"/>
<text text-anchor="start" x="161.5" y="-103.5" font-family="Helvetica,sans-Serif" font-size="10.00">accounts.sitemaps.Account</text>
<text text-anchor="middle" x="228.5" y="-92.5" font-family="Helvetica,sans-Serif" font-size="10.00">SiteMap</text>
</a>
</g>
</g>
<!-- Node0&#45;&gt;Node1 -->
<g id="edge104_Node000000_Node000001" class="edge">
<title>Node0&#45;&gt;Node1</title>
<g id="a_edge104_Node000000_Node000001"><a xlink:title=" ">
<path fill="none" stroke="#63b8ff" d="M98.05,-64.79C120.85,-71.08 148.81,-78.79 172.9,-85.44"/>
<polygon fill="#63b8ff" stroke="#63b8ff" points="98.86,-61.38 88.29,-62.1 97,-68.13 98.86,-61.38"/>
</a>
</g>
</g>
<!-- Node2 -->
<g id="Node000002" class="node">
<title>Node2</title>
<g id="a_Node000002"><a xlink:href="classaccounts_1_1sitemaps_1_1AllAuthSitemap.html" target="_top" xlink:title=" ">
<polygon fill="white" stroke="#666666" points="301.5,-67.5 155.5,-67.5 155.5,-37.5 301.5,-37.5 301.5,-67.5"/>
<text text-anchor="start" x="163.5" y="-55.5" font-family="Helvetica,sans-Serif" font-size="10.00">accounts.sitemaps.AllAuth</text>
<text text-anchor="middle" x="228.5" y="-44.5" font-family="Helvetica,sans-Serif" font-size="10.00">Sitemap</text>
</a>
</g>
</g>
<!-- Node0&#45;&gt;Node2 -->
<g id="edge105_Node000000_Node000002" class="edge">
<title>Node0&#45;&gt;Node2</title>
<g id="a_edge105_Node000000_Node000002"><a xlink:title=" ">
<path fill="none" stroke="#63b8ff" d="M115.41,-52.5C128.34,-52.5 142.09,-52.5 155.36,-52.5"/>
<polygon fill="#63b8ff" stroke="#63b8ff" points="115.23,-49 105.23,-52.5 115.23,-56 115.23,-49"/>
</a>
</g>
</g>
<!-- Node3 -->
<g id="Node000003" class="node">
<title>Node3</title>
<g id="a_Node000003"><a xlink:href="classmedical_1_1sitemaps_1_1StaticSitemap.html" target="_top" xlink:title=" ">
<polygon fill="white" stroke="#666666" points="316,-19 141,-19 141,0 316,0 316,-19"/>
<text text-anchor="middle" x="228.5" y="-7" font-family="Helvetica,sans-Serif" font-size="10.00">medical.sitemaps.StaticSitemap</text>
</a>
</g>
</g>
<!-- Node0&#45;&gt;Node3 -->
<g id="edge106_Node000000_Node000003" class="edge">
<title>Node0&#45;&gt;Node3</title>
<g id="a_edge106_Node000000_Node000003"><a xlink:title=" ">
<path fill="none" stroke="#63b8ff" d="M96.58,-40.21C110.69,-36.31 126.48,-32.08 141,-28.5 154.29,-25.22 168.79,-21.93 182.06,-19.02"/>
<polygon fill="#63b8ff" stroke="#63b8ff" points="95.33,-36.92 86.63,-42.98 97.21,-43.67 95.33,-36.92"/>
</a>
</g>
</g>
</g>
</svg>
