<?xml version="1.0" encoding="UTF-8" standalone="no"?>
<!DOCTYPE svg PUBLIC "-//W3C//DTD SVG 1.1//EN"
 "http://www.w3.org/Graphics/SVG/1.1/DTD/svg11.dtd">
<!-- Generated by graphviz version 2.43.0 (0)
 -->
<!-- Title: Graphical Class Hierarchy Pages: 1 -->
<svg width="265pt" height="101pt"
 viewBox="0.00 0.00 265.00 101.00" xmlns="http://www.w3.org/2000/svg" xmlns:xlink="http://www.w3.org/1999/xlink">
<g id="graph0" class="graph" transform="scale(1 1) rotate(0) translate(4 97)">
<title>Graphical Class Hierarchy</title>
<!-- Node0 -->
<g id="Node000000" class="node">
<title>Node0</title>
<g id="a_Node000000"><a xlink:title=" ">
<polygon fill="#e0e0e0" stroke="#999999" points="71,-56 0,-56 0,-37 71,-37 71,-56"/>
<text text-anchor="middle" x="35.5" y="-44" font-family="Helvetica,sans-Serif" font-size="10.00">ModelForm</text>
</a>
</g>
</g>
<!-- Node1 -->
<g id="Node000001" class="node">
<title>Node1</title>
<g id="a_Node000001"><a xlink:href="classaccounts_1_1forms_1_1ProfileForm.html" target="_top" xlink:title=" ">
<polygon fill="white" stroke="#666666" points="257,-93 107,-93 107,-74 257,-74 257,-93"/>
<text text-anchor="middle" x="182" y="-81" font-family="Helvetica,sans-Serif" font-size="10.00">accounts.forms.ProfileForm</text>
</a>
</g>
</g>
<!-- Node0&#45;&gt;Node1 -->
<g id="edge92_Node000000_Node000001" class="edge">
<title>Node0&#45;&gt;Node1</title>
<g id="a_edge92_Node000000_Node000001"><a xlink:title=" ">
<path fill="none" stroke="#63b8ff" d="M81.1,-58.7C89.69,-61 98.62,-63.35 107,-65.5 118.01,-68.32 129.98,-71.28 141.01,-73.96"/>
<polygon fill="#63b8ff" stroke="#63b8ff" points="81.8,-55.26 71.24,-56.04 79.99,-62.02 81.8,-55.26"/>
</a>
</g>
</g>
<!-- Node2 -->
<g id="Node000002" class="node">
<title>Node2</title>
<g id="a_Node000002"><a xlink:href="classaccounts_1_1forms_1_1SellerForm.html" target="_top" xlink:title=" ">
<polygon fill="white" stroke="#666666" points="255.5,-56 108.5,-56 108.5,-37 255.5,-37 255.5,-56"/>
<text text-anchor="middle" x="182" y="-44" font-family="Helvetica,sans-Serif" font-size="10.00">accounts.forms.SellerForm</text>
</a>
</g>
</g>
<!-- Node0&#45;&gt;Node2 -->
<g id="edge93_Node000000_Node000002" class="edge">
<title>Node0&#45;&gt;Node2</title>
<g id="a_edge93_Node000000_Node000002"><a xlink:title=" ">
<path fill="none" stroke="#63b8ff" d="M81.27,-46.5C89.88,-46.5 99.1,-46.5 108.34,-46.5"/>
<polygon fill="#63b8ff" stroke="#63b8ff" points="81.11,-43 71.11,-46.5 81.11,-50 81.11,-43"/>
</a>
</g>
</g>
<!-- Node3 -->
<g id="Node000003" class="node">
<title>Node3</title>
<g id="a_Node000003"><a xlink:href="classaccounts_1_1forms_1_1UserForm.html" target="_top" xlink:title=" ">
<polygon fill="white" stroke="#666666" points="253,-19 111,-19 111,0 253,0 253,-19"/>
<text text-anchor="middle" x="182" y="-7" font-family="Helvetica,sans-Serif" font-size="10.00">accounts.forms.UserForm</text>
</a>
</g>
</g>
<!-- Node0&#45;&gt;Node3 -->
<g id="edge94_Node000000_Node000003" class="edge">
<title>Node0&#45;&gt;Node3</title>
<g id="a_edge94_Node000000_Node000003"><a xlink:title=" ">
<path fill="none" stroke="#63b8ff" d="M81,-35.11C101.15,-29.95 124.71,-23.91 143.89,-19"/>
<polygon fill="#63b8ff" stroke="#63b8ff" points="79.93,-31.77 71.11,-37.64 81.67,-38.55 79.93,-31.77"/>
</a>
</g>
</g>
</g>
</svg>
