<?xml version="1.0" encoding="UTF-8" standalone="no"?>
<!DOCTYPE svg PUBLIC "-//W3C//DTD SVG 1.1//EN"
 "http://www.w3.org/Graphics/SVG/1.1/DTD/svg11.dtd">
<!-- Generated by graphviz version 2.43.0 (0)
 -->
<!-- Title: Graphical Class Hierarchy Pages: 1 -->
<svg width="593pt" height="557pt"
 viewBox="0.00 0.00 593.00 556.50" xmlns="http://www.w3.org/2000/svg" xmlns:xlink="http://www.w3.org/1999/xlink">
<g id="graph0" class="graph" transform="scale(1 1) rotate(0) translate(4 552.5)">
<title>Graphical Class Hierarchy</title>
<!-- Node0 -->
<g id="Node000000" class="node">
<title>Node0</title>
<g id="a_Node000000"><a xlink:title=" ">
<polygon fill="#e0e0e0" stroke="#999999" points="126.5,-548.5 14.5,-548.5 14.5,-529.5 126.5,-529.5 126.5,-548.5"/>
<text text-anchor="middle" x="70.5" y="-536.5" font-family="Helvetica,sans-Serif" font-size="10.00">generic.CreateView</text>
</a>
</g>
</g>
<!-- Node1 -->
<g id="Node000001" class="node">
<title>Node1</title>
<g id="a_Node000001"><a xlink:href="classmedicines_1_1owner_1_1OwnerCreateView.html" target="_top" xlink:title=" ">
<polygon fill="white" stroke="#666666" points="368.5,-548.5 178.5,-548.5 178.5,-529.5 368.5,-529.5 368.5,-548.5"/>
<text text-anchor="middle" x="273.5" y="-536.5" font-family="Helvetica,sans-Serif" font-size="10.00">medicines.owner.OwnerCreateView</text>
</a>
</g>
</g>
<!-- Node0&#45;&gt;Node1 -->
<g id="edge11_Node000000_Node000001" class="edge">
<title>Node0&#45;&gt;Node1</title>
<g id="a_edge11_Node000000_Node000001"><a xlink:title=" ">
<path fill="none" stroke="#63b8ff" d="M137.08,-539C150.3,-539 164.45,-539 178.43,-539"/>
<polygon fill="#63b8ff" stroke="#63b8ff" points="136.69,-535.5 126.69,-539 136.69,-542.5 136.69,-535.5"/>
</a>
</g>
</g>
<!-- Node15 -->
<g id="Node000015" class="node">
<title>Node15</title>
<g id="a_Node000015"><a xlink:title=" ">
<polygon fill="#e0e0e0" stroke="#999999" points="126.5,-511.5 14.5,-511.5 14.5,-492.5 126.5,-492.5 126.5,-511.5"/>
<text text-anchor="middle" x="70.5" y="-499.5" font-family="Helvetica,sans-Serif" font-size="10.00">generic.DeleteView</text>
</a>
</g>
</g>
<!-- Node13 -->
<g id="Node000013" class="node">
<title>Node13</title>
<g id="a_Node000013"><a xlink:href="classmedicines_1_1owner_1_1OwnerDeleteView.html" target="_top" xlink:title=" ">
<polygon fill="white" stroke="#666666" points="368.5,-511.5 178.5,-511.5 178.5,-492.5 368.5,-492.5 368.5,-511.5"/>
<text text-anchor="middle" x="273.5" y="-499.5" font-family="Helvetica,sans-Serif" font-size="10.00">medicines.owner.OwnerDeleteView</text>
</a>
</g>
</g>
<!-- Node15&#45;&gt;Node13 -->
<g id="edge12_Node000015_Node000013" class="edge">
<title>Node15&#45;&gt;Node13</title>
<g id="a_edge12_Node000015_Node000013"><a xlink:title=" ">
<path fill="none" stroke="#63b8ff" d="M137.08,-502C150.3,-502 164.45,-502 178.43,-502"/>
<polygon fill="#63b8ff" stroke="#63b8ff" points="136.69,-498.5 126.69,-502 136.69,-505.5 136.69,-498.5"/>
</a>
</g>
</g>
<!-- Node14 -->
<g id="Node000014" class="node">
<title>Node14</title>
<g id="a_Node000014"><a xlink:href="classmedicines_1_1views_1_1MedDeleteView.html" target="_top" xlink:title=" ">
<polygon fill="white" stroke="#666666" points="585,-511.5 406,-511.5 406,-492.5 585,-492.5 585,-511.5"/>
<text text-anchor="middle" x="495.5" y="-499.5" font-family="Helvetica,sans-Serif" font-size="10.00">medicines.views.MedDeleteView</text>
</a>
</g>
</g>
<!-- Node13&#45;&gt;Node14 -->
<g id="edge13_Node000013_Node000014" class="edge">
<title>Node13&#45;&gt;Node14</title>
<g id="a_edge13_Node000013_Node000014"><a xlink:title=" ">
<path fill="none" stroke="#63b8ff" d="M378.85,-502C387.82,-502 396.84,-502 405.67,-502"/>
<polygon fill="#63b8ff" stroke="#63b8ff" points="378.76,-498.5 368.76,-502 378.76,-505.5 378.76,-498.5"/>
</a>
</g>
</g>
<!-- Node17 -->
<g id="Node000017" class="node">
<title>Node17</title>
<g id="a_Node000017"><a xlink:title=" ">
<polygon fill="#e0e0e0" stroke="#999999" points="128,-474.5 13,-474.5 13,-455.5 128,-455.5 128,-474.5"/>
<text text-anchor="middle" x="70.5" y="-462.5" font-family="Helvetica,sans-Serif" font-size="10.00">generic.UpdateView</text>
</a>
</g>
</g>
<!-- Node16 -->
<g id="Node000016" class="node">
<title>Node16</title>
<g id="a_Node000016"><a xlink:href="classmedicines_1_1owner_1_1OwnerUpdateView.html" target="_top" xlink:title=" ">
<polygon fill="white" stroke="#666666" points="370,-474.5 177,-474.5 177,-455.5 370,-455.5 370,-474.5"/>
<text text-anchor="middle" x="273.5" y="-462.5" font-family="Helvetica,sans-Serif" font-size="10.00">medicines.owner.OwnerUpdateView</text>
</a>
</g>
</g>
<!-- Node17&#45;&gt;Node16 -->
<g id="edge14_Node000017_Node000016" class="edge">
<title>Node17&#45;&gt;Node16</title>
<g id="a_edge14_Node000017_Node000016"><a xlink:title=" ">
<path fill="none" stroke="#63b8ff" d="M138.23,-465C150.61,-465 163.78,-465 176.83,-465"/>
<polygon fill="#63b8ff" stroke="#63b8ff" points="138.02,-461.5 128.02,-465 138.02,-468.5 138.02,-461.5"/>
</a>
</g>
</g>
<!-- Node2 -->
<g id="Node000002" class="node">
<title>Node2</title>
<g id="a_Node000002"><a xlink:title=" ">
<polygon fill="#e0e0e0" stroke="#999999" points="127,-437.5 14,-437.5 14,-418.5 127,-418.5 127,-437.5"/>
<text text-anchor="middle" x="70.5" y="-425.5" font-family="Helvetica,sans-Serif" font-size="10.00">LoginRequiredMixin</text>
</a>
</g>
</g>
<!-- Node2&#45;&gt;Node1 -->
<g id="edge17_Node000002_Node000001" class="edge">
<title>Node2&#45;&gt;Node1</title>
<g id="a_edge17_Node000002_Node000001"><a xlink:title=" ">
<path fill="none" stroke="#63b8ff" d="M134.42,-442.31C136.73,-443.73 138.94,-445.29 141,-447 169.15,-470.35 147.93,-498.8 177,-521 181.29,-524.28 186,-527.02 190.96,-529.3"/>
<polygon fill="#63b8ff" stroke="#63b8ff" points="135.58,-438.97 125.08,-437.5 132.37,-445.19 135.58,-438.97"/>
</a>
</g>
</g>
<!-- Node2&#45;&gt;Node13 -->
<g id="edge18_Node000002_Node000013" class="edge">
<title>Node2&#45;&gt;Node13</title>
<g id="a_edge18_Node000002_Node000013"><a xlink:title=" ">
<path fill="none" stroke="#63b8ff" d="M129.27,-441.16C133.35,-442.88 137.3,-444.82 141,-447 160.76,-458.66 156.79,-473.15 177,-484 183.39,-487.43 190.33,-490.22 197.45,-492.48"/>
<polygon fill="#63b8ff" stroke="#63b8ff" points="130.19,-437.77 119.6,-437.53 127.73,-444.32 130.19,-437.77"/>
</a>
</g>
</g>
<!-- Node2&#45;&gt;Node16 -->
<g id="edge19_Node000002_Node000016" class="edge">
<title>Node2&#45;&gt;Node16</title>
<g id="a_edge19_Node000002_Node000016"><a xlink:title=" ">
<path fill="none" stroke="#63b8ff" d="M133.32,-439.38C161.27,-444.52 193.91,-450.53 220.56,-455.44"/>
<polygon fill="#63b8ff" stroke="#63b8ff" points="133.73,-435.9 123.26,-437.53 132.46,-442.78 133.73,-435.9"/>
</a>
</g>
</g>
<!-- Node3 -->
<g id="Node000003" class="node">
<title>Node3</title>
<g id="a_Node000003"><a xlink:href="classapi_1_1views_1_1auth_1_1ProfileView.html" target="_top" xlink:title=" ">
<polygon fill="white" stroke="#666666" points="346.5,-363.5 200.5,-363.5 200.5,-344.5 346.5,-344.5 346.5,-363.5"/>
<text text-anchor="middle" x="273.5" y="-351.5" font-family="Helvetica,sans-Serif" font-size="10.00">api.views.auth.ProfileView</text>
</a>
</g>
</g>
<!-- Node2&#45;&gt;Node3 -->
<g id="edge15_Node000002_Node000003" class="edge">
<title>Node2&#45;&gt;Node3</title>
<g id="a_edge15_Node000002_Node000003"><a xlink:title=" ">
<path fill="none" stroke="#63b8ff" d="M131.56,-414.75C134.83,-413.32 138,-411.74 141,-410 160.84,-398.48 156.84,-383.95 177,-373 184.28,-369.05 192.27,-365.91 200.43,-363.42"/>
<polygon fill="#63b8ff" stroke="#63b8ff" points="130.22,-411.51 122.16,-418.38 132.75,-418.04 130.22,-411.51"/>
</a>
</g>
</g>
<!-- Node7 -->
<g id="Node000007" class="node">
<title>Node7</title>
<g id="a_Node000007"><a xlink:href="classapi_1_1views_1_1auth_1_1SellerView.html" target="_top" xlink:title=" ">
<polygon fill="white" stroke="#666666" points="345,-289.5 202,-289.5 202,-270.5 345,-270.5 345,-289.5"/>
<text text-anchor="middle" x="273.5" y="-277.5" font-family="Helvetica,sans-Serif" font-size="10.00">api.views.auth.SellerView</text>
</a>
</g>
</g>
<!-- Node2&#45;&gt;Node7 -->
<g id="edge16_Node000002_Node000007" class="edge">
<title>Node2&#45;&gt;Node7</title>
<g id="a_edge16_Node000002_Node000007"><a xlink:title=" ">
<path fill="none" stroke="#63b8ff" d="M135.7,-414.31C137.57,-413 139.34,-411.56 141,-410 179.02,-374.11 137.8,-332.6 177,-298 184.08,-291.75 192.64,-287.37 201.68,-284.35"/>
<polygon fill="#63b8ff" stroke="#63b8ff" points="133.92,-411.3 127,-419.32 137.41,-417.36 133.92,-411.3"/>
</a>
</g>
</g>
<!-- Node18 -->
<g id="Node000018" class="node">
<title>Node18</title>
<g id="a_Node000018"><a xlink:href="classmedicines_1_1views_1_1MedCreateView.html" target="_top" xlink:title=" ">
<polygon fill="white" stroke="#666666" points="363,-400.5 184,-400.5 184,-381.5 363,-381.5 363,-400.5"/>
<text text-anchor="middle" x="273.5" y="-388.5" font-family="Helvetica,sans-Serif" font-size="10.00">medicines.views.MedCreateView</text>
</a>
</g>
</g>
<!-- Node2&#45;&gt;Node18 -->
<g id="edge20_Node000002_Node000018" class="edge">
<title>Node2&#45;&gt;Node18</title>
<g id="a_edge20_Node000002_Node000018"><a xlink:title=" ">
<path fill="none" stroke="#63b8ff" d="M133.32,-416.62C161.27,-411.48 193.91,-405.47 220.56,-400.56"/>
<polygon fill="#63b8ff" stroke="#63b8ff" points="132.46,-413.22 123.26,-418.47 133.73,-420.1 132.46,-413.22"/>
</a>
</g>
</g>
<!-- Node22 -->
<g id="Node000022" class="node">
<title>Node22</title>
<g id="a_Node000022"><a xlink:href="classmedicines_1_1views_1_1MedUpdateView.html" target="_top" xlink:title=" ">
<polygon fill="white" stroke="#666666" points="364.5,-437.5 182.5,-437.5 182.5,-418.5 364.5,-418.5 364.5,-437.5"/>
<text text-anchor="middle" x="273.5" y="-425.5" font-family="Helvetica,sans-Serif" font-size="10.00">medicines.views.MedUpdateView</text>
</a>
</g>
</g>
<!-- Node2&#45;&gt;Node22 -->
<g id="edge21_Node000002_Node000022" class="edge">
<title>Node2&#45;&gt;Node22</title>
<g id="a_edge21_Node000002_Node000022"><a xlink:title=" ">
<path fill="none" stroke="#63b8ff" d="M137.46,-428C151.8,-428 167.21,-428 182.31,-428"/>
<polygon fill="#63b8ff" stroke="#63b8ff" points="137.22,-424.5 127.22,-428 137.22,-431.5 137.22,-424.5"/>
</a>
</g>
</g>
<!-- Node19 -->
<g id="Node000019" class="node">
<title>Node19</title>
<g id="a_Node000019"><a xlink:title=" ">
<polygon fill="#e0e0e0" stroke="#999999" points="141,-363.5 0,-363.5 0,-344.5 141,-344.5 141,-363.5"/>
<text text-anchor="middle" x="70.5" y="-351.5" font-family="Helvetica,sans-Serif" font-size="10.00">PermissionRequiredMixin</text>
</a>
</g>
</g>
<!-- Node19&#45;&gt;Node18 -->
<g id="edge22_Node000019_Node000018" class="edge">
<title>Node19&#45;&gt;Node18</title>
<g id="a_edge22_Node000019_Node000018"><a xlink:title=" ">
<path fill="none" stroke="#63b8ff" d="M133.32,-365.38C161.27,-370.52 193.91,-376.53 220.56,-381.44"/>
<polygon fill="#63b8ff" stroke="#63b8ff" points="133.73,-361.9 123.26,-363.53 132.46,-368.78 133.73,-361.9"/>
</a>
</g>
</g>
<!-- Node4 -->
<g id="Node000004" class="node">
<title>Node4</title>
<g id="a_Node000004"><a xlink:title=" ">
<polygon fill="#e0e0e0" stroke="#999999" points="91,-178.5 50,-178.5 50,-159.5 91,-159.5 91,-178.5"/>
<text text-anchor="middle" x="70.5" y="-166.5" font-family="Helvetica,sans-Serif" font-size="10.00">View</text>
</a>
</g>
</g>
<!-- Node4&#45;&gt;Node3 -->
<g id="edge25_Node000004_Node000003" class="edge">
<title>Node4&#45;&gt;Node3</title>
<g id="a_edge25_Node000004_Node000003"><a xlink:title=" ">
<path fill="none" stroke="#63b8ff" d="M77.93,-188.59C90.69,-224.17 122.76,-299.14 177,-336 183.98,-340.74 191.87,-344.32 200.06,-347"/>
<polygon fill="#63b8ff" stroke="#63b8ff" points="81.15,-187.21 74.59,-178.9 74.54,-189.49 81.15,-187.21"/>
</a>
</g>
</g>
<!-- Node4&#45;&gt;Node7 -->
<g id="edge26_Node000004_Node000007" class="edge">
<title>Node4&#45;&gt;Node7</title>
<g id="a_edge26_Node000004_Node000007"><a xlink:title=" ">
<path fill="none" stroke="#63b8ff" d="M85.96,-186.21C104.7,-207.31 139.45,-242.55 177,-261 184.97,-264.91 193.68,-268.02 202.5,-270.49"/>
<polygon fill="#63b8ff" stroke="#63b8ff" points="88.57,-183.88 79.37,-178.62 83.28,-188.47 88.57,-183.88"/>
</a>
</g>
</g>
<!-- Node5 -->
<g id="Node000005" class="node">
<title>Node5</title>
<g id="a_Node000005"><a xlink:href="classapi_1_1views_1_1auth_1_1APILoginView.html" target="_top" xlink:title=" ">
<polygon fill="white" stroke="#666666" points="352,-141.5 195,-141.5 195,-122.5 352,-122.5 352,-141.5"/>
<text text-anchor="middle" x="273.5" y="-129.5" font-family="Helvetica,sans-Serif" font-size="10.00">api.views.auth.APILoginView</text>
</a>
</g>
</g>
<!-- Node4&#45;&gt;Node5 -->
<g id="edge23_Node000004_Node000005" class="edge">
<title>Node4&#45;&gt;Node5</title>
<g id="a_edge23_Node000004_Node000005"><a xlink:title=" ">
<path fill="none" stroke="#63b8ff" d="M101.01,-163.57C132.39,-157.79 182.62,-148.54 220.63,-141.55"/>
<polygon fill="#63b8ff" stroke="#63b8ff" points="100.34,-160.13 91.14,-165.38 101.61,-167.02 100.34,-160.13"/>
</a>
</g>
</g>
<!-- Node6 -->
<g id="Node000006" class="node">
<title>Node6</title>
<g id="a_Node000006"><a xlink:href="classapi_1_1views_1_1auth_1_1APISignupView.html" target="_top" xlink:title=" ">
<polygon fill="white" stroke="#666666" points="355.5,-104.5 191.5,-104.5 191.5,-85.5 355.5,-85.5 355.5,-104.5"/>
<text text-anchor="middle" x="273.5" y="-92.5" font-family="Helvetica,sans-Serif" font-size="10.00">api.views.auth.APISignupView</text>
</a>
</g>
</g>
<!-- Node4&#45;&gt;Node6 -->
<g id="edge24_Node000004_Node000006" class="edge">
<title>Node4&#45;&gt;Node6</title>
<g id="a_edge24_Node000004_Node000006"><a xlink:title=" ">
<path fill="none" stroke="#63b8ff" d="M94.96,-153.88C115.74,-141.16 147.3,-123.41 177,-113 186.63,-109.62 197.05,-106.84 207.33,-104.55"/>
<polygon fill="#63b8ff" stroke="#63b8ff" points="92.85,-151.07 86.22,-159.33 96.55,-157.01 92.85,-151.07"/>
</a>
</g>
</g>
<!-- Node8 -->
<g id="Node000008" class="node">
<title>Node8</title>
<g id="a_Node000008"><a xlink:href="classapi_1_1views_1_1cart_1_1CartView.html" target="_top" xlink:title=" ">
<polygon fill="white" stroke="#666666" points="339.5,-67.5 207.5,-67.5 207.5,-48.5 339.5,-48.5 339.5,-67.5"/>
<text text-anchor="middle" x="273.5" y="-55.5" font-family="Helvetica,sans-Serif" font-size="10.00">api.views.cart.CartView</text>
</a>
</g>
</g>
<!-- Node4&#45;&gt;Node8 -->
<g id="edge27_Node000004_Node000008" class="edge">
<title>Node4&#45;&gt;Node8</title>
<g id="a_edge27_Node000004_Node000008"><a xlink:title=" ">
<path fill="none" stroke="#63b8ff" d="M85.89,-151.54C104.55,-130.14 139.23,-94.45 177,-76 186.4,-71.41 196.85,-67.99 207.28,-65.43"/>
<polygon fill="#63b8ff" stroke="#63b8ff" points="83.15,-149.35 79.33,-159.24 88.48,-153.89 83.15,-149.35"/>
</a>
</g>
</g>
<!-- Node9 -->
<g id="Node000009" class="node">
<title>Node9</title>
<g id="a_Node000009"><a xlink:href="classapi_1_1views_1_1checkout_1_1APIBillingAddress.html" target="_top" xlink:title=" ">
<polygon fill="white" stroke="#666666" points="353,-30 194,-30 194,0 353,0 353,-30"/>
<text text-anchor="start" x="202" y="-18" font-family="Helvetica,sans-Serif" font-size="10.00">api.views.checkout.APIBilling</text>
<text text-anchor="middle" x="273.5" y="-7" font-family="Helvetica,sans-Serif" font-size="10.00">Address</text>
</a>
</g>
</g>
<!-- Node4&#45;&gt;Node9 -->
<g id="edge28_Node000004_Node000009" class="edge">
<title>Node4&#45;&gt;Node9</title>
<g id="a_edge28_Node000004_Node000009"><a xlink:title=" ">
<path fill="none" stroke="#63b8ff" d="M81.3,-150.47C97.37,-121.96 132.06,-67.66 177,-39 182.33,-35.6 188.12,-32.68 194.12,-30.17"/>
<polygon fill="#63b8ff" stroke="#63b8ff" points="78.15,-148.94 76.41,-159.39 84.29,-152.31 78.15,-148.94"/>
</a>
</g>
</g>
<!-- Node10 -->
<g id="Node000010" class="node">
<title>Node10</title>
<g id="a_Node000010"><a xlink:href="classapi_1_1views_1_1medicine_1_1APIDetailView.html" target="_top" xlink:title=" ">
<polygon fill="white" stroke="#666666" points="365,-252.5 182,-252.5 182,-233.5 365,-233.5 365,-252.5"/>
<text text-anchor="middle" x="273.5" y="-240.5" font-family="Helvetica,sans-Serif" font-size="10.00">api.views.medicine.APIDetailView</text>
</a>
</g>
</g>
<!-- Node4&#45;&gt;Node10 -->
<g id="edge29_Node000004_Node000010" class="edge">
<title>Node4&#45;&gt;Node10</title>
<g id="a_edge29_Node000004_Node000010"><a xlink:title=" ">
<path fill="none" stroke="#63b8ff" d="M95.38,-183.97C116.21,-196.39 147.6,-213.65 177,-224 187.84,-227.82 199.66,-230.95 211.18,-233.49"/>
<polygon fill="#63b8ff" stroke="#63b8ff" points="96.97,-180.84 86.6,-178.64 93.34,-186.82 96.97,-180.84"/>
</a>
</g>
</g>
<!-- Node11 -->
<g id="Node000011" class="node">
<title>Node11</title>
<g id="a_Node000011"><a xlink:href="classapi_1_1views_1_1medicine_1_1MedicineView.html" target="_top" xlink:title=" ">
<polygon fill="white" stroke="#666666" points="364.5,-215.5 182.5,-215.5 182.5,-196.5 364.5,-196.5 364.5,-215.5"/>
<text text-anchor="middle" x="273.5" y="-203.5" font-family="Helvetica,sans-Serif" font-size="10.00">api.views.medicine.MedicineView</text>
</a>
</g>
</g>
<!-- Node4&#45;&gt;Node11 -->
<g id="edge30_Node000004_Node000011" class="edge">
<title>Node4&#45;&gt;Node11</title>
<g id="a_edge30_Node000004_Node000011"><a xlink:title=" ">
<path fill="none" stroke="#63b8ff" d="M101.01,-174.43C132.39,-180.21 182.62,-189.46 220.63,-196.45"/>
<polygon fill="#63b8ff" stroke="#63b8ff" points="101.61,-170.98 91.14,-172.62 100.34,-177.87 101.61,-170.98"/>
</a>
</g>
</g>
<!-- Node12 -->
<g id="Node000012" class="node">
<title>Node12</title>
<g id="a_Node000012"><a xlink:href="classapi_1_1views_1_1order_1_1OrderView.html" target="_top" xlink:title=" ">
<polygon fill="white" stroke="#666666" points="346,-178.5 201,-178.5 201,-159.5 346,-159.5 346,-178.5"/>
<text text-anchor="middle" x="273.5" y="-166.5" font-family="Helvetica,sans-Serif" font-size="10.00">api.views.order.OrderView</text>
</a>
</g>
</g>
<!-- Node4&#45;&gt;Node12 -->
<g id="edge31_Node000004_Node000012" class="edge">
<title>Node4&#45;&gt;Node12</title>
<g id="a_edge31_Node000004_Node000012"><a xlink:title=" ">
<path fill="none" stroke="#63b8ff" d="M101.16,-169C127.32,-169 166.49,-169 200.79,-169"/>
<polygon fill="#63b8ff" stroke="#63b8ff" points="101.14,-165.5 91.14,-169 101.14,-172.5 101.14,-165.5"/>
</a>
</g>
</g>
<!-- Node20 -->
<g id="Node000020" class="node">
<title>Node20</title>
<g id="a_Node000020"><a xlink:title=" ">
<polygon fill="#e0e0e0" stroke="#999999" points="91,-400.5 50,-400.5 50,-381.5 91,-381.5 91,-400.5"/>
<text text-anchor="middle" x="70.5" y="-388.5" font-family="Helvetica,sans-Serif" font-size="10.00">View</text>
</a>
</g>
</g>
<!-- Node20&#45;&gt;Node18 -->
<g id="edge33_Node000020_Node000018" class="edge">
<title>Node20&#45;&gt;Node18</title>
<g id="a_edge33_Node000020_Node000018"><a xlink:title=" ">
<path fill="none" stroke="#63b8ff" d="M101.39,-391C123.23,-391 154.06,-391 183.55,-391"/>
<polygon fill="#63b8ff" stroke="#63b8ff" points="101.14,-387.5 91.14,-391 101.14,-394.5 101.14,-387.5"/>
</a>
</g>
</g>
<!-- Node20&#45;&gt;Node22 -->
<g id="edge34_Node000020_Node000022" class="edge">
<title>Node20&#45;&gt;Node22</title>
<g id="a_edge34_Node000020_Node000022"><a xlink:title=" ">
<path fill="none" stroke="#63b8ff" d="M101.01,-396.43C132.39,-402.21 182.62,-411.46 220.63,-418.45"/>
<polygon fill="#63b8ff" stroke="#63b8ff" points="101.61,-392.98 91.14,-394.62 100.34,-399.87 101.61,-392.98"/>
</a>
</g>
</g>
<!-- Node21 -->
<g id="Node000021" class="node">
<title>Node21</title>
<g id="a_Node000021"><a xlink:href="classhome_1_1views_1_1HomeView.html" target="_top" xlink:title=" ">
<polygon fill="white" stroke="#666666" points="339.5,-326.5 207.5,-326.5 207.5,-307.5 339.5,-307.5 339.5,-326.5"/>
<text text-anchor="middle" x="273.5" y="-314.5" font-family="Helvetica,sans-Serif" font-size="10.00">home.views.HomeView</text>
</a>
</g>
</g>
<!-- Node20&#45;&gt;Node21 -->
<g id="edge32_Node000020_Node000021" class="edge">
<title>Node20&#45;&gt;Node21</title>
<g id="a_edge32_Node000020_Node000021"><a xlink:title=" ">
<path fill="none" stroke="#63b8ff" d="M101.37,-386.96C114.19,-384.31 128.96,-379.99 141,-373 160.84,-361.48 156.84,-346.95 177,-336 186.36,-330.92 196.89,-327.18 207.46,-324.44"/>
<polygon fill="#63b8ff" stroke="#63b8ff" points="100.38,-383.58 91.16,-388.81 101.62,-390.47 100.38,-383.58"/>
</a>
</g>
</g>
</g>
</svg>
