<?xml version="1.0" encoding="UTF-8" standalone="no"?>
<!DOCTYPE svg PUBLIC "-//W3C//DTD SVG 1.1//EN"
 "http://www.w3.org/Graphics/SVG/1.1/DTD/svg11.dtd">
<!-- Generated by graphviz version 2.43.0 (0)
 -->
<!-- Title: Graphical Class Hierarchy Pages: 1 -->
<svg width="275pt" height="224pt"
 viewBox="0.00 0.00 275.00 223.50" xmlns="http://www.w3.org/2000/svg" xmlns:xlink="http://www.w3.org/1999/xlink">
<g id="graph0" class="graph" transform="scale(1 1) rotate(0) translate(4 219.5)">
<title>Graphical Class Hierarchy</title>
<!-- Node0 -->
<g id="Node000000" class="node">
<title>Node0</title>
<g id="a_Node000000"><a xlink:title=" ">
<polygon fill="#e0e0e0" stroke="#999999" points="66,-122.5 0,-122.5 0,-103.5 66,-103.5 66,-122.5"/>
<text text-anchor="middle" x="33" y="-110.5" font-family="Helvetica,sans-Serif" font-size="10.00">AppConfig</text>
</a>
</g>
</g>
<!-- Node1 -->
<g id="Node000001" class="node">
<title>Node1</title>
<g id="a_Node000001"><a xlink:href="classaccounts_1_1apps_1_1AccountsConfig.html" target="_top" xlink:title=" ">
<polygon fill="white" stroke="#666666" points="266.5,-215.5 102.5,-215.5 102.5,-196.5 266.5,-196.5 266.5,-215.5"/>
<text text-anchor="middle" x="184.5" y="-203.5" font-family="Helvetica,sans-Serif" font-size="10.00">accounts.apps.AccountsConfig</text>
</a>
</g>
</g>
<!-- Node0&#45;&gt;Node1 -->
<g id="edge2_Node000000_Node000001" class="edge">
<title>Node0&#45;&gt;Node1</title>
<g id="a_edge2_Node000000_Node000001"><a xlink:title=" ">
<path fill="none" stroke="#63b8ff" d="M45.56,-131.22C57.55,-148.56 77.89,-174.01 102,-188 107.89,-191.42 114.36,-194.19 121.01,-196.43"/>
<polygon fill="#63b8ff" stroke="#63b8ff" points="48.25,-128.94 39.8,-122.55 42.42,-132.82 48.25,-128.94"/>
</a>
</g>
</g>
<!-- Node2 -->
<g id="Node000002" class="node">
<title>Node2</title>
<g id="a_Node000002"><a xlink:href="classapi_1_1apps_1_1ApiConfig.html" target="_top" xlink:title=" ">
<polygon fill="white" stroke="#666666" points="238,-178.5 131,-178.5 131,-159.5 238,-159.5 238,-178.5"/>
<text text-anchor="middle" x="184.5" y="-166.5" font-family="Helvetica,sans-Serif" font-size="10.00">api.apps.ApiConfig</text>
</a>
</g>
</g>
<!-- Node0&#45;&gt;Node2 -->
<g id="edge3_Node000000_Node000002" class="edge">
<title>Node0&#45;&gt;Node2</title>
<g id="a_edge3_Node000000_Node000002"><a xlink:title=" ">
<path fill="none" stroke="#63b8ff" d="M56.87,-128C69.69,-135.83 86.23,-145 102,-151 111.07,-154.45 120.98,-157.33 130.66,-159.7"/>
<polygon fill="#63b8ff" stroke="#63b8ff" points="58.58,-124.94 48.25,-122.6 54.87,-130.87 58.58,-124.94"/>
</a>
</g>
</g>
<!-- Node3 -->
<g id="Node000003" class="node">
<title>Node3</title>
<g id="a_Node000003"><a xlink:href="classcart_1_1apps_1_1CartConfig.html" target="_top" xlink:title=" ">
<polygon fill="white" stroke="#666666" points="242.5,-141.5 126.5,-141.5 126.5,-122.5 242.5,-122.5 242.5,-141.5"/>
<text text-anchor="middle" x="184.5" y="-129.5" font-family="Helvetica,sans-Serif" font-size="10.00">cart.apps.CartConfig</text>
</a>
</g>
</g>
<!-- Node0&#45;&gt;Node3 -->
<g id="edge4_Node000000_Node000003" class="edge">
<title>Node0&#45;&gt;Node3</title>
<g id="a_edge4_Node000000_Node000003"><a xlink:title=" ">
<path fill="none" stroke="#63b8ff" d="M76.42,-118.39C91.97,-120.37 109.82,-122.64 126.44,-124.75"/>
<polygon fill="#63b8ff" stroke="#63b8ff" points="76.43,-114.86 66.07,-117.08 75.55,-121.81 76.43,-114.86"/>
</a>
</g>
</g>
<!-- Node4 -->
<g id="Node000004" class="node">
<title>Node4</title>
<g id="a_Node000004"><a xlink:href="classcheckout_1_1apps_1_1CheckoutConfig.html" target="_top" xlink:title=" ">
<polygon fill="white" stroke="#666666" points="267,-104.5 102,-104.5 102,-85.5 267,-85.5 267,-104.5"/>
<text text-anchor="middle" x="184.5" y="-92.5" font-family="Helvetica,sans-Serif" font-size="10.00">checkout.apps.CheckoutConfig</text>
</a>
</g>
</g>
<!-- Node0&#45;&gt;Node4 -->
<g id="edge5_Node000000_Node000004" class="edge">
<title>Node0&#45;&gt;Node4</title>
<g id="a_edge5_Node000000_Node000004"><a xlink:title=" ">
<path fill="none" stroke="#63b8ff" d="M76.13,-107.93C85.04,-106.85 94.71,-105.69 104.48,-104.51"/>
<polygon fill="#63b8ff" stroke="#63b8ff" points="75.58,-104.47 66.07,-109.14 76.42,-111.42 75.58,-104.47"/>
</a>
</g>
</g>
<!-- Node5 -->
<g id="Node000005" class="node">
<title>Node5</title>
<g id="a_Node000005"><a xlink:href="classhome_1_1apps_1_1HomeConfig.html" target="_top" xlink:title=" ">
<polygon fill="white" stroke="#666666" points="251.5,-67.5 117.5,-67.5 117.5,-48.5 251.5,-48.5 251.5,-67.5"/>
<text text-anchor="middle" x="184.5" y="-55.5" font-family="Helvetica,sans-Serif" font-size="10.00">home.apps.HomeConfig</text>
</a>
</g>
</g>
<!-- Node0&#45;&gt;Node5 -->
<g id="edge6_Node000000_Node000005" class="edge">
<title>Node0&#45;&gt;Node5</title>
<g id="a_edge6_Node000000_Node000005"><a xlink:title=" ">
<path fill="none" stroke="#63b8ff" d="M58.37,-98.13C71.02,-90.92 86.95,-82.63 102,-77 111.93,-73.28 122.83,-70.14 133.33,-67.55"/>
<polygon fill="#63b8ff" stroke="#63b8ff" points="56.27,-95.3 49.4,-103.37 59.8,-101.35 56.27,-95.3"/>
</a>
</g>
</g>
<!-- Node6 -->
<g id="Node000006" class="node">
<title>Node6</title>
<g id="a_Node000006"><a xlink:href="classmedicines_1_1apps_1_1MedicinesConfig.html" target="_top" xlink:title=" ">
<polygon fill="white" stroke="#666666" points="257.5,-30 111.5,-30 111.5,0 257.5,0 257.5,-30"/>
<text text-anchor="start" x="119.5" y="-18" font-family="Helvetica,sans-Serif" font-size="10.00">medicines.apps.Medicines</text>
<text text-anchor="middle" x="184.5" y="-7" font-family="Helvetica,sans-Serif" font-size="10.00">Config</text>
</a>
</g>
</g>
<!-- Node0&#45;&gt;Node6 -->
<g id="edge7_Node000000_Node000006" class="edge">
<title>Node0&#45;&gt;Node6</title>
<g id="a_edge7_Node000000_Node000006"><a xlink:title=" ">
<path fill="none" stroke="#63b8ff" d="M46.32,-95.14C58.61,-78.6 78.96,-54.42 102,-40 108.15,-36.15 114.93,-32.86 121.87,-30.06"/>
<polygon fill="#63b8ff" stroke="#63b8ff" points="43.34,-93.28 40.35,-103.44 49.03,-97.37 43.34,-93.28"/>
</a>
</g>
</g>
</g>
</svg>
