<?xml version="1.0" encoding="UTF-8" standalone="no"?>
<!DOCTYPE svg PUBLIC "-//W3C//DTD SVG 1.1//EN"
 "http://www.w3.org/Graphics/SVG/1.1/DTD/svg11.dtd">
<!-- Generated by graphviz version 2.43.0 (0)
 -->
<!-- Title: Graphical Class Hierarchy Pages: 1 -->
<svg width="302pt" height="249pt"
 viewBox="0.00 0.00 302.00 249.00" xmlns="http://www.w3.org/2000/svg" xmlns:xlink="http://www.w3.org/1999/xlink">
<g id="graph0" class="graph" transform="scale(1 1) rotate(0) translate(4 245)">
<title>Graphical Class Hierarchy</title>
<!-- Node0 -->
<g id="Node000000" class="node">
<title>Node0</title>
<g id="a_Node000000"><a xlink:title=" ">
<polygon fill="#e0e0e0" stroke="#999999" points="86,-130 0,-130 0,-111 86,-111 86,-130"/>
<text text-anchor="middle" x="43" y="-118" font-family="Helvetica,sans-Serif" font-size="10.00">models.Model</text>
</a>
</g>
</g>
<!-- Node1 -->
<g id="Node000001" class="node">
<title>Node1</title>
<g id="a_Node000001"><a xlink:href="classaccounts_1_1models_1_1SellerProfile.html" target="_top" xlink:title=" ">
<polygon fill="white" stroke="#666666" points="288.5,-241 127.5,-241 127.5,-222 288.5,-222 288.5,-241"/>
<text text-anchor="middle" x="208" y="-229" font-family="Helvetica,sans-Serif" font-size="10.00">accounts.models.SellerProfile</text>
</a>
</g>
</g>
<!-- Node0&#45;&gt;Node1 -->
<g id="edge95_Node000000_Node000001" class="edge">
<title>Node0&#45;&gt;Node1</title>
<g id="a_edge95_Node000000_Node000001"><a xlink:title=" ">
<path fill="none" stroke="#63b8ff" d="M54.3,-139.03C67.23,-160.47 91.45,-195.15 122,-213.5 127.69,-216.92 133.93,-219.69 140.38,-221.94"/>
<polygon fill="#63b8ff" stroke="#63b8ff" points="57.23,-137.1 49.17,-130.22 51.18,-140.62 57.23,-137.1"/>
</a>
</g>
</g>
<!-- Node2 -->
<g id="Node000002" class="node">
<title>Node2</title>
<g id="a_Node000002"><a xlink:href="classaccounts_1_1models_1_1UserProfile.html" target="_top" xlink:title=" ">
<polygon fill="white" stroke="#666666" points="285.5,-204 130.5,-204 130.5,-185 285.5,-185 285.5,-204"/>
<text text-anchor="middle" x="208" y="-192" font-family="Helvetica,sans-Serif" font-size="10.00">accounts.models.UserProfile</text>
</a>
</g>
</g>
<!-- Node0&#45;&gt;Node2 -->
<g id="edge96_Node000000_Node000002" class="edge">
<title>Node0&#45;&gt;Node2</title>
<g id="a_edge96_Node000000_Node000002"><a xlink:title=" ">
<path fill="none" stroke="#63b8ff" d="M62.15,-136.9C77.15,-149.58 99.56,-166.6 122,-176.5 129.73,-179.91 138.14,-182.69 146.57,-184.95"/>
<polygon fill="#63b8ff" stroke="#63b8ff" points="64.07,-133.93 54.23,-130.02 59.48,-139.22 64.07,-133.93"/>
</a>
</g>
</g>
<!-- Node3 -->
<g id="Node000003" class="node">
<title>Node3</title>
<g id="a_Node000003"><a xlink:href="classcart_1_1models_1_1CartItem.html" target="_top" xlink:title=" ">
<polygon fill="white" stroke="#666666" points="268,-167 148,-167 148,-148 268,-148 268,-167"/>
<text text-anchor="middle" x="208" y="-155" font-family="Helvetica,sans-Serif" font-size="10.00">cart.models.CartItem</text>
</a>
</g>
</g>
<!-- Node0&#45;&gt;Node3 -->
<g id="edge97_Node000000_Node000003" class="edge">
<title>Node0&#45;&gt;Node3</title>
<g id="a_edge97_Node000000_Node000003"><a xlink:title=" ">
<path fill="none" stroke="#63b8ff" d="M91.8,-132.38C101.76,-134.8 112.22,-137.27 122,-139.5 134.5,-142.35 148.07,-145.29 160.62,-147.94"/>
<polygon fill="#63b8ff" stroke="#63b8ff" points="92.58,-128.97 82.03,-130.01 90.92,-135.77 92.58,-128.97"/>
</a>
</g>
</g>
<!-- Node4 -->
<g id="Node000004" class="node">
<title>Node4</title>
<g id="a_Node000004"><a xlink:href="classcart_1_1models_1_1Order.html" target="_top" xlink:title=" ">
<polygon fill="white" stroke="#666666" points="260,-130 156,-130 156,-111 260,-111 260,-130"/>
<text text-anchor="middle" x="208" y="-118" font-family="Helvetica,sans-Serif" font-size="10.00">cart.models.Order</text>
</a>
</g>
</g>
<!-- Node0&#45;&gt;Node4 -->
<g id="edge98_Node000000_Node000004" class="edge">
<title>Node0&#45;&gt;Node4</title>
<g id="a_edge98_Node000000_Node000004"><a xlink:title=" ">
<path fill="none" stroke="#63b8ff" d="M96.66,-120.5C115.62,-120.5 136.97,-120.5 155.81,-120.5"/>
<polygon fill="#63b8ff" stroke="#63b8ff" points="96.4,-117 86.4,-120.5 96.4,-124 96.4,-117"/>
</a>
</g>
</g>
<!-- Node5 -->
<g id="Node000005" class="node">
<title>Node5</title>
<g id="a_Node000005"><a xlink:href="classcheckout_1_1models_1_1BillingAddress.html" target="_top" xlink:title=" ">
<polygon fill="white" stroke="#666666" points="294,-93 122,-93 122,-74 294,-74 294,-93"/>
<text text-anchor="middle" x="208" y="-81" font-family="Helvetica,sans-Serif" font-size="10.00">checkout.models.BillingAddress</text>
</a>
</g>
</g>
<!-- Node0&#45;&gt;Node5 -->
<g id="edge99_Node000000_Node000005" class="edge">
<title>Node0&#45;&gt;Node5</title>
<g id="a_edge99_Node000000_Node000005"><a xlink:title=" ">
<path fill="none" stroke="#63b8ff" d="M95.2,-108.63C104.13,-106.58 113.33,-104.47 122,-102.5 135.71,-99.39 150.68,-96.03 164.18,-93.01"/>
<polygon fill="#63b8ff" stroke="#63b8ff" points="94.24,-105.26 85.28,-110.92 95.81,-112.08 94.24,-105.26"/>
</a>
</g>
</g>
<!-- Node6 -->
<g id="Node000006" class="node">
<title>Node6</title>
<g id="a_Node000006"><a xlink:href="classmedicines_1_1models_1_1MedCat.html" target="_top" xlink:title=" ">
<polygon fill="white" stroke="#666666" points="281,-56 135,-56 135,-37 281,-37 281,-56"/>
<text text-anchor="middle" x="208" y="-44" font-family="Helvetica,sans-Serif" font-size="10.00">medicines.models.MedCat</text>
</a>
</g>
</g>
<!-- Node0&#45;&gt;Node6 -->
<g id="edge100_Node000000_Node000006" class="edge">
<title>Node0&#45;&gt;Node6</title>
<g id="a_edge100_Node000000_Node000006"><a xlink:title=" ">
<path fill="none" stroke="#63b8ff" d="M62.75,-104.05C77.79,-91.69 99.96,-75.26 122,-65.5 130.71,-61.64 140.28,-58.53 149.76,-56.03"/>
<polygon fill="#63b8ff" stroke="#63b8ff" points="60.15,-101.66 54.77,-110.78 64.67,-107.01 60.15,-101.66"/>
</a>
</g>
</g>
<!-- Node7 -->
<g id="Node000007" class="node">
<title>Node7</title>
<g id="a_Node000007"><a xlink:href="classmedicines_1_1models_1_1Medicine.html" target="_top" xlink:title=" ">
<polygon fill="white" stroke="#666666" points="284.5,-19 131.5,-19 131.5,0 284.5,0 284.5,-19"/>
<text text-anchor="middle" x="208" y="-7" font-family="Helvetica,sans-Serif" font-size="10.00">medicines.models.Medicine</text>
</a>
</g>
</g>
<!-- Node0&#45;&gt;Node7 -->
<g id="edge101_Node000000_Node000007" class="edge">
<title>Node0&#45;&gt;Node7</title>
<g id="a_edge101_Node000000_Node000007"><a xlink:title=" ">
<path fill="none" stroke="#63b8ff" d="M54.39,-102.23C67.39,-81.08 91.7,-46.82 122,-28.5 128.47,-24.59 135.66,-21.48 143.03,-19.01"/>
<polygon fill="#63b8ff" stroke="#63b8ff" points="51.32,-100.53 49.22,-110.92 57.34,-104.11 51.32,-100.53"/>
</a>
</g>
</g>
</g>
</svg>
