<?xml version="1.0" encoding="UTF-8" standalone="no"?>
<!DOCTYPE svg PUBLIC "-//W3C//DTD SVG 1.1//EN"
 "http://www.w3.org/Graphics/SVG/1.1/DTD/svg11.dtd">
<!-- Generated by graphviz version 2.43.0 (0)
 -->
<!-- Title: Graphical Class Hierarchy Pages: 1 -->
<svg width="256pt" height="391pt"
 viewBox="0.00 0.00 256.00 390.50" xmlns="http://www.w3.org/2000/svg" xmlns:xlink="http://www.w3.org/1999/xlink">
<g id="graph0" class="graph" transform="scale(1 1) rotate(0) translate(4 386.5)">
<title>Graphical Class Hierarchy</title>
<!-- Node0 -->
<g id="Node000000" class="node">
<title>Node0</title>
<g id="a_Node000000"><a xlink:title=" ">
<polygon fill="#e0e0e0" stroke="#999999" points="60,-201 0,-201 0,-182 60,-182 60,-201"/>
<text text-anchor="middle" x="30" y="-189" font-family="Helvetica,sans-Serif" font-size="10.00">TestCase</text>
</a>
</g>
</g>
<!-- Node1 -->
<g id="Node000001" class="node">
<title>Node1</title>
<g id="a_Node000001"><a xlink:href="classapi_1_1tests_1_1test__auth_1_1ProfileTestCase.html" target="_top" xlink:title=" ">
<polygon fill="white" stroke="#666666" points="242.5,-382.5 101.5,-382.5 101.5,-352.5 242.5,-352.5 242.5,-382.5"/>
<text text-anchor="start" x="109.5" y="-370.5" font-family="Helvetica,sans-Serif" font-size="10.00">api.tests.test_auth.Profile</text>
<text text-anchor="middle" x="172" y="-359.5" font-family="Helvetica,sans-Serif" font-size="10.00">TestCase</text>
</a>
</g>
</g>
<!-- Node0&#45;&gt;Node1 -->
<g id="edge107_Node000000_Node000001" class="edge">
<title>Node0&#45;&gt;Node1</title>
<g id="a_edge107_Node000000_Node000001"><a xlink:title=" ">
<path fill="none" stroke="#63b8ff" d="M34.06,-211.29C40.08,-243.57 56.5,-307.56 96,-343.5 99.74,-346.9 103.97,-349.83 108.46,-352.33"/>
<polygon fill="#63b8ff" stroke="#63b8ff" points="37.48,-210.55 32.34,-201.29 30.59,-211.74 37.48,-210.55"/>
</a>
</g>
</g>
<!-- Node2 -->
<g id="Node000002" class="node">
<title>Node2</title>
<g id="a_Node000002"><a xlink:href="classapi_1_1tests_1_1test__auth_1_1TestLoginLogout.html" target="_top" xlink:title=" ">
<polygon fill="white" stroke="#666666" points="237,-334.5 107,-334.5 107,-304.5 237,-304.5 237,-334.5"/>
<text text-anchor="start" x="115" y="-322.5" font-family="Helvetica,sans-Serif" font-size="10.00">api.tests.test_auth.Test</text>
<text text-anchor="middle" x="172" y="-311.5" font-family="Helvetica,sans-Serif" font-size="10.00">LoginLogout</text>
</a>
</g>
</g>
<!-- Node0&#45;&gt;Node2 -->
<g id="edge108_Node000000_Node000002" class="edge">
<title>Node0&#45;&gt;Node2</title>
<g id="a_edge108_Node000000_Node000002"><a xlink:title=" ">
<path fill="none" stroke="#63b8ff" d="M38.11,-210.6C47.75,-233.93 67.14,-273.06 96,-295.5 100.42,-298.94 105.36,-301.9 110.52,-304.43"/>
<polygon fill="#63b8ff" stroke="#63b8ff" points="41.3,-209.13 34.37,-201.11 34.78,-211.7 41.3,-209.13"/>
</a>
</g>
</g>
<!-- Node3 -->
<g id="Node000003" class="node">
<title>Node3</title>
<g id="a_Node000003"><a xlink:href="classapi_1_1tests_1_1test__auth_1_1TestSellerViews.html" target="_top" xlink:title=" ">
<polygon fill="white" stroke="#666666" points="237,-286.5 107,-286.5 107,-256.5 237,-256.5 237,-286.5"/>
<text text-anchor="start" x="115" y="-274.5" font-family="Helvetica,sans-Serif" font-size="10.00">api.tests.test_auth.Test</text>
<text text-anchor="middle" x="172" y="-263.5" font-family="Helvetica,sans-Serif" font-size="10.00">SellerViews</text>
</a>
</g>
</g>
<!-- Node0&#45;&gt;Node3 -->
<g id="edge109_Node000000_Node000003" class="edge">
<title>Node0&#45;&gt;Node3</title>
<g id="a_edge109_Node000000_Node000003"><a xlink:title=" ">
<path fill="none" stroke="#63b8ff" d="M47.02,-208.59C59.38,-220.9 77.45,-237.11 96,-247.5 101.96,-250.84 108.46,-253.79 115.05,-256.38"/>
<polygon fill="#63b8ff" stroke="#63b8ff" points="49.26,-205.87 39.77,-201.16 44.25,-210.76 49.26,-205.87"/>
</a>
</g>
</g>
<!-- Node4 -->
<g id="Node000004" class="node">
<title>Node4</title>
<g id="a_Node000004"><a xlink:href="classapi_1_1tests_1_1test__cart_1_1TestCart.html" target="_top" xlink:title=" ">
<polygon fill="white" stroke="#666666" points="245.5,-238 98.5,-238 98.5,-219 245.5,-219 245.5,-238"/>
<text text-anchor="middle" x="172" y="-226" font-family="Helvetica,sans-Serif" font-size="10.00">api.tests.test_cart.TestCart</text>
</a>
</g>
</g>
<!-- Node0&#45;&gt;Node4 -->
<g id="edge110_Node000000_Node000004" class="edge">
<title>Node0&#45;&gt;Node4</title>
<g id="a_edge110_Node000000_Node000004"><a xlink:title=" ">
<path fill="none" stroke="#63b8ff" d="M69.84,-203.19C78.43,-205.68 87.51,-208.24 96,-210.5 106.87,-213.39 118.68,-216.32 129.65,-218.96"/>
<polygon fill="#63b8ff" stroke="#63b8ff" points="70.62,-199.77 60.04,-200.32 68.65,-206.49 70.62,-199.77"/>
</a>
</g>
</g>
<!-- Node5 -->
<g id="Node000005" class="node">
<title>Node5</title>
<g id="a_Node000005"><a xlink:href="classapi_1_1tests_1_1test__checkout_1_1Test.html" target="_top" xlink:title=" ">
<polygon fill="white" stroke="#666666" points="248,-201 96,-201 96,-182 248,-182 248,-201"/>
<text text-anchor="middle" x="172" y="-189" font-family="Helvetica,sans-Serif" font-size="10.00">api.tests.test_checkout.Test</text>
</a>
</g>
</g>
<!-- Node0&#45;&gt;Node5 -->
<g id="edge111_Node000000_Node000005" class="edge">
<title>Node0&#45;&gt;Node5</title>
<g id="a_edge111_Node000000_Node000005"><a xlink:title=" ">
<path fill="none" stroke="#63b8ff" d="M70.16,-191.5C78.22,-191.5 86.96,-191.5 95.81,-191.5"/>
<polygon fill="#63b8ff" stroke="#63b8ff" points="70.01,-188 60.01,-191.5 70.01,-195 70.01,-188"/>
</a>
</g>
</g>
<!-- Node6 -->
<g id="Node000006" class="node">
<title>Node6</title>
<g id="a_Node000006"><a xlink:href="classapi_1_1tests_1_1test__checkout_1_1TestBillingAddress.html" target="_top" xlink:title=" ">
<polygon fill="white" stroke="#666666" points="238,-163.5 106,-163.5 106,-133.5 238,-133.5 238,-163.5"/>
<text text-anchor="start" x="114" y="-151.5" font-family="Helvetica,sans-Serif" font-size="10.00">api.tests.test_checkout.</text>
<text text-anchor="middle" x="172" y="-140.5" font-family="Helvetica,sans-Serif" font-size="10.00">TestBillingAddress</text>
</a>
</g>
</g>
<!-- Node0&#45;&gt;Node6 -->
<g id="edge112_Node000000_Node000006" class="edge">
<title>Node0&#45;&gt;Node6</title>
<g id="a_edge112_Node000000_Node000006"><a xlink:title=" ">
<path fill="none" stroke="#63b8ff" d="M69.66,-179.62C85.82,-174.66 104.78,-168.84 121.9,-163.58"/>
<polygon fill="#63b8ff" stroke="#63b8ff" points="68.54,-176.31 60.01,-182.59 70.6,-183 68.54,-176.31"/>
</a>
</g>
</g>
<!-- Node7 -->
<g id="Node000007" class="node">
<title>Node7</title>
<g id="a_Node000007"><a xlink:href="classapi_1_1tests_1_1test__medicine_1_1TestMedViews.html" target="_top" xlink:title=" ">
<polygon fill="white" stroke="#666666" points="239,-115.5 105,-115.5 105,-85.5 239,-85.5 239,-115.5"/>
<text text-anchor="start" x="113" y="-103.5" font-family="Helvetica,sans-Serif" font-size="10.00">api.tests.test_medicine.</text>
<text text-anchor="middle" x="172" y="-92.5" font-family="Helvetica,sans-Serif" font-size="10.00">TestMedViews</text>
</a>
</g>
</g>
<!-- Node0&#45;&gt;Node7 -->
<g id="edge113_Node000000_Node000007" class="edge">
<title>Node0&#45;&gt;Node7</title>
<g id="a_edge113_Node000000_Node000007"><a xlink:title=" ">
<path fill="none" stroke="#63b8ff" d="M44.07,-173.78C56.04,-158.71 75.05,-137.5 96,-124.5 101.46,-121.11 107.44,-118.16 113.57,-115.6"/>
<polygon fill="#63b8ff" stroke="#63b8ff" points="41.19,-171.78 37.87,-181.84 46.74,-176.05 41.19,-171.78"/>
</a>
</g>
</g>
<!-- Node8 -->
<g id="Node000008" class="node">
<title>Node8</title>
<g id="a_Node000008"><a xlink:href="classapi_1_1tests_1_1test__order_1_1TestOrderView.html" target="_top" xlink:title=" ">
<polygon fill="white" stroke="#666666" points="238.5,-67.5 105.5,-67.5 105.5,-37.5 238.5,-37.5 238.5,-67.5"/>
<text text-anchor="start" x="113.5" y="-55.5" font-family="Helvetica,sans-Serif" font-size="10.00">api.tests.test_order.Test</text>
<text text-anchor="middle" x="172" y="-44.5" font-family="Helvetica,sans-Serif" font-size="10.00">OrderView</text>
</a>
</g>
</g>
<!-- Node0&#45;&gt;Node8 -->
<g id="edge114_Node000000_Node000008" class="edge">
<title>Node0&#45;&gt;Node8</title>
<g id="a_edge114_Node000000_Node000008"><a xlink:title=" ">
<path fill="none" stroke="#63b8ff" d="M36.92,-172.24C45.74,-146.71 64.71,-101.96 96,-76.5 100.24,-73.05 104.99,-70.09 109.98,-67.55"/>
<polygon fill="#63b8ff" stroke="#63b8ff" points="33.55,-171.29 33.76,-181.89 40.2,-173.47 33.55,-171.29"/>
</a>
</g>
</g>
<!-- Node9 -->
<g id="Node000009" class="node">
<title>Node9</title>
<g id="a_Node000009"><a xlink:href="classcart_1_1tests_1_1AfterTestPayment.html" target="_top" xlink:title=" ">
<polygon fill="white" stroke="#666666" points="247.5,-19 96.5,-19 96.5,0 247.5,0 247.5,-19"/>
<text text-anchor="middle" x="172" y="-7" font-family="Helvetica,sans-Serif" font-size="10.00">cart.tests.AfterTestPayment</text>
</a>
</g>
</g>
<!-- Node0&#45;&gt;Node9 -->
<g id="edge115_Node000000_Node000009" class="edge">
<title>Node0&#45;&gt;Node9</title>
<g id="a_edge115_Node000000_Node000009"><a xlink:title=" ">
<path fill="none" stroke="#63b8ff" d="M33.15,-171.47C37.96,-136.97 52.78,-66.39 96,-28.5 100.34,-24.69 105.34,-21.63 110.66,-19.16"/>
<polygon fill="#63b8ff" stroke="#63b8ff" points="29.64,-171.33 31.88,-181.69 36.59,-172.2 29.64,-171.33"/>
</a>
</g>
</g>
</g>
</svg>
