<?xml version="1.0" encoding="UTF-8" standalone="no"?>
<!DOCTYPE svg PUBLIC "-//W3C//DTD SVG 1.1//EN"
 "http://www.w3.org/Graphics/SVG/1.1/DTD/svg11.dtd">
<!-- Generated by graphviz version 2.43.0 (0)
 -->
<!-- Title: Graphical Class Hierarchy Pages: 1 -->
<svg width="305pt" height="64pt"
 viewBox="0.00 0.00 305.00 64.00" xmlns="http://www.w3.org/2000/svg" xmlns:xlink="http://www.w3.org/1999/xlink">
<g id="graph0" class="graph" transform="scale(1 1) rotate(0) translate(4 60)">
<title>Graphical Class Hierarchy</title>
<!-- Node0 -->
<g id="Node000000" class="node">
<title>Node0</title>
<g id="a_Node000000"><a xlink:title=" ">
<polygon fill="#e0e0e0" stroke="#999999" points="103,-37 0,-37 0,-18 103,-18 103,-37"/>
<text text-anchor="middle" x="51.5" y="-25" font-family="Helvetica,sans-Serif" font-size="10.00">forms.ModelForm</text>
</a>
</g>
</g>
<!-- Node1 -->
<g id="Node000001" class="node">
<title>Node1</title>
<g id="a_Node000001"><a xlink:href="classcheckout_1_1forms_1_1BillingForm.html" target="_top" xlink:title=" ">
<polygon fill="white" stroke="#666666" points="293,-56 143,-56 143,-37 293,-37 293,-56"/>
<text text-anchor="middle" x="218" y="-44" font-family="Helvetica,sans-Serif" font-size="10.00">checkout.forms.BillingForm</text>
</a>
</g>
</g>
<!-- Node0&#45;&gt;Node1 -->
<g id="edge9_Node000000_Node000001" class="edge">
<title>Node0&#45;&gt;Node1</title>
<g id="a_edge9_Node000000_Node000001"><a xlink:title=" ">
<path fill="none" stroke="#63b8ff" d="M113.42,-34.54C123.02,-35.64 133.03,-36.8 142.88,-37.94"/>
<polygon fill="#63b8ff" stroke="#63b8ff" points="113.53,-31.03 103.2,-33.36 112.73,-37.98 113.53,-31.03"/>
</a>
</g>
</g>
<!-- Node2 -->
<g id="Node000002" class="node">
<title>Node2</title>
<g id="a_Node000002"><a xlink:href="classmedicines_1_1forms_1_1CreateForm.html" target="_top" xlink:title=" ">
<polygon fill="white" stroke="#666666" points="297,-19 139,-19 139,0 297,0 297,-19"/>
<text text-anchor="middle" x="218" y="-7" font-family="Helvetica,sans-Serif" font-size="10.00">medicines.forms.CreateForm</text>
</a>
</g>
</g>
<!-- Node0&#45;&gt;Node2 -->
<g id="edge10_Node000000_Node000002" class="edge">
<title>Node0&#45;&gt;Node2</title>
<g id="a_edge10_Node000000_Node000002"><a xlink:title=" ">
<path fill="none" stroke="#63b8ff" d="M113.23,-20.85C121.61,-19.94 130.31,-18.99 138.94,-18.04"/>
<polygon fill="#63b8ff" stroke="#63b8ff" points="112.76,-17.39 103.2,-21.95 113.52,-24.34 112.76,-17.39"/>
</a>
</g>
</g>
</g>
</svg>
