<?xml version="1.0" encoding="UTF-8" standalone="no"?>
<!DOCTYPE svg PUBLIC "-//W3C//DTD SVG 1.1//EN"
 "http://www.w3.org/Graphics/SVG/1.1/DTD/svg11.dtd">
<!-- Generated by graphviz version 2.43.0 (0)
 -->
<!-- Title: accounts.forms.SellerForm.Meta Pages: 1 -->
<svg width="177pt" height="153pt"
 viewBox="0.00 0.00 177.00 153.00" xmlns="http://www.w3.org/2000/svg" xmlns:xlink="http://www.w3.org/1999/xlink">
<g id="graph0" class="graph" transform="scale(1 1) rotate(0) translate(4 149)">
<title>accounts.forms.SellerForm.Meta</title>
<!-- Node1 -->
<g id="Node000001" class="node">
<title>Node1</title>
<g id="a_Node000001"><a xlink:title=" ">
<polygon fill="#999999" stroke="transparent" points="169,-49 0,-49 0,0 169,0 169,-49"/>
<text text-anchor="start" x="5.5" y="-36.5" font-family="Helvetica,sans-Serif" font-size="10.00">accounts.forms.SellerForm.Meta</text>
<text text-anchor="start" x="33.5" y="-21.5" font-family="Helvetica,sans-Serif" font-size="10.00">+</text>
<text text-anchor="start" x="75.5" y="-21.5" font-family="Helvetica,sans-Serif" font-size="10.00">model</text>
<text text-anchor="start" x="83" y="-6.5" font-family="Helvetica,sans-Serif" font-size="10.00"> </text>
<polygon fill="#666666" stroke="#666666" points="0.5,-31.5 0.5,-31.5 169.5,-31.5 169.5,-31.5 0.5,-31.5"/>
<polygon fill="#666666" stroke="#666666" points="0.5,-16.5 0.5,-16.5 73.5,-16.5 73.5,-16.5 0.5,-16.5"/>
<polygon fill="#666666" stroke="#666666" points="73.5,-16.5 73.5,-16.5 169.5,-16.5 169.5,-16.5 73.5,-16.5"/>
<polygon fill="none" stroke="#666666" points="0,0 0,-49 169,-49 169,0 0,0"/>
</a>
</g>
</g>
<!-- Node2 -->
<g id="Node000002" class="node">
<title>Node2</title>
<g id="a_Node000002"><a xlink:title=" ">
<polygon fill="white" stroke="transparent" points="102,-145 67,-145 67,-96 102,-96 102,-145"/>
<text text-anchor="start" x="72.5" y="-132.5" font-family="Helvetica,sans-Serif" font-size="10.00">tuple</text>
<text text-anchor="start" x="83" y="-117.5" font-family="Helvetica,sans-Serif" font-size="10.00"> </text>
<text text-anchor="start" x="83" y="-102.5" font-family="Helvetica,sans-Serif" font-size="10.00"> </text>
<polygon fill="#666666" stroke="#666666" points="67.5,-127.5 67.5,-127.5 102.5,-127.5 102.5,-127.5 67.5,-127.5"/>
<polygon fill="#666666" stroke="#666666" points="67.5,-112.5 67.5,-112.5 102.5,-112.5 102.5,-112.5 67.5,-112.5"/>
<polygon fill="none" stroke="#666666" points="67,-96 67,-145 102,-145 102,-96 67,-96"/>
</a>
</g>
</g>
<!-- Node2&#45;&gt;Node1 -->
<g id="edge3_Node000001_Node000002" class="edge">
<title>Node2&#45;&gt;Node1</title>
<g id="a_edge3_Node000001_Node000002"><a xlink:title=" ">
<path fill="none" stroke="#63b8ff" d="M84.5,-95.78C84.5,-85.32 84.5,-72.79 84.5,-61.23"/>
<polygon fill="none" stroke="#63b8ff" points="84.5,-61.21 80.5,-55.21 84.5,-49.21 88.5,-55.21 84.5,-61.21"/>
</a>
</g>
<text text-anchor="middle" x="109.5" y="-70" font-family="Helvetica,sans-Serif" font-size="10.00" fill="grey"> +exclude</text>
</g>
</g>
</svg>
