<?xml version="1.0" encoding="UTF-8" standalone="no"?>
<!DOCTYPE svg PUBLIC "-//W3C//DTD SVG 1.1//EN"
 "http://www.w3.org/Graphics/SVG/1.1/DTD/svg11.dtd">
<!-- Generated by graphviz version 2.43.0 (0)
 -->
<!-- Title: checkout.forms.BillingForm Pages: 1 -->
<svg width="152pt" height="157pt"
 viewBox="0.00 0.00 152.00 157.00" xmlns="http://www.w3.org/2000/svg" xmlns:xlink="http://www.w3.org/1999/xlink">
<g id="graph0" class="graph" transform="scale(1 1) rotate(0) translate(4 153)">
<title>checkout.forms.BillingForm</title>
<!-- Node1 -->
<g id="Node000001" class="node">
<title>Node1</title>
<g id="a_Node000001"><a xlink:title=" ">
<polygon fill="#999999" stroke="transparent" points="144,-64 0,-64 0,0 144,0 144,-64"/>
<text text-anchor="start" x="5" y="-52" font-family="Helvetica,sans-Serif" font-size="10.00">checkout.forms.BillingForm</text>
<text text-anchor="start" x="23" y="-37" font-family="Helvetica,sans-Serif" font-size="10.00">+</text>
<text text-anchor="start" x="55" y="-37" font-family="Helvetica,sans-Serif" font-size="10.00">pincode</text>
<text text-anchor="start" x="23" y="-22" font-family="Helvetica,sans-Serif" font-size="10.00">+</text>
<text text-anchor="start" x="55" y="-22" font-family="Helvetica,sans-Serif" font-size="10.00">landmark</text>
<text text-anchor="start" x="70" y="-7" font-family="Helvetica,sans-Serif" font-size="10.00"> </text>
<polygon fill="#666666" stroke="#666666" points="0,-47 0,-47 144,-47 144,-47 0,-47"/>
<polygon fill="#666666" stroke="#666666" points="0,-17 0,-17 53,-17 53,-17 0,-17"/>
<polygon fill="#666666" stroke="#666666" points="53,-17 53,-17 144,-17 144,-17 53,-17"/>
<polygon fill="none" stroke="#666666" points="0,0 0,-64 144,-64 144,0 0,0"/>
</a>
</g>
</g>
<!-- Node2 -->
<g id="Node000002" class="node">
<title>Node2</title>
<g id="a_Node000002"><a xlink:title=" ">
<polygon fill="white" stroke="transparent" points="122,-149 22,-149 22,-100 122,-100 122,-149"/>
<text text-anchor="start" x="27" y="-136.5" font-family="Helvetica,sans-Serif" font-size="10.00">forms::ModelForm</text>
<text text-anchor="start" x="70" y="-121.5" font-family="Helvetica,sans-Serif" font-size="10.00"> </text>
<text text-anchor="start" x="70" y="-106.5" font-family="Helvetica,sans-Serif" font-size="10.00"> </text>
<polygon fill="#666666" stroke="#666666" points="22,-131.5 22,-131.5 122,-131.5 122,-131.5 22,-131.5"/>
<polygon fill="#666666" stroke="#666666" points="22,-116.5 22,-116.5 122,-116.5 122,-116.5 22,-116.5"/>
<polygon fill="none" stroke="#666666" points="22,-100 22,-149 122,-149 122,-100 22,-100"/>
</a>
</g>
</g>
<!-- Node2&#45;&gt;Node1 -->
<g id="edge3_Node000001_Node000002" class="edge">
<title>Node2&#45;&gt;Node1</title>
<g id="a_edge3_Node000001_Node000002"><a xlink:title=" ">
<path fill="none" stroke="#63b8ff" d="M72,-89.54C72,-81.2 72,-72.31 72,-64.11"/>
<polygon fill="none" stroke="#63b8ff" points="68.5,-89.72 72,-99.72 75.5,-89.72 68.5,-89.72"/>
</a>
</g>
</g>
</g>
</svg>
