<?xml version="1.0" encoding="UTF-8" standalone="no"?>
<!DOCTYPE svg PUBLIC "-//W3C//DTD SVG 1.1//EN"
 "http://www.w3.org/Graphics/SVG/1.1/DTD/svg11.dtd">
<!-- Generated by graphviz version 2.43.0 (0)
 -->
<!-- Title: cart.migrations.0002_order_orderdate.Migration Pages: 1 -->
<svg width="215pt" height="175pt"
 viewBox="0.00 0.00 214.50 175.00" xmlns="http://www.w3.org/2000/svg" xmlns:xlink="http://www.w3.org/1999/xlink">
<g id="graph0" class="graph" transform="scale(1 1) rotate(0) translate(4 171)">
<title>cart.migrations.0002_order_orderdate.Migration</title>
<!-- Node1 -->
<g id="Node000001" class="node">
<title>Node1</title>
<g id="a_Node000001"><a xlink:title=" ">
<polygon fill="#999999" stroke="transparent" points="172,-60 29,-60 29,0 172,0 172,-60"/>
<text text-anchor="start" x="34.5" y="-48" font-family="Helvetica,sans-Serif" font-size="10.00">cart.migrations.0002</text>
<text text-anchor="start" x="34.5" y="-37" font-family="Helvetica,sans-Serif" font-size="10.00">_order_orderdate.Migration</text>
<text text-anchor="start" x="99" y="-22" font-family="Helvetica,sans-Serif" font-size="10.00"> </text>
<text text-anchor="start" x="99" y="-7" font-family="Helvetica,sans-Serif" font-size="10.00"> </text>
<polygon fill="#666666" stroke="#666666" points="29.5,-32 29.5,-32 172.5,-32 172.5,-32 29.5,-32"/>
<polygon fill="#666666" stroke="#666666" points="29.5,-17 29.5,-17 172.5,-17 172.5,-17 29.5,-17"/>
<polygon fill="none" stroke="#666666" points="29,0 29,-60 172,-60 172,0 29,0"/>
</a>
</g>
</g>
<!-- Node2 -->
<g id="Node000002" class="node">
<title>Node2</title>
<g id="a_Node000002"><a xlink:title=" ">
<polygon fill="white" stroke="transparent" points="113,-167 0,-167 0,-118 113,-118 113,-167"/>
<text text-anchor="start" x="5.5" y="-154.5" font-family="Helvetica,sans-Serif" font-size="10.00">migrations.Migration</text>
<text text-anchor="start" x="55" y="-139.5" font-family="Helvetica,sans-Serif" font-size="10.00"> </text>
<text text-anchor="start" x="55" y="-124.5" font-family="Helvetica,sans-Serif" font-size="10.00"> </text>
<polygon fill="#666666" stroke="#666666" points="0.5,-149.5 0.5,-149.5 113.5,-149.5 113.5,-149.5 0.5,-149.5"/>
<polygon fill="#666666" stroke="#666666" points="0.5,-134.5 0.5,-134.5 113.5,-134.5 113.5,-134.5 0.5,-134.5"/>
<polygon fill="none" stroke="#666666" points="0,-118 0,-167 113,-167 113,-118 0,-118"/>
</a>
</g>
</g>
<!-- Node2&#45;&gt;Node1 -->
<g id="edge5_Node000001_Node000002" class="edge">
<title>Node2&#45;&gt;Node1</title>
<g id="a_edge5_Node000001_Node000002"><a xlink:title=" ">
<path fill="none" stroke="#63b8ff" d="M69.76,-108.19C75.85,-92.9 83.01,-74.93 88.88,-60.17"/>
<polygon fill="none" stroke="#63b8ff" points="66.39,-107.21 65.94,-117.79 72.89,-109.8 66.39,-107.21"/>
</a>
</g>
</g>
<!-- Node3 -->
<g id="Node000003" class="node">
<title>Node3</title>
<g id="a_Node000003"><a xlink:title=" ">
<polygon fill="white" stroke="transparent" points="157.5,-167 131.5,-167 131.5,-118 157.5,-118 157.5,-167"/>
<text text-anchor="start" x="136.5" y="-154.5" font-family="Helvetica,sans-Serif" font-size="10.00">list</text>
<text text-anchor="start" x="142.5" y="-139.5" font-family="Helvetica,sans-Serif" font-size="10.00"> </text>
<text text-anchor="start" x="142.5" y="-124.5" font-family="Helvetica,sans-Serif" font-size="10.00"> </text>
<polygon fill="#666666" stroke="#666666" points="131.5,-149.5 131.5,-149.5 157.5,-149.5 157.5,-149.5 131.5,-149.5"/>
<polygon fill="#666666" stroke="#666666" points="131.5,-134.5 131.5,-134.5 157.5,-134.5 157.5,-134.5 131.5,-134.5"/>
<polygon fill="none" stroke="#666666" points="131.5,-118 131.5,-167 157.5,-167 157.5,-118 131.5,-118"/>
</a>
</g>
</g>
<!-- Node3&#45;&gt;Node1 -->
<g id="edge6_Node000001_Node000003" class="edge">
<title>Node3&#45;&gt;Node1</title>
<g id="a_edge6_Node000001_Node000003"><a xlink:title=" ">
<path fill="none" stroke="#63b8ff" d="M135.06,-117.79C129.71,-104.35 122.86,-87.16 116.68,-71.64"/>
<polygon fill="none" stroke="#63b8ff" points="116.56,-71.32 110.62,-67.23 112.12,-60.17 118.05,-64.27 116.56,-71.32"/>
</a>
</g>
<text text-anchor="middle" x="167" y="-92" font-family="Helvetica,sans-Serif" font-size="10.00" fill="grey"> +dependencies</text>
<text text-anchor="middle" x="167" y="-81" font-family="Helvetica,sans-Serif" font-size="10.00" fill="grey">+operations</text>
</g>
</g>
</svg>
