<?xml version="1.0" encoding="UTF-8" standalone="no"?>
<!DOCTYPE svg PUBLIC "-//W3C//DTD SVG 1.1//EN"
 "http://www.w3.org/Graphics/SVG/1.1/DTD/svg11.dtd">
<!-- Generated by graphviz version 2.43.0 (0)
 -->
<!-- Title: medicines.views.MedCreateView Pages: 1 -->
<svg width="431pt" height="216pt"
 viewBox="0.00 0.00 430.50 216.00" xmlns="http://www.w3.org/2000/svg" xmlns:xlink="http://www.w3.org/1999/xlink">
<g id="graph0" class="graph" transform="scale(1 1) rotate(0) translate(4 212)">
<title>medicines.views.MedCreateView</title>
<!-- Node1 -->
<g id="Node000001" class="node">
<title>Node1</title>
<g id="a_Node000001"><a xlink:title=" ">
<polygon fill="#999999" stroke="transparent" points="330,-79 157,-79 157,0 330,0 330,-79"/>
<text text-anchor="start" x="162.5" y="-66.5" font-family="Helvetica,sans-Serif" font-size="10.00">medicines.views.MedCreateView</text>
<text text-anchor="start" x="185" y="-51.5" font-family="Helvetica,sans-Serif" font-size="10.00">+</text>
<text text-anchor="start" x="221.5" y="-51.5" font-family="Helvetica,sans-Serif" font-size="10.00">model</text>
<text text-anchor="start" x="185" y="-36.5" font-family="Helvetica,sans-Serif" font-size="10.00">+</text>
<text text-anchor="start" x="221.5" y="-36.5" font-family="Helvetica,sans-Serif" font-size="10.00">success_url</text>
<text text-anchor="start" x="185" y="-21.5" font-family="Helvetica,sans-Serif" font-size="10.00">+</text>
<text text-anchor="start" x="221.5" y="-21.5" font-family="Helvetica,sans-Serif" font-size="10.00">get()</text>
<text text-anchor="start" x="185" y="-6.5" font-family="Helvetica,sans-Serif" font-size="10.00">+</text>
<text text-anchor="start" x="221.5" y="-6.5" font-family="Helvetica,sans-Serif" font-size="10.00">post()</text>
<polygon fill="#666666" stroke="#666666" points="157.5,-61.5 157.5,-61.5 330.5,-61.5 330.5,-61.5 157.5,-61.5"/>
<polygon fill="#666666" stroke="#666666" points="157.5,-31.5 157.5,-31.5 219.5,-31.5 219.5,-31.5 157.5,-31.5"/>
<polygon fill="#666666" stroke="#666666" points="219.5,-31.5 219.5,-31.5 330.5,-31.5 330.5,-31.5 219.5,-31.5"/>
<polygon fill="none" stroke="#666666" points="157,0 157,-79 330,-79 330,0 157,0"/>
</a>
</g>
</g>
<!-- Node2 -->
<g id="Node000002" class="node">
<title>Node2</title>
<g id="a_Node000002"><a xlink:title=" ">
<polygon fill="white" stroke="transparent" points="107,-208 0,-208 0,-159 107,-159 107,-208"/>
<text text-anchor="start" x="5.5" y="-195.5" font-family="Helvetica,sans-Serif" font-size="10.00">LoginRequiredMixin</text>
<text text-anchor="start" x="52" y="-180.5" font-family="Helvetica,sans-Serif" font-size="10.00"> </text>
<text text-anchor="start" x="52" y="-165.5" font-family="Helvetica,sans-Serif" font-size="10.00"> </text>
<polygon fill="#666666" stroke="#666666" points="0.5,-190.5 0.5,-190.5 107.5,-190.5 107.5,-190.5 0.5,-190.5"/>
<polygon fill="#666666" stroke="#666666" points="0.5,-175.5 0.5,-175.5 107.5,-175.5 107.5,-175.5 0.5,-175.5"/>
<polygon fill="none" stroke="#666666" points="0,-159 0,-208 107,-208 107,-159 0,-159"/>
</a>
</g>
</g>
<!-- Node2&#45;&gt;Node1 -->
<g id="edge9_Node000001_Node000002" class="edge">
<title>Node2&#45;&gt;Node1</title>
<g id="a_edge9_Node000001_Node000002"><a xlink:title=" ">
<path fill="none" stroke="#63b8ff" d="M93.46,-152.63C122.09,-131.24 160.89,-102.24 191.86,-79.09"/>
<polygon fill="none" stroke="#63b8ff" points="91.22,-149.94 85.3,-158.73 95.41,-155.55 91.22,-149.94"/>
</a>
</g>
</g>
<!-- Node3 -->
<g id="Node000003" class="node">
<title>Node3</title>
<g id="a_Node000003"><a xlink:title=" ">
<polygon fill="white" stroke="transparent" points="260,-208 125,-208 125,-159 260,-159 260,-208"/>
<text text-anchor="start" x="130.5" y="-195.5" font-family="Helvetica,sans-Serif" font-size="10.00">PermissionRequiredMixin</text>
<text text-anchor="start" x="191" y="-180.5" font-family="Helvetica,sans-Serif" font-size="10.00"> </text>
<text text-anchor="start" x="191" y="-165.5" font-family="Helvetica,sans-Serif" font-size="10.00"> </text>
<polygon fill="#666666" stroke="#666666" points="125.5,-190.5 125.5,-190.5 260.5,-190.5 260.5,-190.5 125.5,-190.5"/>
<polygon fill="#666666" stroke="#666666" points="125.5,-175.5 125.5,-175.5 260.5,-175.5 260.5,-175.5 125.5,-175.5"/>
<polygon fill="none" stroke="#666666" points="125,-159 125,-208 260,-208 260,-159 125,-159"/>
</a>
</g>
</g>
<!-- Node3&#45;&gt;Node1 -->
<g id="edge10_Node000001_Node000003" class="edge">
<title>Node3&#45;&gt;Node1</title>
<g id="a_edge10_Node000001_Node000003"><a xlink:title=" ">
<path fill="none" stroke="#63b8ff" d="M204.44,-149.27C211.98,-128.27 221.75,-101.05 229.64,-79.09"/>
<polygon fill="none" stroke="#63b8ff" points="201.12,-148.14 201.04,-158.73 207.71,-150.5 201.12,-148.14"/>
</a>
</g>
</g>
<!-- Node4 -->
<g id="Node000004" class="node">
<title>Node4</title>
<g id="a_Node000004"><a xlink:title=" ">
<polygon fill="white" stroke="transparent" points="313,-208 278,-208 278,-159 313,-159 313,-208"/>
<text text-anchor="start" x="283.5" y="-195.5" font-family="Helvetica,sans-Serif" font-size="10.00">View</text>
<text text-anchor="start" x="294" y="-180.5" font-family="Helvetica,sans-Serif" font-size="10.00"> </text>
<text text-anchor="start" x="294" y="-165.5" font-family="Helvetica,sans-Serif" font-size="10.00"> </text>
<polygon fill="#666666" stroke="#666666" points="278.5,-190.5 278.5,-190.5 313.5,-190.5 313.5,-190.5 278.5,-190.5"/>
<polygon fill="#666666" stroke="#666666" points="278.5,-175.5 278.5,-175.5 313.5,-175.5 313.5,-175.5 278.5,-175.5"/>
<polygon fill="none" stroke="#666666" points="278,-159 278,-208 313,-208 313,-159 278,-159"/>
</a>
</g>
</g>
<!-- Node4&#45;&gt;Node1 -->
<g id="edge11_Node000001_Node000004" class="edge">
<title>Node4&#45;&gt;Node1</title>
<g id="a_edge11_Node000001_Node000004"><a xlink:title=" ">
<path fill="none" stroke="#63b8ff" d="M283.33,-149.27C275.64,-128.27 265.67,-101.05 257.63,-79.09"/>
<polygon fill="none" stroke="#63b8ff" points="280.07,-150.55 286.8,-158.73 286.64,-148.14 280.07,-150.55"/>
</a>
</g>
</g>
<!-- Node5 -->
<g id="Node000005" class="node">
<title>Node5</title>
<g id="a_Node000005"><a xlink:title=" ">
<polygon fill="white" stroke="transparent" points="354,-208 331,-208 331,-159 354,-159 354,-208"/>
<text text-anchor="start" x="336.5" y="-195.5" font-family="Helvetica,sans-Serif" font-size="10.00">str</text>
<text text-anchor="start" x="341" y="-180.5" font-family="Helvetica,sans-Serif" font-size="10.00"> </text>
<text text-anchor="start" x="341" y="-165.5" font-family="Helvetica,sans-Serif" font-size="10.00"> </text>
<polygon fill="#666666" stroke="#666666" points="331.5,-190.5 331.5,-190.5 354.5,-190.5 354.5,-190.5 331.5,-190.5"/>
<polygon fill="#666666" stroke="#666666" points="331.5,-175.5 331.5,-175.5 354.5,-175.5 354.5,-175.5 331.5,-175.5"/>
<polygon fill="none" stroke="#666666" points="331,-159 331,-208 354,-208 354,-159 331,-159"/>
</a>
</g>
</g>
<!-- Node5&#45;&gt;Node1 -->
<g id="edge12_Node000001_Node000005" class="edge">
<title>Node5&#45;&gt;Node1</title>
<g id="a_edge12_Node000001_Node000005"><a xlink:title=" ">
<path fill="none" stroke="#63b8ff" d="M330.97,-164.64C319.64,-147.21 301.73,-120.04 285.5,-97 283.65,-94.37 281.74,-91.69 279.79,-88.99"/>
<polygon fill="none" stroke="#63b8ff" points="279.74,-88.92 272.98,-86.42 272.68,-79.21 279.45,-81.71 279.74,-88.92"/>
</a>
</g>
<text text-anchor="start" x="313.5" y="-133" font-family="Helvetica,sans-Serif" font-size="10.00" fill="grey"> +permission_denied</text>
<text text-anchor="middle" x="368" y="-122" font-family="Helvetica,sans-Serif" font-size="10.00" fill="grey">_message</text>
<text text-anchor="middle" x="368" y="-111" font-family="Helvetica,sans-Serif" font-size="10.00" fill="grey">+permission_required</text>
<text text-anchor="middle" x="368" y="-100" font-family="Helvetica,sans-Serif" font-size="10.00" fill="grey">+template_name</text>
</g>
</g>
</svg>
