<?xml version="1.0" encoding="UTF-8" standalone="no"?>
<!DOCTYPE svg PUBLIC "-//W3C//DTD SVG 1.1//EN"
 "http://www.w3.org/Graphics/SVG/1.1/DTD/svg11.dtd">
<!-- Generated by graphviz version 2.43.0 (0)
 -->
<!-- Title: api.views.medicine.MedicineView Pages: 1 -->
<svg width="184pt" height="187pt"
 viewBox="0.00 0.00 184.00 187.00" xmlns="http://www.w3.org/2000/svg" xmlns:xlink="http://www.w3.org/1999/xlink">
<g id="graph0" class="graph" transform="scale(1 1) rotate(0) translate(4 183)">
<title>api.views.medicine.MedicineView</title>
<!-- Node1 -->
<g id="Node000001" class="node">
<title>Node1</title>
<g id="a_Node000001"><a xlink:title=" ">
<polygon fill="#999999" stroke="transparent" points="176,-94 0,-94 0,0 176,0 176,-94"/>
<text text-anchor="start" x="5" y="-82" font-family="Helvetica,sans-Serif" font-size="10.00">api.views.medicine.MedicineView</text>
<text text-anchor="start" x="86" y="-67" font-family="Helvetica,sans-Serif" font-size="10.00"> </text>
<text text-anchor="start" x="24.5" y="-52" font-family="Helvetica,sans-Serif" font-size="10.00">+</text>
<text text-anchor="start" x="58" y="-52" font-family="Helvetica,sans-Serif" font-size="10.00">get_queryset()</text>
<text text-anchor="start" x="24.5" y="-37" font-family="Helvetica,sans-Serif" font-size="10.00">+</text>
<text text-anchor="start" x="58" y="-37" font-family="Helvetica,sans-Serif" font-size="10.00">get()</text>
<text text-anchor="start" x="24.5" y="-22" font-family="Helvetica,sans-Serif" font-size="10.00">+</text>
<text text-anchor="start" x="58" y="-22" font-family="Helvetica,sans-Serif" font-size="10.00">post()</text>
<text text-anchor="start" x="24.5" y="-7" font-family="Helvetica,sans-Serif" font-size="10.00">+</text>
<text text-anchor="start" x="58" y="-7" font-family="Helvetica,sans-Serif" font-size="10.00">dispatch()</text>
<polygon fill="#666666" stroke="#666666" points="0,-77 0,-77 176,-77 176,-77 0,-77"/>
<polygon fill="#666666" stroke="#666666" points="0,-62 0,-62 176,-62 176,-62 0,-62"/>
<polygon fill="none" stroke="#666666" points="0,0 0,-94 176,-94 176,0 0,0"/>
</a>
</g>
</g>
<!-- Node2 -->
<g id="Node000002" class="node">
<title>Node2</title>
<g id="a_Node000002"><a xlink:title=" ">
<polygon fill="white" stroke="transparent" points="105.5,-179 70.5,-179 70.5,-130 105.5,-130 105.5,-179"/>
<text text-anchor="start" x="76" y="-166.5" font-family="Helvetica,sans-Serif" font-size="10.00">View</text>
<text text-anchor="start" x="86.5" y="-151.5" font-family="Helvetica,sans-Serif" font-size="10.00"> </text>
<text text-anchor="start" x="86.5" y="-136.5" font-family="Helvetica,sans-Serif" font-size="10.00"> </text>
<polygon fill="#666666" stroke="#666666" points="71,-161.5 71,-161.5 106,-161.5 106,-161.5 71,-161.5"/>
<polygon fill="#666666" stroke="#666666" points="71,-146.5 71,-146.5 106,-146.5 106,-146.5 71,-146.5"/>
<polygon fill="none" stroke="#666666" points="70.5,-130 70.5,-179 105.5,-179 105.5,-130 70.5,-130"/>
</a>
</g>
</g>
<!-- Node2&#45;&gt;Node1 -->
<g id="edge3_Node000001_Node000002" class="edge">
<title>Node2&#45;&gt;Node1</title>
<g id="a_edge3_Node000001_Node000002"><a xlink:title=" ">
<path fill="none" stroke="#63b8ff" d="M88,-119.61C88,-111.48 88,-102.66 88,-94.08"/>
<polygon fill="none" stroke="#63b8ff" points="84.5,-119.82 88,-129.82 91.5,-119.82 84.5,-119.82"/>
</a>
</g>
</g>
</g>
</svg>
