<?xml version="1.0" encoding="UTF-8" standalone="no"?>
<!DOCTYPE svg PUBLIC "-//W3C//DTD SVG 1.1//EN"
 "http://www.w3.org/Graphics/SVG/1.1/DTD/svg11.dtd">
<!-- Generated by graphviz version 2.43.0 (0)
 -->
<!-- Title: checkout.models.BillingAddress Pages: 1 -->
<svg width="174pt" height="217pt"
 viewBox="0.00 0.00 174.00 217.00" xmlns="http://www.w3.org/2000/svg" xmlns:xlink="http://www.w3.org/1999/xlink">
<g id="graph0" class="graph" transform="scale(1 1) rotate(0) translate(4 213)">
<title>checkout.models.BillingAddress</title>
<!-- Node1 -->
<g id="Node000001" class="node">
<title>Node1</title>
<g id="a_Node000001"><a xlink:title=" ">
<polygon fill="#999999" stroke="transparent" points="166,-124 0,-124 0,0 166,0 166,-124"/>
<text text-anchor="start" x="5" y="-112" font-family="Helvetica,sans-Serif" font-size="10.00">checkout.models.BillingAddress</text>
<text text-anchor="start" x="28.5" y="-97" font-family="Helvetica,sans-Serif" font-size="10.00">+</text>
<text text-anchor="start" x="66" y="-97" font-family="Helvetica,sans-Serif" font-size="10.00">user</text>
<text text-anchor="start" x="28.5" y="-82" font-family="Helvetica,sans-Serif" font-size="10.00">+</text>
<text text-anchor="start" x="66" y="-82" font-family="Helvetica,sans-Serif" font-size="10.00">address</text>
<text text-anchor="start" x="28.5" y="-67" font-family="Helvetica,sans-Serif" font-size="10.00">+</text>
<text text-anchor="start" x="66" y="-67" font-family="Helvetica,sans-Serif" font-size="10.00">pincode</text>
<text text-anchor="start" x="28.5" y="-52" font-family="Helvetica,sans-Serif" font-size="10.00">+</text>
<text text-anchor="start" x="66" y="-52" font-family="Helvetica,sans-Serif" font-size="10.00">city</text>
<text text-anchor="start" x="28.5" y="-37" font-family="Helvetica,sans-Serif" font-size="10.00">+</text>
<text text-anchor="start" x="66" y="-37" font-family="Helvetica,sans-Serif" font-size="10.00">landmark</text>
<text text-anchor="start" x="28.5" y="-22" font-family="Helvetica,sans-Serif" font-size="10.00">+</text>
<text text-anchor="start" x="66" y="-22" font-family="Helvetica,sans-Serif" font-size="10.00">__str__()</text>
<text text-anchor="start" x="28.5" y="-7" font-family="Helvetica,sans-Serif" font-size="10.00">+</text>
<text text-anchor="start" x="66" y="-7" font-family="Helvetica,sans-Serif" font-size="10.00">as_json()</text>
<polygon fill="#666666" stroke="#666666" points="0,-107 0,-107 166,-107 166,-107 0,-107"/>
<polygon fill="#666666" stroke="#666666" points="0,-32 0,-32 64,-32 64,-32 0,-32"/>
<polygon fill="#666666" stroke="#666666" points="64,-32 64,-32 166,-32 166,-32 64,-32"/>
<polygon fill="none" stroke="#666666" points="0,0 0,-124 166,-124 166,0 0,0"/>
</a>
</g>
</g>
<!-- Node2 -->
<g id="Node000002" class="node">
<title>Node2</title>
<g id="a_Node000002"><a xlink:title=" ">
<polygon fill="white" stroke="transparent" points="123,-209 43,-209 43,-160 123,-160 123,-209"/>
<text text-anchor="start" x="48" y="-196.5" font-family="Helvetica,sans-Serif" font-size="10.00">models.Model</text>
<text text-anchor="start" x="81" y="-181.5" font-family="Helvetica,sans-Serif" font-size="10.00"> </text>
<text text-anchor="start" x="81" y="-166.5" font-family="Helvetica,sans-Serif" font-size="10.00"> </text>
<polygon fill="#666666" stroke="#666666" points="43,-191.5 43,-191.5 123,-191.5 123,-191.5 43,-191.5"/>
<polygon fill="#666666" stroke="#666666" points="43,-176.5 43,-176.5 123,-176.5 123,-176.5 43,-176.5"/>
<polygon fill="none" stroke="#666666" points="43,-160 43,-209 123,-209 123,-160 43,-160"/>
</a>
</g>
</g>
<!-- Node2&#45;&gt;Node1 -->
<g id="edge3_Node000001_Node000002" class="edge">
<title>Node2&#45;&gt;Node1</title>
<g id="a_edge3_Node000001_Node000002"><a xlink:title=" ">
<path fill="none" stroke="#63b8ff" d="M83,-149.94C83,-141.91 83,-133.08 83,-124.23"/>
<polygon fill="none" stroke="#63b8ff" points="79.5,-149.98 83,-159.98 86.5,-149.98 79.5,-149.98"/>
</a>
</g>
</g>
</g>
</svg>
