<?xml version="1.0" encoding="UTF-8" standalone="no"?>
<!DOCTYPE svg PUBLIC "-//W3C//DTD SVG 1.1//EN"
 "http://www.w3.org/Graphics/SVG/1.1/DTD/svg11.dtd">
<!-- Generated by graphviz version 2.43.0 (0)
 -->
<!-- Title: cart.apps.CartConfig Pages: 1 -->
<svg width="118pt" height="142pt"
 viewBox="0.00 0.00 118.00 142.00" xmlns="http://www.w3.org/2000/svg" xmlns:xlink="http://www.w3.org/1999/xlink">
<g id="graph0" class="graph" transform="scale(1 1) rotate(0) translate(4 138)">
<title>cart.apps.CartConfig</title>
<!-- Node1 -->
<g id="Node000001" class="node">
<title>Node1</title>
<g id="a_Node000001"><a xlink:title=" ">
<polygon fill="#999999" stroke="transparent" points="110,-49 0,-49 0,0 110,0 110,-49"/>
<text text-anchor="start" x="5" y="-36.5" font-family="Helvetica,sans-Serif" font-size="10.00">cart.apps.CartConfig</text>
<text text-anchor="start" x="19" y="-21.5" font-family="Helvetica,sans-Serif" font-size="10.00">+</text>
<text text-anchor="start" x="47" y="-21.5" font-family="Helvetica,sans-Serif" font-size="10.00">name</text>
<text text-anchor="start" x="53" y="-6.5" font-family="Helvetica,sans-Serif" font-size="10.00"> </text>
<polygon fill="#666666" stroke="#666666" points="0,-31.5 0,-31.5 110,-31.5 110,-31.5 0,-31.5"/>
<polygon fill="#666666" stroke="#666666" points="0,-16.5 0,-16.5 45,-16.5 45,-16.5 0,-16.5"/>
<polygon fill="#666666" stroke="#666666" points="45,-16.5 45,-16.5 110,-16.5 110,-16.5 45,-16.5"/>
<polygon fill="none" stroke="#666666" points="0,0 0,-49 110,-49 110,0 0,0"/>
</a>
</g>
</g>
<!-- Node2 -->
<g id="Node000002" class="node">
<title>Node2</title>
<g id="a_Node000002"><a xlink:title=" ">
<polygon fill="white" stroke="transparent" points="85,-134 25,-134 25,-85 85,-85 85,-134"/>
<text text-anchor="start" x="30" y="-121.5" font-family="Helvetica,sans-Serif" font-size="10.00">AppConfig</text>
<text text-anchor="start" x="53" y="-106.5" font-family="Helvetica,sans-Serif" font-size="10.00"> </text>
<text text-anchor="start" x="53" y="-91.5" font-family="Helvetica,sans-Serif" font-size="10.00"> </text>
<polygon fill="#666666" stroke="#666666" points="25,-116.5 25,-116.5 85,-116.5 85,-116.5 25,-116.5"/>
<polygon fill="#666666" stroke="#666666" points="25,-101.5 25,-101.5 85,-101.5 85,-101.5 25,-101.5"/>
<polygon fill="none" stroke="#666666" points="25,-85 25,-134 85,-134 85,-85 25,-85"/>
</a>
</g>
</g>
<!-- Node2&#45;&gt;Node1 -->
<g id="edge3_Node000001_Node000002" class="edge">
<title>Node2&#45;&gt;Node1</title>
<g id="a_edge3_Node000001_Node000002"><a xlink:title=" ">
<path fill="none" stroke="#63b8ff" d="M55,-74.77C55,-66.17 55,-57.1 55,-49.12"/>
<polygon fill="none" stroke="#63b8ff" points="51.5,-74.94 55,-84.94 58.5,-74.94 51.5,-74.94"/>
</a>
</g>
</g>
</g>
</svg>
