<?xml version="1.0" encoding="UTF-8" standalone="no"?>
<!DOCTYPE svg PUBLIC "-//W3C//DTD SVG 1.1//EN"
 "http://www.w3.org/Graphics/SVG/1.1/DTD/svg11.dtd">
<!-- Generated by graphviz version 2.43.0 (0)
 -->
<!-- Title: api.views.cart.CartView Pages: 1 -->
<svg width="134pt" height="172pt"
 viewBox="0.00 0.00 134.00 172.00" xmlns="http://www.w3.org/2000/svg" xmlns:xlink="http://www.w3.org/1999/xlink">
<g id="graph0" class="graph" transform="scale(1 1) rotate(0) translate(4 168)">
<title>api.views.cart.CartView</title>
<!-- Node1 -->
<g id="Node000001" class="node">
<title>Node1</title>
<g id="a_Node000001"><a xlink:title=" ">
<polygon fill="#999999" stroke="transparent" points="126,-79 0,-79 0,0 126,0 126,-79"/>
<text text-anchor="start" x="5" y="-66.5" font-family="Helvetica,sans-Serif" font-size="10.00">api.views.cart.CartView</text>
<text text-anchor="start" x="61" y="-51.5" font-family="Helvetica,sans-Serif" font-size="10.00"> </text>
<text text-anchor="start" x="12.5" y="-36.5" font-family="Helvetica,sans-Serif" font-size="10.00">+</text>
<text text-anchor="start" x="34" y="-36.5" font-family="Helvetica,sans-Serif" font-size="10.00">update_item()</text>
<text text-anchor="start" x="12.5" y="-21.5" font-family="Helvetica,sans-Serif" font-size="10.00">+</text>
<text text-anchor="start" x="34" y="-21.5" font-family="Helvetica,sans-Serif" font-size="10.00">get()</text>
<text text-anchor="start" x="12.5" y="-6.5" font-family="Helvetica,sans-Serif" font-size="10.00">+</text>
<text text-anchor="start" x="34" y="-6.5" font-family="Helvetica,sans-Serif" font-size="10.00">post()</text>
<polygon fill="#666666" stroke="#666666" points="0,-61.5 0,-61.5 126,-61.5 126,-61.5 0,-61.5"/>
<polygon fill="#666666" stroke="#666666" points="0,-46.5 0,-46.5 126,-46.5 126,-46.5 0,-46.5"/>
<polygon fill="none" stroke="#666666" points="0,0 0,-79 126,-79 126,0 0,0"/>
</a>
</g>
</g>
<!-- Node2 -->
<g id="Node000002" class="node">
<title>Node2</title>
<g id="a_Node000002"><a xlink:title=" ">
<polygon fill="white" stroke="transparent" points="80.5,-164 45.5,-164 45.5,-115 80.5,-115 80.5,-164"/>
<text text-anchor="start" x="51" y="-151.5" font-family="Helvetica,sans-Serif" font-size="10.00">View</text>
<text text-anchor="start" x="61.5" y="-136.5" font-family="Helvetica,sans-Serif" font-size="10.00"> </text>
<text text-anchor="start" x="61.5" y="-121.5" font-family="Helvetica,sans-Serif" font-size="10.00"> </text>
<polygon fill="#666666" stroke="#666666" points="46,-146.5 46,-146.5 81,-146.5 81,-146.5 46,-146.5"/>
<polygon fill="#666666" stroke="#666666" points="46,-131.5 46,-131.5 81,-131.5 81,-131.5 46,-131.5"/>
<polygon fill="none" stroke="#666666" points="45.5,-115 45.5,-164 80.5,-164 80.5,-115 45.5,-115"/>
</a>
</g>
</g>
<!-- Node2&#45;&gt;Node1 -->
<g id="edge3_Node000001_Node000002" class="edge">
<title>Node2&#45;&gt;Node1</title>
<g id="a_edge3_Node000001_Node000002"><a xlink:title=" ">
<path fill="none" stroke="#63b8ff" d="M63,-104.52C63,-96.38 63,-87.63 63,-79.29"/>
<polygon fill="none" stroke="#63b8ff" points="59.5,-104.78 63,-114.78 66.5,-104.78 59.5,-104.78"/>
</a>
</g>
</g>
</g>
</svg>
