<?xml version="1.0" encoding="UTF-8" standalone="no"?>
<!DOCTYPE svg PUBLIC "-//W3C//DTD SVG 1.1//EN"
 "http://www.w3.org/Graphics/SVG/1.1/DTD/svg11.dtd">
<!-- Generated by graphviz version 2.43.0 (0)
 -->
<!-- Title: api.views.medicine.MedicineView.get_queryset Pages: 1 -->
<svg width="384pt" height="104pt"
 viewBox="0.00 0.00 384.00 104.00" xmlns="http://www.w3.org/2000/svg" xmlns:xlink="http://www.w3.org/1999/xlink">
<g id="graph0" class="graph" transform="scale(1 1) rotate(0) translate(4 100)">
<title>api.views.medicine.MedicineView.get_queryset</title>
<!-- Node1 -->
<g id="Node000001" class="node">
<title>Node1</title>
<g id="a_Node000001"><a xlink:title=" ">
<polygon fill="#999999" stroke="#666666" points="376,-63 218,-63 218,-33 376,-33 376,-63"/>
<text text-anchor="start" x="226" y="-51" font-family="Helvetica,sans-Serif" font-size="10.00">api.views.medicine.Medicine</text>
<text text-anchor="middle" x="297" y="-40" font-family="Helvetica,sans-Serif" font-size="10.00">View.get_queryset</text>
</a>
</g>
</g>
<!-- Node2 -->
<g id="Node000002" class="node">
<title>Node2</title>
<g id="a_Node000002"><a xlink:href="$classapi_1_1views_1_1medicine_1_1MedicineView.html#a6a92fa916b3ccf8671ec552755883093" xlink:title=" ">
<polygon fill="white" stroke="#666666" points="170,-96 12,-96 12,-66 170,-66 170,-96"/>
<text text-anchor="start" x="20" y="-84" font-family="Helvetica,sans-Serif" font-size="10.00">api.views.medicine.Medicine</text>
<text text-anchor="middle" x="91" y="-73" font-family="Helvetica,sans-Serif" font-size="10.00">View.get</text>
</a>
</g>
</g>
<!-- Node1&#45;&gt;Node2 -->
<g id="edge7_Node000001_Node000002" class="edge">
<title>Node1&#45;&gt;Node2</title>
<g id="a_edge7_Node000001_Node000002"><a xlink:title=" ">
<path fill="none" stroke="#63b8ff" d="M207.74,-62.28C195.21,-64.3 182.4,-66.38 170.08,-68.37"/>
<polygon fill="#63b8ff" stroke="#63b8ff" points="208.4,-65.72 217.71,-60.66 207.28,-58.81 208.4,-65.72"/>
</a>
</g>
</g>
<!-- Node3 -->
<g id="Node000003" class="node">
<title>Node3</title>
<g id="a_Node000003"><a xlink:href="$classmedicines_1_1views_1_1MedListView.html#a32882e4ccbe86c8d90013dadc073524b" xlink:title=" ">
<polygon fill="white" stroke="#666666" points="182,-30 0,-30 0,0 182,0 182,-30"/>
<text text-anchor="start" x="8" y="-18" font-family="Helvetica,sans-Serif" font-size="10.00">medicines.views.MedListView.get</text>
<text text-anchor="middle" x="91" y="-7" font-family="Helvetica,sans-Serif" font-size="10.00">_context_data</text>
</a>
</g>
</g>
<!-- Node1&#45;&gt;Node3 -->
<g id="edge8_Node000001_Node000003" class="edge">
<title>Node1&#45;&gt;Node3</title>
<g id="a_edge8_Node000001_Node000003"><a xlink:title=" ">
<path fill="none" stroke="#63b8ff" d="M207.58,-33.7C199.22,-32.34 190.72,-30.97 182.34,-29.61"/>
<polygon fill="#63b8ff" stroke="#63b8ff" points="207.28,-37.19 217.71,-35.34 208.4,-30.28 207.28,-37.19"/>
</a>
</g>
</g>
<!-- Node3&#45;&gt;Node3 -->
<g id="edge9_Node000003_Node000003" class="edge">
<title>Node3&#45;&gt;Node3</title>
<g id="a_edge9_Node000003_Node000003"><a xlink:title=" ">
<path fill="none" stroke="#63b8ff" d="M127.06,-40.6C122.13,-44.97 110.11,-48 91,-48 58.81,-48 46.74,-39.41 54.79,-30.28"/>
<polygon fill="#63b8ff" stroke="#63b8ff" points="130.56,-40.33 127.21,-30.28 123.56,-40.22 130.56,-40.33"/>
</a>
</g>
</g>
</g>
</svg>
