<?xml version="1.0" encoding="UTF-8" standalone="no"?>
<!DOCTYPE svg PUBLIC "-//W3C//DTD SVG 1.1//EN"
 "http://www.w3.org/Graphics/SVG/1.1/DTD/svg11.dtd">
<!-- Generated by graphviz version 2.43.0 (0)
 -->
<!-- Title: home.apps.HomeConfig Pages: 1 -->
<svg width="136pt" height="153pt"
 viewBox="0.00 0.00 136.00 153.00" xmlns="http://www.w3.org/2000/svg" xmlns:xlink="http://www.w3.org/1999/xlink">
<g id="graph0" class="graph" transform="scale(1 1) rotate(0) translate(4 149)">
<title>home.apps.HomeConfig</title>
<!-- Node1 -->
<g id="Node000001" class="node">
<title>Node1</title>
<g id="a_Node000001"><a xlink:title=" ">
<polygon fill="#999999" stroke="transparent" points="128,-49 0,-49 0,0 128,0 128,-49"/>
<text text-anchor="start" x="5" y="-36.5" font-family="Helvetica,sans-Serif" font-size="10.00">home.apps.HomeConfig</text>
<text text-anchor="start" x="62" y="-21.5" font-family="Helvetica,sans-Serif" font-size="10.00"> </text>
<text text-anchor="start" x="62" y="-6.5" font-family="Helvetica,sans-Serif" font-size="10.00"> </text>
<polygon fill="#666666" stroke="#666666" points="0,-31.5 0,-31.5 128,-31.5 128,-31.5 0,-31.5"/>
<polygon fill="#666666" stroke="#666666" points="0,-16.5 0,-16.5 128,-16.5 128,-16.5 0,-16.5"/>
<polygon fill="none" stroke="#666666" points="0,0 0,-49 128,-49 128,0 0,0"/>
</a>
</g>
</g>
<!-- Node2 -->
<g id="Node000002" class="node">
<title>Node2</title>
<g id="a_Node000002"><a xlink:title=" ">
<polygon fill="white" stroke="transparent" points="64,-145 4,-145 4,-96 64,-96 64,-145"/>
<text text-anchor="start" x="9" y="-132.5" font-family="Helvetica,sans-Serif" font-size="10.00">AppConfig</text>
<text text-anchor="start" x="32" y="-117.5" font-family="Helvetica,sans-Serif" font-size="10.00"> </text>
<text text-anchor="start" x="32" y="-102.5" font-family="Helvetica,sans-Serif" font-size="10.00"> </text>
<polygon fill="#666666" stroke="#666666" points="4,-127.5 4,-127.5 64,-127.5 64,-127.5 4,-127.5"/>
<polygon fill="#666666" stroke="#666666" points="4,-112.5 4,-112.5 64,-112.5 64,-112.5 4,-112.5"/>
<polygon fill="none" stroke="#666666" points="4,-96 4,-145 64,-145 64,-96 4,-96"/>
</a>
</g>
</g>
<!-- Node2&#45;&gt;Node1 -->
<g id="edge5_Node000001_Node000002" class="edge">
<title>Node2&#45;&gt;Node1</title>
<g id="a_edge5_Node000001_Node000002"><a xlink:title=" ">
<path fill="none" stroke="#63b8ff" d="M44.7,-85.96C48.58,-73.81 52.88,-60.34 56.43,-49.21"/>
<polygon fill="none" stroke="#63b8ff" points="41.28,-85.19 41.57,-95.78 47.95,-87.32 41.28,-85.19"/>
</a>
</g>
</g>
<!-- Node3 -->
<g id="Node000003" class="node">
<title>Node3</title>
<g id="a_Node000003"><a xlink:title=" ">
<polygon fill="white" stroke="transparent" points="105.5,-145 82.5,-145 82.5,-96 105.5,-96 105.5,-145"/>
<text text-anchor="start" x="88" y="-132.5" font-family="Helvetica,sans-Serif" font-size="10.00">str</text>
<text text-anchor="start" x="92.5" y="-117.5" font-family="Helvetica,sans-Serif" font-size="10.00"> </text>
<text text-anchor="start" x="92.5" y="-102.5" font-family="Helvetica,sans-Serif" font-size="10.00"> </text>
<polygon fill="#666666" stroke="#666666" points="83,-127.5 83,-127.5 106,-127.5 106,-127.5 83,-127.5"/>
<polygon fill="#666666" stroke="#666666" points="83,-112.5 83,-112.5 106,-112.5 106,-112.5 83,-112.5"/>
<polygon fill="none" stroke="#666666" points="82.5,-96 82.5,-145 105.5,-145 105.5,-96 82.5,-96"/>
</a>
</g>
</g>
<!-- Node3&#45;&gt;Node1 -->
<g id="edge6_Node000001_Node000003" class="edge">
<title>Node3&#45;&gt;Node1</title>
<g id="a_edge6_Node000001_Node000003"><a xlink:title=" ">
<path fill="none" stroke="#63b8ff" d="M86.43,-95.78C83.05,-85.2 79.01,-72.52 75.29,-60.86"/>
<polygon fill="none" stroke="#63b8ff" points="75.22,-60.64 69.58,-56.14 71.57,-49.21 77.2,-53.71 75.22,-60.64"/>
</a>
</g>
<text text-anchor="middle" x="99" y="-70" font-family="Helvetica,sans-Serif" font-size="10.00" fill="grey"> +name</text>
</g>
</g>
</svg>
