<?xml version="1.0" encoding="UTF-8" standalone="no"?>
<!DOCTYPE svg PUBLIC "-//W3C//DTD SVG 1.1//EN"
 "http://www.w3.org/Graphics/SVG/1.1/DTD/svg11.dtd">
<!-- Generated by graphviz version 2.43.0 (0)
 -->
<!-- Title: accounts.sitemaps.AccountSiteMap Pages: 1 -->
<svg width="152pt" height="183pt"
 viewBox="0.00 0.00 152.00 183.00" xmlns="http://www.w3.org/2000/svg" xmlns:xlink="http://www.w3.org/1999/xlink">
<g id="graph0" class="graph" transform="scale(1 1) rotate(0) translate(4 179)">
<title>accounts.sitemaps.AccountSiteMap</title>
<!-- Node1 -->
<g id="Node000001" class="node">
<title>Node1</title>
<g id="a_Node000001"><a xlink:title=" ">
<polygon fill="#999999" stroke="transparent" points="144,-90 0,-90 0,0 144,0 144,-90"/>
<text text-anchor="start" x="5" y="-78" font-family="Helvetica,sans-Serif" font-size="10.00">accounts.sitemaps.Account</text>
<text text-anchor="start" x="52" y="-67" font-family="Helvetica,sans-Serif" font-size="10.00">SiteMap</text>
<text text-anchor="start" x="20.5" y="-52" font-family="Helvetica,sans-Serif" font-size="10.00">+</text>
<text text-anchor="start" x="50" y="-52" font-family="Helvetica,sans-Serif" font-size="10.00">priority</text>
<text text-anchor="start" x="20.5" y="-37" font-family="Helvetica,sans-Serif" font-size="10.00">+</text>
<text text-anchor="start" x="50" y="-37" font-family="Helvetica,sans-Serif" font-size="10.00">changeFreq</text>
<text text-anchor="start" x="20.5" y="-22" font-family="Helvetica,sans-Serif" font-size="10.00">+</text>
<text text-anchor="start" x="50" y="-22" font-family="Helvetica,sans-Serif" font-size="10.00">items()</text>
<text text-anchor="start" x="20.5" y="-7" font-family="Helvetica,sans-Serif" font-size="10.00">+</text>
<text text-anchor="start" x="50" y="-7" font-family="Helvetica,sans-Serif" font-size="10.00">location()</text>
<polygon fill="#666666" stroke="#666666" points="0,-62 0,-62 144,-62 144,-62 0,-62"/>
<polygon fill="#666666" stroke="#666666" points="0,-32 0,-32 48,-32 48,-32 0,-32"/>
<polygon fill="#666666" stroke="#666666" points="48,-32 48,-32 144,-32 144,-32 48,-32"/>
<polygon fill="none" stroke="#666666" points="0,0 0,-90 144,-90 144,0 0,0"/>
</a>
</g>
</g>
<!-- Node2 -->
<g id="Node000002" class="node">
<title>Node2</title>
<g id="a_Node000002"><a xlink:title=" ">
<polygon fill="white" stroke="transparent" points="123,-175 21,-175 21,-126 123,-126 123,-175"/>
<text text-anchor="start" x="26" y="-162.5" font-family="Helvetica,sans-Serif" font-size="10.00">sitemaps::Sitemap</text>
<text text-anchor="start" x="70" y="-147.5" font-family="Helvetica,sans-Serif" font-size="10.00"> </text>
<text text-anchor="start" x="70" y="-132.5" font-family="Helvetica,sans-Serif" font-size="10.00"> </text>
<polygon fill="#666666" stroke="#666666" points="21,-157.5 21,-157.5 123,-157.5 123,-157.5 21,-157.5"/>
<polygon fill="#666666" stroke="#666666" points="21,-142.5 21,-142.5 123,-142.5 123,-142.5 21,-142.5"/>
<polygon fill="none" stroke="#666666" points="21,-126 21,-175 123,-175 123,-126 21,-126"/>
</a>
</g>
</g>
<!-- Node2&#45;&gt;Node1 -->
<g id="edge3_Node000001_Node000002" class="edge">
<title>Node2&#45;&gt;Node1</title>
<g id="a_edge3_Node000001_Node000002"><a xlink:title=" ">
<path fill="none" stroke="#63b8ff" d="M72,-115.62C72,-107.56 72,-98.84 72,-90.39"/>
<polygon fill="none" stroke="#63b8ff" points="68.5,-115.75 72,-125.76 75.5,-115.76 68.5,-115.75"/>
</a>
</g>
</g>
</g>
</svg>
