<?xml version="1.0" encoding="UTF-8" standalone="no"?>
<!DOCTYPE svg PUBLIC "-//W3C//DTD SVG 1.1//EN"
 "http://www.w3.org/Graphics/SVG/1.1/DTD/svg11.dtd">
<!-- Generated by graphviz version 2.43.0 (0)
 -->
<!-- Title: cart.models.Order.order_now Pages: 1 -->
<svg width="408pt" height="283pt"
 viewBox="0.00 0.00 408.00 282.50" xmlns="http://www.w3.org/2000/svg" xmlns:xlink="http://www.w3.org/1999/xlink">
<g id="graph0" class="graph" transform="scale(1 1) rotate(0) translate(4 278.5)">
<title>cart.models.Order.order_now</title>
<!-- Node1 -->
<g id="Node000001" class="node">
<title>Node1</title>
<g id="a_Node000001"><a xlink:title=" ">
<polygon fill="#999999" stroke="#666666" points="158,-156 0,-156 0,-137 158,-137 158,-156"/>
<text text-anchor="middle" x="79" y="-144" font-family="Helvetica,sans-Serif" font-size="10.00">cart.models.Order.order_now</text>
</a>
</g>
</g>
<!-- Node2 -->
<g id="Node000002" class="node">
<title>Node2</title>
<g id="a_Node000002"><a xlink:href="$classaccounts_1_1sitemaps_1_1AccountSiteMap.html#a62730699fc75f9fb9c2e2c5847a2243f" xlink:title=" ">
<polygon fill="white" stroke="#666666" points="372,-274.5 222,-274.5 222,-244.5 372,-244.5 372,-274.5"/>
<text text-anchor="start" x="230" y="-262.5" font-family="Helvetica,sans-Serif" font-size="10.00">accounts.sitemaps.Account</text>
<text text-anchor="middle" x="297" y="-251.5" font-family="Helvetica,sans-Serif" font-size="10.00">SiteMap.items</text>
</a>
</g>
</g>
<!-- Node1&#45;&gt;Node2 -->
<g id="edge17_Node000001_Node000002" class="edge">
<title>Node1&#45;&gt;Node2</title>
<g id="a_edge17_Node000001_Node000002"><a xlink:title=" ">
<path fill="none" stroke="#63b8ff" d="M89.37,-156.21C107.7,-174.61 150.3,-214.55 194,-235.5 199.76,-238.26 205.86,-240.72 212.09,-242.9"/>
<polygon fill="#63b8ff" stroke="#63b8ff" points="211.38,-246.35 221.98,-246.1 213.55,-239.69 211.38,-246.35"/>
</a>
</g>
</g>
<!-- Node3 -->
<g id="Node000003" class="node">
<title>Node3</title>
<g id="a_Node000003"><a xlink:href="$classaccounts_1_1sitemaps_1_1AllAuthSitemap.html#af9bb58614780826c03188c8b0202c8b2" xlink:title=" ">
<polygon fill="white" stroke="#666666" points="370,-226.5 224,-226.5 224,-196.5 370,-196.5 370,-226.5"/>
<text text-anchor="start" x="232" y="-214.5" font-family="Helvetica,sans-Serif" font-size="10.00">accounts.sitemaps.AllAuth</text>
<text text-anchor="middle" x="297" y="-203.5" font-family="Helvetica,sans-Serif" font-size="10.00">Sitemap.items</text>
</a>
</g>
</g>
<!-- Node1&#45;&gt;Node3 -->
<g id="edge18_Node000001_Node000003" class="edge">
<title>Node1&#45;&gt;Node3</title>
<g id="a_edge18_Node000001_Node000003"><a xlink:title=" ">
<path fill="none" stroke="#63b8ff" d="M104.19,-156.11C127.09,-164.99 162.54,-178.18 194,-187.5 201.63,-189.76 209.62,-191.95 217.64,-194.02"/>
<polygon fill="#63b8ff" stroke="#63b8ff" points="216.85,-197.44 227.41,-196.5 218.57,-190.65 216.85,-197.44"/>
</a>
</g>
</g>
<!-- Node4 -->
<g id="Node000004" class="node">
<title>Node4</title>
<g id="a_Node000004"><a xlink:href="$classmedical_1_1sitemaps_1_1StaticSitemap.html#a2f154156ebe0d87a7e18bf952f28f501" xlink:title=" ">
<polygon fill="white" stroke="#666666" points="400,-178 194,-178 194,-159 400,-159 400,-178"/>
<text text-anchor="middle" x="297" y="-166" font-family="Helvetica,sans-Serif" font-size="10.00">medical.sitemaps.StaticSitemap.items</text>
</a>
</g>
</g>
<!-- Node1&#45;&gt;Node4 -->
<g id="edge19_Node000001_Node000004" class="edge">
<title>Node1&#45;&gt;Node4</title>
<g id="a_edge19_Node000001_Node000004"><a xlink:title=" ">
<path fill="none" stroke="#63b8ff" d="M158.29,-154.47C169.4,-155.61 180.97,-156.78 192.47,-157.95"/>
<polygon fill="#63b8ff" stroke="#63b8ff" points="192.24,-161.45 202.54,-158.98 192.95,-154.49 192.24,-161.45"/>
</a>
</g>
</g>
<!-- Node5 -->
<g id="Node000005" class="node">
<title>Node5</title>
<g id="a_Node000005"><a xlink:href="$classmedicines_1_1sitemaps_1_1MedSiteMap.html#ac52d12ec32b8be8b3648e473426eda59" xlink:title=" ">
<polygon fill="white" stroke="#666666" points="376,-140.5 218,-140.5 218,-110.5 376,-110.5 376,-140.5"/>
<text text-anchor="start" x="226" y="-128.5" font-family="Helvetica,sans-Serif" font-size="10.00">medicines.sitemaps.MedSite</text>
<text text-anchor="middle" x="297" y="-117.5" font-family="Helvetica,sans-Serif" font-size="10.00">Map.items</text>
</a>
</g>
</g>
<!-- Node1&#45;&gt;Node5 -->
<g id="edge20_Node000001_Node000005" class="edge">
<title>Node1&#45;&gt;Node5</title>
<g id="a_edge20_Node000001_Node000005"><a xlink:title=" ">
<path fill="none" stroke="#63b8ff" d="M158.29,-138.89C174.38,-137.32 191.44,-135.67 207.85,-134.07"/>
<polygon fill="#63b8ff" stroke="#63b8ff" points="208.37,-137.54 217.98,-133.09 207.69,-130.57 208.37,-137.54"/>
</a>
</g>
</g>
<!-- Node6 -->
<g id="Node000006" class="node">
<title>Node6</title>
<g id="a_Node000006"><a xlink:href="$classmedicines_1_1models_1_1Medicine.html#a6823ec0a9686dd02f46c67a93df23919" xlink:title=" ">
<polygon fill="white" stroke="#666666" points="386.5,-74 207.5,-74 207.5,-55 386.5,-55 386.5,-74"/>
<text text-anchor="middle" x="297" y="-62" font-family="Helvetica,sans-Serif" font-size="10.00">medicines.models.Medicine.save</text>
</a>
</g>
</g>
<!-- Node1&#45;&gt;Node6 -->
<g id="edge21_Node000001_Node000006" class="edge">
<title>Node1&#45;&gt;Node6</title>
<g id="a_edge21_Node000001_Node000006"><a xlink:title=" ">
<path fill="none" stroke="#63b8ff" d="M103.51,-137C126.5,-127.76 162.56,-113.41 194,-101.5 215.7,-93.28 240.14,-84.41 259.65,-77.41"/>
<polygon fill="#63b8ff" stroke="#63b8ff" points="260.84,-80.7 269.08,-74.03 258.48,-74.11 260.84,-80.7"/>
</a>
</g>
</g>
<!-- Node7 -->
<g id="Node000007" class="node">
<title>Node7</title>
<g id="a_Node000007"><a xlink:href="$classmedicines_1_1forms_1_1CreateForm.html#aa12f63c5541574a47d4e23b30c78be14" xlink:title=" ">
<polygon fill="white" stroke="#666666" points="389.5,-19 204.5,-19 204.5,0 389.5,0 389.5,-19"/>
<text text-anchor="middle" x="297" y="-7" font-family="Helvetica,sans-Serif" font-size="10.00">medicines.forms.CreateForm.save</text>
</a>
</g>
</g>
<!-- Node1&#45;&gt;Node7 -->
<g id="edge23_Node000001_Node000007" class="edge">
<title>Node1&#45;&gt;Node7</title>
<g id="a_edge23_Node000001_Node000007"><a xlink:title=" ">
<path fill="none" stroke="#63b8ff" d="M88.53,-136.92C106.36,-117.43 149.58,-72.77 194,-46.5 211.24,-36.31 231.75,-28.2 249.84,-22.2"/>
<polygon fill="#63b8ff" stroke="#63b8ff" points="251.15,-25.46 259.61,-19.09 249.02,-18.79 251.15,-25.46"/>
</a>
</g>
</g>
<!-- Node6&#45;&gt;Node6 -->
<g id="edge22_Node000006_Node000006" class="edge">
<title>Node6&#45;&gt;Node6</title>
<g id="a_edge22_Node000006_Node000006"><a xlink:title=" ">
<path fill="none" stroke="#63b8ff" d="M263.4,-74.08C247.05,-82.73 258.25,-92 297,-92 324.85,-92 338.47,-87.21 337.86,-81.31"/>
<polygon fill="#63b8ff" stroke="#63b8ff" points="340.16,-78.66 330.6,-74.08 335.22,-83.62 340.16,-78.66"/>
</a>
</g>
</g>
<!-- Node7&#45;&gt;Node7 -->
<g id="edge24_Node000007_Node000007" class="edge">
<title>Node7&#45;&gt;Node7</title>
<g id="a_edge24_Node000007_Node000007"><a xlink:title=" ">
<path fill="none" stroke="#63b8ff" d="M263.4,-19.08C247.05,-27.73 258.25,-37 297,-37 324.85,-37 338.47,-32.21 337.86,-26.31"/>
<polygon fill="#63b8ff" stroke="#63b8ff" points="340.16,-23.66 330.6,-19.08 335.22,-28.62 340.16,-23.66"/>
</a>
</g>
</g>
</g>
</svg>
