<?xml version="1.0" encoding="UTF-8" standalone="no"?>
<!DOCTYPE svg PUBLIC "-//W3C//DTD SVG 1.1//EN"
 "http://www.w3.org/Graphics/SVG/1.1/DTD/svg11.dtd">
<!-- Generated by graphviz version 2.43.0 (0)
 -->
<!-- Title: medicines.migrations.0043_auto_20210403_0752.Migration Pages: 1 -->
<svg width="178pt" height="168pt"
 viewBox="0.00 0.00 178.00 168.00" xmlns="http://www.w3.org/2000/svg" xmlns:xlink="http://www.w3.org/1999/xlink">
<g id="graph0" class="graph" transform="scale(1 1) rotate(0) translate(4 164)">
<title>medicines.migrations.0043_auto_20210403_0752.Migration</title>
<!-- Node1 -->
<g id="Node000001" class="node">
<title>Node1</title>
<g id="a_Node000001"><a xlink:title=" ">
<polygon fill="#999999" stroke="transparent" points="170,-75 0,-75 0,0 170,0 170,-75"/>
<text text-anchor="start" x="5" y="-62.5" font-family="Helvetica,sans-Serif" font-size="10.00">medicines.migrations.0043</text>
<text text-anchor="start" x="5" y="-51.5" font-family="Helvetica,sans-Serif" font-size="10.00">_auto_20210403_0752.Migration</text>
<text text-anchor="start" x="24" y="-36.5" font-family="Helvetica,sans-Serif" font-size="10.00">+</text>
<text text-anchor="start" x="57" y="-36.5" font-family="Helvetica,sans-Serif" font-size="10.00">dependencies</text>
<text text-anchor="start" x="24" y="-21.5" font-family="Helvetica,sans-Serif" font-size="10.00">+</text>
<text text-anchor="start" x="57" y="-21.5" font-family="Helvetica,sans-Serif" font-size="10.00">operations</text>
<text text-anchor="start" x="83" y="-6.5" font-family="Helvetica,sans-Serif" font-size="10.00"> </text>
<polygon fill="#666666" stroke="#666666" points="0,-46.5 0,-46.5 170,-46.5 170,-46.5 0,-46.5"/>
<polygon fill="#666666" stroke="#666666" points="0,-16.5 0,-16.5 55,-16.5 55,-16.5 0,-16.5"/>
<polygon fill="#666666" stroke="#666666" points="55,-16.5 55,-16.5 170,-16.5 170,-16.5 55,-16.5"/>
<polygon fill="none" stroke="#666666" points="0,0 0,-75 170,-75 170,0 0,0"/>
</a>
</g>
</g>
<!-- Node2 -->
<g id="Node000002" class="node">
<title>Node2</title>
<g id="a_Node000002"><a xlink:title=" ">
<polygon fill="white" stroke="transparent" points="141.5,-160 28.5,-160 28.5,-111 141.5,-111 141.5,-160"/>
<text text-anchor="start" x="34" y="-147.5" font-family="Helvetica,sans-Serif" font-size="10.00">migrations.Migration</text>
<text text-anchor="start" x="83.5" y="-132.5" font-family="Helvetica,sans-Serif" font-size="10.00"> </text>
<text text-anchor="start" x="83.5" y="-117.5" font-family="Helvetica,sans-Serif" font-size="10.00"> </text>
<polygon fill="#666666" stroke="#666666" points="29,-142.5 29,-142.5 142,-142.5 142,-142.5 29,-142.5"/>
<polygon fill="#666666" stroke="#666666" points="29,-127.5 29,-127.5 142,-127.5 142,-127.5 29,-127.5"/>
<polygon fill="none" stroke="#666666" points="28.5,-111 28.5,-160 141.5,-160 141.5,-111 28.5,-111"/>
</a>
</g>
</g>
<!-- Node2&#45;&gt;Node1 -->
<g id="edge3_Node000001_Node000002" class="edge">
<title>Node2&#45;&gt;Node1</title>
<g id="a_edge3_Node000001_Node000002"><a xlink:title=" ">
<path fill="none" stroke="#63b8ff" d="M85,-100.68C85,-92.38 85,-83.46 85,-75.04"/>
<polygon fill="none" stroke="#63b8ff" points="81.5,-100.77 85,-110.77 88.5,-100.77 81.5,-100.77"/>
</a>
</g>
</g>
</g>
</svg>
