<?xml version="1.0" encoding="UTF-8" standalone="no"?>
<!DOCTYPE svg PUBLIC "-//W3C//DTD SVG 1.1//EN"
 "http://www.w3.org/Graphics/SVG/1.1/DTD/svg11.dtd">
<!-- Generated by graphviz version 2.43.0 (0)
 -->
<!-- Title: medicines.models.MedCat Pages: 1 -->
<svg width="153pt" height="153pt"
 viewBox="0.00 0.00 153.00 153.00" xmlns="http://www.w3.org/2000/svg" xmlns:xlink="http://www.w3.org/1999/xlink">
<g id="graph0" class="graph" transform="scale(1 1) rotate(0) translate(4 149)">
<title>medicines.models.MedCat</title>
<!-- Node1 -->
<g id="Node000001" class="node">
<title>Node1</title>
<g id="a_Node000001"><a xlink:title=" ">
<polygon fill="#999999" stroke="transparent" points="145,-49 5,-49 5,0 145,0 145,-49"/>
<text text-anchor="start" x="10" y="-36.5" font-family="Helvetica,sans-Serif" font-size="10.00">medicines.models.MedCat</text>
<text text-anchor="start" x="28" y="-21.5" font-family="Helvetica,sans-Serif" font-size="10.00">+</text>
<text text-anchor="start" x="60" y="-21.5" font-family="Helvetica,sans-Serif" font-size="10.00">objects</text>
<text text-anchor="start" x="28" y="-6.5" font-family="Helvetica,sans-Serif" font-size="10.00">+</text>
<text text-anchor="start" x="60" y="-6.5" font-family="Helvetica,sans-Serif" font-size="10.00">__str__()</text>
<polygon fill="#666666" stroke="#666666" points="5,-31.5 5,-31.5 145,-31.5 145,-31.5 5,-31.5"/>
<polygon fill="#666666" stroke="#666666" points="5,-16.5 5,-16.5 58,-16.5 58,-16.5 5,-16.5"/>
<polygon fill="#666666" stroke="#666666" points="58,-16.5 58,-16.5 145,-16.5 145,-16.5 58,-16.5"/>
<polygon fill="none" stroke="#666666" points="5,0 5,-49 145,-49 145,0 5,0"/>
</a>
</g>
</g>
<!-- Node2 -->
<g id="Node000002" class="node">
<title>Node2</title>
<g id="a_Node000002"><a xlink:title=" ">
<polygon fill="white" stroke="transparent" points="80,-145 0,-145 0,-96 80,-96 80,-145"/>
<text text-anchor="start" x="5" y="-132.5" font-family="Helvetica,sans-Serif" font-size="10.00">models.Model</text>
<text text-anchor="start" x="38" y="-117.5" font-family="Helvetica,sans-Serif" font-size="10.00"> </text>
<text text-anchor="start" x="38" y="-102.5" font-family="Helvetica,sans-Serif" font-size="10.00"> </text>
<polygon fill="#666666" stroke="#666666" points="0,-127.5 0,-127.5 80,-127.5 80,-127.5 0,-127.5"/>
<polygon fill="#666666" stroke="#666666" points="0,-112.5 0,-112.5 80,-112.5 80,-112.5 0,-112.5"/>
<polygon fill="none" stroke="#666666" points="0,-96 0,-145 80,-145 80,-96 0,-96"/>
</a>
</g>
</g>
<!-- Node2&#45;&gt;Node1 -->
<g id="edge5_Node000001_Node000002" class="edge">
<title>Node2&#45;&gt;Node1</title>
<g id="a_edge5_Node000001_Node000002"><a xlink:title=" ">
<path fill="none" stroke="#63b8ff" d="M52.35,-86.32C56.91,-74.08 61.98,-60.46 66.17,-49.21"/>
<polygon fill="none" stroke="#63b8ff" points="49.04,-85.19 48.83,-95.78 55.6,-87.63 49.04,-85.19"/>
</a>
</g>
</g>
<!-- Node3 -->
<g id="Node000003" class="node">
<title>Node3</title>
<g id="a_Node000003"><a xlink:title=" ">
<polygon fill="white" stroke="transparent" points="121.5,-145 98.5,-145 98.5,-96 121.5,-96 121.5,-145"/>
<text text-anchor="start" x="104" y="-132.5" font-family="Helvetica,sans-Serif" font-size="10.00">str</text>
<text text-anchor="start" x="108.5" y="-117.5" font-family="Helvetica,sans-Serif" font-size="10.00"> </text>
<text text-anchor="start" x="108.5" y="-102.5" font-family="Helvetica,sans-Serif" font-size="10.00"> </text>
<polygon fill="#666666" stroke="#666666" points="99,-127.5 99,-127.5 122,-127.5 122,-127.5 99,-127.5"/>
<polygon fill="#666666" stroke="#666666" points="99,-112.5 99,-112.5 122,-112.5 122,-112.5 99,-112.5"/>
<polygon fill="none" stroke="#666666" points="98.5,-96 98.5,-145 121.5,-145 121.5,-96 98.5,-96"/>
</a>
</g>
</g>
<!-- Node3&#45;&gt;Node1 -->
<g id="edge6_Node000001_Node000003" class="edge">
<title>Node3&#45;&gt;Node1</title>
<g id="a_edge6_Node000001_Node000003"><a xlink:title=" ">
<path fill="none" stroke="#63b8ff" d="M101.17,-95.78C97.19,-85.09 92.41,-72.26 88.03,-60.5"/>
<polygon fill="none" stroke="#63b8ff" points="88.02,-60.46 82.17,-56.23 83.83,-49.21 89.67,-53.44 88.02,-60.46"/>
</a>
</g>
<text text-anchor="middle" x="113" y="-70" font-family="Helvetica,sans-Serif" font-size="10.00" fill="grey"> +name</text>
</g>
</g>
</svg>
