<?xml version="1.0" encoding="UTF-8" standalone="no"?>
<!DOCTYPE svg PUBLIC "-//W3C//DTD SVG 1.1//EN"
 "http://www.w3.org/Graphics/SVG/1.1/DTD/svg11.dtd">
<!-- Generated by graphviz version 2.43.0 (0)
 -->
<!-- Title: cart.migrations.0004_cartitem_total.Migration Pages: 1 -->
<svg width="142pt" height="168pt"
 viewBox="0.00 0.00 142.00 168.00" xmlns="http://www.w3.org/2000/svg" xmlns:xlink="http://www.w3.org/1999/xlink">
<g id="graph0" class="graph" transform="scale(1 1) rotate(0) translate(4 164)">
<title>cart.migrations.0004_cartitem_total.Migration</title>
<!-- Node1 -->
<g id="Node000001" class="node">
<title>Node1</title>
<g id="a_Node000001"><a xlink:title=" ">
<polygon fill="#999999" stroke="transparent" points="134,-75 0,-75 0,0 134,0 134,-75"/>
<text text-anchor="start" x="5" y="-62.5" font-family="Helvetica,sans-Serif" font-size="10.00">cart.migrations.0004</text>
<text text-anchor="start" x="5" y="-51.5" font-family="Helvetica,sans-Serif" font-size="10.00">_cartitem_total.Migration</text>
<text text-anchor="start" x="15" y="-36.5" font-family="Helvetica,sans-Serif" font-size="10.00">+</text>
<text text-anchor="start" x="39" y="-36.5" font-family="Helvetica,sans-Serif" font-size="10.00">dependencies</text>
<text text-anchor="start" x="15" y="-21.5" font-family="Helvetica,sans-Serif" font-size="10.00">+</text>
<text text-anchor="start" x="39" y="-21.5" font-family="Helvetica,sans-Serif" font-size="10.00">operations</text>
<text text-anchor="start" x="65" y="-6.5" font-family="Helvetica,sans-Serif" font-size="10.00"> </text>
<polygon fill="#666666" stroke="#666666" points="0,-46.5 0,-46.5 134,-46.5 134,-46.5 0,-46.5"/>
<polygon fill="#666666" stroke="#666666" points="0,-16.5 0,-16.5 37,-16.5 37,-16.5 0,-16.5"/>
<polygon fill="#666666" stroke="#666666" points="37,-16.5 37,-16.5 134,-16.5 134,-16.5 37,-16.5"/>
<polygon fill="none" stroke="#666666" points="0,0 0,-75 134,-75 134,0 0,0"/>
</a>
</g>
</g>
<!-- Node2 -->
<g id="Node000002" class="node">
<title>Node2</title>
<g id="a_Node000002"><a xlink:title=" ">
<polygon fill="white" stroke="transparent" points="123.5,-160 10.5,-160 10.5,-111 123.5,-111 123.5,-160"/>
<text text-anchor="start" x="16" y="-147.5" font-family="Helvetica,sans-Serif" font-size="10.00">migrations.Migration</text>
<text text-anchor="start" x="65.5" y="-132.5" font-family="Helvetica,sans-Serif" font-size="10.00"> </text>
<text text-anchor="start" x="65.5" y="-117.5" font-family="Helvetica,sans-Serif" font-size="10.00"> </text>
<polygon fill="#666666" stroke="#666666" points="11,-142.5 11,-142.5 124,-142.5 124,-142.5 11,-142.5"/>
<polygon fill="#666666" stroke="#666666" points="11,-127.5 11,-127.5 124,-127.5 124,-127.5 11,-127.5"/>
<polygon fill="none" stroke="#666666" points="10.5,-111 10.5,-160 123.5,-160 123.5,-111 10.5,-111"/>
</a>
</g>
</g>
<!-- Node2&#45;&gt;Node1 -->
<g id="edge3_Node000001_Node000002" class="edge">
<title>Node2&#45;&gt;Node1</title>
<g id="a_edge3_Node000001_Node000002"><a xlink:title=" ">
<path fill="none" stroke="#63b8ff" d="M67,-100.68C67,-92.38 67,-83.46 67,-75.04"/>
<polygon fill="none" stroke="#63b8ff" points="63.5,-100.77 67,-110.77 70.5,-100.77 63.5,-100.77"/>
</a>
</g>
</g>
</g>
</svg>
