<?xml version="1.0" encoding="UTF-8" standalone="no"?>
<!DOCTYPE svg PUBLIC "-//W3C//DTD SVG 1.1//EN"
 "http://www.w3.org/Graphics/SVG/1.1/DTD/svg11.dtd">
<!-- Generated by graphviz version 2.43.0 (0)
 -->
<!-- Title: medicines.admin.Setup Pages: 1 -->
<svg width="206pt" height="186pt"
 viewBox="0.00 0.00 205.50 186.00" xmlns="http://www.w3.org/2000/svg" xmlns:xlink="http://www.w3.org/1999/xlink">
<g id="graph0" class="graph" transform="scale(1 1) rotate(0) translate(4 182)">
<title>medicines.admin.Setup</title>
<!-- Node1 -->
<g id="Node000001" class="node">
<title>Node1</title>
<g id="a_Node000001"><a xlink:title=" ">
<polygon fill="#999999" stroke="transparent" points="160,-49 35,-49 35,0 160,0 160,-49"/>
<text text-anchor="start" x="40.5" y="-36.5" font-family="Helvetica,sans-Serif" font-size="10.00">medicines.admin.Setup</text>
<text text-anchor="start" x="96" y="-21.5" font-family="Helvetica,sans-Serif" font-size="10.00"> </text>
<text text-anchor="start" x="96" y="-6.5" font-family="Helvetica,sans-Serif" font-size="10.00"> </text>
<polygon fill="#666666" stroke="#666666" points="35.5,-31.5 35.5,-31.5 160.5,-31.5 160.5,-31.5 35.5,-31.5"/>
<polygon fill="#666666" stroke="#666666" points="35.5,-16.5 35.5,-16.5 160.5,-16.5 160.5,-16.5 35.5,-16.5"/>
<polygon fill="none" stroke="#666666" points="35,0 35,-49 160,-49 160,0 35,0"/>
</a>
</g>
</g>
<!-- Node2 -->
<g id="Node000002" class="node">
<title>Node2</title>
<g id="a_Node000002"><a xlink:title=" ">
<polygon fill="white" stroke="transparent" points="109,-178 0,-178 0,-129 109,-129 109,-178"/>
<text text-anchor="start" x="5.5" y="-165.5" font-family="Helvetica,sans-Serif" font-size="10.00">admin::ModelAdmin</text>
<text text-anchor="start" x="53" y="-150.5" font-family="Helvetica,sans-Serif" font-size="10.00"> </text>
<text text-anchor="start" x="53" y="-135.5" font-family="Helvetica,sans-Serif" font-size="10.00"> </text>
<polygon fill="#666666" stroke="#666666" points="0.5,-160.5 0.5,-160.5 109.5,-160.5 109.5,-160.5 0.5,-160.5"/>
<polygon fill="#666666" stroke="#666666" points="0.5,-145.5 0.5,-145.5 109.5,-145.5 109.5,-145.5 0.5,-145.5"/>
<polygon fill="none" stroke="#666666" points="0,-129 0,-178 109,-178 109,-129 0,-129"/>
</a>
</g>
</g>
<!-- Node2&#45;&gt;Node1 -->
<g id="edge5_Node000001_Node000002" class="edge">
<title>Node2&#45;&gt;Node1</title>
<g id="a_edge5_Node000001_Node000002"><a xlink:title=" ">
<path fill="none" stroke="#63b8ff" d="M65.73,-119.33C73.16,-97.39 82.72,-69.14 89.41,-49.39"/>
<polygon fill="none" stroke="#63b8ff" points="62.38,-118.32 62.49,-128.91 69.01,-120.56 62.38,-118.32"/>
</a>
</g>
</g>
<!-- Node3 -->
<g id="Node000003" class="node">
<title>Node3</title>
<g id="a_Node000003"><a xlink:title=" ">
<polygon fill="white" stroke="transparent" points="153.5,-178 127.5,-178 127.5,-129 153.5,-129 153.5,-178"/>
<text text-anchor="start" x="132.5" y="-165.5" font-family="Helvetica,sans-Serif" font-size="10.00">list</text>
<text text-anchor="start" x="138.5" y="-150.5" font-family="Helvetica,sans-Serif" font-size="10.00"> </text>
<text text-anchor="start" x="138.5" y="-135.5" font-family="Helvetica,sans-Serif" font-size="10.00"> </text>
<polygon fill="#666666" stroke="#666666" points="127.5,-160.5 127.5,-160.5 153.5,-160.5 153.5,-160.5 127.5,-160.5"/>
<polygon fill="#666666" stroke="#666666" points="127.5,-145.5 127.5,-145.5 153.5,-145.5 153.5,-145.5 127.5,-145.5"/>
<polygon fill="none" stroke="#666666" points="127.5,-129 127.5,-178 153.5,-178 153.5,-129 127.5,-129"/>
</a>
</g>
</g>
<!-- Node3&#45;&gt;Node1 -->
<g id="edge6_Node000001_Node000003" class="edge">
<title>Node3&#45;&gt;Node1</title>
<g id="a_edge6_Node000001_Node000003"><a xlink:title=" ">
<path fill="none" stroke="#63b8ff" d="M132.51,-128.91C126.04,-109.78 116.81,-82.53 109.46,-60.81"/>
<polygon fill="none" stroke="#63b8ff" points="109.44,-60.76 103.73,-56.36 105.59,-49.39 111.3,-53.79 109.44,-60.76"/>
</a>
</g>
<text text-anchor="middle" x="161" y="-103" font-family="Helvetica,sans-Serif" font-size="10.00" fill="grey"> +fieldsets</text>
<text text-anchor="middle" x="161" y="-92" font-family="Helvetica,sans-Serif" font-size="10.00" fill="grey">+list_display</text>
<text text-anchor="middle" x="161" y="-81" font-family="Helvetica,sans-Serif" font-size="10.00" fill="grey">+list_filter</text>
<text text-anchor="middle" x="161" y="-70" font-family="Helvetica,sans-Serif" font-size="10.00" fill="grey">+search_fields</text>
</g>
</g>
</svg>
