<?xml version="1.0" encoding="UTF-8" standalone="no"?>
<!DOCTYPE svg PUBLIC "-//W3C//DTD SVG 1.1//EN"
 "http://www.w3.org/Graphics/SVG/1.1/DTD/svg11.dtd">
<!-- Generated by graphviz version 2.43.0 (0)
 -->
<!-- Title: medicines.owner.OwnerUpdateView Pages: 1 -->
<svg width="246pt" height="142pt"
 viewBox="0.00 0.00 245.50 142.00" xmlns="http://www.w3.org/2000/svg" xmlns:xlink="http://www.w3.org/1999/xlink">
<g id="graph0" class="graph" transform="scale(1 1) rotate(0) translate(4 138)">
<title>medicines.owner.OwnerUpdateView</title>
<!-- Node1 -->
<g id="Node000001" class="node">
<title>Node1</title>
<g id="a_Node000001"><a xlink:title=" ">
<polygon fill="#999999" stroke="transparent" points="211,-49 24,-49 24,0 211,0 211,-49"/>
<text text-anchor="start" x="29.5" y="-36.5" font-family="Helvetica,sans-Serif" font-size="10.00">medicines.owner.OwnerUpdateView</text>
<text text-anchor="start" x="116" y="-21.5" font-family="Helvetica,sans-Serif" font-size="10.00"> </text>
<text text-anchor="start" x="52" y="-6.5" font-family="Helvetica,sans-Serif" font-size="10.00">+</text>
<text text-anchor="start" x="88.5" y="-6.5" font-family="Helvetica,sans-Serif" font-size="10.00">get_queryset()</text>
<polygon fill="#666666" stroke="#666666" points="24.5,-31.5 24.5,-31.5 211.5,-31.5 211.5,-31.5 24.5,-31.5"/>
<polygon fill="#666666" stroke="#666666" points="24.5,-16.5 24.5,-16.5 211.5,-16.5 211.5,-16.5 24.5,-16.5"/>
<polygon fill="none" stroke="#666666" points="24,0 24,-49 211,-49 211,0 24,0"/>
</a>
</g>
</g>
<!-- Node2 -->
<g id="Node000002" class="node">
<title>Node2</title>
<g id="a_Node000002"><a xlink:title=" ">
<polygon fill="white" stroke="transparent" points="107,-134 0,-134 0,-85 107,-85 107,-134"/>
<text text-anchor="start" x="5.5" y="-121.5" font-family="Helvetica,sans-Serif" font-size="10.00">LoginRequiredMixin</text>
<text text-anchor="start" x="52" y="-106.5" font-family="Helvetica,sans-Serif" font-size="10.00"> </text>
<text text-anchor="start" x="52" y="-91.5" font-family="Helvetica,sans-Serif" font-size="10.00"> </text>
<polygon fill="#666666" stroke="#666666" points="0.5,-116.5 0.5,-116.5 107.5,-116.5 107.5,-116.5 0.5,-116.5"/>
<polygon fill="#666666" stroke="#666666" points="0.5,-101.5 0.5,-101.5 107.5,-101.5 107.5,-101.5 0.5,-101.5"/>
<polygon fill="none" stroke="#666666" points="0,-85 0,-134 107,-134 107,-85 0,-85"/>
</a>
</g>
</g>
<!-- Node2&#45;&gt;Node1 -->
<g id="edge5_Node000001_Node000002" class="edge">
<title>Node2&#45;&gt;Node1</title>
<g id="a_edge5_Node000001_Node000002"><a xlink:title=" ">
<path fill="none" stroke="#63b8ff" d="M77.98,-76.75C85.06,-67.57 92.66,-57.71 99.29,-49.12"/>
<polygon fill="none" stroke="#63b8ff" points="75,-74.88 71.67,-84.94 80.55,-79.16 75,-74.88"/>
</a>
</g>
</g>
<!-- Node3 -->
<g id="Node000003" class="node">
<title>Node3</title>
<g id="a_Node000003"><a xlink:title=" ">
<polygon fill="white" stroke="transparent" points="237.5,-134 125.5,-134 125.5,-85 237.5,-85 237.5,-134"/>
<text text-anchor="start" x="130.5" y="-121.5" font-family="Helvetica,sans-Serif" font-size="10.00">generic::UpdateView</text>
<text text-anchor="start" x="179.5" y="-106.5" font-family="Helvetica,sans-Serif" font-size="10.00"> </text>
<text text-anchor="start" x="179.5" y="-91.5" font-family="Helvetica,sans-Serif" font-size="10.00"> </text>
<polygon fill="#666666" stroke="#666666" points="125.5,-116.5 125.5,-116.5 237.5,-116.5 237.5,-116.5 125.5,-116.5"/>
<polygon fill="#666666" stroke="#666666" points="125.5,-101.5 125.5,-101.5 237.5,-101.5 237.5,-101.5 125.5,-101.5"/>
<polygon fill="none" stroke="#666666" points="125.5,-85 125.5,-134 237.5,-134 237.5,-85 125.5,-85"/>
</a>
</g>
</g>
<!-- Node3&#45;&gt;Node1 -->
<g id="edge6_Node000001_Node000003" class="edge">
<title>Node3&#45;&gt;Node1</title>
<g id="a_edge6_Node000001_Node000003"><a xlink:title=" ">
<path fill="none" stroke="#63b8ff" d="M157.02,-76.75C149.94,-67.57 142.34,-57.71 135.71,-49.12"/>
<polygon fill="none" stroke="#63b8ff" points="154.45,-79.16 163.33,-84.94 160,-74.88 154.45,-79.16"/>
</a>
</g>
</g>
</g>
</svg>
