<?xml version="1.0" encoding="UTF-8" standalone="no"?>
<!DOCTYPE svg PUBLIC "-//W3C//DTD SVG 1.1//EN"
 "http://www.w3.org/Graphics/SVG/1.1/DTD/svg11.dtd">
<!-- Generated by graphviz version 2.43.0 (0)
 -->
<!-- Title: api.views.checkout.APIBillingAddress Pages: 1 -->
<svg width="161pt" height="183pt"
 viewBox="0.00 0.00 161.00 183.00" xmlns="http://www.w3.org/2000/svg" xmlns:xlink="http://www.w3.org/1999/xlink">
<g id="graph0" class="graph" transform="scale(1 1) rotate(0) translate(4 179)">
<title>api.views.checkout.APIBillingAddress</title>
<!-- Node1 -->
<g id="Node000001" class="node">
<title>Node1</title>
<g id="a_Node000001"><a xlink:title=" ">
<polygon fill="#999999" stroke="transparent" points="153,-90 0,-90 0,0 153,0 153,-90"/>
<text text-anchor="start" x="5.5" y="-78" font-family="Helvetica,sans-Serif" font-size="10.00">api.views.checkout.APIBilling</text>
<text text-anchor="start" x="57" y="-67" font-family="Helvetica,sans-Serif" font-size="10.00">Address</text>
<text text-anchor="start" x="75" y="-52" font-family="Helvetica,sans-Serif" font-size="10.00"> </text>
<text text-anchor="start" x="20.5" y="-37" font-family="Helvetica,sans-Serif" font-size="10.00">+</text>
<text text-anchor="start" x="49.5" y="-37" font-family="Helvetica,sans-Serif" font-size="10.00">get_address()</text>
<text text-anchor="start" x="20.5" y="-22" font-family="Helvetica,sans-Serif" font-size="10.00">+</text>
<text text-anchor="start" x="49.5" y="-22" font-family="Helvetica,sans-Serif" font-size="10.00">get()</text>
<text text-anchor="start" x="20.5" y="-7" font-family="Helvetica,sans-Serif" font-size="10.00">+</text>
<text text-anchor="start" x="49.5" y="-7" font-family="Helvetica,sans-Serif" font-size="10.00">post()</text>
<polygon fill="#666666" stroke="#666666" points="0.5,-62 0.5,-62 153.5,-62 153.5,-62 0.5,-62"/>
<polygon fill="#666666" stroke="#666666" points="0.5,-47 0.5,-47 153.5,-47 153.5,-47 0.5,-47"/>
<polygon fill="none" stroke="#666666" points="0,0 0,-90 153,-90 153,0 0,0"/>
</a>
</g>
</g>
<!-- Node2 -->
<g id="Node000002" class="node">
<title>Node2</title>
<g id="a_Node000002"><a xlink:title=" ">
<polygon fill="white" stroke="transparent" points="94,-175 59,-175 59,-126 94,-126 94,-175"/>
<text text-anchor="start" x="64.5" y="-162.5" font-family="Helvetica,sans-Serif" font-size="10.00">View</text>
<text text-anchor="start" x="75" y="-147.5" font-family="Helvetica,sans-Serif" font-size="10.00"> </text>
<text text-anchor="start" x="75" y="-132.5" font-family="Helvetica,sans-Serif" font-size="10.00"> </text>
<polygon fill="#666666" stroke="#666666" points="59.5,-157.5 59.5,-157.5 94.5,-157.5 94.5,-157.5 59.5,-157.5"/>
<polygon fill="#666666" stroke="#666666" points="59.5,-142.5 59.5,-142.5 94.5,-142.5 94.5,-142.5 59.5,-142.5"/>
<polygon fill="none" stroke="#666666" points="59,-126 59,-175 94,-175 94,-126 59,-126"/>
</a>
</g>
</g>
<!-- Node2&#45;&gt;Node1 -->
<g id="edge3_Node000001_Node000002" class="edge">
<title>Node2&#45;&gt;Node1</title>
<g id="a_edge3_Node000001_Node000002"><a xlink:title=" ">
<path fill="none" stroke="#63b8ff" d="M76.5,-115.62C76.5,-107.56 76.5,-98.84 76.5,-90.39"/>
<polygon fill="none" stroke="#63b8ff" points="73,-115.75 76.5,-125.76 80,-115.76 73,-115.75"/>
</a>
</g>
</g>
</g>
</svg>
