<?xml version="1.0" encoding="UTF-8" standalone="no"?>
<!DOCTYPE svg PUBLIC "-//W3C//DTD SVG 1.1//EN"
 "http://www.w3.org/Graphics/SVG/1.1/DTD/svg11.dtd">
<!-- Generated by graphviz version 2.43.0 (0)
 -->
<!-- Title: accounts.models.SellerProfile Pages: 1 -->
<svg width="163pt" height="187pt"
 viewBox="0.00 0.00 163.00 187.00" xmlns="http://www.w3.org/2000/svg" xmlns:xlink="http://www.w3.org/1999/xlink">
<g id="graph0" class="graph" transform="scale(1 1) rotate(0) translate(4 183)">
<title>accounts.models.SellerProfile</title>
<!-- Node1 -->
<g id="Node000001" class="node">
<title>Node1</title>
<g id="a_Node000001"><a xlink:title=" ">
<polygon fill="#999999" stroke="transparent" points="155,-94 0,-94 0,0 155,0 155,-94"/>
<text text-anchor="start" x="5.5" y="-82" font-family="Helvetica,sans-Serif" font-size="10.00">accounts.models.SellerProfile</text>
<text text-anchor="start" x="23.5" y="-67" font-family="Helvetica,sans-Serif" font-size="10.00">+</text>
<text text-anchor="start" x="55.5" y="-67" font-family="Helvetica,sans-Serif" font-size="10.00">user</text>
<text text-anchor="start" x="23.5" y="-52" font-family="Helvetica,sans-Serif" font-size="10.00">+</text>
<text text-anchor="start" x="55.5" y="-52" font-family="Helvetica,sans-Serif" font-size="10.00">store_name</text>
<text text-anchor="start" x="23.5" y="-37" font-family="Helvetica,sans-Serif" font-size="10.00">+</text>
<text text-anchor="start" x="55.5" y="-37" font-family="Helvetica,sans-Serif" font-size="10.00">address</text>
<text text-anchor="start" x="23.5" y="-22" font-family="Helvetica,sans-Serif" font-size="10.00">+</text>
<text text-anchor="start" x="55.5" y="-22" font-family="Helvetica,sans-Serif" font-size="10.00">pincode</text>
<text text-anchor="start" x="23.5" y="-7" font-family="Helvetica,sans-Serif" font-size="10.00">+</text>
<text text-anchor="start" x="55.5" y="-7" font-family="Helvetica,sans-Serif" font-size="10.00">__str__()</text>
<polygon fill="#666666" stroke="#666666" points="0.5,-77 0.5,-77 155.5,-77 155.5,-77 0.5,-77"/>
<polygon fill="#666666" stroke="#666666" points="0.5,-17 0.5,-17 53.5,-17 53.5,-17 0.5,-17"/>
<polygon fill="#666666" stroke="#666666" points="53.5,-17 53.5,-17 155.5,-17 155.5,-17 53.5,-17"/>
<polygon fill="none" stroke="#666666" points="0,0 0,-94 155,-94 155,0 0,0"/>
</a>
</g>
</g>
<!-- Node2 -->
<g id="Node000002" class="node">
<title>Node2</title>
<g id="a_Node000002"><a xlink:title=" ">
<polygon fill="white" stroke="transparent" points="119,-179 36,-179 36,-130 119,-130 119,-179"/>
<text text-anchor="start" x="41.5" y="-166.5" font-family="Helvetica,sans-Serif" font-size="10.00">models::Model</text>
<text text-anchor="start" x="76" y="-151.5" font-family="Helvetica,sans-Serif" font-size="10.00"> </text>
<text text-anchor="start" x="76" y="-136.5" font-family="Helvetica,sans-Serif" font-size="10.00"> </text>
<polygon fill="#666666" stroke="#666666" points="36.5,-161.5 36.5,-161.5 119.5,-161.5 119.5,-161.5 36.5,-161.5"/>
<polygon fill="#666666" stroke="#666666" points="36.5,-146.5 36.5,-146.5 119.5,-146.5 119.5,-146.5 36.5,-146.5"/>
<polygon fill="none" stroke="#666666" points="36,-130 36,-179 119,-179 119,-130 36,-130"/>
</a>
</g>
</g>
<!-- Node2&#45;&gt;Node1 -->
<g id="edge3_Node000001_Node000002" class="edge">
<title>Node2&#45;&gt;Node1</title>
<g id="a_edge3_Node000001_Node000002"><a xlink:title=" ">
<path fill="none" stroke="#63b8ff" d="M77.5,-119.61C77.5,-111.48 77.5,-102.66 77.5,-94.08"/>
<polygon fill="none" stroke="#63b8ff" points="74,-119.82 77.5,-129.82 81,-119.82 74,-119.82"/>
</a>
</g>
</g>
</g>
</svg>
