<?xml version="1.0" encoding="UTF-8" standalone="no"?>
<!DOCTYPE svg PUBLIC "-//W3C//DTD SVG 1.1//EN"
 "http://www.w3.org/Graphics/SVG/1.1/DTD/svg11.dtd">
<!-- Generated by graphviz version 2.43.0 (0)
 -->
<!-- Title: medicines.admin.Setup Pages: 1 -->
<svg width="133pt" height="187pt"
 viewBox="0.00 0.00 133.00 187.00" xmlns="http://www.w3.org/2000/svg" xmlns:xlink="http://www.w3.org/1999/xlink">
<g id="graph0" class="graph" transform="scale(1 1) rotate(0) translate(4 183)">
<title>medicines.admin.Setup</title>
<!-- Node1 -->
<g id="Node000001" class="node">
<title>Node1</title>
<g id="a_Node000001"><a xlink:title=" ">
<polygon fill="#999999" stroke="transparent" points="125,-94 0,-94 0,0 125,0 125,-94"/>
<text text-anchor="start" x="5.5" y="-82" font-family="Helvetica,sans-Serif" font-size="10.00">medicines.admin.Setup</text>
<text text-anchor="start" x="14.5" y="-67" font-family="Helvetica,sans-Serif" font-size="10.00">+</text>
<text text-anchor="start" x="37.5" y="-67" font-family="Helvetica,sans-Serif" font-size="10.00">list_display</text>
<text text-anchor="start" x="14.5" y="-52" font-family="Helvetica,sans-Serif" font-size="10.00">+</text>
<text text-anchor="start" x="37.5" y="-52" font-family="Helvetica,sans-Serif" font-size="10.00">fieldsets</text>
<text text-anchor="start" x="14.5" y="-37" font-family="Helvetica,sans-Serif" font-size="10.00">+</text>
<text text-anchor="start" x="37.5" y="-37" font-family="Helvetica,sans-Serif" font-size="10.00">search_fields</text>
<text text-anchor="start" x="14.5" y="-22" font-family="Helvetica,sans-Serif" font-size="10.00">+</text>
<text text-anchor="start" x="37.5" y="-22" font-family="Helvetica,sans-Serif" font-size="10.00">list_filter</text>
<text text-anchor="start" x="61" y="-7" font-family="Helvetica,sans-Serif" font-size="10.00"> </text>
<polygon fill="#666666" stroke="#666666" points="0.5,-77 0.5,-77 125.5,-77 125.5,-77 0.5,-77"/>
<polygon fill="#666666" stroke="#666666" points="0.5,-17 0.5,-17 35.5,-17 35.5,-17 0.5,-17"/>
<polygon fill="#666666" stroke="#666666" points="35.5,-17 35.5,-17 125.5,-17 125.5,-17 35.5,-17"/>
<polygon fill="none" stroke="#666666" points="0,0 0,-94 125,-94 125,0 0,0"/>
</a>
</g>
</g>
<!-- Node2 -->
<g id="Node000002" class="node">
<title>Node2</title>
<g id="a_Node000002"><a xlink:title=" ">
<polygon fill="white" stroke="transparent" points="117,-179 8,-179 8,-130 117,-130 117,-179"/>
<text text-anchor="start" x="13.5" y="-166.5" font-family="Helvetica,sans-Serif" font-size="10.00">admin::ModelAdmin</text>
<text text-anchor="start" x="61" y="-151.5" font-family="Helvetica,sans-Serif" font-size="10.00"> </text>
<text text-anchor="start" x="61" y="-136.5" font-family="Helvetica,sans-Serif" font-size="10.00"> </text>
<polygon fill="#666666" stroke="#666666" points="8.5,-161.5 8.5,-161.5 117.5,-161.5 117.5,-161.5 8.5,-161.5"/>
<polygon fill="#666666" stroke="#666666" points="8.5,-146.5 8.5,-146.5 117.5,-146.5 117.5,-146.5 8.5,-146.5"/>
<polygon fill="none" stroke="#666666" points="8,-130 8,-179 117,-179 117,-130 8,-130"/>
</a>
</g>
</g>
<!-- Node2&#45;&gt;Node1 -->
<g id="edge3_Node000001_Node000002" class="edge">
<title>Node2&#45;&gt;Node1</title>
<g id="a_edge3_Node000001_Node000002"><a xlink:title=" ">
<path fill="none" stroke="#63b8ff" d="M62.5,-119.61C62.5,-111.48 62.5,-102.66 62.5,-94.08"/>
<polygon fill="none" stroke="#63b8ff" points="59,-119.82 62.5,-129.82 66,-119.82 59,-119.82"/>
</a>
</g>
</g>
</g>
</svg>
