<?xml version="1.0" encoding="UTF-8" standalone="no"?>
<!DOCTYPE svg PUBLIC "-//W3C//DTD SVG 1.1//EN"
 "http://www.w3.org/Graphics/SVG/1.1/DTD/svg11.dtd">
<!-- Generated by graphviz version 2.43.0 (0)
 -->
<!-- Title: accounts.apps.AccountsConfig Pages: 1 -->
<svg width="166pt" height="142pt"
 viewBox="0.00 0.00 166.00 142.00" xmlns="http://www.w3.org/2000/svg" xmlns:xlink="http://www.w3.org/1999/xlink">
<g id="graph0" class="graph" transform="scale(1 1) rotate(0) translate(4 138)">
<title>accounts.apps.AccountsConfig</title>
<!-- Node1 -->
<g id="Node000001" class="node">
<title>Node1</title>
<g id="a_Node000001"><a xlink:title=" ">
<polygon fill="#999999" stroke="transparent" points="158,-49 0,-49 0,0 158,0 158,-49"/>
<text text-anchor="start" x="5" y="-36.5" font-family="Helvetica,sans-Serif" font-size="10.00">accounts.apps.AccountsConfig</text>
<text text-anchor="start" x="31" y="-21.5" font-family="Helvetica,sans-Serif" font-size="10.00">+</text>
<text text-anchor="start" x="71" y="-21.5" font-family="Helvetica,sans-Serif" font-size="10.00">name</text>
<text text-anchor="start" x="77" y="-6.5" font-family="Helvetica,sans-Serif" font-size="10.00"> </text>
<polygon fill="#666666" stroke="#666666" points="0,-31.5 0,-31.5 158,-31.5 158,-31.5 0,-31.5"/>
<polygon fill="#666666" stroke="#666666" points="0,-16.5 0,-16.5 69,-16.5 69,-16.5 0,-16.5"/>
<polygon fill="#666666" stroke="#666666" points="69,-16.5 69,-16.5 158,-16.5 158,-16.5 69,-16.5"/>
<polygon fill="none" stroke="#666666" points="0,0 0,-49 158,-49 158,0 0,0"/>
</a>
</g>
</g>
<!-- Node2 -->
<g id="Node000002" class="node">
<title>Node2</title>
<g id="a_Node000002"><a xlink:title=" ">
<polygon fill="white" stroke="transparent" points="109,-134 49,-134 49,-85 109,-85 109,-134"/>
<text text-anchor="start" x="54" y="-121.5" font-family="Helvetica,sans-Serif" font-size="10.00">AppConfig</text>
<text text-anchor="start" x="77" y="-106.5" font-family="Helvetica,sans-Serif" font-size="10.00"> </text>
<text text-anchor="start" x="77" y="-91.5" font-family="Helvetica,sans-Serif" font-size="10.00"> </text>
<polygon fill="#666666" stroke="#666666" points="49,-116.5 49,-116.5 109,-116.5 109,-116.5 49,-116.5"/>
<polygon fill="#666666" stroke="#666666" points="49,-101.5 49,-101.5 109,-101.5 109,-101.5 49,-101.5"/>
<polygon fill="none" stroke="#666666" points="49,-85 49,-134 109,-134 109,-85 49,-85"/>
</a>
</g>
</g>
<!-- Node2&#45;&gt;Node1 -->
<g id="edge3_Node000001_Node000002" class="edge">
<title>Node2&#45;&gt;Node1</title>
<g id="a_edge3_Node000001_Node000002"><a xlink:title=" ">
<path fill="none" stroke="#63b8ff" d="M79,-74.77C79,-66.17 79,-57.1 79,-49.12"/>
<polygon fill="none" stroke="#63b8ff" points="75.5,-74.94 79,-84.94 82.5,-74.94 75.5,-74.94"/>
</a>
</g>
</g>
</g>
</svg>
