<?xml version="1.0" encoding="UTF-8" standalone="no"?>
<!DOCTYPE svg PUBLIC "-//W3C//DTD SVG 1.1//EN"
 "http://www.w3.org/Graphics/SVG/1.1/DTD/svg11.dtd">
<!-- Generated by graphviz version 2.43.0 (0)
 -->
<!-- Title: medical.sitemaps.StaticSitemap.items Pages: 1 -->
<svg width="408pt" height="113pt"
 viewBox="0.00 0.00 408.00 112.50" xmlns="http://www.w3.org/2000/svg" xmlns:xlink="http://www.w3.org/1999/xlink">
<g id="graph0" class="graph" transform="scale(1 1) rotate(0) translate(4 108.5)">
<title>medical.sitemaps.StaticSitemap.items</title>
<!-- Node1 -->
<g id="Node000001" class="node">
<title>Node1</title>
<g id="a_Node000001"><a xlink:title=" ">
<polygon fill="#999999" stroke="#666666" points="400,-67.5 194,-67.5 194,-48.5 400,-48.5 400,-67.5"/>
<text text-anchor="middle" x="297" y="-55.5" font-family="Helvetica,sans-Serif" font-size="10.00">medical.sitemaps.StaticSitemap.items</text>
</a>
</g>
</g>
<!-- Node2 -->
<g id="Node000002" class="node">
<title>Node2</title>
<g id="a_Node000002"><a xlink:href="$classcart_1_1models_1_1Order.html#ad8f1226c6c88883e5951e8f460e519a9" xlink:title=" ">
<polygon fill="white" stroke="#666666" points="150.5,-104.5 7.5,-104.5 7.5,-85.5 150.5,-85.5 150.5,-104.5"/>
<text text-anchor="middle" x="79" y="-92.5" font-family="Helvetica,sans-Serif" font-size="10.00">cart.models.Order.as_json</text>
</a>
</g>
</g>
<!-- Node1&#45;&gt;Node2 -->
<g id="edge7_Node000001_Node000002" class="edge">
<title>Node1&#45;&gt;Node2</title>
<g id="a_edge7_Node000001_Node000002"><a xlink:title=" ">
<path fill="none" stroke="#63b8ff" d="M230.35,-69.25C200.15,-74.42 164.7,-80.49 135.81,-85.44"/>
<polygon fill="#63b8ff" stroke="#63b8ff" points="231.11,-72.67 240.37,-67.53 229.93,-65.77 231.11,-72.67"/>
</a>
</g>
</g>
<!-- Node3 -->
<g id="Node000003" class="node">
<title>Node3</title>
<g id="a_Node000003"><a xlink:href="$classcart_1_1models_1_1Order.html#a3e3e284681b6f87aa2a69b7b627b1ac0" xlink:title=" ">
<polygon fill="white" stroke="#666666" points="158,-67.5 0,-67.5 0,-48.5 158,-48.5 158,-67.5"/>
<text text-anchor="middle" x="79" y="-55.5" font-family="Helvetica,sans-Serif" font-size="10.00">cart.models.Order.order_now</text>
</a>
</g>
</g>
<!-- Node1&#45;&gt;Node3 -->
<g id="edge8_Node000001_Node000003" class="edge">
<title>Node1&#45;&gt;Node3</title>
<g id="a_edge8_Node000001_Node000003"><a xlink:title=" ">
<path fill="none" stroke="#63b8ff" d="M183.56,-58C174.94,-58 166.35,-58 158.02,-58"/>
<polygon fill="#63b8ff" stroke="#63b8ff" points="183.69,-61.5 193.69,-58 183.69,-54.5 183.69,-61.5"/>
</a>
</g>
</g>
<!-- Node4 -->
<g id="Node000004" class="node">
<title>Node4</title>
<g id="a_Node000004"><a xlink:href="$classcart_1_1models_1_1Order.html#ab1012bf94977246d12aff3ee6eb3b0d8" xlink:title=" ">
<polygon fill="white" stroke="#666666" points="145,-30 13,-30 13,0 145,0 145,-30"/>
<text text-anchor="start" x="21" y="-18" font-family="Helvetica,sans-Serif" font-size="10.00">cart.models.Order.order</text>
<text text-anchor="middle" x="79" y="-7" font-family="Helvetica,sans-Serif" font-size="10.00">_total</text>
</a>
</g>
</g>
<!-- Node1&#45;&gt;Node4 -->
<g id="edge9_Node000001_Node000004" class="edge">
<title>Node1&#45;&gt;Node4</title>
<g id="a_edge9_Node000001_Node000004"><a xlink:title=" ">
<path fill="none" stroke="#63b8ff" d="M238.18,-46.49C209.46,-40.77 174.65,-33.84 145.01,-27.94"/>
<polygon fill="#63b8ff" stroke="#63b8ff" points="237.57,-49.94 248.06,-48.46 238.94,-43.07 237.57,-49.94"/>
</a>
</g>
</g>
</g>
</svg>
