<?xml version="1.0" encoding="UTF-8" standalone="no"?>
<!DOCTYPE svg PUBLIC "-//W3C//DTD SVG 1.1//EN"
 "http://www.w3.org/Graphics/SVG/1.1/DTD/svg11.dtd">
<!-- Generated by graphviz version 2.43.0 (0)
 -->
<!-- Title: medicines.apps.MedicinesConfig Pages: 1 -->
<svg width="148pt" height="164pt"
 viewBox="0.00 0.00 148.00 164.00" xmlns="http://www.w3.org/2000/svg" xmlns:xlink="http://www.w3.org/1999/xlink">
<g id="graph0" class="graph" transform="scale(1 1) rotate(0) translate(4 160)">
<title>medicines.apps.MedicinesConfig</title>
<!-- Node1 -->
<g id="Node000001" class="node">
<title>Node1</title>
<g id="a_Node000001"><a xlink:title=" ">
<polygon fill="#999999" stroke="transparent" points="140,-60 0,-60 0,0 140,0 140,-60"/>
<text text-anchor="start" x="5" y="-48" font-family="Helvetica,sans-Serif" font-size="10.00">medicines.apps.Medicines</text>
<text text-anchor="start" x="54.5" y="-37" font-family="Helvetica,sans-Serif" font-size="10.00">Config</text>
<text text-anchor="start" x="68" y="-22" font-family="Helvetica,sans-Serif" font-size="10.00"> </text>
<text text-anchor="start" x="68" y="-7" font-family="Helvetica,sans-Serif" font-size="10.00"> </text>
<polygon fill="#666666" stroke="#666666" points="0,-32 0,-32 140,-32 140,-32 0,-32"/>
<polygon fill="#666666" stroke="#666666" points="0,-17 0,-17 140,-17 140,-17 0,-17"/>
<polygon fill="none" stroke="#666666" points="0,0 0,-60 140,-60 140,0 0,0"/>
</a>
</g>
</g>
<!-- Node2 -->
<g id="Node000002" class="node">
<title>Node2</title>
<g id="a_Node000002"><a xlink:title=" ">
<polygon fill="white" stroke="transparent" points="70,-156 10,-156 10,-107 70,-107 70,-156"/>
<text text-anchor="start" x="15" y="-143.5" font-family="Helvetica,sans-Serif" font-size="10.00">AppConfig</text>
<text text-anchor="start" x="38" y="-128.5" font-family="Helvetica,sans-Serif" font-size="10.00"> </text>
<text text-anchor="start" x="38" y="-113.5" font-family="Helvetica,sans-Serif" font-size="10.00"> </text>
<polygon fill="#666666" stroke="#666666" points="10,-138.5 10,-138.5 70,-138.5 70,-138.5 10,-138.5"/>
<polygon fill="#666666" stroke="#666666" points="10,-123.5 10,-123.5 70,-123.5 70,-123.5 10,-123.5"/>
<polygon fill="none" stroke="#666666" points="10,-107 10,-156 70,-156 70,-107 10,-107"/>
</a>
</g>
</g>
<!-- Node2&#45;&gt;Node1 -->
<g id="edge5_Node000001_Node000002" class="edge">
<title>Node2&#45;&gt;Node1</title>
<g id="a_edge5_Node000001_Node000002"><a xlink:title=" ">
<path fill="none" stroke="#63b8ff" d="M50.03,-97.23C53.66,-85.21 57.72,-71.74 61.23,-60.1"/>
<polygon fill="none" stroke="#63b8ff" points="46.65,-96.34 47.11,-106.92 53.35,-98.36 46.65,-96.34"/>
</a>
</g>
</g>
<!-- Node3 -->
<g id="Node000003" class="node">
<title>Node3</title>
<g id="a_Node000003"><a xlink:title=" ">
<polygon fill="white" stroke="transparent" points="111.5,-156 88.5,-156 88.5,-107 111.5,-107 111.5,-156"/>
<text text-anchor="start" x="94" y="-143.5" font-family="Helvetica,sans-Serif" font-size="10.00">str</text>
<text text-anchor="start" x="98.5" y="-128.5" font-family="Helvetica,sans-Serif" font-size="10.00"> </text>
<text text-anchor="start" x="98.5" y="-113.5" font-family="Helvetica,sans-Serif" font-size="10.00"> </text>
<polygon fill="#666666" stroke="#666666" points="89,-138.5 89,-138.5 112,-138.5 112,-138.5 89,-138.5"/>
<polygon fill="#666666" stroke="#666666" points="89,-123.5 89,-123.5 112,-123.5 112,-123.5 89,-123.5"/>
<polygon fill="none" stroke="#666666" points="88.5,-107 88.5,-156 111.5,-156 111.5,-107 88.5,-107"/>
</a>
</g>
</g>
<!-- Node3&#45;&gt;Node1 -->
<g id="edge6_Node000001_Node000003" class="edge">
<title>Node3&#45;&gt;Node1</title>
<g id="a_edge6_Node000001_Node000003"><a xlink:title=" ">
<path fill="none" stroke="#63b8ff" d="M92.89,-106.92C89.72,-96.4 85.89,-83.71 82.28,-71.73"/>
<polygon fill="none" stroke="#63b8ff" points="82.24,-71.59 76.68,-67 78.77,-60.1 84.34,-64.69 82.24,-71.59"/>
</a>
</g>
<text text-anchor="middle" x="106" y="-81" font-family="Helvetica,sans-Serif" font-size="10.00" fill="grey"> +name</text>
</g>
</g>
</svg>
