<?xml version="1.0" encoding="UTF-8" standalone="no"?>
<!DOCTYPE svg PUBLIC "-//W3C//DTD SVG 1.1//EN"
 "http://www.w3.org/Graphics/SVG/1.1/DTD/svg11.dtd">
<!-- Generated by graphviz version 2.43.0 (0)
 -->
<!-- Title: home.forms.UserSignUp Pages: 1 -->
<svg width="138pt" height="157pt"
 viewBox="0.00 0.00 138.00 157.00" xmlns="http://www.w3.org/2000/svg" xmlns:xlink="http://www.w3.org/1999/xlink">
<g id="graph0" class="graph" transform="scale(1 1) rotate(0) translate(4 153)">
<title>home.forms.UserSignUp</title>
<!-- Node1 -->
<g id="Node000001" class="node">
<title>Node1</title>
<g id="a_Node000001"><a xlink:title=" ">
<polygon fill="#999999" stroke="transparent" points="130,-64 0,-64 0,0 130,0 130,-64"/>
<text text-anchor="start" x="5" y="-52" font-family="Helvetica,sans-Serif" font-size="10.00">home.forms.UserSignUp</text>
<text text-anchor="start" x="18" y="-37" font-family="Helvetica,sans-Serif" font-size="10.00">+</text>
<text text-anchor="start" x="45" y="-37" font-family="Helvetica,sans-Serif" font-size="10.00">first_name</text>
<text text-anchor="start" x="18" y="-22" font-family="Helvetica,sans-Serif" font-size="10.00">+</text>
<text text-anchor="start" x="45" y="-22" font-family="Helvetica,sans-Serif" font-size="10.00">last_name</text>
<text text-anchor="start" x="18" y="-7" font-family="Helvetica,sans-Serif" font-size="10.00">+</text>
<text text-anchor="start" x="45" y="-7" font-family="Helvetica,sans-Serif" font-size="10.00">signup()</text>
<polygon fill="#666666" stroke="#666666" points="0,-47 0,-47 130,-47 130,-47 0,-47"/>
<polygon fill="#666666" stroke="#666666" points="0,-17 0,-17 43,-17 43,-17 0,-17"/>
<polygon fill="#666666" stroke="#666666" points="43,-17 43,-17 130,-17 130,-17 43,-17"/>
<polygon fill="none" stroke="#666666" points="0,0 0,-64 130,-64 130,0 0,0"/>
</a>
</g>
</g>
<!-- Node2 -->
<g id="Node000002" class="node">
<title>Node2</title>
<g id="a_Node000002"><a xlink:title=" ">
<polygon fill="white" stroke="transparent" points="99,-149 31,-149 31,-100 99,-100 99,-149"/>
<text text-anchor="start" x="36" y="-136.5" font-family="Helvetica,sans-Serif" font-size="10.00">SignupForm</text>
<text text-anchor="start" x="63" y="-121.5" font-family="Helvetica,sans-Serif" font-size="10.00"> </text>
<text text-anchor="start" x="63" y="-106.5" font-family="Helvetica,sans-Serif" font-size="10.00"> </text>
<polygon fill="#666666" stroke="#666666" points="31,-131.5 31,-131.5 99,-131.5 99,-131.5 31,-131.5"/>
<polygon fill="#666666" stroke="#666666" points="31,-116.5 31,-116.5 99,-116.5 99,-116.5 31,-116.5"/>
<polygon fill="none" stroke="#666666" points="31,-100 31,-149 99,-149 99,-100 31,-100"/>
</a>
</g>
</g>
<!-- Node2&#45;&gt;Node1 -->
<g id="edge3_Node000001_Node000002" class="edge">
<title>Node2&#45;&gt;Node1</title>
<g id="a_edge3_Node000001_Node000002"><a xlink:title=" ">
<path fill="none" stroke="#63b8ff" d="M65,-89.54C65,-81.2 65,-72.31 65,-64.11"/>
<polygon fill="none" stroke="#63b8ff" points="61.5,-89.72 65,-99.72 68.5,-89.72 61.5,-89.72"/>
</a>
</g>
</g>
</g>
</svg>
